<svg width="200" height="144" viewBox="0 0 200 144" fill="none" xmlns="http://www.w3.org/2000/svg">
<path d="M196 0H4C1.79086 0 0 1.79086 0 4V140C0 142.209 1.79086 144 4 144H196C198.209 144 200 142.209 200 140V4C200 1.79086 198.209 0 196 0Z" fill="#F8FAFD"/>
<rect x="74" y="53" width="110" height="2" rx="1" fill="#D9DDEA" fill-opacity="0.6"/>
<rect x="16" y="50" width="48" height="8" rx="4" fill="#71869D"/>
<rect x="16" y="89" width="50" height="2" rx="1" fill="#D9DDEA" fill-opacity="0.6"/>
<rect x="134" y="89" width="50" height="2" rx="1" fill="#D9DDEA" fill-opacity="0.6"/>
<rect x="76" y="86" width="48" height="8" rx="4" fill="#71869D"/>
<rect x="16" y="71" width="110" height="2" rx="1" fill="#D9DDEA" fill-opacity="0.6"/>
<rect x="136" y="68" width="48" height="8" rx="4" fill="#71869D"/>
</svg>
