<svg width="200" height="144" viewBox="0 0 200 144" fill="none" xmlns="http://www.w3.org/2000/svg">
<path d="M196 0H4C1.79086 0 0 1.79086 0 4V140C0 142.209 1.79086 144 4 144H196C198.209 144 200 142.209 200 140V4C200 1.79086 198.209 0 196 0Z" fill="#F8FAFD"/>
<rect x="39" y="23" width="122" height="84" rx="4" fill="#D9DDEA"/>
<path d="M123.726 78.7011L111.244 63.5295C110.94 63.1249 110.46 62.876 109.932 62.876H109.228C108.7 62.8915 108.204 63.1249 107.9 63.5295L103.899 68.4156L95.6104 57.1497C95.2904 56.714 94.7623 56.465 94.2183 56.4961H93.5462C93.0181 56.4961 92.5221 56.7451 92.218 57.1497L76.264 78.7011C75.912 79.2302 75.912 79.8993 76.264 80.4284L76.7281 81.1908C77.0161 81.6888 77.5602 82 78.1523 82H121.87C122.462 82 123.006 81.6888 123.294 81.1908L123.758 80.4284C124.078 79.8993 124.094 79.2302 123.726 78.7011ZM82.3608 77.7519L93.8982 62.1757L98.8748 77.7519H82.3608ZM113.117 56.4961C115.533 56.4961 117.485 54.5977 117.485 52.2481C117.485 49.8984 115.533 48 113.117 48C110.7 48 108.748 49.8984 108.748 52.2481C108.748 54.5977 110.7 56.4961 113.117 56.4961Z" fill="#71869D"/>
<rect x="75" y="114" width="6" height="6" rx="3" fill="#71869D"/>
<rect x="86" y="114" width="6" height="6" rx="3" fill="#A7B4C3"/>
<rect x="97" y="114" width="6" height="6" rx="3" fill="#A7B4C3"/>
<rect x="108" y="114" width="6" height="6" rx="3" fill="#A7B4C3"/>
<rect x="119" y="114" width="6" height="6" rx="3" fill="#A7B4C3"/>
<path d="M16.6061 60.4632C16.9408 60.1285 16.9408 59.5858 16.6061 59.2511C16.2714 58.9163 15.7286 58.9163 15.3939 59.2511L10.2511 64.3939C9.92656 64.7184 9.9152 65.2409 10.2253 65.5792L14.9396 70.722C15.2595 71.071 15.8017 71.0946 16.1506 70.7747C16.4996 70.4548 16.5232 69.9126 16.2033 69.5637L12.0435 65.0258L16.6061 60.4632Z" fill="#71869D"/>
<path d="M183.251 60.4632C182.916 60.1285 182.916 59.5858 183.251 59.2511C183.586 58.9163 184.129 58.9163 184.463 59.2511L189.606 64.3939C189.931 64.7184 189.942 65.2409 189.632 65.5792L184.918 70.722C184.598 71.071 184.056 71.0946 183.707 70.7747C183.358 70.4548 183.334 69.9126 183.654 69.5637L187.814 65.0258L183.251 60.4632Z" fill="#71869D"/>
</svg>
