<svg width="200" height="144" viewBox="0 0 200 144" fill="none" xmlns="http://www.w3.org/2000/svg">
<path d="M196 0H4C1.79086 0 0 1.79086 0 4V140C0 142.209 1.79086 144 4 144H196C198.209 144 200 142.209 200 140V4C200 1.79086 198.209 0 196 0Z" fill="#F8FAFD"/>
<rect x="76" y="53" width="80" height="8" rx="4" fill="#D9DDEA"/>
<rect x="48" y="49" width="16" height="16" rx="4" fill="#71869D"/>
<path d="M59.6723 53.2255C59.9013 52.9562 60.3052 52.9234 60.5745 53.1524C60.8438 53.3813 60.8765 53.7852 60.6476 54.0545L55.2076 60.4545C54.9751 60.728 54.5631 60.7568 54.2948 60.5183L51.4148 57.9583C51.1506 57.7235 51.1268 57.319 51.3617 57.0548C51.5965 56.7906 52.001 56.7668 52.2652 57.0016L54.6561 59.1269L59.6723 53.2255Z" fill="white"/>
<rect x="76" y="84" width="80" height="8" rx="4" fill="#D9DDEA"/>
<path fill-rule="evenodd" clip-rule="evenodd" d="M43 88C43 83.5817 46.5817 80 51 80H60C64.4183 80 68 83.5817 68 88C68 92.4183 64.4183 96 60 96H51C46.5817 96 43 92.4183 43 88Z" fill="#D9DDEA"/>
<path fill-rule="evenodd" clip-rule="evenodd" d="M45 88C45 84.6863 47.6863 82 51 82C54.3137 82 57 84.6863 57 88C57 91.3137 54.3137 94 51 94C47.6863 94 45 91.3137 45 88Z" fill="#71869D"/>
</svg>
