<svg width="200" height="144" viewBox="0 0 200 144" fill="none" xmlns="http://www.w3.org/2000/svg">
<path d="M196 0H4C1.79086 0 0 1.79086 0 4V140C0 142.209 1.79086 144 4 144H196C198.209 144 200 142.209 200 140V4C200 1.79086 198.209 0 196 0Z" fill="#F8FAFD"/>
<rect x="73" y="60" width="95" height="24" rx="4" fill="#D9DDEA"/>
<path opacity="0.65" d="M44.5 81.2826C39.1196 81.2826 34.7174 76.9348 34.7174 71.5C34.7174 66.1196 39.0652 61.7174 44.5 61.7174H50.6413C52.6522 61.7174 54.2826 63.3478 54.2826 65.3587V71.5C54.2826 76.8805 49.8804 81.2826 44.5 81.2826Z" fill="#D9DDEA"/>
<path opacity="0.5" d="M47.2174 78.5109C41.837 78.5109 37.4348 74.1631 37.4348 68.7283C37.4348 63.3479 41.7826 58.9457 47.2174 58.9457H53.3587C55.3696 59 57 60.6305 57 62.587V68.7826C57 74.1631 52.6522 78.5109 47.2174 78.5109Z" fill="#D9DDEA"/>
<path opacity="0.7" d="M41.7826 84C36.3478 84 32 79.6522 32 74.2174C32 68.837 36.3478 64.4348 41.7826 64.4348H47.9239C49.9348 64.4348 51.5109 66.0652 51.5109 68.0218V74.2174C51.5109 79.6522 47.163 84 41.7826 84Z" fill="#D9DDEA"/>
<path d="M41.4565 77.4783V68.9457H46.9999V70.5218H43.5217V72.3696H46.1304V73.9457H43.5217V77.4783H41.4565Z" fill="#1E2022"/>
</svg>
