<svg width="200" height="144" viewBox="0 0 200 144" fill="none" xmlns="http://www.w3.org/2000/svg">
<path d="M196 0H4C1.79086 0 0 1.79086 0 4V140C0 142.209 1.79086 144 4 144H196C198.209 144 200 142.209 200 140V4C200 1.79086 198.209 0 196 0Z" fill="#F8FAFD"/>
<path d="M95.2152 90L92.4246 80.7617H78.472L75.6816 90H67L80.539 51H90.4608L104 90H95.2152ZM90.5124 73.833C87.9286 65.4347 86.4818 60.7106 86.1717 59.6083C85.8617 58.506 85.6033 57.6662 85.4999 56.9838C84.9315 59.2409 83.2779 64.8573 80.539 73.7805H90.5124V73.833Z" fill="#71869D"/>
<path d="M126.399 90.4724L124.858 86.4133H124.652C123.316 88.153 121.929 89.3129 120.541 89.9983C119.154 90.6836 117.305 91 114.992 91C112.218 91 110.008 90.1565 108.415 88.5219C106.822 86.8874 106 84.568 106 81.5102C106 78.3468 107.079 76.0271 109.237 74.4982C111.395 72.9693 114.632 72.1785 119 72.0203L124.036 71.8621V70.5442C124.036 67.5391 122.545 66.0102 119.514 66.0102C117.202 66.0102 114.479 66.7482 111.344 68.1717L108.723 62.6887C112.063 60.8962 115.763 60 119.874 60C123.779 60 126.759 60.8962 128.866 62.636C130.921 64.3758 132 67.0119 132 70.5969V90.4724H126.399ZM124.036 76.6598L120.953 76.7652C118.64 76.8179 116.945 77.2397 115.814 78.0305C114.684 78.8213 114.119 79.9811 114.119 81.6154C114.119 83.9352 115.403 85.0422 117.972 85.0422C119.822 85.0422 121.261 84.515 122.391 83.4081C123.471 82.3007 124.036 80.8774 124.036 79.0849V76.6598Z" fill="#71869D"/>
</svg>
