<svg width="200" height="144" viewBox="0 0 200 144" fill="none" xmlns="http://www.w3.org/2000/svg">
<path d="M196 0H4C1.79086 0 0 1.79086 0 4V140C0 142.209 1.79086 144 4 144H196C198.209 144 200 142.209 200 140V4C200 1.79086 198.209 0 196 0Z" fill="#F8FAFD"/>
<rect x="40.5" y="29.5" width="119" height="85" rx="3.5" stroke="#D9DDEA"/>
<rect x="60" y="39" width="80" height="8" rx="4" fill="#D9DDEA"/>
<rect x="60" y="68" width="80" height="8" rx="4" fill="#D9DDEA"/>
<rect x="60" y="97" width="80" height="8" rx="4" fill="#D9DDEA"/>
<rect x="40" y="57" width="120" height="1" fill="#D9DDEA"/>
<rect x="40" y="86" width="120" height="1" fill="#D9DDEA"/>
</svg>
