<svg width="200" height="144" viewBox="0 0 200 144" fill="none" xmlns="http://www.w3.org/2000/svg">
<path d="M196 0H4C1.79086 0 0 1.79086 0 4V140C0 142.209 1.79086 144 4 144H196C198.209 144 200 142.209 200 140V4C200 1.79086 198.209 0 196 0Z" fill="#F8FAFD"/>
<path d="M107.821 92.4103C107.821 96.5156 104.501 99.8206 100.41 99.8206C96.3198 99.8206 93 96.5156 93 92.4103C93 88.3198 96.3198 85 100.41 85C104.516 85 107.821 88.3198 107.821 92.4103ZM100.618 87.4454C98.9875 87.4454 97.9501 88.1271 97.1349 89.3424C97.0312 89.4906 97.0757 89.713 97.2091 89.8167L98.2465 90.6022C98.3947 90.7208 98.6318 90.6911 98.7504 90.5429C99.2839 89.8612 99.6396 89.4758 100.47 89.4758C101.077 89.4758 101.833 89.876 101.833 90.454C101.833 90.8986 101.463 91.1357 100.855 91.4766C100.158 91.8768 99.2247 92.3658 99.2247 93.5811V93.6997C99.2247 93.8924 99.3877 94.0554 99.5803 94.0554H101.255C101.448 94.0554 101.611 93.8924 101.611 93.6997V93.6552C101.611 92.7956 104.086 92.766 104.086 90.4688C104.101 88.7644 102.293 87.4454 100.618 87.4454ZM100.41 94.8557C99.6545 94.8557 99.032 95.4633 99.032 96.234C99.032 96.9899 99.6396 97.6123 100.41 97.6123C101.181 97.6123 101.789 97.0047 101.789 96.234C101.789 95.4782 101.166 94.8557 100.41 94.8557Z" fill="#71869D"/>
<path d="M55.6109 57.6448H146.594C147.875 57.6448 148.9 58.6699 148.9 59.9514C148.9 61.2328 147.875 62.258 146.594 62.258H55.6109C54.3294 62.258 53.3043 61.2328 53.3043 59.9514C53.3043 58.6699 54.3294 57.6448 55.6109 57.6448Z" fill="#BDC5D1"/>
<path d="M48.2979 44H151.702C152.979 44 154 44.4425 154 44.9956V68.0044C154 68.5575 152.979 69 151.702 69H48.2979C47.0213 69 46 68.5575 46 68.0044V44.9956C46 44.4425 47.0213 44 48.2979 44Z" fill="#71869D"/>
<path d="M67.6408 54H132.359C133.271 54 134 55.1111 134 56.5C134 57.8889 133.271 59 132.359 59H67.6408C66.7292 59 66 57.8889 66 56.5C66 55.1111 66.7292 54 67.6408 54Z" fill="#D9DDEA"/>
<path d="M99.5133 75.7132L92.8754 68.9215H107.253C107.484 68.9215 107.586 69.2034 107.433 69.3572L101.205 75.7132C100.743 76.2001 99.9746 76.2001 99.5133 75.7132Z" fill="#71869D"/>
</svg>
