<svg width="200" height="144" viewBox="0 0 200 144" fill="none" xmlns="http://www.w3.org/2000/svg">
<path d="M196 0H4C1.79086 0 0 1.79086 0 4V140C0 142.209 1.79086 144 4 144H196C198.209 144 200 142.209 200 140V4C200 1.79086 198.209 0 196 0Z" fill="#F8FAFD"/>
<path d="M107.821 109.41C107.821 113.516 104.501 116.821 100.41 116.821C96.3198 116.821 93 113.516 93 109.41C93 105.32 96.3198 102 100.41 102C104.516 102 107.821 105.32 107.821 109.41ZM100.618 104.445C98.9875 104.445 97.9501 105.127 97.1349 106.342C97.0312 106.491 97.0757 106.713 97.2091 106.817L98.2465 107.602C98.3947 107.721 98.6318 107.691 98.7504 107.543C99.2839 106.861 99.6396 106.476 100.47 106.476C101.077 106.476 101.833 106.876 101.833 107.454C101.833 107.899 101.463 108.136 100.855 108.477C100.158 108.877 99.2247 109.366 99.2247 110.581V110.7C99.2247 110.892 99.3877 111.055 99.5803 111.055H101.255C101.448 111.055 101.611 110.892 101.611 110.7V110.655C101.611 109.796 104.086 109.766 104.086 107.469C104.101 105.764 102.293 104.445 100.618 104.445ZM100.41 111.856C99.6545 111.856 99.032 112.463 99.032 113.234C99.032 113.99 99.6396 114.612 100.41 114.612C101.181 114.612 101.789 114.005 101.789 113.234C101.789 112.478 101.166 111.856 100.41 111.856Z" fill="#71869D"/>
<path d="M46.6407 85.6652H155" stroke="#BDC5D1" stroke-width="1.02516"/>
<path d="M55.6109 74.6447H146.594C147.875 74.6447 148.9 75.6699 148.9 76.9514C148.9 78.2328 147.875 79.258 146.594 79.258H55.6109C54.3294 79.258 53.3043 78.2328 53.3043 76.9514C53.3043 75.6699 54.3294 74.6447 55.6109 74.6447Z" fill="#BDC5D1"/>
<path d="M48.3066 28H152.104C153.385 28 154.411 29.0252 154.411 30.3066V83.6149C154.411 84.8963 153.385 85.9215 152.104 85.9215H48.3066C47.0252 85.9215 46 84.8963 46 83.6149V30.3066C46 29.0252 47.0252 28 48.3066 28Z" fill="white" stroke="#D9DDEA" stroke-width="1.02516"/>
<path d="M46.2563 45.4277H154.616" stroke="#D9DDEA" stroke-width="1.02516"/>
<path d="M55.2264 34.4072H146.209C147.491 34.4072 148.516 35.4324 148.516 36.7138C148.516 37.9953 147.491 39.0204 146.209 39.0204H55.2264C53.945 39.0204 52.9198 37.9953 52.9198 36.7138C52.9198 35.4324 53.945 34.4072 55.2264 34.4072Z" fill="#D9DDEA"/>
<path d="M53.6887 52.3475H133.395C134.676 52.3475 135.701 53.3727 135.701 54.6541C135.701 55.9356 134.676 56.9607 133.395 56.9607H53.6887C52.4072 56.9607 51.3821 55.9356 51.3821 54.6541C51.3821 53.3727 52.4072 52.3475 53.6887 52.3475Z" fill="#D9DDEA"/>
<path d="M53.6887 63.6243H114.942C116.223 63.6243 117.249 64.6495 117.249 65.9309C117.249 67.2124 116.223 68.2375 114.942 68.2375H53.6887C52.4072 68.2375 51.3821 67.2124 51.3821 65.9309C51.3821 64.6495 52.4072 63.6243 53.6887 63.6243Z" fill="#D9DDEA"/>
<path d="M53.6887 74.901H139.289C140.571 74.901 141.596 75.9262 141.596 77.2076C141.596 78.4891 140.571 79.5142 139.289 79.5142H53.6887C52.4072 79.5142 51.3821 78.4891 51.3821 77.2076C51.3821 75.9262 52.4072 74.901 53.6887 74.901Z" fill="#D9DDEA"/>
<path d="M99.5133 92.7132L92.8754 85.9215H107.253C107.484 85.9215 107.586 86.2034 107.433 86.3572L101.205 92.7132C100.743 93.2001 99.9746 93.2001 99.5133 92.7132Z" fill="white" stroke="#D9DDEA" stroke-width="1.02516"/>
</svg>
