<svg width="200" height="144" viewBox="0 0 200 144" fill="none" xmlns="http://www.w3.org/2000/svg">
<g clip-path="url(#clip0)">
<path d="M196 0H4C1.79086 0 0 1.79086 0 4V140C0 142.209 1.79086 144 4 144H196C198.209 144 200 142.209 200 140V4C200 1.79086 198.209 0 196 0Z" fill="#F8FAFD"/>
<rect x="16" y="16" width="16" height="6" rx="3" fill="#71869D"/>
<rect x="36" y="16" width="16" height="6" rx="3" fill="#A7B4C3"/>
<rect x="56" y="16" width="16" height="6" rx="3" fill="#A7B4C3"/>
<rect x="76" y="16" width="16" height="6" rx="3" fill="#A7B4C3"/>
<rect x="96" y="16" width="16" height="6" rx="3" fill="#A7B4C3"/>
<rect x="116" y="16" width="16" height="6" rx="3" fill="#A7B4C3"/>
<rect x="16" y="39" width="168" height="70" rx="4" fill="#71869D"/>
<rect x="16" y="119" width="168" height="30" rx="4" fill="#D9DDEA"/>
</g>
<defs>
<clipPath id="clip0">
<rect width="200" height="144" fill="white"/>
</clipPath>
</defs>
</svg>
