<svg width="200" height="144" viewBox="0 0 200 144" fill="none" xmlns="http://www.w3.org/2000/svg">
<path d="M196 0H4C1.79086 0 0 1.79086 0 4V140C0 142.209 1.79086 144 4 144H196C198.209 144 200 142.209 200 140V4C200 1.79086 198.209 0 196 0Z" fill="#F8FAFD"/>
<path opacity="0.3" fill-rule="evenodd" clip-rule="evenodd" d="M100 91C91.1634 91 84 83.8366 84 75C84 66.1634 91.1634 59 100 59C108.837 59 116 66.1634 116 75C116 83.8366 108.837 91 100 91Z" fill="#71869D"/>
<path fill-rule="evenodd" clip-rule="evenodd" d="M102 59.1238V57H104C105.105 57 106 56.1046 106 55C106 53.8954 105.105 53 104 53H96C94.8954 53 94 53.8954 94 55C94 56.1046 94.8954 57 96 57H98V59.1238C98.6552 59.0421 99.3227 59 100 59C100.677 59 101.345 59.0421 102 59.1238Z" fill="#71869D"/>
<path fill-rule="evenodd" clip-rule="evenodd" d="M112.334 64.8078L114.607 62.5355C114.997 62.145 114.997 61.5118 114.607 61.1213L113.192 59.7071C112.802 59.3166 112.169 59.3166 111.778 59.7071L109.42 62.0654C110.502 62.855 111.482 63.7771 112.334 64.8078Z" fill="#71869D"/>
<path fill-rule="evenodd" clip-rule="evenodd" d="M98.9644 64.4617C98.9845 64.2012 99.2017 64 99.463 64H100.537C100.798 64 101.015 64.2012 101.035 64.4617L101.959 76.4617C101.981 76.752 101.751 77 101.46 77H98.5399C98.2486 77 98.019 76.752 98.0414 76.4617L98.9644 64.4617Z" fill="#71869D"/>
</svg>
