<svg width="200" height="144" viewBox="0 0 200 144" fill="none" xmlns="http://www.w3.org/2000/svg">
<path d="M196 0H4C1.79086 0 0 1.79086 0 4V140C0 142.209 1.79086 144 4 144H196C198.209 144 200 142.209 200 140V4C200 1.79086 198.209 0 196 0Z" fill="#F8FAFD"/>
<path d="M53.125 71.375C53.125 72.2725 52.3975 73 51.5 73C50.6025 73 49.875 72.2725 49.875 71.375C49.875 70.4775 50.6025 69.75 51.5 69.75C52.3975 69.75 53.125 70.4775 53.125 71.375Z" fill="#71869D"/>
<path d="M59.625 71.375C59.625 72.2725 58.8975 73 58 73C57.1025 73 56.375 72.2725 56.375 71.375C56.375 70.4775 57.1025 69.75 58 69.75C58.8975 69.75 59.625 70.4775 59.625 71.375Z" fill="#71869D"/>
<path d="M64.5 73C65.3975 73 66.125 72.2725 66.125 71.375C66.125 70.4775 65.3975 69.75 64.5 69.75C63.6025 69.75 62.875 70.4775 62.875 71.375C62.875 72.2725 63.6025 73 64.5 73Z" fill="#71869D"/>
<path d="M48.5176 84.0548L48.5505 84.0483C51.5233 83.459 53.3417 82.6803 54.1859 82.2526C55.392 82.576 56.6728 82.75 58 82.75C65.1797 82.75 71 77.6572 71 71.375C71 65.0928 65.1797 60 58 60C50.8203 60 45 65.0928 45 71.375C45 74.2364 46.2075 76.8511 48.2009 78.8501C48.0809 80.1031 47.7531 81.4474 47.3505 82.6169L47.3442 82.6353C47.2952 82.7771 47.2452 82.9163 47.1942 83.0524C47.1141 83.2666 47.0318 83.4733 46.9483 83.6704C46.8206 83.9722 47.0681 84.3105 47.3915 84.2576C47.6205 84.2201 47.8437 84.1813 48.0612 84.1415C48.2162 84.1131 48.3684 84.0842 48.5176 84.0548ZM49.8185 79.005C49.8646 78.523 49.6935 78.0455 49.3516 77.7027C47.6281 75.9744 46.625 73.7606 46.625 71.375C46.625 66.1873 51.5072 61.625 58 61.625C64.4928 61.625 69.375 66.1873 69.375 71.375C69.375 76.5627 64.4928 81.125 58 81.125C56.815 81.125 55.6757 80.9696 54.6067 80.683C54.2199 80.5793 53.8085 80.622 53.4513 80.803C52.8221 81.1219 51.4377 81.7296 49.171 82.2535C49.4769 81.2093 49.7151 80.0851 49.8185 79.005Z" fill="#71869D"/>
<path d="M88.6163 59L87 60.6163L90.5574 65.5966C90.8608 66.0214 91.3506 66.2735 91.8726 66.2735H91.9877C92.4163 66.2735 92.8275 66.4438 93.1306 66.7469L97.4543 71.0706L93.2245 75.3612C92.7884 75.2324 92.3268 75.1633 91.849 75.1633C89.171 75.1633 87 77.3343 87 80.0123C87 82.6904 89.171 84.8613 91.849 84.8613C94.527 84.8613 96.698 82.6904 96.698 80.0123C96.698 79.5346 96.6289 79.0729 96.5002 78.6369L100.791 74.4071L102.355 75.9715L101.863 77.4483C101.669 78.0291 101.82 78.6695 102.253 79.1024L107.678 84.5266C108.309 85.1578 109.332 85.1578 109.963 84.5266L112.527 81.9634C113.158 81.3322 113.158 80.3088 112.527 79.6776L107.102 74.2534C106.669 73.8205 106.029 73.6693 105.448 73.8629L103.972 74.3552L102.419 72.8023L106.75 68.5321C107.153 68.6403 107.576 68.698 108.012 68.698C110.69 68.698 112.861 66.527 112.861 63.849C112.861 63.4146 112.804 62.9936 112.697 62.593L109.236 66.0536L106.396 65.4653L105.808 62.6249L109.268 59.1642C108.868 59.0571 108.447 59 108.012 59C105.334 59 103.163 61.171 103.163 63.849C103.163 64.2856 103.221 64.7087 103.329 65.1112L99.0591 69.4427L94.7469 65.1306C94.4438 64.8275 94.2735 64.4163 94.2735 63.9877V63.8726C94.2735 63.3506 94.0214 62.8608 93.5966 62.5574L88.6163 59ZM104.208 76.2082C104.524 75.8926 105.036 75.8926 105.351 76.2082L110.2 81.0572C110.516 81.3728 110.516 81.8845 110.2 82.2001C109.885 82.5157 109.373 82.5157 109.057 82.2001L104.208 77.3511C103.893 77.0355 103.893 76.5238 104.208 76.2082ZM91.849 76.7796L92.6104 77.1708L93.4653 77.2127L93.9291 77.9322L94.6486 78.396L94.6905 79.2509L95.0817 80.0123L94.6905 80.7737L94.6486 81.6286L93.9291 82.0924L93.4653 82.8119L92.6104 82.8538L91.849 83.245L91.0876 82.8538L90.2327 82.8119L89.7689 82.0924L89.0494 81.6286L89.0075 80.7737L88.6163 80.0123L89.0075 79.2509L89.0494 78.396L89.7689 77.9322L90.2327 77.2127L91.0876 77.1708L91.849 76.7796Z" fill="#71869D"/>
<path fill-rule="evenodd" clip-rule="evenodd" d="M154.589 58.1294C154.844 58.2873 155 58.5663 155 58.8667V84.8667C155 85.3453 154.612 85.7333 154.133 85.7333H148.933C148.455 85.7333 148.067 85.3453 148.067 84.8667V82.2667H146.333V84.8667C146.333 85.3453 145.945 85.7333 145.467 85.7333H129.867C129.388 85.7333 129 85.3453 129 84.8667V75.3333C129 74.9603 129.239 74.6291 129.593 74.5111L139.4 71.242V65.8C139.4 65.4717 139.585 65.1716 139.879 65.0248L153.746 58.0915C154.014 57.9572 154.333 57.9715 154.589 58.1294ZM139.4 73.0691L130.733 75.958V84H139.4V73.0691ZM141.133 84H144.6V81.4C144.6 80.9214 144.988 80.5333 145.467 80.5333H148.933C149.412 80.5333 149.8 80.9214 149.8 81.4V84H153.267V60.269L141.133 66.3356V84Z" fill="#71869D"/>
<path d="M132.467 77.0667H134.2V78.8H132.467V77.0667Z" fill="#71869D"/>
<path d="M135.933 77.0667H137.667V78.8H135.933V77.0667Z" fill="#71869D"/>
<path d="M132.467 80.5333H134.2V82.2667H132.467V80.5333Z" fill="#71869D"/>
<path d="M135.933 80.5333H137.667V82.2667H135.933V80.5333Z" fill="#71869D"/>
<path d="M142.867 73.6H144.6V75.3333H142.867V73.6Z" fill="#71869D"/>
<path d="M146.333 73.6H148.067V75.3333H146.333V73.6Z" fill="#71869D"/>
<path d="M142.867 77.0667H144.6V78.8H142.867V77.0667Z" fill="#71869D"/>
<path d="M146.333 77.0667H148.067V78.8H146.333V77.0667Z" fill="#71869D"/>
<path d="M149.8 73.6H151.533V75.3333H149.8V73.6Z" fill="#71869D"/>
<path d="M149.8 77.0667H151.533V78.8H149.8V77.0667Z" fill="#71869D"/>
<path d="M142.867 70.1333H144.6V71.8667H142.867V70.1333Z" fill="#71869D"/>
<path d="M146.333 70.1333H148.067V71.8667H146.333V70.1333Z" fill="#71869D"/>
<path d="M149.8 70.1333H151.533V71.8667H149.8V70.1333Z" fill="#71869D"/>
<path d="M142.867 66.6667H144.6V68.4H142.867V66.6667Z" fill="#71869D"/>
<path d="M146.333 66.6667H148.067V68.4H146.333V66.6667Z" fill="#71869D"/>
<path d="M149.8 66.6667H151.533V68.4H149.8V66.6667Z" fill="#71869D"/>
<path d="M149.8 63.2H151.533V64.9333H149.8V63.2Z" fill="#71869D"/>
</svg>
