<svg width="200" height="144" viewBox="0 0 200 144" fill="none" xmlns="http://www.w3.org/2000/svg">
<path d="M196 0H4C1.79086 0 0 1.79086 0 4V140C0 142.209 1.79086 144 4 144H196C198.209 144 200 142.209 200 140V4C200 1.79086 198.209 0 196 0Z" fill="#F8FAFD"/>
<rect x="20.5" y="36.5" width="159" height="71" rx="3.5" fill="#F8FAFD" stroke="#D9DDEA"/>
<rect x="71" y="53" width="76.9111" height="5.80461" rx="2.90231" fill="#D9DDEA"/>
<rect x="71" y="66.0604" width="97.2272" height="5.80461" rx="2.90231" fill="#D9DDEA"/>
<rect x="33" y="91" width="135" height="6" rx="3" fill="#D9DDEA"/>
<path d="M33 61C33 68.732 39.268 75 47 75C54.732 75 61 68.732 61 61C61 53.268 54.732 47 47 47C39.268 47 33 53.268 33 61Z" fill="#D9DDEA"/>
<path d="M47 59.775C49.0297 59.775 50.675 58.1296 50.675 56.1C50.675 54.0703 49.0297 52.425 47 52.425C44.9704 52.425 43.325 54.0703 43.325 56.1C43.325 58.1296 44.9704 59.775 47 59.775Z" fill="#71869D"/>
<path d="M53.895 66.11C51.06 69.925 45.6875 70.7125 41.8725 67.895C41.19 67.3875 40.595 66.7925 40.0875 66.11C39.8425 65.7425 39.8075 65.27 40 64.885L40.2625 64.3425C40.875 63.0475 42.17 62.225 43.605 62.225H50.4125C51.8125 62.225 53.09 63.03 53.72 64.29L54 64.8675C54.175 65.27 54.1575 65.7425 53.895 66.11Z" fill="#71869D"/>
</svg>
