<svg width="200" height="144" viewBox="0 0 200 144" fill="none" xmlns="http://www.w3.org/2000/svg">
<path d="M196 0H4C1.79086 0 0 1.79086 0 4V140C0 142.209 1.79086 144 4 144H196C198.209 144 200 142.209 200 140V4C200 1.79086 198.209 0 196 0Z" fill="#F8FAFD"/>
<path d="M81 72C81 82.4934 89.5066 91 100 91C110.493 91 119 82.4934 119 72C119 61.5066 110.493 53 100 53C89.5066 53 81 61.5066 81 72Z" fill="#D9DDEA"/>
<path d="M100 70.3375C102.755 70.3375 104.988 68.1045 104.988 65.35C104.988 62.5955 102.755 60.3625 100 60.3625C97.2455 60.3625 95.0125 62.5955 95.0125 65.35C95.0125 68.1045 97.2455 70.3375 100 70.3375Z" fill="#71869D"/>
<path d="M109.357 78.935C105.51 84.1125 98.2187 85.1812 93.0412 81.3575C92.115 80.6687 91.3075 79.8612 90.6187 78.935C90.2862 78.4362 90.2387 77.795 90.5 77.2725L90.8562 76.5362C91.6875 74.7787 93.445 73.6625 95.3925 73.6625H104.631C106.531 73.6625 108.265 74.755 109.12 76.465L109.5 77.2487C109.737 77.795 109.714 78.4362 109.357 78.935Z" fill="#71869D"/>
</svg>
