<svg width="200" height="144" viewBox="0 0 200 144" fill="none" xmlns="http://www.w3.org/2000/svg">
<path d="M196 0H4C1.79086 0 0 1.79086 0 4V140C0 142.209 1.79086 144 4 144H196C198.209 144 200 142.209 200 140V4C200 1.79086 198.209 0 196 0Z" fill="#F8FAFD"/>
<path d="M76 60H58.8572C56.9636 60 55.4286 61.535 55.4286 63.4286V80.5714C55.4286 82.465 56.9636 84 58.8572 84H76C77.8936 84 79.4286 82.465 79.4286 80.5714V63.4286C79.4286 61.535 77.8936 60 76 60Z" fill="#71869D"/>
<path d="M68.9432 67.1688H67.224L64.7451 68.7614V70.4172L67.0779 68.9269H67.1364V77.1429H68.9432V67.1688Z" fill="white"/>
<path d="M108.571 60H91.4286C89.535 60 88 61.535 88 63.4286V80.5714C88 82.465 89.535 84 91.4286 84H108.571C110.465 84 112 82.465 112 80.5714V63.4286C112 61.535 110.465 60 108.571 60Z" fill="#D9DDEA"/>
<path d="M141.143 60H124C122.106 60 120.571 61.535 120.571 63.4286V80.5714C120.571 82.465 122.106 84 124 84H141.143C143.036 84 144.571 82.465 144.571 80.5714V63.4286C144.571 61.535 143.036 60 141.143 60Z" fill="#D9DDEA"/>
<path d="M40.6061 67.4632C40.9408 67.1285 40.9408 66.5858 40.6061 66.2511C40.2714 65.9163 39.7286 65.9163 39.3939 66.2511L34.2511 71.3939C33.9266 71.7184 33.9152 72.2409 34.2253 72.5792L38.9396 77.722C39.2595 78.071 39.8017 78.0946 40.1506 77.7747C40.4996 77.4548 40.5232 76.9126 40.2033 76.5637L36.0435 72.0258L40.6061 67.4632Z" fill="#D9DDEA"/>
<path d="M159.394 67.4632C159.059 67.1285 159.059 66.5858 159.394 66.2511C159.729 65.9163 160.271 65.9163 160.606 66.2511L165.749 71.3939C166.073 71.7184 166.085 72.2409 165.775 72.5792L161.06 77.722C160.741 78.071 160.198 78.0946 159.849 77.7747C159.5 77.4548 159.477 76.9126 159.797 76.5637L163.956 72.0258L159.394 67.4632Z" fill="#D9DDEA"/>
</svg>
