<svg width="200" height="144" viewBox="0 0 200 144" fill="none" xmlns="http://www.w3.org/2000/svg">
<path d="M196 0H4C1.79086 0 0 1.79086 0 4V140C0 142.209 1.79086 144 4 144H196C198.209 144 200 142.209 200 140V4C200 1.79086 198.209 0 196 0Z" fill="#F8FAFD"/>
<mask id="path-2-inside-1" fill="white">
<path d="M100 85.7326C100 86.4326 100.568 87.0056 101.266 86.9465C103.786 86.733 106.219 85.8849 108.334 84.472C110.8 82.8238 112.723 80.4811 113.858 77.7403C114.994 74.9994 115.291 71.9834 114.712 69.0736C114.133 66.1639 112.704 63.4912 110.607 61.3934C108.509 59.2956 105.836 57.867 102.926 57.2882C100.017 56.7094 97.0006 57.0065 94.2598 58.1418C91.5189 59.2771 89.1762 61.1997 87.528 63.6664C86.1151 65.7809 85.267 68.2138 85.0535 70.7341C84.9944 71.4315 85.5674 72 86.2674 72C86.9674 72 87.5281 71.4311 87.5992 70.7347C87.8051 68.7165 88.5014 66.7721 89.6356 65.0747C91.0053 63.0248 92.9521 61.4271 95.2298 60.4836C97.5075 59.5402 100.014 59.2933 102.432 59.7743C104.85 60.2553 107.071 61.4425 108.814 63.1858C110.558 64.9291 111.745 67.1501 112.226 69.5682C112.707 71.9862 112.46 74.4925 111.516 76.7702C110.573 79.0479 108.975 80.9947 106.925 82.3644C105.228 83.4986 103.284 84.1949 101.265 84.4008C100.569 84.4719 100 85.0326 100 85.7326Z"/>
</mask>
<path d="M100 85.7326C100 86.4326 100.568 87.0056 101.266 86.9465C103.786 86.733 106.219 85.8849 108.334 84.472C110.8 82.8238 112.723 80.4811 113.858 77.7403C114.994 74.9994 115.291 71.9834 114.712 69.0736C114.133 66.1639 112.704 63.4912 110.607 61.3934C108.509 59.2956 105.836 57.867 102.926 57.2882C100.017 56.7094 97.0006 57.0065 94.2598 58.1418C91.5189 59.2771 89.1762 61.1997 87.528 63.6664C86.1151 65.7809 85.267 68.2138 85.0535 70.7341C84.9944 71.4315 85.5674 72 86.2674 72C86.9674 72 87.5281 71.4311 87.5992 70.7347C87.8051 68.7165 88.5014 66.7721 89.6356 65.0747C91.0053 63.0248 92.9521 61.4271 95.2298 60.4836C97.5075 59.5402 100.014 59.2933 102.432 59.7743C104.85 60.2553 107.071 61.4425 108.814 63.1858C110.558 64.9291 111.745 67.1501 112.226 69.5682C112.707 71.9862 112.46 74.4925 111.516 76.7702C110.573 79.0479 108.975 80.9947 106.925 82.3644C105.228 83.4986 103.284 84.1949 101.265 84.4008C100.569 84.4719 100 85.0326 100 85.7326Z" stroke="#71869D" stroke-width="8" mask="url(#path-2-inside-1)"/>
</svg>
