<svg width="200" height="144" viewBox="0 0 200 144" fill="none" xmlns="http://www.w3.org/2000/svg">
<path d="M196 0H4C1.79086 0 0 1.79086 0 4V140C0 142.209 1.79086 144 4 144H196C198.209 144 200 142.209 200 140V4C200 1.79086 198.209 0 196 0Z" fill="#F8FAFD"/>
<path d="M196 0H4C1.79086 0 0 1.79086 0 4V140C0 142.209 1.79086 144 4 144H196C198.209 144 200 142.209 200 140V4C200 1.79086 198.209 0 196 0Z" fill="#9CAABA" fill-opacity="0.5"/>
<rect x="39" y="30" width="122" height="84" rx="4" fill="white"/>
<path d="M123.726 85.7011L111.244 70.5295C110.94 70.1249 110.46 69.876 109.932 69.876H109.228C108.7 69.8915 108.204 70.1249 107.9 70.5295L103.899 75.4156L95.6104 64.1497C95.2904 63.714 94.7623 63.465 94.2183 63.4961H93.5462C93.0181 63.4961 92.5221 63.7451 92.218 64.1497L76.264 85.7011C75.912 86.2302 75.912 86.8993 76.264 87.4284L76.7281 88.1908C77.0161 88.6888 77.5602 89 78.1523 89H121.87C122.462 89 123.006 88.6888 123.294 88.1908L123.758 87.4284C124.078 86.8993 124.094 86.2302 123.726 85.7011ZM82.3608 84.7519L93.8982 69.1757L98.8748 84.7519H82.3608ZM113.117 63.4961C115.533 63.4961 117.485 61.5977 117.485 59.2481C117.485 56.8984 115.533 55 113.117 55C110.7 55 108.748 56.8984 108.748 59.2481C108.748 61.5977 110.7 63.4961 113.117 63.4961Z" fill="#BDC5D1"/>
<rect x="185" y="7" width="8" height="8" rx="4" fill="#71869D"/>
<rect x="172" y="7" width="8" height="8" rx="4" fill="#A7B4C3"/>
<path d="M16.6061 67.4632C16.9408 67.1285 16.9408 66.5858 16.6061 66.2511C16.2714 65.9163 15.7286 65.9163 15.3939 66.2511L10.2511 71.3939C9.92656 71.7184 9.9152 72.2409 10.2253 72.5792L14.9396 77.722C15.2595 78.071 15.8017 78.0946 16.1506 77.7747C16.4996 77.4548 16.5232 76.9126 16.2033 76.5637L12.0435 72.0258L16.6061 67.4632Z" fill="#71869D"/>
<path d="M183.251 67.4632C182.916 67.1285 182.916 66.5858 183.251 66.2511C183.586 65.9163 184.129 65.9163 184.463 66.2511L189.606 71.3939C189.931 71.7184 189.942 72.2409 189.632 72.5792L184.918 77.722C184.598 78.071 184.055 78.0946 183.707 77.7747C183.358 77.4548 183.334 76.9126 183.654 76.5637L187.814 72.0258L183.251 67.4632Z" fill="#71869D"/>
</svg>
