<svg width="200" height="144" viewBox="0 0 200 144" fill="none" xmlns="http://www.w3.org/2000/svg">
<g clip-path="url(#clip0)">
<path d="M196 0H4C1.79086 0 0 1.79086 0 4V140C0 142.209 1.79086 144 4 144H196C198.209 144 200 142.209 200 140V4C200 1.79086 198.209 0 196 0Z" fill="#F3F4F6"/>
<g filter="url(#filter0_d)">
<path d="M27 0H173V120C173 122.209 171.209 124 169 124H31C28.7909 124 27 122.209 27 120V0Z" fill="white"/>
<path d="M27.5 0.5H172.5V120C172.5 121.933 170.933 123.5 169 123.5H31C29.067 123.5 27.5 121.933 27.5 120V0.5Z" stroke="#E7EAF3"/>
</g>
<rect x="66" y="76" width="18" height="3" rx="1.5" fill="#D9DDEA"/>
<rect x="88" y="76" width="21" height="3" rx="1.5" fill="#D9DDEA"/>
<rect x="113" y="76" width="21" height="3" rx="1.5" fill="#D9DDEA"/>
<path d="M60.7527 65.3086H61.6401C61.6227 64.4485 60.8894 63.8395 59.8056 63.8395C58.7367 63.8395 57.9338 64.4411 57.9363 65.3409C57.9363 66.0717 58.4558 66.4918 59.2935 66.7081L59.8727 66.8572C60.4221 66.9964 60.785 67.168 60.7875 67.5632C60.785 67.9982 60.3724 68.2891 59.7708 68.2891C59.1941 68.2891 58.7467 68.0305 58.7094 67.4961H57.8021C57.8394 68.5078 58.5926 69.0771 59.7783 69.0771C60.9988 69.0771 61.7073 68.468 61.7097 67.5707C61.7073 66.6882 60.9789 66.2855 60.2133 66.104L59.736 65.9847C59.3184 65.8853 58.866 65.7088 58.871 65.2837C58.8734 64.9009 59.2165 64.62 59.7932 64.62C60.3426 64.62 60.7055 64.8761 60.7527 65.3086ZM62.4921 69H63.392V65.1818H62.4921V69ZM62.9446 64.6399C63.2304 64.6399 63.4641 64.4212 63.4641 64.1527C63.4641 63.8817 63.2304 63.663 62.9446 63.663C62.6562 63.663 62.4225 63.8817 62.4225 64.1527C62.4225 64.4212 62.6562 64.6399 62.9446 64.6399ZM65.9778 70.5114C67.0095 70.5114 67.7701 70.0391 67.7701 69.0621V65.1818H66.8827V65.8132H66.833C66.6962 65.5373 66.4104 65.1321 65.7367 65.1321C64.8543 65.1321 64.1607 65.8232 64.1607 67.0785C64.1607 68.3239 64.8543 68.9453 65.7342 68.9453C66.388 68.9453 66.6938 68.5948 66.833 68.3139H66.8777V69.0373C66.8777 69.5991 66.5048 69.8303 65.9928 69.8303C65.4509 69.8303 65.2122 69.5742 65.1028 69.3505L64.2925 69.5469C64.4565 70.0813 65.0059 70.5114 65.9778 70.5114ZM65.9853 68.2393C65.3912 68.2393 65.078 67.777 65.078 67.0735C65.078 66.38 65.3862 65.8704 65.9853 65.8704C66.5645 65.8704 66.8827 66.3501 66.8827 67.0735C66.8827 67.8018 66.5595 68.2393 65.9853 68.2393ZM69.5922 66.7628C69.5922 66.2109 69.9253 65.8928 70.4001 65.8928C70.8649 65.8928 71.1433 66.1985 71.1433 66.7081V69H72.0432V66.5689C72.0457 65.6541 71.5237 65.1321 70.7357 65.1321C70.1639 65.1321 69.7712 65.4055 69.5972 65.8306H69.5524V65.1818H68.6923V69H69.5922V66.7628ZM77.1279 67.3942C77.1279 67.9759 76.7128 68.2642 76.315 68.2642C75.8825 68.2642 75.5941 67.9585 75.5941 67.4737V65.1818H74.6943V67.6129C74.6943 68.5302 75.2163 69.0497 75.967 69.0497C76.5388 69.0497 76.9415 68.7489 77.1155 68.3214H77.1552V69H78.0277V65.1818H77.1279V67.3942ZM78.9531 70.4318H79.8529V68.3984H79.8902C80.0319 68.6768 80.3277 69.0671 80.984 69.0671C81.8838 69.0671 82.5575 68.3537 82.5575 67.0959C82.5575 65.8232 81.8639 65.1321 80.9815 65.1321C80.3078 65.1321 80.0269 65.5373 79.8902 65.8132H79.838V65.1818H78.9531V70.4318ZM79.8355 67.0909C79.8355 66.3501 80.1537 65.8704 80.7329 65.8704C81.332 65.8704 81.6402 66.38 81.6402 67.0909C81.6402 67.8068 81.327 68.3288 80.7329 68.3288C80.1587 68.3288 79.8355 67.8317 79.8355 67.0909ZM86.971 65.1818H86.2178V64.267H85.318V65.1818H84.7761V65.8778H85.318V68.0007C85.313 68.7191 85.835 69.0721 86.5111 69.0522C86.7672 69.0447 86.9437 68.995 87.0406 68.9627L86.889 68.2592C86.8393 68.2717 86.7373 68.294 86.6255 68.294C86.3993 68.294 86.2178 68.2145 86.2178 67.8516V65.8778H86.971V65.1818ZM89.3481 69.0746C90.4667 69.0746 91.1776 68.2866 91.1776 67.1058C91.1776 65.9226 90.4667 65.1321 89.3481 65.1321C88.2294 65.1321 87.5185 65.9226 87.5185 67.1058C87.5185 68.2866 88.2294 69.0746 89.3481 69.0746ZM89.353 68.3537C88.7341 68.3537 88.4308 67.8018 88.4308 67.1033C88.4308 66.4048 88.7341 65.8455 89.353 65.8455C89.962 65.8455 90.2653 66.4048 90.2653 67.1033C90.2653 67.8018 89.962 68.3537 89.353 68.3537ZM95.3432 69.0746C96.4618 69.0746 97.1727 68.2866 97.1727 67.1058C97.1727 65.9226 96.4618 65.1321 95.3432 65.1321C94.2246 65.1321 93.5136 65.9226 93.5136 67.1058C93.5136 68.2866 94.2246 69.0746 95.3432 69.0746ZM95.3481 68.3537C94.7292 68.3537 94.4259 67.8018 94.4259 67.1033C94.4259 66.4048 94.7292 65.8455 95.3481 65.8455C95.9572 65.8455 96.2604 66.4048 96.2604 67.1033C96.2604 67.8018 95.9572 68.3537 95.3481 68.3537ZM100.37 67.3942C100.37 67.9759 99.9549 68.2642 99.5572 68.2642C99.1247 68.2642 98.8363 67.9585 98.8363 67.4737V65.1818H97.9365V67.6129C97.9365 68.5302 98.4585 69.0497 99.2092 69.0497C99.7809 69.0497 100.184 68.7489 100.358 68.3214H100.397V69H101.27V65.1818H100.37V67.3942ZM102.195 69H103.095V66.7553C103.095 66.2706 103.461 65.9276 103.955 65.9276C104.107 65.9276 104.296 65.9549 104.373 65.9798V65.152C104.291 65.1371 104.149 65.1271 104.05 65.1271C103.612 65.1271 103.247 65.3757 103.108 65.8182H103.068V65.1818H102.195V69ZM107.607 66.7628C107.607 66.2109 107.94 65.8928 108.415 65.8928C108.88 65.8928 109.158 66.1985 109.158 66.7081V69H110.058V66.5689C110.06 65.6541 109.538 65.1321 108.75 65.1321C108.179 65.1321 107.786 65.4055 107.612 65.8306H107.567V65.1818H106.707V69H107.607V66.7628ZM112.663 69.0746C113.553 69.0746 114.164 68.6396 114.323 67.9759L113.483 67.8814C113.361 68.2045 113.063 68.3736 112.675 68.3736C112.094 68.3736 111.708 67.9908 111.701 67.337H114.361V67.0611C114.361 65.7212 113.555 65.1321 112.616 65.1321C111.522 65.1321 110.809 65.935 110.809 67.1133C110.809 68.3114 111.512 69.0746 112.663 69.0746ZM111.703 66.7305C111.731 66.2433 112.091 65.8331 112.628 65.8331C113.145 65.8331 113.493 66.2109 113.498 66.7305H111.703ZM115.89 69H116.829L117.545 66.4197H117.597L118.313 69H119.25L120.332 65.1818H119.412L118.751 67.8516H118.713L118.027 65.1818H117.12L116.434 67.8665H116.399L115.728 65.1818H114.811L115.89 69ZM123.978 66.1911C123.853 65.5447 123.336 65.1321 122.441 65.1321C121.522 65.1321 120.895 65.5845 120.898 66.2905C120.895 66.8473 121.238 67.2152 121.972 67.3668L122.623 67.5036C122.973 67.5806 123.137 67.7223 123.137 67.9386C123.137 68.1996 122.854 68.396 122.427 68.396C122.014 68.396 121.745 68.217 121.668 67.8739L120.791 67.9585C120.903 68.6594 121.492 69.0746 122.429 69.0746C123.384 69.0746 124.057 68.5799 124.06 67.8565C124.057 67.3121 123.707 66.979 122.986 66.8224L122.335 66.6832C121.947 66.5962 121.793 66.462 121.795 66.2408C121.793 65.9822 122.079 65.8033 122.454 65.8033C122.869 65.8033 123.088 66.0295 123.157 66.2805L123.978 66.1911ZM125.702 63.9091H124.802V69H125.702V63.9091ZM128.317 69.0746C129.207 69.0746 129.819 68.6396 129.978 67.9759L129.138 67.8814C129.016 68.2045 128.717 68.3736 128.33 68.3736C127.748 68.3736 127.363 67.9908 127.355 67.337H130.015V67.0611C130.015 65.7212 129.21 65.1321 128.27 65.1321C127.176 65.1321 126.463 65.935 126.463 67.1133C126.463 68.3114 127.166 69.0746 128.317 69.0746ZM127.358 66.7305C127.385 66.2433 127.746 65.8331 128.282 65.8331C128.799 65.8331 129.148 66.2109 129.152 66.7305H127.358ZM132.683 65.1818H131.93V64.267H131.03V65.1818H130.488V65.8778H131.03V68.0007C131.025 68.7191 131.547 69.0721 132.223 69.0522C132.479 69.0447 132.656 68.995 132.753 68.9627L132.601 68.2592C132.551 68.2717 132.449 68.294 132.337 68.294C132.111 68.294 131.93 68.2145 131.93 67.8516V65.8778H132.683V65.1818ZM135.342 65.1818H134.589V64.267H133.689V65.1818H133.147V65.8778H133.689V68.0007C133.684 68.7191 134.206 69.0721 134.882 69.0522C135.138 69.0447 135.315 68.995 135.412 68.9627L135.26 68.2592C135.21 68.2717 135.108 68.294 134.997 68.294C134.77 68.294 134.589 68.2145 134.589 67.8516V65.8778H135.342V65.1818ZM137.744 69.0746C138.634 69.0746 139.245 68.6396 139.405 67.9759L138.564 67.8814C138.443 68.2045 138.144 68.3736 137.756 68.3736C137.175 68.3736 136.789 67.9908 136.782 67.337H139.442V67.0611C139.442 65.7212 138.636 65.1321 137.697 65.1321C136.603 65.1321 135.89 65.935 135.89 67.1133C135.89 68.3114 136.593 69.0746 137.744 69.0746ZM136.784 66.7305C136.812 66.2433 137.172 65.8331 137.709 65.8331C138.226 65.8331 138.574 66.2109 138.579 66.7305H136.784ZM140.203 69H141.103V66.7553C141.103 66.2706 141.468 65.9276 141.963 65.9276C142.115 65.9276 142.304 65.9549 142.381 65.9798V65.152C142.299 65.1371 142.157 65.1271 142.057 65.1271C141.62 65.1271 141.255 65.3757 141.115 65.8182H141.076V65.1818H140.203V69Z" fill="#555A60"/>
<path d="M75.7759 61H76.8249L77.7919 57.6715H77.8317L78.8011 61H79.8501L81.3068 55.9091H80.131L79.2884 59.4538H79.2436L78.3164 55.9091H77.3097L76.38 59.4464H76.3377L75.495 55.9091H74.3192L75.7759 61ZM82.5416 61.0721C83.1059 61.0721 83.4713 60.826 83.6578 60.4705H83.6876V61H84.6919V58.4247C84.6919 57.5149 83.9213 57.1321 83.0711 57.1321C82.1563 57.1321 81.5548 57.5696 81.4081 58.2656L82.3875 58.3452C82.4596 58.0916 82.6858 57.9052 83.0661 57.9052C83.4266 57.9052 83.6329 58.0866 83.6329 58.3999V58.4148C83.6329 58.6609 83.3719 58.6932 82.7082 58.7578C81.9525 58.8274 81.2739 59.081 81.2739 59.9336C81.2739 60.6893 81.8133 61.0721 82.5416 61.0721ZM82.8449 60.3413C82.5193 60.3413 82.2856 60.1896 82.2856 59.8988C82.2856 59.6005 82.5317 59.4538 82.9046 59.4016C83.1357 59.3693 83.5136 59.3146 83.6404 59.2301V59.6353C83.6404 60.0355 83.3097 60.3413 82.8449 60.3413ZM86.5724 58.7926C86.5748 58.3004 86.8682 58.0121 87.2957 58.0121C87.7208 58.0121 87.9768 58.2905 87.9743 58.7578V61H89.0333V58.5689C89.0333 57.679 88.5113 57.1321 87.7158 57.1321C87.1491 57.1321 86.7389 57.4105 86.5674 57.8555H86.5226V57.1818H85.5134V61H86.5724V58.7926ZM91.8988 57.1818H91.1804V56.267H90.1214V57.1818H89.5994V57.9773H90.1214V59.9659C90.1165 60.7141 90.6261 61.0845 91.3942 61.0522C91.6676 61.0423 91.8615 60.9876 91.9684 60.9528L91.8018 60.1648C91.7496 60.1747 91.6378 60.1996 91.5384 60.1996C91.3271 60.1996 91.1804 60.12 91.1804 59.8267V57.9773H91.8988V57.1818ZM96.6572 59.3743C96.6597 59.8864 96.3092 60.1548 95.9289 60.1548C95.5287 60.1548 95.2702 59.8739 95.2677 59.424V57.1818H94.2087V59.6129C94.2112 60.5053 94.7332 61.0497 95.5013 61.0497C96.0756 61.0497 96.4882 60.7539 96.6597 60.3065H96.6995V61H97.7162V57.1818H96.6572V59.3743ZM98.5632 62.4318H99.6222V60.3885H99.6545C99.8011 60.7067 100.122 61.0621 100.738 61.0621C101.608 61.0621 102.287 60.3736 102.287 59.0959C102.287 57.7834 101.578 57.1321 100.741 57.1321C100.102 57.1321 99.7962 57.5124 99.6545 57.8232H99.6072V57.1818H98.5632V62.4318ZM99.5998 59.0909C99.5998 58.4098 99.8881 57.9748 100.403 57.9748C100.927 57.9748 101.206 58.4297 101.206 59.0909C101.206 59.7571 100.922 60.2195 100.403 60.2195C99.8931 60.2195 99.5998 59.772 99.5998 59.0909ZM104.4 61.0621C105.016 61.0621 105.337 60.7067 105.484 60.3885H105.528V61H106.572V55.9091H105.516V57.8232H105.484C105.342 57.5124 105.036 57.1321 104.397 57.1321C103.56 57.1321 102.851 57.7834 102.851 59.0959C102.851 60.3736 103.53 61.0621 104.4 61.0621ZM104.735 60.2195C104.216 60.2195 103.933 59.7571 103.933 59.0909C103.933 58.4297 104.211 57.9748 104.735 57.9748C105.25 57.9748 105.538 58.4098 105.538 59.0909C105.538 59.772 105.245 60.2195 104.735 60.2195ZM108.532 61.0721C109.096 61.0721 109.462 60.826 109.648 60.4705H109.678V61H110.682V58.4247C110.682 57.5149 109.911 57.1321 109.061 57.1321C108.147 57.1321 107.545 57.5696 107.398 58.2656L108.378 58.3452C108.45 58.0916 108.676 57.9052 109.056 57.9052C109.417 57.9052 109.623 58.0866 109.623 58.3999V58.4148C109.623 58.6609 109.362 58.6932 108.698 58.7578C107.943 58.8274 107.264 59.081 107.264 59.9336C107.264 60.6893 107.804 61.0721 108.532 61.0721ZM108.835 60.3413C108.509 60.3413 108.276 60.1896 108.276 59.8988C108.276 59.6005 108.522 59.4538 108.895 59.4016C109.126 59.3693 109.504 59.3146 109.631 59.2301V59.6353C109.631 60.0355 109.3 60.3413 108.835 60.3413ZM113.535 57.1818H112.816V56.267H111.757V57.1818H111.235V57.9773H111.757V59.9659C111.752 60.7141 112.262 61.0845 113.03 61.0522C113.303 61.0423 113.497 60.9876 113.604 60.9528L113.438 60.1648C113.385 60.1747 113.274 60.1996 113.174 60.1996C112.963 60.1996 112.816 60.12 112.816 59.8267V57.9773H113.535V57.1818ZM115.923 61.0746C116.868 61.0746 117.504 60.6147 117.653 59.9062L116.674 59.8416C116.567 60.1325 116.294 60.2841 115.941 60.2841C115.411 60.2841 115.076 59.9336 115.076 59.3643V59.3619H117.676V59.071C117.676 57.7734 116.89 57.1321 115.881 57.1321C114.758 57.1321 114.029 57.93 114.029 59.1083C114.029 60.3189 114.748 61.0746 115.923 61.0746ZM115.076 58.7056C115.098 58.2706 115.429 57.9226 115.899 57.9226C116.358 57.9226 116.677 58.2507 116.679 58.7056H115.076ZM121.544 58.2706C121.449 57.5671 120.883 57.1321 119.918 57.1321C118.941 57.1321 118.297 57.5845 118.3 58.3203C118.297 58.892 118.658 59.2624 119.403 59.4116L120.065 59.5433C120.398 59.6104 120.549 59.7322 120.554 59.9237C120.549 60.1499 120.303 60.3114 119.933 60.3114C119.555 60.3114 119.304 60.1499 119.239 59.8391L118.198 59.8938C118.297 60.6246 118.919 61.0746 119.93 61.0746C120.92 61.0746 121.628 60.57 121.631 59.8168C121.628 59.2649 121.268 58.9343 120.527 58.7827L119.836 58.6435C119.481 58.5664 119.349 58.4446 119.351 58.2607C119.349 58.032 119.607 57.8828 119.935 57.8828C120.303 57.8828 120.522 58.0842 120.574 58.3303L121.544 58.2706ZM123.207 59.4737H124.15V59.3892C124.154 58.9045 124.328 58.6783 124.721 58.4421C125.186 58.1662 125.489 57.8008 125.489 57.2166C125.489 56.3466 124.788 55.8395 123.801 55.8395C122.899 55.8395 122.163 56.3118 122.141 57.3061H123.155C123.17 56.9009 123.471 56.6847 123.797 56.6847C124.132 56.6847 124.403 56.9084 124.403 57.2539C124.403 57.5795 124.167 57.7958 123.861 57.9897C123.444 58.2532 123.21 58.5192 123.207 59.3892V59.4737ZM123.697 61.0646C124.015 61.0646 124.291 60.7987 124.294 60.468C124.291 60.1424 124.015 59.8764 123.697 59.8764C123.369 59.8764 123.098 60.1424 123.1 60.468C123.098 60.7987 123.369 61.0646 123.697 61.0646Z" fill="#0ABF53"/>
<path d="M97 41.25C97 40.5596 97.5596 40 98.25 40H105.75C106.44 40 107 40.5596 107 41.25V46.25C107 46.9404 106.44 47.5 105.75 47.5H98.25C97.5596 47.5 97 46.9404 97 46.25V41.25ZM98.25 40.625C97.9048 40.625 97.625 40.9048 97.625 41.25V41.3856L102 44.0106L106.375 41.3856V41.25C106.375 40.9048 106.095 40.625 105.75 40.625H98.25ZM106.375 42.1144L103.401 43.8986L106.375 45.696V42.1144ZM106.353 46.4132L102.795 44.2624L102 44.7394L101.205 44.2624L97.6465 46.4132C97.7183 46.6793 97.9613 46.875 98.25 46.875H105.75C106.039 46.875 106.282 46.6793 106.353 46.4132ZM97.625 45.696L100.599 43.8986L97.625 42.1144V45.696Z" fill="#D9DDEA"/>
<g filter="url(#filter1_d)">
<rect x="128" y="93" width="21" height="11" rx="2" fill="#0ABF53"/>
</g>
<rect x="135" y="98" width="7" height="1" rx="0.5" fill="white"/>
<rect x="51.5" y="93.5" width="71" height="10" rx="1.5" stroke="#D9DDEA"/>
<path d="M0 40H200V4C200 1.79086 198.209 0 196 0H4C1.79086 0 0 1.79086 0 4V40Z" fill="url(#paint0_linear)"/>
</g>
<defs>
<filter id="filter0_d" x="22" y="-2" width="156" height="134" filterUnits="userSpaceOnUse" color-interpolation-filters="sRGB">
<feFlood flood-opacity="0" result="BackgroundImageFix"/>
<feColorMatrix in="SourceAlpha" type="matrix" values="0 0 0 0 0 0 0 0 0 0 0 0 0 0 0 0 0 0 127 0"/>
<feOffset dy="3"/>
<feGaussianBlur stdDeviation="2.5"/>
<feColorMatrix type="matrix" values="0 0 0 0 0.54902 0 0 0 0 0.596078 0 0 0 0 0.643137 0 0 0 0.125 0"/>
<feBlend mode="normal" in2="BackgroundImageFix" result="effect1_dropShadow"/>
<feBlend mode="normal" in="SourceGraphic" in2="effect1_dropShadow" result="shape"/>
</filter>
<filter id="filter1_d" x="126" y="92" width="25" height="15" filterUnits="userSpaceOnUse" color-interpolation-filters="sRGB">
<feFlood flood-opacity="0" result="BackgroundImageFix"/>
<feColorMatrix in="SourceAlpha" type="matrix" values="0 0 0 0 0 0 0 0 0 0 0 0 0 0 0 0 0 0 127 0"/>
<feOffset dy="1"/>
<feGaussianBlur stdDeviation="1"/>
<feColorMatrix type="matrix" values="0 0 0 0 0.215686 0 0 0 0 0.490196 0 0 0 0 1 0 0 0 0.2 0"/>
<feBlend mode="normal" in2="BackgroundImageFix" result="effect1_dropShadow"/>
<feBlend mode="normal" in="SourceGraphic" in2="effect1_dropShadow" result="shape"/>
</filter>
<linearGradient id="paint0_linear" x1="100" y1="-10" x2="100" y2="51.5" gradientUnits="userSpaceOnUse">
<stop offset="0.256387" stop-color="#F3F4F6"/>
<stop offset="0.749415" stop-color="#F3F4F6" stop-opacity="0"/>
</linearGradient>
<clipPath id="clip0">
<rect width="200" height="144" fill="white"/>
</clipPath>
</defs>
</svg>
