<svg width="200" height="144" viewBox="0 0 200 144" fill="none" xmlns="http://www.w3.org/2000/svg">
<g clip-path="url(#clip0)">
<path d="M196 0H4C1.79086 0 0 1.79086 0 4V140C0 142.209 1.79086 144 4 144H196C198.209 144 200 142.209 200 140V4C200 1.79086 198.209 0 196 0Z" fill="#F3F4F6"/>
<g filter="url(#filter0_d)">
<path d="M27 24C27 21.7909 28.7909 20 31 20H169C171.209 20 173 21.7909 173 24V144H27V24Z" fill="#F5F6F9"/>
<path d="M31 20.5H169C170.933 20.5 172.5 22.067 172.5 24V143.5H27.5V24C27.5 22.067 29.067 20.5 31 20.5Z" stroke="#E7EAF3"/>
</g>
<path d="M28 24C28 22.3431 29.3431 21 31 21H169C170.657 21 172 22.3431 172 24V30H28V24Z" fill="white"/>
<circle cx="37.5" cy="25.5" r="1.5" fill="#ED6B5F"/>
<circle cx="43.5" cy="25.5" r="1.5" fill="#F7D289"/>
<circle cx="49.5" cy="25.5" r="1.5" fill="#61C454"/>
<rect x="40" y="37" width="6" height="6" rx="3" fill="#71869D"/>
<rect x="120" y="38" width="10" height="3" rx="1.5" fill="#D9DDEA"/>
<rect x="40" y="73" width="35" height="3" rx="1.5" fill="#D9DDEA"/>
<g filter="url(#filter1_d)">
<rect x="40" y="95" width="29" height="9" rx="2" fill="#0ABF53"/>
</g>
<g filter="url(#filter2_d)">
<rect x="74" y="95" width="21" height="9" rx="2" fill="white"/>
<rect x="74.5" y="95.5" width="20" height="8" rx="1.5" stroke="#D9DDEA"/>
</g>
<rect x="48" y="99" width="13" height="1" rx="0.5" fill="white"/>
<rect x="80" y="99" width="9" height="1" rx="0.5" fill="#D9DDEA"/>
<rect x="79" y="73" width="21" height="3" rx="1.5" fill="#D9DDEA"/>
<rect x="104" y="73" width="21" height="3" rx="1.5" fill="#D9DDEA"/>
<rect x="40" y="81" width="18" height="3" rx="1.5" fill="#D9DDEA"/>
<rect x="62" y="81" width="21" height="3" rx="1.5" fill="#D9DDEA"/>
<rect x="87" y="81" width="6" height="3" rx="1.5" fill="#D9DDEA"/>
<rect x="135" y="38" width="10" height="3" rx="1.5" fill="#D9DDEA"/>
<rect x="150" y="38" width="10" height="3" rx="1.5" fill="#D9DDEA"/>
<path d="M0 104H200V140C200 142.209 198.209 144 196 144H4C1.79086 144 0 142.209 0 140V104Z" fill="url(#paint0_linear)"/>
<path d="M40.5021 57H42.5629C43.7287 57 44.3004 56.4059 44.3004 55.6129C44.3004 54.8423 43.7536 54.3899 43.2116 54.3626V54.3129C43.7088 54.196 44.1016 53.848 44.1016 53.229C44.1016 52.4709 43.5547 51.9091 42.451 51.9091H40.5021V57ZM41.4244 56.2294V54.7379H42.4411C43.0103 54.7379 43.3633 55.0859 43.3633 55.5408C43.3633 55.946 43.0849 56.2294 42.4162 56.2294H41.4244ZM41.4244 54.0742V52.6697H42.3565C42.8984 52.6697 43.1793 52.9556 43.1793 53.3484C43.1793 53.7958 42.8164 54.0742 42.3366 54.0742H41.4244ZM47.4965 55.3942C47.4965 55.9759 47.0814 56.2642 46.6837 56.2642C46.2512 56.2642 45.9628 55.9585 45.9628 55.4737V53.1818H45.0629V55.6129C45.0629 56.5302 45.585 57.0497 46.3357 57.0497C46.9074 57.0497 47.3101 56.7489 47.4841 56.3214H47.5239V57H48.3964V53.1818H47.4965V55.3942ZM49.3217 57H50.2216V53.1818H49.3217V57ZM49.7741 52.6399C50.06 52.6399 50.2937 52.4212 50.2937 52.1527C50.2937 51.8817 50.06 51.663 49.7741 51.663C49.4858 51.663 49.2521 51.8817 49.2521 52.1527C49.2521 52.4212 49.4858 52.6399 49.7741 52.6399ZM52.0468 51.9091H51.1469V57H52.0468V51.9091ZM54.389 57.0671C55.0453 57.0671 55.3411 56.6768 55.4828 56.3984H55.5375V57H56.4224V51.9091H55.5201V53.8132H55.4828C55.3461 53.5373 55.0652 53.1321 54.3915 53.1321C53.5091 53.1321 52.8155 53.8232 52.8155 55.0959C52.8155 56.3537 53.4892 57.0671 54.389 57.0671ZM54.6401 56.3288C54.046 56.3288 53.7328 55.8068 53.7328 55.0909C53.7328 54.38 54.041 53.8704 54.6401 53.8704C55.2193 53.8704 55.5375 54.3501 55.5375 55.0909C55.5375 55.8317 55.2143 56.3288 54.6401 56.3288ZM60.2164 57.0771C60.8154 57.0771 61.1734 56.7962 61.3374 56.4755H61.3673V57H62.2323V54.4446C62.2323 53.4354 61.4095 53.1321 60.6812 53.1321C59.8783 53.1321 59.2618 53.4901 59.0629 54.1861L59.9031 54.3054C59.9926 54.0444 60.2462 53.8207 60.6862 53.8207C61.1038 53.8207 61.3325 54.0344 61.3325 54.4098V54.4247C61.3325 54.6832 61.0615 54.6957 60.3879 54.7678C59.6471 54.8473 58.9387 55.0685 58.9387 55.9286C58.9387 56.6793 59.488 57.0771 60.2164 57.0771ZM60.45 56.4158C60.0747 56.4158 59.8062 56.2443 59.8062 55.9137C59.8062 55.5682 60.107 55.424 60.5097 55.3668C60.7458 55.3345 61.2181 55.2749 61.335 55.1804V55.6303C61.335 56.0554 60.9919 56.4158 60.45 56.4158ZM66.1549 54.1911C66.0306 53.5447 65.5136 53.1321 64.6187 53.1321C63.699 53.1321 63.0725 53.5845 63.075 54.2905C63.0725 54.8473 63.4156 55.2152 64.1489 55.3668L64.8002 55.5036C65.1507 55.5806 65.3147 55.7223 65.3147 55.9386C65.3147 56.1996 65.0313 56.396 64.6038 56.396C64.1911 56.396 63.9227 56.217 63.8456 55.8739L62.9681 55.9585C63.08 56.6594 63.6691 57.0746 64.6063 57.0746C65.5608 57.0746 66.2345 56.5799 66.2369 55.8565C66.2345 55.3121 65.884 54.979 65.1631 54.8224L64.5118 54.6832C64.124 54.5962 63.9699 54.462 63.9724 54.2408C63.9699 53.9822 64.2558 53.8033 64.6311 53.8033C65.0463 53.8033 65.265 54.0295 65.3346 54.2805L66.1549 54.1911ZM70.6492 53.1818H69.8563V52.881C69.8563 52.5827 69.9806 52.4162 70.3161 52.4162C70.4578 52.4162 70.5771 52.4485 70.6517 52.4709L70.8332 51.7749C70.7164 51.7351 70.4603 51.6705 70.1496 51.6705C69.4859 51.6705 68.9564 52.0508 68.9564 52.8214V53.1818H68.3921V53.8778H68.9564V57H69.8563V53.8778H70.6492V53.1818ZM71.354 57H72.2538V54.7553C72.2538 54.2706 72.6192 53.9276 73.1139 53.9276C73.2655 53.9276 73.4545 53.9549 73.5315 53.9798V53.152C73.4495 53.1371 73.3078 53.1271 73.2084 53.1271C72.7709 53.1271 72.4055 53.3757 72.2662 53.8182H72.2265V53.1818H71.354V57ZM75.1529 57.0771C75.752 57.0771 76.1099 56.7962 76.274 56.4755H76.3038V57H77.1689V54.4446C77.1689 53.4354 76.3461 53.1321 75.6177 53.1321C74.8148 53.1321 74.1983 53.4901 73.9995 54.1861L74.8397 54.3054C74.9292 54.0444 75.1827 53.8207 75.6227 53.8207C76.0403 53.8207 76.269 54.0344 76.269 54.4098V54.4247C76.269 54.6832 75.998 54.6957 75.3244 54.7678C74.5836 54.8473 73.8752 55.0685 73.8752 55.9286C73.8752 56.6793 74.4245 57.0771 75.1529 57.0771ZM75.3865 56.4158C75.0112 56.4158 74.7427 56.2443 74.7427 55.9137C74.7427 55.5682 75.0435 55.424 75.4462 55.3668C75.6824 55.3345 76.1547 55.2749 76.2715 55.1804V55.6303C76.2715 56.0554 75.9284 56.4158 75.3865 56.4158ZM78.0737 57H78.9735V54.6783C78.9735 54.2085 79.2868 53.8903 79.6745 53.8903C80.0549 53.8903 80.3159 54.1463 80.3159 54.5391V57H81.1983V54.6186C81.1983 54.1886 81.4544 53.8903 81.8894 53.8903C82.2523 53.8903 82.5407 54.104 82.5407 54.5763V57H83.443V54.4371C83.443 53.5845 82.9508 53.1321 82.2498 53.1321C81.6955 53.1321 81.2729 53.4055 81.1039 53.8306H81.0641C80.9174 53.3981 80.5471 53.1321 80.0325 53.1321C79.5204 53.1321 79.1376 53.3956 78.9785 53.8306H78.9338V53.1818H78.0737V57ZM86.0463 57.0746C86.9362 57.0746 87.5477 56.6396 87.7068 55.9759L86.8666 55.8814C86.7448 56.2045 86.4465 56.3736 86.0587 56.3736C85.477 56.3736 85.0917 55.9908 85.0843 55.337H87.7441V55.0611C87.7441 53.7212 86.9387 53.1321 85.999 53.1321C84.9053 53.1321 84.1919 53.935 84.1919 55.1133C84.1919 56.3114 84.8953 57.0746 86.0463 57.0746ZM85.0867 54.7305C85.1141 54.2433 85.4745 53.8331 86.0115 53.8331C86.5285 53.8331 86.8765 54.2109 86.8815 54.7305H85.0867ZM89.2728 57H90.2124L90.9284 54.4197H90.9806L91.6965 57H92.6336L93.7149 53.1818H92.7952L92.134 55.8516H92.0967L91.4106 53.1818H90.5033L89.8172 55.8665H89.7824L89.1112 53.1818H88.194L89.2728 57ZM95.9062 57.0746C97.0248 57.0746 97.7357 56.2866 97.7357 55.1058C97.7357 53.9226 97.0248 53.1321 95.9062 53.1321C94.7876 53.1321 94.0766 53.9226 94.0766 55.1058C94.0766 56.2866 94.7876 57.0746 95.9062 57.0746ZM95.9111 56.3537C95.2922 56.3537 94.9889 55.8018 94.9889 55.1033C94.9889 54.4048 95.2922 53.8455 95.9111 53.8455C96.5202 53.8455 96.8234 54.4048 96.8234 55.1033C96.8234 55.8018 96.5202 56.3537 95.9111 56.3537ZM98.4995 57H99.3993V54.7553C99.3993 54.2706 99.7647 53.9276 100.259 53.9276C100.411 53.9276 100.6 53.9549 100.677 53.9798V53.152C100.595 53.1371 100.453 53.1271 100.354 53.1271C99.9164 53.1271 99.551 53.3757 99.4118 53.8182H99.372V53.1818H98.4995V57ZM101.275 57H102.175V55.7173L102.503 55.3668L103.671 57H104.748L103.181 54.8299L104.661 53.1818H103.609L102.237 54.7156H102.175V51.9091H101.275V57ZM108.278 54.1911C108.154 53.5447 107.637 53.1321 106.742 53.1321C105.822 53.1321 105.196 53.5845 105.198 54.2905C105.196 54.8473 105.539 55.2152 106.272 55.3668L106.923 55.5036C107.274 55.5806 107.438 55.7223 107.438 55.9386C107.438 56.1996 107.154 56.396 106.727 56.396C106.314 56.396 106.046 56.217 105.969 55.8739L105.091 55.9585C105.203 56.6594 105.792 57.0746 106.729 57.0746C107.684 57.0746 108.358 56.5799 108.36 55.8565C108.358 55.3121 108.007 54.979 107.286 54.8224L106.635 54.6832C106.247 54.5962 106.093 54.462 106.095 54.2408C106.093 53.9822 106.379 53.8033 106.754 53.8033C107.169 53.8033 107.388 54.0295 107.458 54.2805L108.278 54.1911ZM112.772 53.1818H111.979V52.881C111.979 52.5827 112.104 52.4162 112.439 52.4162C112.581 52.4162 112.7 52.4485 112.775 52.4709L112.956 51.7749C112.839 51.7351 112.583 51.6705 112.273 51.6705C111.609 51.6705 111.079 52.0508 111.079 52.8214V53.1818H110.515V53.8778H111.079V57H111.979V53.8778H112.772V53.1818ZM113.477 57H114.377V54.7553C114.377 54.2706 114.742 53.9276 115.237 53.9276C115.389 53.9276 115.578 53.9549 115.655 53.9798V53.152C115.573 53.1371 115.431 53.1271 115.331 53.1271C114.894 53.1271 114.528 53.3757 114.389 53.8182H114.35V53.1818H113.477V57ZM117.761 57.0746C118.879 57.0746 119.59 56.2866 119.59 55.1058C119.59 53.9226 118.879 53.1321 117.761 53.1321C116.642 53.1321 115.931 53.9226 115.931 55.1058C115.931 56.2866 116.642 57.0746 117.761 57.0746ZM117.766 56.3537C117.147 56.3537 116.843 55.8018 116.843 55.1033C116.843 54.4048 117.147 53.8455 117.766 53.8455C118.375 53.8455 118.678 54.4048 118.678 55.1033C118.678 55.8018 118.375 56.3537 117.766 56.3537ZM120.354 57H121.254V54.6783C121.254 54.2085 121.567 53.8903 121.955 53.8903C122.335 53.8903 122.596 54.1463 122.596 54.5391V57H123.479V54.6186C123.479 54.1886 123.735 53.8903 124.17 53.8903C124.533 53.8903 124.821 54.104 124.821 54.5763V57H125.723V54.4371C125.723 53.5845 125.231 53.1321 124.53 53.1321C123.976 53.1321 123.553 53.4055 123.384 53.8306H123.344C123.198 53.3981 122.827 53.1321 122.313 53.1321C121.801 53.1321 121.418 53.3956 121.259 53.8306H121.214V53.1818H120.354V57ZM42.369 61.1818H41.6158V60.267H40.7159V61.1818H40.174V61.8778H40.7159V64.0007C40.7109 64.7191 41.233 65.0721 41.9091 65.0522C42.1651 65.0447 42.3416 64.995 42.4386 64.9627L42.2869 64.2592C42.2372 64.2717 42.1353 64.294 42.0234 64.294C41.7972 64.294 41.6158 64.2145 41.6158 63.8516V61.8778H42.369V61.1818ZM44.1034 62.7628C44.1034 62.2109 44.4465 61.8928 44.9287 61.8928C45.401 61.8928 45.6794 62.1935 45.6794 62.7081V65H46.5793V62.5689C46.5793 61.6467 46.0573 61.1321 45.2643 61.1321C44.6776 61.1321 44.3048 61.3981 44.1283 61.8306H44.0835V59.9091H43.2036V65H44.1034V62.7628ZM49.1869 65.0746C50.0768 65.0746 50.6883 64.6396 50.8474 63.9759L50.0072 63.8814C49.8854 64.2045 49.5871 64.3736 49.1993 64.3736C48.6176 64.3736 48.2323 63.9908 48.2249 63.337H50.8847V63.0611C50.8847 61.7212 50.0793 61.1321 49.1396 61.1321C48.0459 61.1321 47.3325 61.935 47.3325 63.1133C47.3325 64.3114 48.036 65.0746 49.1869 65.0746ZM48.2274 62.7305C48.2547 62.2433 48.6151 61.8331 49.1521 61.8331C49.6691 61.8331 50.0171 62.2109 50.0221 62.7305H48.2274ZM55.0428 66.5114C56.0744 66.5114 56.835 66.0391 56.835 65.0621V61.1818H55.9476V61.8132H55.8979C55.7612 61.5373 55.4753 61.1321 54.8017 61.1321C53.9192 61.1321 53.2257 61.8232 53.2257 63.0785C53.2257 64.3239 53.9192 64.9453 54.7992 64.9453C55.4529 64.9453 55.7587 64.5948 55.8979 64.3139H55.9426V65.0373C55.9426 65.5991 55.5698 65.8303 55.0577 65.8303C54.5158 65.8303 54.2772 65.5742 54.1678 65.3505L53.3574 65.5469C53.5215 66.0813 54.0708 66.5114 55.0428 66.5114ZM55.0502 64.2393C54.4561 64.2393 54.1429 63.777 54.1429 63.0735C54.1429 62.38 54.4512 61.8704 55.0502 61.8704C55.6294 61.8704 55.9476 62.3501 55.9476 63.0735C55.9476 63.8018 55.6245 64.2393 55.0502 64.2393ZM57.7573 65H58.6571V62.7553C58.6571 62.2706 59.0225 61.9276 59.5172 61.9276C59.6689 61.9276 59.8578 61.9549 59.9348 61.9798V61.152C59.8528 61.1371 59.7111 61.1271 59.6117 61.1271C59.1742 61.1271 58.8088 61.3757 58.6696 61.8182H58.6298V61.1818H57.7573V65ZM62.0409 65.0746C63.1595 65.0746 63.8705 64.2866 63.8705 63.1058C63.8705 61.9226 63.1595 61.1321 62.0409 61.1321C60.9223 61.1321 60.2114 61.9226 60.2114 63.1058C60.2114 64.2866 60.9223 65.0746 62.0409 65.0746ZM62.0459 64.3537C61.4269 64.3537 61.1237 63.8018 61.1237 63.1033C61.1237 62.4048 61.4269 61.8455 62.0459 61.8455C62.6549 61.8455 62.9582 62.4048 62.9582 63.1033C62.9582 63.8018 62.6549 64.3537 62.0459 64.3537ZM67.0678 63.3942C67.0678 63.9759 66.6527 64.2642 66.255 64.2642C65.8224 64.2642 65.5341 63.9585 65.5341 63.4737V61.1818H64.6342V63.6129C64.6342 64.5302 65.1562 65.0497 65.907 65.0497C66.4787 65.0497 66.8814 64.7489 67.0554 64.3214H67.0952V65H67.9677V61.1818H67.0678V63.3942ZM69.7929 62.7628C69.7929 62.2109 70.126 61.8928 70.6008 61.8928C71.0656 61.8928 71.344 62.1985 71.344 62.7081V65H72.2439V62.5689C72.2464 61.6541 71.7243 61.1321 70.9363 61.1321C70.3646 61.1321 69.9719 61.4055 69.7979 61.8306H69.7531V61.1818H68.893V65H69.7929V62.7628ZM74.5756 65.0671C75.2318 65.0671 75.5276 64.6768 75.6693 64.3984H75.724V65H76.6089V59.9091H75.7066V61.8132H75.6693C75.5326 61.5373 75.2517 61.1321 74.578 61.1321C73.6956 61.1321 73.002 61.8232 73.002 63.0959C73.002 64.3537 73.6757 65.0671 74.5756 65.0671ZM74.8266 64.3288C74.2325 64.3288 73.9193 63.8068 73.9193 63.0909C73.9193 62.38 74.2275 61.8704 74.8266 61.8704C75.4058 61.8704 75.724 62.3501 75.724 63.0909C75.724 63.8317 75.4008 64.3288 74.8266 64.3288ZM81.7377 63.3942C81.7377 63.9759 81.3226 64.2642 80.9249 64.2642C80.4924 64.2642 80.204 63.9585 80.204 63.4737V61.1818H79.3042V63.6129C79.3042 64.5302 79.8262 65.0497 80.5769 65.0497C81.1486 65.0497 81.5513 64.7489 81.7253 64.3214H81.7651V65H82.6376V61.1818H81.7377V63.3942ZM83.5629 66.4318H84.4628V64.3984H84.5001C84.6418 64.6768 84.9376 65.0671 85.5938 65.0671C86.4937 65.0671 87.1673 64.3537 87.1673 63.0959C87.1673 61.8232 86.4738 61.1321 85.5914 61.1321C84.9177 61.1321 84.6368 61.5373 84.5001 61.8132H84.4479V61.1818H83.5629V66.4318ZM84.4454 63.0909C84.4454 62.3501 84.7636 61.8704 85.3428 61.8704C85.9419 61.8704 86.2501 62.38 86.2501 63.0909C86.2501 63.8068 85.9369 64.3288 85.3428 64.3288C84.7686 64.3288 84.4454 63.8317 84.4454 63.0909Z" fill="#555A60"/>
<rect x="28" y="30" width="144" height="1" fill="#EBEDF5"/>
</g>
<defs>
<filter id="filter0_d" x="22" y="18" width="156" height="134" filterUnits="userSpaceOnUse" color-interpolation-filters="sRGB">
<feFlood flood-opacity="0" result="BackgroundImageFix"/>
<feColorMatrix in="SourceAlpha" type="matrix" values="0 0 0 0 0 0 0 0 0 0 0 0 0 0 0 0 0 0 127 0"/>
<feOffset dy="3"/>
<feGaussianBlur stdDeviation="2.5"/>
<feColorMatrix type="matrix" values="0 0 0 0 0.54902 0 0 0 0 0.596078 0 0 0 0 0.643137 0 0 0 0.125 0"/>
<feBlend mode="normal" in2="BackgroundImageFix" result="effect1_dropShadow"/>
<feBlend mode="normal" in="SourceGraphic" in2="effect1_dropShadow" result="shape"/>
</filter>
<filter id="filter1_d" x="38" y="94" width="33" height="13" filterUnits="userSpaceOnUse" color-interpolation-filters="sRGB">
<feFlood flood-opacity="0" result="BackgroundImageFix"/>
<feColorMatrix in="SourceAlpha" type="matrix" values="0 0 0 0 0 0 0 0 0 0 0 0 0 0 0 0 0 0 127 0"/>
<feOffset dy="1"/>
<feGaussianBlur stdDeviation="1"/>
<feColorMatrix type="matrix" values="0 0 0 0 0.215686 0 0 0 0 0.490196 0 0 0 0 1 0 0 0 0.2 0"/>
<feBlend mode="normal" in2="BackgroundImageFix" result="effect1_dropShadow"/>
<feBlend mode="normal" in="SourceGraphic" in2="effect1_dropShadow" result="shape"/>
</filter>
<filter id="filter2_d" x="72" y="94" width="25" height="13" filterUnits="userSpaceOnUse" color-interpolation-filters="sRGB">
<feFlood flood-opacity="0" result="BackgroundImageFix"/>
<feColorMatrix in="SourceAlpha" type="matrix" values="0 0 0 0 0 0 0 0 0 0 0 0 0 0 0 0 0 0 127 0"/>
<feOffset dy="1"/>
<feGaussianBlur stdDeviation="1"/>
<feColorMatrix type="matrix" values="0 0 0 0 0.54902 0 0 0 0 0.596078 0 0 0 0 0.643137 0 0 0 0.18 0"/>
<feBlend mode="normal" in2="BackgroundImageFix" result="effect1_dropShadow"/>
<feBlend mode="normal" in="SourceGraphic" in2="effect1_dropShadow" result="shape"/>
</filter>
<linearGradient id="paint0_linear" x1="100" y1="154" x2="100" y2="92.5" gradientUnits="userSpaceOnUse">
<stop offset="0.256387" stop-color="#F3F4F6"/>
<stop offset="0.749415" stop-color="#F3F4F6" stop-opacity="0"/>
</linearGradient>
<clipPath id="clip0">
<rect width="200" height="144" fill="white"/>
</clipPath>
</defs>
</svg>
