<svg width="200" height="144" viewBox="0 0 200 144" fill="none" xmlns="http://www.w3.org/2000/svg">
<path d="M196 0H4C1.79086 0 0 1.79086 0 4V140C0 142.209 1.79086 144 4 144H196C198.209 144 200 142.209 200 140V4C200 1.79086 198.209 0 196 0Z" fill="#F3F4F6"/>
<g filter="url(#filter0_d)">
<rect x="129" y="65" width="25" height="13" rx="2" fill="#0ABF53"/>
</g>
<rect x="137" y="71" width="9" height="1" rx="0.5" fill="white"/>
<rect x="46.5" y="65.5" width="75" height="12" rx="1.5" stroke="#D9DDEA"/>
<path d="M55.0696 72.923C54.9376 72.7909 54.9376 72.5767 55.0696 72.4446C55.2017 72.3126 55.4159 72.3126 55.548 72.4446L56.9009 73.7976C57.033 73.9297 57.033 74.1438 56.9009 74.2759C56.7688 74.408 56.5547 74.408 56.4226 74.2759L55.0696 72.923Z" fill="#71869D"/>
<path fill-rule="evenodd" clip-rule="evenodd" d="M51.5883 70.9926C51.5883 72.3003 52.6483 73.3603 53.9559 73.3603C55.2635 73.3603 56.3236 72.3003 56.3236 70.9926C56.3236 69.685 55.2635 68.625 53.9559 68.625C52.6483 68.625 51.5883 69.685 51.5883 70.9926ZM55.6471 70.9926C55.6471 71.9267 54.8899 72.6838 53.9559 72.6838C53.0219 72.6838 52.2647 71.9267 52.2647 70.9926C52.2647 70.0586 53.0219 69.3015 53.9559 69.3015C54.8899 69.3015 55.6471 70.0586 55.6471 70.9926Z" fill="#71869D"/>
<defs>
<filter id="filter0_d" x="127" y="64" width="29" height="17" filterUnits="userSpaceOnUse" color-interpolation-filters="sRGB">
<feFlood flood-opacity="0" result="BackgroundImageFix"/>
<feColorMatrix in="SourceAlpha" type="matrix" values="0 0 0 0 0 0 0 0 0 0 0 0 0 0 0 0 0 0 127 0"/>
<feOffset dy="1"/>
<feGaussianBlur stdDeviation="1"/>
<feColorMatrix type="matrix" values="0 0 0 0 0.215686 0 0 0 0 0.490196 0 0 0 0 1 0 0 0 0.2 0"/>
<feBlend mode="normal" in2="BackgroundImageFix" result="effect1_dropShadow"/>
<feBlend mode="normal" in="SourceGraphic" in2="effect1_dropShadow" result="shape"/>
</filter>
</defs>
</svg>
