<svg width="200" height="144" viewBox="0 0 200 144" fill="none" xmlns="http://www.w3.org/2000/svg">
<g clip-path="url(#clip0)">
<path d="M196 0H4C1.79086 0 0 1.79086 0 4V140C0 142.209 1.79086 144 4 144H196C198.209 144 200 142.209 200 140V4C200 1.79086 198.209 0 196 0Z" fill="#F3F4F6"/>
<g filter="url(#filter0_d)">
<path d="M27 24C27 21.7909 28.7909 20 31 20H169C171.209 20 173 21.7909 173 24V144H27V24Z" fill="white"/>
<path d="M27.5 24C27.5 22.067 29.067 20.5 31 20.5H169C170.933 20.5 172.5 22.067 172.5 24V143.5H27.5V24Z" stroke="#E7EAF3"/>
</g>
<path d="M0 104H200V140C200 142.209 198.209 144 196 144H4C1.79086 144 0 142.209 0 140V104Z" fill="url(#paint0_linear)"/>
<rect x="66" y="46" width="18" height="3" rx="1.5" fill="#D9DDEA"/>
<rect x="88" y="46" width="21" height="3" rx="1.5" fill="#D9DDEA"/>
<rect x="113" y="46" width="21" height="3" rx="1.5" fill="#D9DDEA"/>
<path d="M57.4356 35.6822H59.0091V40H59.9239V35.6822H61.4974V34.9091H57.4356V35.6822ZM61.8442 40H62.7441V37.7553C62.7441 37.2706 63.1095 36.9276 63.6041 36.9276C63.7558 36.9276 63.9447 36.9549 64.0218 36.9798V36.152C63.9397 36.1371 63.798 36.1271 63.6986 36.1271C63.2611 36.1271 62.8957 36.3757 62.7565 36.8182H62.7167V36.1818H61.8442V40ZM67.0532 38.3942C67.0532 38.9759 66.6381 39.2642 66.2403 39.2642C65.8078 39.2642 65.5194 38.9585 65.5194 38.4737V36.1818H64.6196V38.6129C64.6196 39.5302 65.1416 40.0497 65.8923 40.0497C66.464 40.0497 66.8667 39.7489 67.0407 39.3214H67.0805V40H67.953V36.1818H67.0532V38.3942ZM71.8961 37.1911C71.7718 36.5447 71.2548 36.1321 70.3599 36.1321C69.4402 36.1321 68.8137 36.5845 68.8162 37.2905C68.8137 37.8473 69.1568 38.2152 69.8901 38.3668L70.5414 38.5036C70.8919 38.5806 71.0559 38.7223 71.0559 38.9386C71.0559 39.1996 70.7725 39.396 70.345 39.396C69.9324 39.396 69.6639 39.217 69.5868 38.8739L68.7093 38.9585C68.8212 39.6594 69.4103 40.0746 70.3475 40.0746C71.302 40.0746 71.9757 39.5799 71.9782 38.8565C71.9757 38.3121 71.6252 37.979 70.9043 37.8224L70.253 37.6832C69.8652 37.5962 69.7111 37.462 69.7136 37.2408C69.7111 36.9822 69.997 36.8033 70.3723 36.8033C70.7875 36.8033 71.0062 37.0295 71.0758 37.2805L71.8961 37.1911ZM74.6268 36.1818H73.8736V35.267H72.9737V36.1818H72.4318V36.8778H72.9737V39.0007C72.9688 39.7191 73.4908 40.0721 74.1669 40.0522C74.4229 40.0447 74.5994 39.995 74.6964 39.9627L74.5447 39.2592C74.495 39.2717 74.3931 39.294 74.2812 39.294C74.055 39.294 73.8736 39.2145 73.8736 38.8516V36.8778H74.6268V36.1818ZM77.0287 40.0746C77.9186 40.0746 78.5301 39.6396 78.6892 38.9759L77.849 38.8814C77.7272 39.2045 77.4289 39.3736 77.0411 39.3736C76.4594 39.3736 76.0741 38.9908 76.0667 38.337H78.7265V38.0611C78.7265 36.7212 77.9211 36.1321 76.9814 36.1321C75.8877 36.1321 75.1743 36.935 75.1743 38.1133C75.1743 39.3114 75.8778 40.0746 77.0287 40.0746ZM76.0692 37.7305C76.0965 37.2433 76.4569 36.8331 76.9939 36.8331C77.5109 36.8331 77.8589 37.2109 77.8639 37.7305H76.0692ZM80.9047 40.0671C81.5609 40.0671 81.8567 39.6768 81.9984 39.3984H82.0531V40H82.938V34.9091H82.0357V36.8132H81.9984C81.8617 36.5373 81.5808 36.1321 80.9071 36.1321C80.0247 36.1321 79.3311 36.8232 79.3311 38.0959C79.3311 39.3537 80.0048 40.0671 80.9047 40.0671ZM81.1557 39.3288C80.5616 39.3288 80.2484 38.8068 80.2484 38.0909C80.2484 37.38 80.5566 36.8704 81.1557 36.8704C81.7349 36.8704 82.0531 37.3501 82.0531 38.0909C82.0531 38.8317 81.7299 39.3288 81.1557 39.3288ZM85.673 40H86.558V39.3984H86.6102C86.7519 39.6768 87.0477 40.0671 87.7039 40.0671C88.6038 40.0671 89.2774 39.3537 89.2774 38.0959C89.2774 36.8232 88.5839 36.1321 87.7014 36.1321C87.0278 36.1321 86.7469 36.5373 86.6102 36.8132H86.5729V34.9091H85.673V40ZM86.5555 38.0909C86.5555 37.3501 86.8737 36.8704 87.4529 36.8704C88.0519 36.8704 88.3602 37.38 88.3602 38.0909C88.3602 38.8068 88.047 39.3288 87.4529 39.3288C86.8786 39.3288 86.5555 38.8317 86.5555 38.0909ZM90.4719 41.4318C91.1729 41.4318 91.578 41.0714 91.7943 40.4624L93.328 36.1868L92.366 36.1818L91.4836 39.0653H91.4438L90.5638 36.1818H89.6093L90.9939 40.0795L90.9168 40.2859C90.7503 40.7209 90.4868 40.7507 90.094 40.6364L89.8852 41.3374C90.007 41.3871 90.2258 41.4318 90.4719 41.4318ZM95.6889 41.4318H96.5888V39.3984H96.6261C96.7678 39.6768 97.0636 40.0671 97.7198 40.0671C98.6197 40.0671 99.2933 39.3537 99.2933 38.0959C99.2933 36.8232 98.5998 36.1321 97.7173 36.1321C97.0437 36.1321 96.7628 36.5373 96.6261 36.8132H96.5739V36.1818H95.6889V41.4318ZM96.5714 38.0909C96.5714 37.3501 96.8896 36.8704 97.4688 36.8704C98.0678 36.8704 98.3761 37.38 98.3761 38.0909C98.3761 38.8068 98.0629 39.3288 97.4688 39.3288C96.8945 39.3288 96.5714 38.8317 96.5714 38.0909ZM100.064 40H100.964V37.7553C100.964 37.2706 101.329 36.9276 101.824 36.9276C101.975 36.9276 102.164 36.9549 102.241 36.9798V36.152C102.159 36.1371 102.018 36.1271 101.918 36.1271C101.481 36.1271 101.115 36.3757 100.976 36.8182H100.936V36.1818H100.064V40ZM104.348 40.0746C105.466 40.0746 106.177 39.2866 106.177 38.1058C106.177 36.9226 105.466 36.1321 104.348 36.1321C103.229 36.1321 102.518 36.9226 102.518 38.1058C102.518 39.2866 103.229 40.0746 104.348 40.0746ZM104.353 39.3537C103.734 39.3537 103.43 38.8018 103.43 38.1033C103.43 37.4048 103.734 36.8455 104.353 36.8455C104.962 36.8455 105.265 37.4048 105.265 38.1033C105.265 38.8018 104.962 39.3537 104.353 39.3537ZM108.875 36.1818H108.082V35.881C108.082 35.5827 108.206 35.4162 108.542 35.4162C108.683 35.4162 108.803 35.4485 108.877 35.4709L109.059 34.7749C108.942 34.7351 108.686 34.6705 108.375 34.6705C107.711 34.6705 107.182 35.0508 107.182 35.8214V36.1818H106.618V36.8778H107.182V40H108.082V36.8778H108.875V36.1818ZM111.126 40.0746C112.016 40.0746 112.628 39.6396 112.787 38.9759L111.947 38.8814C111.825 39.2045 111.527 39.3736 111.139 39.3736C110.557 39.3736 110.172 38.9908 110.164 38.337H112.824V38.0611C112.824 36.7212 112.019 36.1321 111.079 36.1321C109.985 36.1321 109.272 36.935 109.272 38.1133C109.272 39.3114 109.975 40.0746 111.126 40.0746ZM110.167 37.7305C110.194 37.2433 110.555 36.8331 111.092 36.8331C111.609 36.8331 111.957 37.2109 111.962 37.7305H110.167ZM116.603 37.1911C116.479 36.5447 115.962 36.1321 115.067 36.1321C114.147 36.1321 113.521 36.5845 113.523 37.2905C113.521 37.8473 113.864 38.2152 114.597 38.3668L115.248 38.5036C115.599 38.5806 115.763 38.7223 115.763 38.9386C115.763 39.1996 115.48 39.396 115.052 39.396C114.639 39.396 114.371 39.217 114.294 38.8739L113.416 38.9585C113.528 39.6594 114.117 40.0746 115.055 40.0746C116.009 40.0746 116.683 39.5799 116.685 38.8565C116.683 38.3121 116.332 37.979 115.611 37.8224L114.96 37.6832C114.572 37.5962 114.418 37.462 114.421 37.2408C114.418 36.9822 114.704 36.8033 115.079 36.8033C115.494 36.8033 115.713 37.0295 115.783 37.2805L116.603 37.1911ZM120.445 37.1911C120.321 36.5447 119.804 36.1321 118.909 36.1321C117.989 36.1321 117.363 36.5845 117.365 37.2905C117.363 37.8473 117.706 38.2152 118.439 38.3668L119.09 38.5036C119.441 38.5806 119.605 38.7223 119.605 38.9386C119.605 39.1996 119.321 39.396 118.894 39.396C118.481 39.396 118.213 39.217 118.136 38.8739L117.258 38.9585C117.37 39.6594 117.959 40.0746 118.896 40.0746C119.851 40.0746 120.525 39.5799 120.527 38.8565C120.525 38.3121 120.174 37.979 119.453 37.8224L118.802 37.6832C118.414 37.5962 118.26 37.462 118.262 37.2408C118.26 36.9822 118.546 36.8033 118.921 36.8033C119.336 36.8033 119.555 37.0295 119.625 37.2805L120.445 37.1911ZM121.269 40H122.169V36.1818H121.269V40ZM121.721 35.6399C122.007 35.6399 122.241 35.4212 122.241 35.1527C122.241 34.8817 122.007 34.663 121.721 34.663C121.433 34.663 121.199 34.8817 121.199 35.1527C121.199 35.4212 121.433 35.6399 121.721 35.6399ZM124.76 40.0746C125.878 40.0746 126.589 39.2866 126.589 38.1058C126.589 36.9226 125.878 36.1321 124.76 36.1321C123.641 36.1321 122.93 36.9226 122.93 38.1058C122.93 39.2866 123.641 40.0746 124.76 40.0746ZM124.765 39.3537C124.146 39.3537 123.842 38.8018 123.842 38.1033C123.842 37.4048 124.146 36.8455 124.765 36.8455C125.374 36.8455 125.677 37.4048 125.677 38.1033C125.677 38.8018 125.374 39.3537 124.765 39.3537ZM128.253 37.7628C128.253 37.2109 128.586 36.8928 129.061 36.8928C129.526 36.8928 129.804 37.1985 129.804 37.7081V40H130.704V37.5689C130.706 36.6541 130.184 36.1321 129.396 36.1321C128.825 36.1321 128.432 36.4055 128.258 36.8306H128.213V36.1818H127.353V40H128.253V37.7628ZM132.717 40.0771C133.316 40.0771 133.674 39.7962 133.838 39.4755H133.868V40H134.733V37.4446C134.733 36.4354 133.911 36.1321 133.182 36.1321C132.379 36.1321 131.763 36.4901 131.564 37.1861L132.404 37.3054C132.494 37.0444 132.747 36.8207 133.187 36.8207C133.605 36.8207 133.833 37.0344 133.833 37.4098V37.4247C133.833 37.6832 133.562 37.6957 132.889 37.7678C132.148 37.8473 131.44 38.0685 131.44 38.9286C131.44 39.6793 131.989 40.0771 132.717 40.0771ZM132.951 39.4158C132.576 39.4158 132.307 39.2443 132.307 38.9137C132.307 38.5682 132.608 38.424 133.011 38.3668C133.247 38.3345 133.719 38.2749 133.836 38.1804V38.6303C133.836 39.0554 133.493 39.4158 132.951 39.4158ZM136.538 34.9091H135.638V40H136.538V34.9091ZM140.481 37.1911C140.357 36.5447 139.84 36.1321 138.945 36.1321C138.025 36.1321 137.399 36.5845 137.401 37.2905C137.399 37.8473 137.742 38.2152 138.475 38.3668L139.126 38.5036C139.477 38.5806 139.641 38.7223 139.641 38.9386C139.641 39.1996 139.358 39.396 138.93 39.396C138.517 39.396 138.249 39.217 138.172 38.8739L137.294 38.9585C137.406 39.6594 137.995 40.0746 138.932 40.0746C139.887 40.0746 140.561 39.5799 140.563 38.8565C140.561 38.3121 140.21 37.979 139.489 37.8224L138.838 37.6832C138.45 37.5962 138.296 37.462 138.299 37.2408C138.296 36.9822 138.582 36.8033 138.957 36.8033C139.372 36.8033 139.591 37.0295 139.661 37.2805L140.481 37.1911Z" fill="#555A60"/>
<g filter="url(#filter1_d)">
<rect x="52" y="61" width="96" height="51" rx="3.67816" fill="white"/>
<rect x="52.4598" y="61.4598" width="95.0805" height="50.0805" rx="3.21839" stroke="#E7EAF3" stroke-width="0.91954"/>
</g>
<rect x="53" y="86" width="94" height="1" fill="#E7EAF3"/>
<rect x="83" y="61" width="1" height="51" fill="#E7EAF3"/>
<rect x="116" y="61" width="1" height="51" fill="#E7EAF3"/>
<rect x="60" y="70" width="15" height="7" rx="2" fill="#E7EAF3" fill-opacity="0.7"/>
<rect x="92" y="70" width="15" height="7" rx="2" fill="#0ABF53"/>
<rect x="124" y="70" width="15" height="7" rx="2" fill="#E7EAF3" fill-opacity="0.7"/>
<rect x="124" y="96" width="15" height="7" rx="2" fill="#E7EAF3" fill-opacity="0.7"/>
<rect x="92" y="96" width="15" height="7" rx="2" fill="#E7EAF3" fill-opacity="0.7"/>
<rect x="60" y="96" width="15" height="7" rx="2" fill="#E7EAF3" fill-opacity="0.7"/>
</g>
<defs>
<filter id="filter0_d" x="22" y="18" width="156" height="134" filterUnits="userSpaceOnUse" color-interpolation-filters="sRGB">
<feFlood flood-opacity="0" result="BackgroundImageFix"/>
<feColorMatrix in="SourceAlpha" type="matrix" values="0 0 0 0 0 0 0 0 0 0 0 0 0 0 0 0 0 0 127 0"/>
<feOffset dy="3"/>
<feGaussianBlur stdDeviation="2.5"/>
<feColorMatrix type="matrix" values="0 0 0 0 0.54902 0 0 0 0 0.596078 0 0 0 0 0.643137 0 0 0 0.125 0"/>
<feBlend mode="normal" in2="BackgroundImageFix" result="effect1_dropShadow"/>
<feBlend mode="normal" in="SourceGraphic" in2="effect1_dropShadow" result="shape"/>
</filter>
<filter id="filter1_d" x="47.4023" y="59.1609" width="105.195" height="60.1954" filterUnits="userSpaceOnUse" color-interpolation-filters="sRGB">
<feFlood flood-opacity="0" result="BackgroundImageFix"/>
<feColorMatrix in="SourceAlpha" type="matrix" values="0 0 0 0 0 0 0 0 0 0 0 0 0 0 0 0 0 0 127 0"/>
<feOffset dy="2.75862"/>
<feGaussianBlur stdDeviation="2.29885"/>
<feColorMatrix type="matrix" values="0 0 0 0 0.54902 0 0 0 0 0.596078 0 0 0 0 0.643137 0 0 0 0.125 0"/>
<feBlend mode="normal" in2="BackgroundImageFix" result="effect1_dropShadow"/>
<feBlend mode="normal" in="SourceGraphic" in2="effect1_dropShadow" result="shape"/>
</filter>
<linearGradient id="paint0_linear" x1="100" y1="154" x2="100" y2="92.5" gradientUnits="userSpaceOnUse">
<stop offset="0.256387" stop-color="#F3F4F6"/>
<stop offset="0.749415" stop-color="#F3F4F6" stop-opacity="0"/>
</linearGradient>
<clipPath id="clip0">
<rect width="200" height="144" fill="white"/>
</clipPath>
</defs>
</svg>
