<svg width="200" height="144" viewBox="0 0 200 144" fill="none" xmlns="http://www.w3.org/2000/svg">
<g clip-path="url(#clip0)">
<path d="M196 0H4C1.79086 0 0 1.79086 0 4V140C0 142.209 1.79086 144 4 144H196C198.209 144 200 142.209 200 140V4C200 1.79086 198.209 0 196 0Z" fill="#F3F4F6"/>
<g filter="url(#filter0_d)">
<path d="M27 24C27 21.7909 28.7909 20 31 20H169C171.209 20 173 21.7909 173 24V144H27V24Z" fill="white"/>
<path d="M31 20.5H169C170.933 20.5 172.5 22.067 172.5 24V143.5H27.5V24C27.5 22.067 29.067 20.5 31 20.5Z" stroke="#E7EAF3"/>
</g>
<g filter="url(#filter1_d)">
<path d="M161.8 52H104.2C103.537 52 103 52.6591 103 53.4722V103.528C103 104.341 103.537 105 104.2 105H161.8C162.463 105 163 104.341 163 103.528V53.4722C163 52.6591 162.463 52 161.8 52Z" fill="white"/>
<path d="M104.2 52.25H161.8C162.279 52.25 162.75 52.747 162.75 53.4722V103.528C162.75 104.253 162.279 104.75 161.8 104.75H104.2C103.721 104.75 103.25 104.253 103.25 103.528V53.4722C103.25 52.747 103.721 52.25 104.2 52.25Z" stroke="#D9DDEA" stroke-opacity="0.5" stroke-width="0.5"/>
</g>
<rect x="105" y="56" width="56" height="14" rx="4" fill="#E5E9F2" fill-opacity="0.6"/>
<rect x="114" y="61" width="38" height="4" rx="2" fill="#D9DDEA"/>
<rect x="114" y="77" width="38" height="4" rx="2" fill="#D9DDEA"/>
<rect x="114" y="91" width="38" height="4" rx="2" fill="#D9DDEA"/>
<rect x="37" y="30" width="18" height="2" rx="1" fill="#D9DDEA"/>
<rect x="103" y="30" width="19" height="2" rx="1" fill="#D9DDEA"/>
<rect x="37.5" y="35.5" width="59" height="10" rx="1.5" stroke="#D9DDEA"/>
<rect x="108" y="40" width="50" height="1" rx="0.5" fill="#0ABF53"/>
<rect x="103.5" y="35.5" width="59" height="10" rx="1.5" stroke="#0ABF53"/>
<path d="M0 104H200V140C200 142.209 198.209 144 196 144H4C1.79086 144 0 142.209 0 140V104Z" fill="url(#paint0_linear)"/>
</g>
<defs>
<filter id="filter0_d" x="22" y="18" width="156" height="134" filterUnits="userSpaceOnUse" color-interpolation-filters="sRGB">
<feFlood flood-opacity="0" result="BackgroundImageFix"/>
<feColorMatrix in="SourceAlpha" type="matrix" values="0 0 0 0 0 0 0 0 0 0 0 0 0 0 0 0 0 0 127 0"/>
<feOffset dy="3"/>
<feGaussianBlur stdDeviation="2.5"/>
<feColorMatrix type="matrix" values="0 0 0 0 0.54902 0 0 0 0 0.596078 0 0 0 0 0.643137 0 0 0 0.125 0"/>
<feBlend mode="normal" in2="BackgroundImageFix" result="effect1_dropShadow"/>
<feBlend mode="normal" in="SourceGraphic" in2="effect1_dropShadow" result="shape"/>
</filter>
<filter id="filter1_d" x="87" y="44" width="92" height="85" filterUnits="userSpaceOnUse" color-interpolation-filters="sRGB">
<feFlood flood-opacity="0" result="BackgroundImageFix"/>
<feColorMatrix in="SourceAlpha" type="matrix" values="0 0 0 0 0 0 0 0 0 0 0 0 0 0 0 0 0 0 127 0"/>
<feOffset dy="8"/>
<feGaussianBlur stdDeviation="8"/>
<feColorMatrix type="matrix" values="0 0 0 0 0.741176 0 0 0 0 0.772549 0 0 0 0 0.819608 0 0 0 0.3 0"/>
<feBlend mode="normal" in2="BackgroundImageFix" result="effect1_dropShadow"/>
<feBlend mode="normal" in="SourceGraphic" in2="effect1_dropShadow" result="shape"/>
</filter>
<linearGradient id="paint0_linear" x1="100" y1="154" x2="100" y2="92.5" gradientUnits="userSpaceOnUse">
<stop offset="0.256387" stop-color="#F3F4F6"/>
<stop offset="0.749415" stop-color="#F3F4F6" stop-opacity="0"/>
</linearGradient>
<clipPath id="clip0">
<rect width="200" height="144" fill="white"/>
</clipPath>
</defs>
</svg>
