<svg width="200" height="144" viewBox="0 0 200 144" fill="none" xmlns="http://www.w3.org/2000/svg">
<g clip-path="url(#clip0)">
<path d="M196 0H4C1.79086 0 0 1.79086 0 4V140C0 142.209 1.79086 144 4 144H196C198.209 144 200 142.209 200 140V4C200 1.79086 198.209 0 196 0Z" fill="#F3F4F6"/>
<g filter="url(#filter0_d)">
<path d="M27 24C27 21.7909 28.7909 20 31 20H169C171.209 20 173 21.7909 173 24V144H27V24Z" fill="white"/>
<path d="M31 20.5H169C170.933 20.5 172.5 22.067 172.5 24V143.5H27.5V24C27.5 22.067 29.067 20.5 31 20.5Z" stroke="#E7EAF3"/>
</g>
<path d="M62.8089 55.1818H62.0249V57.3239H62.8089V55.1818ZM64.272 55.1818H63.4879V57.3239H64.272V55.1818ZM68.3466 55.1818H67.2926V61H68.3466V55.1818ZM72.4553 55.1818H71.4268V61H72.4553V55.1818ZM75.4162 61.0852C76.6946 61.0852 77.5071 60.1847 77.5071 58.8352C77.5071 57.483 76.6946 56.5795 75.4162 56.5795C74.1378 56.5795 73.3253 57.483 73.3253 58.8352C73.3253 60.1847 74.1378 61.0852 75.4162 61.0852ZM75.4219 60.2614C74.7145 60.2614 74.3679 59.6307 74.3679 58.8324C74.3679 58.0341 74.7145 57.3949 75.4219 57.3949C76.1179 57.3949 76.4645 58.0341 76.4645 58.8324C76.4645 59.6307 76.1179 60.2614 75.4219 60.2614ZM82.1293 56.6364H81.0355L80.0298 59.8778H79.9844L78.9815 56.6364H77.8849L79.4389 61H80.5753L82.1293 56.6364ZM84.6243 61.0852C85.6413 61.0852 86.3402 60.5881 86.522 59.8295L85.5618 59.7216C85.4226 60.0909 85.0817 60.2841 84.6385 60.2841C83.9737 60.2841 83.5334 59.8466 83.5249 59.0994H86.5646V58.7841C86.5646 57.2528 85.6442 56.5795 84.5703 56.5795C83.3203 56.5795 82.505 57.4972 82.505 58.8438C82.505 60.2131 83.3089 61.0852 84.6243 61.0852ZM83.5277 58.4062C83.5589 57.8494 83.9709 57.3807 84.5845 57.3807C85.1754 57.3807 85.5732 57.8125 85.5788 58.4062H83.5277ZM91.598 56.6364H90.7372V55.5909H89.7088V56.6364H89.0895V57.4318H89.7088V59.858C89.7031 60.679 90.2997 61.0824 91.0724 61.0597C91.3651 61.0511 91.5668 60.9943 91.6776 60.9574L91.5043 60.1534C91.4474 60.1676 91.331 60.1932 91.2031 60.1932C90.9446 60.1932 90.7372 60.1023 90.7372 59.6875V57.4318H91.598V56.6364ZM93.5803 58.4432C93.5803 57.8125 93.9723 57.4489 94.5234 57.4489C95.0632 57.4489 95.3814 57.7926 95.3814 58.3807V61H96.4098V58.2216C96.4098 57.1676 95.8132 56.5795 94.907 56.5795C94.2365 56.5795 93.8104 56.8835 93.6087 57.3778H93.5575V55.1818H92.5518V61H93.5803V58.4432ZM99.3899 61.0852C100.407 61.0852 101.106 60.5881 101.288 59.8295L100.327 59.7216C100.188 60.0909 99.8473 60.2841 99.4041 60.2841C98.7393 60.2841 98.299 59.8466 98.2905 59.0994H101.33V58.7841C101.33 57.2528 100.41 56.5795 99.3359 56.5795C98.0859 56.5795 97.2706 57.4972 97.2706 58.8438C97.2706 60.2131 98.0746 61.0852 99.3899 61.0852ZM98.2933 58.4062C98.3246 57.8494 98.7365 57.3807 99.3501 57.3807C99.9411 57.3807 100.339 57.8125 100.344 58.4062H98.2933ZM106.395 56.6364H105.489V56.2926C105.489 55.9517 105.631 55.7614 106.014 55.7614C106.176 55.7614 106.312 55.7983 106.398 55.8239L106.605 55.0284C106.472 54.983 106.179 54.9091 105.824 54.9091C105.065 54.9091 104.46 55.3438 104.46 56.2244V56.6364H103.815V57.4318H104.46V61H105.489V57.4318H106.395V56.6364ZM108.308 61.0881C108.992 61.0881 109.401 60.767 109.589 60.4006H109.623V61H110.612V58.0795C110.612 56.9261 109.671 56.5795 108.839 56.5795C107.921 56.5795 107.217 56.9886 106.989 57.7841L107.95 57.9205C108.052 57.6222 108.342 57.3665 108.844 57.3665C109.322 57.3665 109.583 57.6108 109.583 58.0398V58.0568C109.583 58.3523 109.273 58.3665 108.504 58.4489C107.657 58.5398 106.847 58.7926 106.847 59.7756C106.847 60.6335 107.475 61.0881 108.308 61.0881ZM108.575 60.3324C108.146 60.3324 107.839 60.1364 107.839 59.7585C107.839 59.3636 108.183 59.1989 108.643 59.1335C108.913 59.0966 109.452 59.0284 109.586 58.9205V59.4347C109.586 59.9205 109.194 60.3324 108.575 60.3324ZM113.549 61.0852C114.646 61.0852 115.344 60.4347 115.418 59.5085H114.435C114.347 59.9773 114.009 60.2472 113.558 60.2472C112.915 60.2472 112.501 59.7102 112.501 58.8182C112.501 57.9375 112.924 57.4091 113.558 57.4091C114.052 57.4091 114.356 57.7273 114.435 58.1477H115.418C115.347 57.2017 114.609 56.5795 113.543 56.5795C112.265 56.5795 111.458 57.5028 111.458 58.8352C111.458 60.1562 112.245 61.0852 113.549 61.0852ZM118.442 56.6364H117.581V55.5909H116.553V56.6364H115.933V57.4318H116.553V59.858C116.547 60.679 117.143 61.0824 117.916 61.0597C118.209 61.0511 118.411 60.9943 118.521 60.9574L118.348 60.1534C118.291 60.1676 118.175 60.1932 118.047 60.1932C117.788 60.1932 117.581 60.1023 117.581 59.6875V57.4318H118.442V56.6364ZM123.465 56.6364H122.604V55.5909H121.576V56.6364H120.957V57.4318H121.576V59.858C121.57 60.679 122.167 61.0824 122.94 61.0597C123.232 61.0511 123.434 60.9943 123.545 60.9574L123.371 60.1534C123.315 60.1676 123.198 60.1932 123.07 60.1932C122.812 60.1932 122.604 60.1023 122.604 59.6875V57.4318H123.465V56.6364ZM125.447 58.4432C125.447 57.8125 125.839 57.4489 126.391 57.4489C126.93 57.4489 127.249 57.7926 127.249 58.3807V61H128.277V58.2216C128.277 57.1676 127.68 56.5795 126.774 56.5795C126.104 56.5795 125.678 56.8835 125.476 57.3778H125.425V55.1818H124.419V61H125.447V58.4432ZM130.581 61.0881C131.266 61.0881 131.675 60.767 131.862 60.4006H131.896V61H132.885V58.0795C132.885 56.9261 131.945 56.5795 131.112 56.5795C130.195 56.5795 129.49 56.9886 129.263 57.7841L130.223 57.9205C130.325 57.6222 130.615 57.3665 131.118 57.3665C131.595 57.3665 131.857 57.6108 131.857 58.0398V58.0568C131.857 58.3523 131.547 58.3665 130.777 58.4489C129.93 58.5398 129.121 58.7926 129.121 59.7756C129.121 60.6335 129.749 61.0881 130.581 61.0881ZM130.848 60.3324C130.419 60.3324 130.112 60.1364 130.112 59.7585C130.112 59.3636 130.456 59.1989 130.916 59.1335C131.186 59.0966 131.726 59.0284 131.859 58.9205V59.4347C131.859 59.9205 131.467 60.3324 130.848 60.3324ZM136.098 56.6364H135.237V55.5909H134.209V56.6364H133.589V57.4318H134.209V59.858C134.203 60.679 134.8 61.0824 135.572 61.0597C135.865 61.0511 136.067 60.9943 136.178 60.9574L136.004 60.1534C135.947 60.1676 135.831 60.1932 135.703 60.1932C135.445 60.1932 135.237 60.1023 135.237 59.6875V57.4318H136.098V56.6364ZM41.9286 65.1818H40.8746V71H41.9286V65.1818ZM46.0373 68.4432C46.0373 67.8125 46.4293 67.4489 46.9805 67.4489C47.5202 67.4489 47.8384 67.7926 47.8384 68.3807V71H48.8668V68.2216C48.8668 67.1676 48.2702 66.5795 47.364 66.5795C46.6935 66.5795 46.2674 66.8835 46.0657 67.3778H46.0146V65.1818H45.0089V71H46.0373V68.4432ZM51.1708 71.0881C51.8555 71.0881 52.2646 70.767 52.4521 70.4006H52.4862V71H53.4748V68.0795C53.4748 66.9261 52.5344 66.5795 51.7021 66.5795C50.7844 66.5795 50.0799 66.9886 49.8526 67.7841L50.8129 67.9205C50.9151 67.6222 51.2049 67.3665 51.7077 67.3665C52.185 67.3665 52.4464 67.6108 52.4464 68.0398V68.0568C52.4464 68.3523 52.1367 68.3665 51.3668 68.4489C50.5202 68.5398 49.7106 68.7926 49.7106 69.7756C49.7106 70.6335 50.3384 71.0881 51.1708 71.0881ZM51.4379 70.3324C51.0089 70.3324 50.7021 70.1364 50.7021 69.7585C50.7021 69.3636 51.0458 69.1989 51.506 69.1335C51.7759 69.0966 52.3157 69.0284 52.4492 68.9205V69.4347C52.4492 69.9205 52.0572 70.3324 51.4379 70.3324ZM58.2504 66.6364H57.1566L56.1509 69.8778H56.1055L55.1026 66.6364H54.006L55.56 71H56.6964L58.2504 66.6364ZM60.7454 71.0852C61.7624 71.0852 62.4613 70.5881 62.6431 69.8295L61.6829 69.7216C61.5437 70.0909 61.2028 70.2841 60.7596 70.2841C60.0948 70.2841 59.6545 69.8466 59.646 69.0994H62.6857V68.7841C62.6857 67.2528 61.7653 66.5795 60.6914 66.5795C59.4414 66.5795 58.6261 67.4972 58.6261 68.8438C58.6261 70.2131 59.43 71.0852 60.7454 71.0852ZM59.6488 68.4062C59.68 67.8494 60.092 67.3807 60.7056 67.3807C61.2965 67.3807 61.6942 67.8125 61.6999 68.4062H59.6488ZM67.7191 66.6364H66.8583V65.5909H65.8299V66.6364H65.2106V67.4318H65.8299V69.858C65.8242 70.679 66.4208 71.0824 67.1935 71.0597C67.4862 71.0511 67.6879 70.9943 67.7987 70.9574L67.6254 70.1534C67.5685 70.1676 67.4521 70.1932 67.3242 70.1932C67.0657 70.1932 66.8583 70.1023 66.8583 69.6875V67.4318H67.7191V66.6364ZM70.4357 71.0852C71.7141 71.0852 72.5266 70.1847 72.5266 68.8352C72.5266 67.483 71.7141 66.5795 70.4357 66.5795C69.1573 66.5795 68.3448 67.483 68.3448 68.8352C68.3448 70.1847 69.1573 71.0852 70.4357 71.0852ZM70.4414 70.2614C69.734 70.2614 69.3874 69.6307 69.3874 68.8324C69.3874 68.0341 69.734 67.3949 70.4414 67.3949C71.1374 67.3949 71.484 68.0341 71.484 68.8324C71.484 69.6307 71.1374 70.2614 70.4414 70.2614ZM75.5785 66.6364H74.7177V65.5909H73.6893V66.6364H73.07V67.4318H73.6893V69.858C73.6836 70.679 74.2802 71.0824 75.0529 71.0597C75.3455 71.0511 75.5472 70.9943 75.658 70.9574L75.4847 70.1534C75.4279 70.1676 75.3114 70.1932 75.1836 70.1932C74.9251 70.1932 74.7177 70.1023 74.7177 69.6875V67.4318H75.5785V66.6364ZM77.6942 71.0881C78.3789 71.0881 78.788 70.767 78.9755 70.4006H79.0096V71H79.9982V68.0795C79.9982 66.9261 79.0579 66.5795 78.2255 66.5795C77.3079 66.5795 76.6033 66.9886 76.3761 67.7841L77.3363 67.9205C77.4386 67.6222 77.7283 67.3665 78.2312 67.3665C78.7085 67.3665 78.9698 67.6108 78.9698 68.0398V68.0568C78.9698 68.3523 78.6602 68.3665 77.8903 68.4489C77.0437 68.5398 76.234 68.7926 76.234 69.7756C76.234 70.6335 76.8619 71.0881 77.6942 71.0881ZM77.9613 70.3324C77.5323 70.3324 77.2255 70.1364 77.2255 69.7585C77.2255 69.3636 77.5692 69.1989 78.0295 69.1335C78.2994 69.0966 78.8391 69.0284 78.9727 68.9205V69.4347C78.9727 69.9205 78.5806 70.3324 77.9613 70.3324ZM82.0607 65.1818H81.0323V71H82.0607V65.1818ZM87.006 71.0852C88.1026 71.0852 88.8015 70.4347 88.8754 69.5085H87.8924C87.8043 69.9773 87.4663 70.2472 87.0146 70.2472C86.3725 70.2472 85.9577 69.7102 85.9577 68.8182C85.9577 67.9375 86.381 67.4091 87.0146 67.4091C87.5089 67.4091 87.8129 67.7273 87.8924 68.1477H88.8754C88.8043 67.2017 88.0657 66.5795 87.0004 66.5795C85.7219 66.5795 84.9151 67.5028 84.9151 68.8352C84.9151 70.1562 85.7021 71.0852 87.006 71.0852ZM89.7198 71H90.7482V68.4347C90.7482 67.8807 91.1658 67.4886 91.7312 67.4886C91.9045 67.4886 92.1204 67.5199 92.2085 67.5483V66.6023C92.1147 66.5852 91.9528 66.5739 91.8391 66.5739C91.3391 66.5739 90.9215 66.858 90.7624 67.3636H90.717V66.6364H89.7198V71ZM94.6438 71.0852C95.6609 71.0852 96.3597 70.5881 96.5415 69.8295L95.5813 69.7216C95.4421 70.0909 95.1012 70.2841 94.658 70.2841C93.9933 70.2841 93.5529 69.8466 93.5444 69.0994H96.5842V68.7841C96.5842 67.2528 95.6637 66.5795 94.5898 66.5795C93.3398 66.5795 92.5245 67.4972 92.5245 68.8438C92.5245 70.2131 93.3285 71.0852 94.6438 71.0852ZM93.5472 68.4062C93.5785 67.8494 93.9904 67.3807 94.604 67.3807C95.195 67.3807 95.5927 67.8125 95.5984 68.4062H93.5472ZM98.7099 71.0881C99.3945 71.0881 99.8036 70.767 99.9911 70.4006H100.025V71H101.014V68.0795C101.014 66.9261 100.074 66.5795 99.2411 66.5795C98.3235 66.5795 97.619 66.9886 97.3917 67.7841L98.3519 67.9205C98.4542 67.6222 98.744 67.3665 99.2468 67.3665C99.7241 67.3665 99.9854 67.6108 99.9854 68.0398V68.0568C99.9854 68.3523 99.6758 68.3665 98.9059 68.4489C98.0593 68.5398 97.2496 68.7926 97.2496 69.7756C97.2496 70.6335 97.8775 71.0881 98.7099 71.0881ZM98.9769 70.3324C98.5479 70.3324 98.2411 70.1364 98.2411 69.7585C98.2411 69.3636 98.5849 69.1989 99.0451 69.1335C99.315 69.0966 99.8548 69.0284 99.9883 68.9205V69.4347C99.9883 69.9205 99.5962 70.3324 98.9769 70.3324ZM104.227 66.6364H103.366V65.5909H102.338V66.6364H101.718V67.4318H102.338V69.858C102.332 70.679 102.929 71.0824 103.701 71.0597C103.994 71.0511 104.196 70.9943 104.306 70.9574L104.133 70.1534C104.076 70.1676 103.96 70.1932 103.832 70.1932C103.574 70.1932 103.366 70.1023 103.366 69.6875V67.4318H104.227V66.6364ZM105.087 71H106.115V66.6364H105.087V71ZM105.604 66.017C105.931 66.017 106.198 65.767 106.198 65.4602C106.198 65.1506 105.931 64.9006 105.604 64.9006C105.275 64.9006 105.007 65.1506 105.007 65.4602C105.007 65.767 105.275 66.017 105.604 66.017ZM111.071 66.6364H109.977L108.971 69.8778H108.926L107.923 66.6364H106.826L108.38 71H109.517L111.071 66.6364ZM113.566 71.0852C114.583 71.0852 115.282 70.5881 115.463 69.8295L114.503 69.7216C114.364 70.0909 114.023 70.2841 113.58 70.2841C112.915 70.2841 112.475 69.8466 112.466 69.0994H115.506V68.7841C115.506 67.2528 114.586 66.5795 113.512 66.5795C112.262 66.5795 111.446 67.4972 111.446 68.8438C111.446 70.2131 112.25 71.0852 113.566 71.0852ZM112.469 68.4062C112.5 67.8494 112.912 67.3807 113.526 67.3807C114.117 67.3807 114.515 67.8125 114.52 68.4062H112.469ZM120.571 66.6364H119.664V66.2926C119.664 65.9517 119.806 65.7614 120.19 65.7614C120.352 65.7614 120.488 65.7983 120.574 65.8239L120.781 65.0284C120.647 64.983 120.355 64.9091 120 64.9091C119.241 64.9091 118.636 65.3438 118.636 66.2244V66.6364H117.991V67.4318H118.636V71H119.664V67.4318H120.571V66.6364ZM121.376 71H122.404V68.4347C122.404 67.8807 122.822 67.4886 123.387 67.4886C123.561 67.4886 123.777 67.5199 123.865 67.5483V66.6023C123.771 66.5852 123.609 66.5739 123.495 66.5739C122.995 66.5739 122.578 66.858 122.419 67.3636H122.373V66.6364H121.376V71ZM126.3 71.0852C127.317 71.0852 128.016 70.5881 128.198 69.8295L127.238 69.7216C127.098 70.0909 126.757 70.2841 126.314 70.2841C125.65 70.2841 125.209 69.8466 125.201 69.0994H128.24V68.7841C128.24 67.2528 127.32 66.5795 126.246 66.5795C124.996 66.5795 124.181 67.4972 124.181 68.8438C124.181 70.2131 124.985 71.0852 126.3 71.0852ZM125.203 68.4062C125.235 67.8494 125.647 67.3807 126.26 67.3807C126.851 67.3807 127.249 67.8125 127.255 68.4062H125.203ZM131.042 71.0852C132.059 71.0852 132.758 70.5881 132.94 69.8295L131.98 69.7216C131.841 70.0909 131.5 70.2841 131.056 70.2841C130.392 70.2841 129.951 69.8466 129.943 69.0994H132.983V68.7841C132.983 67.2528 132.062 66.5795 130.988 66.5795C129.738 66.5795 128.923 67.4972 128.923 68.8438C128.923 70.2131 129.727 71.0852 131.042 71.0852ZM129.946 68.4062C129.977 67.8494 130.389 67.3807 131.002 67.3807C131.593 67.3807 131.991 67.8125 131.997 68.4062H129.946ZM135.472 71.0767C136.222 71.0767 136.56 70.6307 136.722 70.3125H136.784V71H137.796V65.1818H136.765V67.358H136.722C136.566 67.0426 136.245 66.5795 135.475 66.5795C134.466 66.5795 133.674 67.3693 133.674 68.8239C133.674 70.2614 134.444 71.0767 135.472 71.0767ZM135.759 70.233C135.08 70.233 134.722 69.6364 134.722 68.8182C134.722 68.0057 135.074 67.4233 135.759 67.4233C136.421 67.4233 136.784 67.9716 136.784 68.8182C136.784 69.6648 136.415 70.233 135.759 70.233ZM140.795 71.0852C142.074 71.0852 142.886 70.1847 142.886 68.8352C142.886 67.483 142.074 66.5795 140.795 66.5795C139.517 66.5795 138.704 67.483 138.704 68.8352C138.704 70.1847 139.517 71.0852 140.795 71.0852ZM140.801 70.2614C140.093 70.2614 139.747 69.6307 139.747 68.8324C139.747 68.0341 140.093 67.3949 140.801 67.3949C141.497 67.3949 141.843 68.0341 141.843 68.8324C141.843 69.6307 141.497 70.2614 140.801 70.2614ZM143.759 71H144.787V68.3466C144.787 67.8097 145.145 67.446 145.588 67.446C146.023 67.446 146.321 67.7386 146.321 68.1875V71H147.33V68.2784C147.33 67.7869 147.623 67.446 148.12 67.446C148.534 67.446 148.864 67.6903 148.864 68.2301V71H149.895V68.071C149.895 67.0966 149.333 66.5795 148.532 66.5795C147.898 66.5795 147.415 66.892 147.222 67.3778H147.176C147.009 66.8835 146.586 66.5795 145.998 66.5795C145.412 66.5795 144.975 66.8807 144.793 67.3778H144.742V66.6364H143.759V71ZM151.572 71.0625C151.907 71.0625 152.194 70.7841 152.197 70.4375C152.194 70.0966 151.907 69.8182 151.572 69.8182C151.225 69.8182 150.944 70.0966 150.947 70.4375C150.944 70.7841 151.225 71.0625 151.572 71.0625ZM155.774 65.1818H154.99V67.3239H155.774V65.1818ZM157.237 65.1818H156.453V67.3239H157.237V65.1818Z" fill="#555A60"/>
<circle cx="100" cy="91" r="4" fill="#0ABF53"/>
<circle cx="88" cy="91" r="4" fill="#D9DDEA" fill-opacity="0.9"/>
<circle cx="76" cy="91" r="4" fill="#D9DDEA" fill-opacity="0.4"/>
<circle cx="112" cy="91" r="4" fill="#D9DDEA" fill-opacity="0.9"/>
<circle cx="124" cy="91" r="4" fill="#D9DDEA" fill-opacity="0.4"/>
<rect x="89" y="104" width="22" height="2" rx="1" fill="#0ABF53"/>
<rect x="84" y="109" width="32" height="2" rx="1" fill="#D9DDEA"/>
<path d="M0 104H200V140C200 142.209 198.209 144 196 144H4C1.79086 144 0 142.209 0 140V104Z" fill="url(#paint0_linear)"/>
</g>
<defs>
<filter id="filter0_d" x="22" y="18" width="156" height="134" filterUnits="userSpaceOnUse" color-interpolation-filters="sRGB">
<feFlood flood-opacity="0" result="BackgroundImageFix"/>
<feColorMatrix in="SourceAlpha" type="matrix" values="0 0 0 0 0 0 0 0 0 0 0 0 0 0 0 0 0 0 127 0"/>
<feOffset dy="3"/>
<feGaussianBlur stdDeviation="2.5"/>
<feColorMatrix type="matrix" values="0 0 0 0 0.54902 0 0 0 0 0.596078 0 0 0 0 0.643137 0 0 0 0.125 0"/>
<feBlend mode="normal" in2="BackgroundImageFix" result="effect1_dropShadow"/>
<feBlend mode="normal" in="SourceGraphic" in2="effect1_dropShadow" result="shape"/>
</filter>
<linearGradient id="paint0_linear" x1="100" y1="154" x2="100" y2="92.5" gradientUnits="userSpaceOnUse">
<stop offset="0.256387" stop-color="#F3F4F6"/>
<stop offset="0.749415" stop-color="#F3F4F6" stop-opacity="0"/>
</linearGradient>
<clipPath id="clip0">
<rect width="200" height="144" fill="white"/>
</clipPath>
</defs>
</svg>
