<svg width="200" height="144" viewBox="0 0 200 144" fill="none" xmlns="http://www.w3.org/2000/svg">
<g clip-path="url(#clip0)">
<path d="M196 0H4C1.79086 0 0 1.79086 0 4V140C0 142.209 1.79086 144 4 144H196C198.209 144 200 142.209 200 140V4C200 1.79086 198.209 0 196 0Z" fill="#F3F4F6"/>
<g filter="url(#filter0_d)">
<path d="M27 24C27 21.7909 28.7909 20 31 20H169C171.209 20 173 21.7909 173 24V144H27V24Z" fill="white"/>
<path d="M31 20.5H169C170.933 20.5 172.5 22.067 172.5 24V143.5H27.5V24C27.5 22.067 29.067 20.5 31 20.5Z" stroke="#E7EAF3"/>
</g>
<path d="M88.1962 40.4545C88.1962 38.8089 87.1919 37.8395 85.857 37.8395C84.5197 37.8395 83.5179 38.8089 83.5179 40.4545C83.5179 42.0977 84.5197 43.0696 85.857 43.0696C87.1919 43.0696 88.1962 42.1001 88.1962 40.4545ZM87.269 40.4545C87.269 41.6129 86.6873 42.2418 85.857 42.2418C85.0293 42.2418 84.4451 41.6129 84.4451 40.4545C84.4451 39.2962 85.0293 38.6673 85.857 38.6673C86.6873 38.6673 87.269 39.2962 87.269 40.4545ZM91.4619 41.3942C91.4619 41.9759 91.0467 42.2642 90.649 42.2642C90.2165 42.2642 89.9281 41.9585 89.9281 41.4737V39.1818H89.0283V41.6129C89.0283 42.5302 89.5503 43.0497 90.301 43.0497C90.8727 43.0497 91.2754 42.7489 91.4494 42.3214H91.4892V43H92.3617V39.1818H91.4619V41.3942ZM93.2871 43H94.1869V40.7553C94.1869 40.2706 94.5523 39.9276 95.047 39.9276C95.1986 39.9276 95.3876 39.9549 95.4646 39.9798V39.152C95.3826 39.1371 95.2409 39.1271 95.1415 39.1271C94.704 39.1271 94.3386 39.3757 94.1994 39.8182H94.1596V39.1818H93.2871V43ZM97.6148 38.6822H99.1883V43H100.103V38.6822H101.677V37.9091H97.6148V38.6822ZM103.557 43.0746C104.446 43.0746 105.058 42.6396 105.217 41.9759L104.377 41.8814C104.255 42.2045 103.957 42.3736 103.569 42.3736C102.987 42.3736 102.602 41.9908 102.595 41.337H105.254V41.0611C105.254 39.7212 104.449 39.1321 103.509 39.1321C102.416 39.1321 101.702 39.935 101.702 41.1133C101.702 42.3114 102.406 43.0746 103.557 43.0746ZM102.597 40.7305C102.624 40.2433 102.985 39.8331 103.522 39.8331C104.039 39.8331 104.387 40.2109 104.392 40.7305H102.597ZM107.114 43.0771C107.713 43.0771 108.071 42.7962 108.235 42.4755H108.265V43H109.13V40.4446C109.13 39.4354 108.307 39.1321 107.579 39.1321C106.776 39.1321 106.16 39.4901 105.961 40.1861L106.801 40.3054C106.891 40.0444 107.144 39.8207 107.584 39.8207C108.002 39.8207 108.23 40.0344 108.23 40.4098V40.4247C108.23 40.6832 107.959 40.6957 107.286 40.7678C106.545 40.8473 105.837 41.0685 105.837 41.9286C105.837 42.6793 106.386 43.0771 107.114 43.0771ZM107.348 42.4158C106.973 42.4158 106.704 42.2443 106.704 41.9137C106.704 41.5682 107.005 41.424 107.408 41.3668C107.644 41.3345 108.116 41.2749 108.233 41.1804V41.6303C108.233 42.0554 107.89 42.4158 107.348 42.4158ZM110.035 43H110.935V40.6783C110.935 40.2085 111.248 39.8903 111.636 39.8903C112.016 39.8903 112.277 40.1463 112.277 40.5391V43H113.16V40.6186C113.16 40.1886 113.416 39.8903 113.851 39.8903C114.214 39.8903 114.502 40.104 114.502 40.5763V43H115.404V40.4371C115.404 39.5845 114.912 39.1321 114.211 39.1321C113.657 39.1321 113.234 39.4055 113.065 39.8306H113.026C112.879 39.3981 112.508 39.1321 111.994 39.1321C111.482 39.1321 111.099 39.3956 110.94 39.8306H110.895V39.1818H110.035V43Z" fill="#555A60"/>
<rect x="66" y="50" width="18" height="2" rx="1" fill="#D9DDEA"/>
<rect x="88" y="50" width="21" height="2" rx="1" fill="#D9DDEA"/>
<rect x="113" y="50" width="21" height="2" rx="1" fill="#D9DDEA"/>
<path d="M0 104H200V140C200 142.209 198.209 144 196 144H4C1.79086 144 0 142.209 0 140V104Z" fill="url(#paint0_linear)"/>
<path d="M100 82.4091C102.385 82.4091 104.318 80.4758 104.318 78.0909C104.318 75.7061 102.385 73.7727 100 73.7727C97.6151 73.7727 95.6818 75.7061 95.6818 78.0909C95.6818 80.4758 97.6151 82.4091 100 82.4091Z" fill="#0ABF53"/>
<rect x="81" y="98.8182" width="15.5455" height="1.72727" rx="0.863636" fill="#D9DDEA"/>
<rect x="81" y="104" width="15.5455" height="1.72727" rx="0.863636" fill="#0ABF53"/>
<rect x="100" y="98.8182" width="7.77273" height="1.72727" rx="0.863636" fill="#D9DDEA"/>
<rect x="81" y="109.182" width="3.45455" height="3.45455" rx="1.72727" fill="#D9DDEA"/>
<rect x="87.0455" y="109.182" width="3.45455" height="3.45455" rx="1.72727" fill="#D9DDEA"/>
<path fill-rule="evenodd" clip-rule="evenodd" d="M112.951 93.6364H87.9127C89.8291 88.5881 94.7115 85 100.432 85C106.152 85 111.035 88.5881 112.951 93.6364Z" fill="#0ABF53"/>
<rect x="81.5" y="66.5" width="37" height="26.6364" rx="3.5" stroke="#0ABF53"/>
<path d="M56 82.4091C58.3849 82.4091 60.3182 80.4758 60.3182 78.0909C60.3182 75.7061 58.3849 73.7727 56 73.7727C53.6151 73.7727 51.6818 75.7061 51.6818 78.0909C51.6818 80.4758 53.6151 82.4091 56 82.4091Z" fill="#D9DDEA"/>
<rect x="37" y="98.8182" width="15.5455" height="1.72727" rx="0.863636" fill="#D9DDEA"/>
<rect x="37" y="104" width="15.5455" height="1.72727" rx="0.863636" fill="#0ABF53"/>
<rect x="56" y="98.8182" width="7.77273" height="1.72727" rx="0.863636" fill="#D9DDEA"/>
<rect x="37" y="109.182" width="3.45455" height="3.45455" rx="1.72727" fill="#D9DDEA"/>
<rect x="43.0455" y="109.182" width="3.45455" height="3.45455" rx="1.72727" fill="#D9DDEA"/>
<path fill-rule="evenodd" clip-rule="evenodd" d="M68.951 93.6364H43.9127C45.8291 88.5881 50.7115 85 56.4318 85C62.1522 85 67.0345 88.5881 68.951 93.6364Z" fill="#D9DDEA"/>
<rect x="37.5" y="66.5" width="37" height="26.6364" rx="3.5" stroke="#D9DDEA"/>
<path d="M144 82.4091C146.385 82.4091 148.318 80.4758 148.318 78.0909C148.318 75.7061 146.385 73.7727 144 73.7727C141.615 73.7727 139.682 75.7061 139.682 78.0909C139.682 80.4758 141.615 82.4091 144 82.4091Z" fill="#D9DDEA"/>
<rect x="125" y="98.8182" width="15.5455" height="1.72727" rx="0.863636" fill="#D9DDEA"/>
<rect x="125" y="104" width="15.5455" height="1.72727" rx="0.863636" fill="#0ABF53"/>
<rect x="144" y="98.8182" width="7.77273" height="1.72727" rx="0.863636" fill="#D9DDEA"/>
<rect x="125" y="109.182" width="3.45455" height="3.45455" rx="1.72727" fill="#D9DDEA"/>
<rect x="131.045" y="109.182" width="3.45455" height="3.45455" rx="1.72727" fill="#D9DDEA"/>
<path fill-rule="evenodd" clip-rule="evenodd" d="M156.951 93.6364H131.913C133.829 88.5881 138.711 85 144.432 85C150.152 85 155.035 88.5881 156.951 93.6364Z" fill="#D9DDEA"/>
<rect x="125.5" y="66.5" width="37" height="26.6364" rx="3.5" stroke="#D9DDEA"/>
</g>
<defs>
<filter id="filter0_d" x="22" y="18" width="156" height="134" filterUnits="userSpaceOnUse" color-interpolation-filters="sRGB">
<feFlood flood-opacity="0" result="BackgroundImageFix"/>
<feColorMatrix in="SourceAlpha" type="matrix" values="0 0 0 0 0 0 0 0 0 0 0 0 0 0 0 0 0 0 127 0"/>
<feOffset dy="3"/>
<feGaussianBlur stdDeviation="2.5"/>
<feColorMatrix type="matrix" values="0 0 0 0 0.54902 0 0 0 0 0.596078 0 0 0 0 0.643137 0 0 0 0.125 0"/>
<feBlend mode="normal" in2="BackgroundImageFix" result="effect1_dropShadow"/>
<feBlend mode="normal" in="SourceGraphic" in2="effect1_dropShadow" result="shape"/>
</filter>
<linearGradient id="paint0_linear" x1="100" y1="154" x2="100" y2="92.5" gradientUnits="userSpaceOnUse">
<stop offset="0.256387" stop-color="#F3F4F6"/>
<stop offset="0.749415" stop-color="#F3F4F6" stop-opacity="0"/>
</linearGradient>
<clipPath id="clip0">
<rect width="200" height="144" fill="white"/>
</clipPath>
</defs>
</svg>
