<svg width="200" height="144" viewBox="0 0 200 144" fill="none" xmlns="http://www.w3.org/2000/svg">
<g clip-path="url(#clip0)">
<path d="M196 0H4C1.79086 0 0 1.79086 0 4V140C0 142.209 1.79086 144 4 144H196C198.209 144 200 142.209 200 140V4C200 1.79086 198.209 0 196 0Z" fill="#F3F4F6"/>
<g filter="url(#filter0_d)">
<path d="M27 24C27 21.7909 28.7909 20 31 20H169C171.209 20 173 21.7909 173 24V144H27V24Z" fill="white"/>
<path d="M31 20.5H169C170.933 20.5 172.5 22.067 172.5 24V143.5H27.5V24C27.5 22.067 29.067 20.5 31 20.5Z" stroke="#E7EAF3"/>
</g>
<path d="M56.6887 43H57.6109V40.8374H59.7263V40.0643H57.6109V38.6822H59.95V37.9091H56.6887V43ZM60.6958 43H61.5956V40.7553C61.5956 40.2706 61.961 39.9276 62.4557 39.9276C62.6073 39.9276 62.7963 39.9549 62.8733 39.9798V39.152C62.7913 39.1371 62.6496 39.1271 62.5502 39.1271C62.1127 39.1271 61.7472 39.3757 61.608 39.8182H61.5683V39.1818H60.6958V43ZM64.9794 43.0746C66.098 43.0746 66.8089 42.2866 66.8089 41.1058C66.8089 39.9226 66.098 39.1321 64.9794 39.1321C63.8608 39.1321 63.1499 39.9226 63.1499 41.1058C63.1499 42.2866 63.8608 43.0746 64.9794 43.0746ZM64.9844 42.3537C64.3654 42.3537 64.0621 41.8018 64.0621 41.1033C64.0621 40.4048 64.3654 39.8455 64.9844 39.8455C65.5934 39.8455 65.8967 40.4048 65.8967 41.1033C65.8967 41.8018 65.5934 42.3537 64.9844 42.3537ZM68.4726 40.7628C68.4726 40.2109 68.8057 39.8928 69.2805 39.8928C69.7453 39.8928 70.0237 40.1985 70.0237 40.7081V43H70.9236V40.5689C70.926 39.6541 70.404 39.1321 69.616 39.1321C69.0443 39.1321 68.6515 39.4055 68.4775 39.8306H68.4328V39.1818H67.5727V43H68.4726V40.7628ZM73.7449 39.1818H72.9917V38.267H72.0919V39.1818H71.55V39.8778H72.0919V42.0007C72.0869 42.7191 72.6089 43.0721 73.2851 43.0522C73.5411 43.0447 73.7176 42.995 73.8145 42.9627L73.6629 42.2592C73.6132 42.2717 73.5113 42.294 73.3994 42.294C73.1732 42.294 72.9917 42.2145 72.9917 41.8516V39.8778H73.7449V39.1818ZM76.0499 38.6822H77.6234V43H78.5382V38.6822H80.1117V37.9091H76.0499V38.6822ZM81.9916 43.0746C82.8815 43.0746 83.493 42.6396 83.6521 41.9759L82.8119 41.8814C82.6901 42.2045 82.3918 42.3736 82.004 42.3736C81.4223 42.3736 81.037 41.9908 81.0296 41.337H83.6894V41.0611C83.6894 39.7212 82.884 39.1321 81.9443 39.1321C80.8506 39.1321 80.1372 39.935 80.1372 41.1133C80.1372 42.3114 80.8406 43.0746 81.9916 43.0746ZM81.032 40.7305C81.0594 40.2433 81.4198 39.8331 81.9568 39.8331C82.4738 39.8331 82.8218 40.2109 82.8268 40.7305H81.032ZM84.4506 43H85.3505V40.7553C85.3505 40.2706 85.7159 39.9276 86.2106 39.9276C86.3622 39.9276 86.5511 39.9549 86.6282 39.9798V39.152C86.5462 39.1371 86.4045 39.1271 86.305 39.1271C85.8675 39.1271 85.5021 39.3757 85.3629 39.8182H85.3232V39.1818H84.4506V43ZM87.226 43H88.1259V40.6783C88.1259 40.2085 88.4391 39.8903 88.8269 39.8903C89.2072 39.8903 89.4682 40.1463 89.4682 40.5391V43H90.3507V40.6186C90.3507 40.1886 90.6067 39.8903 91.0417 39.8903C91.4047 39.8903 91.693 40.104 91.693 40.5763V43H92.5953V40.4371C92.5953 39.5845 92.1032 39.1321 91.4022 39.1321C90.8478 39.1321 90.4252 39.4055 90.2562 39.8306H90.2164C90.0698 39.3981 89.6994 39.1321 89.1848 39.1321C88.6728 39.1321 88.29 39.3956 88.1309 39.8306H88.0861V39.1818H87.226V43ZM96.526 40.1911C96.4017 39.5447 95.8847 39.1321 94.9898 39.1321C94.07 39.1321 93.4436 39.5845 93.4461 40.2905C93.4436 40.8473 93.7867 41.2152 94.52 41.3668L95.1713 41.5036C95.5218 41.5806 95.6858 41.7223 95.6858 41.9386C95.6858 42.1996 95.4024 42.396 94.9749 42.396C94.5622 42.396 94.2938 42.217 94.2167 41.8739L93.3392 41.9585C93.4511 42.6594 94.0402 43.0746 94.9774 43.0746C95.9319 43.0746 96.6056 42.5799 96.608 41.8565C96.6056 41.3121 96.2551 40.979 95.5342 40.8224L94.8829 40.6832C94.4951 40.5962 94.341 40.462 94.3435 40.2408C94.341 39.9822 94.6269 39.8033 95.0022 39.8033C95.4173 39.8033 95.6361 40.0295 95.7057 40.2805L96.526 40.1911ZM100.608 43.0746C101.058 43.0746 101.557 42.9354 101.913 42.6271L102.238 43H103.213L102.467 42.1275C102.716 41.7944 102.91 41.2997 102.91 40.6012H102.136C102.136 40.9368 102.057 41.2376 101.923 41.4886L100.993 40.3999L101.314 40.1637C101.739 39.8555 101.99 39.4851 101.99 39.0028C101.99 38.3814 101.5 37.8469 100.697 37.8469C99.8918 37.8469 99.3623 38.3814 99.3623 39.1048C99.3623 39.5597 99.591 39.93 99.8843 40.293C99.3176 40.6832 98.9298 41.0487 98.9298 41.6477C98.9298 42.4581 99.5661 43.0746 100.608 43.0746ZM101.423 42.0653C101.182 42.2393 100.906 42.3338 100.635 42.3338C100.135 42.3338 99.8122 42.0107 99.8122 41.608C99.8122 41.4315 99.9465 41.1655 100.285 40.9169L100.367 40.8572L101.423 42.0653ZM100.533 39.8505C100.319 39.587 100.165 39.3509 100.165 39.1172C100.165 38.8413 100.384 38.5852 100.71 38.5852C101.03 38.5852 101.227 38.8239 101.227 39.0426C101.227 39.3011 101.087 39.4826 100.821 39.6541L100.533 39.8505ZM109.862 39.6268C109.705 38.4957 108.835 37.8395 107.706 37.8395C106.377 37.8395 105.375 38.8089 105.375 40.4545C105.375 42.0977 106.364 43.0696 107.706 43.0696C108.917 43.0696 109.72 42.2866 109.862 41.3146L108.932 41.3097C108.815 41.9062 108.328 42.2418 107.719 42.2418C106.894 42.2418 106.302 41.6229 106.302 40.4545C106.302 39.3061 106.889 38.6673 107.721 38.6673C108.34 38.6673 108.825 39.0178 108.932 39.6268H109.862ZM112.332 43.0746C113.451 43.0746 114.161 42.2866 114.161 41.1058C114.161 39.9226 113.451 39.1321 112.332 39.1321C111.213 39.1321 110.502 39.9226 110.502 41.1058C110.502 42.2866 111.213 43.0746 112.332 43.0746ZM112.337 42.3537C111.718 42.3537 111.415 41.8018 111.415 41.1033C111.415 40.4048 111.718 39.8455 112.337 39.8455C112.946 39.8455 113.249 40.4048 113.249 41.1033C113.249 41.8018 112.946 42.3537 112.337 42.3537ZM115.825 40.7628C115.825 40.2109 116.158 39.8928 116.633 39.8928C117.098 39.8928 117.376 40.1985 117.376 40.7081V43H118.276V40.5689C118.279 39.6541 117.757 39.1321 116.969 39.1321C116.397 39.1321 116.004 39.4055 115.83 39.8306H115.785V39.1818H114.925V43H115.825V40.7628ZM120.608 43.0671C121.264 43.0671 121.56 42.6768 121.702 42.3984H121.756V43H122.641V37.9091H121.739V39.8132H121.702C121.565 39.5373 121.284 39.1321 120.61 39.1321C119.728 39.1321 119.034 39.8232 119.034 41.0959C119.034 42.3537 119.708 43.0671 120.608 43.0671ZM120.859 42.3288C120.265 42.3288 119.952 41.8068 119.952 41.0909C119.952 40.38 120.26 39.8704 120.859 39.8704C121.438 39.8704 121.756 40.3501 121.756 41.0909C121.756 41.8317 121.433 42.3288 120.859 42.3288ZM123.6 43H124.5V39.1818H123.6V43ZM124.052 38.6399C124.338 38.6399 124.572 38.4212 124.572 38.1527C124.572 37.8817 124.338 37.663 124.052 37.663C123.764 37.663 123.53 37.8817 123.53 38.1527C123.53 38.4212 123.764 38.6399 124.052 38.6399ZM127.332 39.1818H126.579V38.267H125.679V39.1818H125.137V39.8778H125.679V42.0007C125.674 42.7191 126.196 43.0721 126.872 43.0522C127.128 43.0447 127.305 42.995 127.401 42.9627L127.25 42.2592C127.2 42.2717 127.098 42.294 126.986 42.294C126.76 42.294 126.579 42.2145 126.579 41.8516V39.8778H127.332V39.1818ZM128.084 43H128.984V39.1818H128.084V43ZM128.537 38.6399C128.823 38.6399 129.056 38.4212 129.056 38.1527C129.056 37.8817 128.823 37.663 128.537 37.663C128.248 37.663 128.015 37.8817 128.015 38.1527C128.015 38.4212 128.248 38.6399 128.537 38.6399ZM131.575 43.0746C132.694 43.0746 133.405 42.2866 133.405 41.1058C133.405 39.9226 132.694 39.1321 131.575 39.1321C130.456 39.1321 129.746 39.9226 129.746 41.1058C129.746 42.2866 130.456 43.0746 131.575 43.0746ZM131.58 42.3537C130.961 42.3537 130.658 41.8018 130.658 41.1033C130.658 40.4048 130.961 39.8455 131.58 39.8455C132.189 39.8455 132.492 40.4048 132.492 41.1033C132.492 41.8018 132.189 42.3537 131.58 42.3537ZM135.068 40.7628C135.068 40.2109 135.401 39.8928 135.876 39.8928C136.341 39.8928 136.619 40.1985 136.619 40.7081V43H137.519V40.5689C137.522 39.6541 137 39.1321 136.212 39.1321C135.64 39.1321 135.247 39.4055 135.073 39.8306H135.028V39.1818H134.168V43H135.068V40.7628ZM141.452 40.1911C141.328 39.5447 140.81 39.1321 139.916 39.1321C138.996 39.1321 138.369 39.5845 138.372 40.2905C138.369 40.8473 138.712 41.2152 139.446 41.3668L140.097 41.5036C140.448 41.5806 140.612 41.7223 140.612 41.9386C140.612 42.1996 140.328 42.396 139.901 42.396C139.488 42.396 139.22 42.217 139.142 41.8739L138.265 41.9585C138.377 42.6594 138.966 43.0746 139.903 43.0746C140.858 43.0746 141.531 42.5799 141.534 41.8565C141.531 41.3121 141.181 40.979 140.46 40.8224L139.809 40.6832C139.421 40.5962 139.267 40.462 139.269 40.2408C139.267 39.9822 139.553 39.8033 139.928 39.8033C140.343 39.8033 140.562 40.0295 140.631 40.2805L141.452 40.1911Z" fill="#555A60"/>
<path d="M63.8227 52H66.0457V51.6094H64.263V50.3736H65.9036V49.983H64.263V48.7543H66.0173V48.3636H63.8227V52ZM67.9686 49.2727H67.3578V48.9957C67.3578 48.7259 67.4715 48.5838 67.7484 48.5838C67.8692 48.5838 67.9402 48.6122 67.9828 48.6264L68.1036 48.2642C68.0396 48.2358 67.9118 48.1932 67.7058 48.1932C67.3152 48.1932 66.9388 48.4276 66.9388 48.8963V49.2727H66.4984V49.6278H66.9388V52H67.3578V49.6278H67.9686V49.2727ZM69.7704 49.2727H69.1596V48.9957C69.1596 48.7259 69.2732 48.5838 69.5502 48.5838C69.6709 48.5838 69.742 48.6122 69.7846 48.6264L69.9053 48.2642C69.8414 48.2358 69.7136 48.1932 69.5076 48.1932C69.117 48.1932 68.7405 48.4276 68.7405 48.8963V49.2727H68.3002V49.6278H68.7405V52H69.1596V49.6278H69.7704V49.2727ZM71.3888 52.0568C71.9428 52.0568 72.3476 51.7798 72.4755 51.3679L72.0706 51.2543C71.9641 51.5384 71.7173 51.6804 71.3888 51.6804C70.897 51.6804 70.5578 51.3626 70.5383 50.7784H72.5181V50.6009C72.5181 49.5852 71.9144 49.2372 71.3462 49.2372C70.6076 49.2372 70.1175 49.8196 70.1175 50.6577C70.1175 51.4957 70.6005 52.0568 71.3888 52.0568ZM70.5383 50.4162C70.5667 49.9918 70.8668 49.6136 71.3462 49.6136C71.8007 49.6136 72.0919 49.9545 72.0919 50.4162H70.5383ZM74.2634 52.0568C74.8671 52.0568 75.2649 51.6875 75.3359 51.2045H74.9169C74.8387 51.5028 74.5902 51.6804 74.2634 51.6804C73.7663 51.6804 73.4467 51.2685 73.4467 50.6364C73.4467 50.0185 73.7734 49.6136 74.2634 49.6136C74.6328 49.6136 74.8529 49.8409 74.9169 50.0895H75.3359C75.2649 49.5781 74.8316 49.2372 74.2563 49.2372C73.5177 49.2372 73.0277 49.8196 73.0277 50.6506C73.0277 51.4673 73.4964 52.0568 74.2634 52.0568ZM77.1345 49.2727H76.5522V48.6193H76.1331V49.2727H75.7212V49.6278H76.1331V51.3324C76.1331 51.8082 76.5166 52.0355 76.8718 52.0355C77.028 52.0355 77.1274 52.0071 77.1843 51.9858L77.099 51.6094C77.0635 51.6165 77.0067 51.6307 76.9144 51.6307C76.7297 51.6307 76.5522 51.5739 76.5522 51.2188V49.6278H77.1345V49.2727ZM77.7649 52H78.1839V49.2727H77.7649V52ZM77.9779 48.8182C78.1413 48.8182 78.2762 48.6903 78.2762 48.5341C78.2762 48.3778 78.1413 48.25 77.9779 48.25C77.8146 48.25 77.6796 48.3778 77.6796 48.5341C77.6796 48.6903 77.8146 48.8182 77.9779 48.8182ZM81.1815 49.2727H80.727L79.9741 51.446H79.9457L79.1929 49.2727H78.7383L79.7468 52H80.173L81.1815 49.2727ZM82.7804 52.0568C83.3344 52.0568 83.7392 51.7798 83.8671 51.3679L83.4622 51.2543C83.3557 51.5384 83.1089 51.6804 82.7804 51.6804C82.2886 51.6804 81.9494 51.3626 81.9299 50.7784H83.9097V50.6009C83.9097 49.5852 83.306 49.2372 82.7378 49.2372C81.9992 49.2372 81.5091 49.8196 81.5091 50.6577C81.5091 51.4957 81.9921 52.0568 82.7804 52.0568ZM81.9299 50.4162C81.9583 49.9918 82.2584 49.6136 82.7378 49.6136C83.1923 49.6136 83.4835 49.9545 83.4835 50.4162H81.9299ZM86.9832 52.0568C87.5087 52.0568 87.6863 51.7301 87.7786 51.581H87.8283V52H88.2332V48.3636H87.8141V49.706H87.7786C87.6863 49.5639 87.5229 49.2372 86.9903 49.2372C86.3014 49.2372 85.8255 49.7841 85.8255 50.6435C85.8255 51.5099 86.3014 52.0568 86.9832 52.0568ZM87.04 51.6804C86.5144 51.6804 86.2445 51.2188 86.2445 50.6364C86.2445 50.0611 86.5073 49.6136 87.04 49.6136C87.5514 49.6136 87.8212 50.0256 87.8212 50.6364C87.8212 51.2543 87.5443 51.6804 87.04 51.6804ZM89.8614 52.0639C90.3372 52.0639 90.5858 51.8082 90.671 51.6307H90.6923V52H91.1114V50.2031C91.1114 49.3366 90.4509 49.2372 90.1028 49.2372C89.6909 49.2372 89.2222 49.3793 89.0091 49.8764L89.4068 50.0185C89.4992 49.8196 89.7176 49.6065 90.1171 49.6065C90.5024 49.6065 90.6923 49.8107 90.6923 50.1605V50.1747C90.6923 50.3771 90.4864 50.3594 89.9892 50.4233C89.4832 50.489 88.931 50.6009 88.931 51.2259C88.931 51.7585 89.3429 52.0639 89.8614 52.0639ZM89.9253 51.6875C89.5915 51.6875 89.35 51.5384 89.35 51.2472C89.35 50.9276 89.6412 50.8281 89.9679 50.7855C90.1455 50.7642 90.6213 50.7145 90.6923 50.6293V51.0128C90.6923 51.3537 90.4225 51.6875 89.9253 51.6875ZM93.0623 49.2727H92.4799V48.6193H92.0609V49.2727H91.6489V49.6278H92.0609V51.3324C92.0609 51.8082 92.4444 52.0355 92.7995 52.0355C92.9557 52.0355 93.0552 52.0071 93.112 51.9858L93.0268 51.6094C92.9913 51.6165 92.9344 51.6307 92.8421 51.6307C92.6574 51.6307 92.4799 51.5739 92.4799 51.2188V49.6278H93.0623V49.2727ZM94.8068 52.0568C95.3608 52.0568 95.7656 51.7798 95.8934 51.3679L95.4886 51.2543C95.3821 51.5384 95.1353 51.6804 94.8068 51.6804C94.3149 51.6804 93.9758 51.3626 93.9563 50.7784H95.936V50.6009C95.936 49.5852 95.3323 49.2372 94.7642 49.2372C94.0255 49.2372 93.5355 49.8196 93.5355 50.6577C93.5355 51.4957 94.0184 52.0568 94.8068 52.0568ZM93.9563 50.4162C93.9847 49.9918 94.2848 49.6136 94.7642 49.6136C95.2187 49.6136 95.5099 49.9545 95.5099 50.4162H93.9563ZM96.8789 52.0284C97.0546 52.0284 97.1985 51.8846 97.1985 51.7088C97.1985 51.533 97.0546 51.3892 96.8789 51.3892C96.7031 51.3892 96.5593 51.533 96.5593 51.7088C96.5593 51.8846 96.7031 52.0284 96.8789 52.0284ZM96.8789 50.0043C97.0546 50.0043 97.1985 49.8604 97.1985 49.6847C97.1985 49.5089 97.0546 49.3651 96.8789 49.3651C96.7031 49.3651 96.5593 49.5089 96.5593 49.6847C96.5593 49.8604 96.7031 50.0043 96.8789 50.0043ZM100.628 48.3636H100.188L99.2785 48.9673V49.4148L100.166 48.8253H100.188V52H100.628V48.3636ZM104.536 48.3636V50.9631C104.536 51.4158 104.319 51.6591 103.939 51.6591C103.593 51.6591 103.343 51.4567 103.343 51.1477H102.91C102.91 51.707 103.343 52.0497 103.939 52.0497C104.572 52.0497 104.976 51.6609 104.976 50.9631V48.3636H104.536ZM106.605 52.0639C107.08 52.0639 107.329 51.8082 107.414 51.6307H107.436V52H107.855V50.2031C107.855 49.3366 107.194 49.2372 106.846 49.2372C106.434 49.2372 105.965 49.3793 105.752 49.8764L106.15 50.0185C106.242 49.8196 106.461 49.6065 106.86 49.6065C107.246 49.6065 107.436 49.8107 107.436 50.1605V50.1747C107.436 50.3771 107.23 50.3594 106.732 50.4233C106.226 50.489 105.674 50.6009 105.674 51.2259C105.674 51.7585 106.086 52.0639 106.605 52.0639ZM106.668 51.6875C106.335 51.6875 106.093 51.5384 106.093 51.2472C106.093 50.9276 106.384 50.8281 106.711 50.7855C106.889 50.7642 107.364 50.7145 107.436 50.6293V51.0128C107.436 51.3537 107.166 51.6875 106.668 51.6875ZM109.038 50.3594C109.038 49.8835 109.333 49.6136 109.734 49.6136C110.123 49.6136 110.359 49.8675 110.359 50.2955V52H110.778V50.267C110.778 49.571 110.407 49.2372 109.855 49.2372C109.443 49.2372 109.188 49.4219 109.06 49.6989H109.024V49.2727H108.619V52H109.038V50.3594ZM113.263 50.8849C113.263 51.3963 112.872 51.6307 112.56 51.6307C112.212 51.6307 111.963 51.375 111.963 50.9773V49.2727H111.544V51.0057C111.544 51.7017 111.913 52.0355 112.425 52.0355C112.837 52.0355 113.107 51.8153 113.235 51.5384H113.263V52H113.682V49.2727H113.263V50.8849ZM115.252 52.0639C115.728 52.0639 115.976 51.8082 116.062 51.6307H116.083V52H116.502V50.2031C116.502 49.3366 115.841 49.2372 115.493 49.2372C115.082 49.2372 114.613 49.3793 114.4 49.8764L114.797 50.0185C114.89 49.8196 115.108 49.6065 115.508 49.6065C115.893 49.6065 116.083 49.8107 116.083 50.1605V50.1747C116.083 50.3771 115.877 50.3594 115.38 50.4233C114.874 50.489 114.322 50.6009 114.322 51.2259C114.322 51.7585 114.734 52.0639 115.252 52.0639ZM115.316 51.6875C114.982 51.6875 114.741 51.5384 114.741 51.2472C114.741 50.9276 115.032 50.8281 115.359 50.7855C115.536 50.7642 116.012 50.7145 116.083 50.6293V51.0128C116.083 51.3537 115.813 51.6875 115.316 51.6875ZM117.267 52H117.686V50.2741C117.686 49.9048 117.977 49.6349 118.375 49.6349C118.487 49.6349 118.602 49.6562 118.63 49.6634V49.2372C118.583 49.2337 118.472 49.2301 118.41 49.2301C118.084 49.2301 117.799 49.4148 117.7 49.6847H117.672V49.2727H117.267V52ZM119.48 53.0227C119.858 53.0227 120.125 52.8221 120.283 52.3977L121.444 49.2798L120.986 49.2727L120.233 51.446H120.205L119.452 49.2727H118.997L120.006 52.0142L119.928 52.2273C119.775 52.6428 119.587 52.6818 119.281 52.6037L119.175 52.973C119.217 52.9943 119.338 53.0227 119.48 53.0227ZM123.397 52H125.691V51.6094H124.001V51.581L124.818 50.7074C125.443 50.038 125.628 49.7255 125.628 49.3224C125.628 48.7614 125.173 48.3139 124.534 48.3139C123.896 48.3139 123.412 48.7472 123.412 49.3864H123.831C123.831 48.9727 124.099 48.6974 124.52 48.6974C124.914 48.6974 125.216 48.9389 125.216 49.3224C125.216 49.658 125.019 49.9066 124.598 50.3665L123.397 51.6804V52ZM127.611 52.0497C128.413 52.0497 128.875 51.3697 128.875 50.1818C128.875 49.0028 128.406 48.3139 127.611 48.3139C126.815 48.3139 126.347 49.0028 126.347 50.1818C126.347 51.3697 126.808 52.0497 127.611 52.0497ZM127.611 51.6591C127.082 51.6591 126.773 51.1282 126.773 50.1818C126.773 49.2372 127.085 48.6974 127.611 48.6974C128.136 48.6974 128.449 49.2372 128.449 50.1818C128.449 51.1282 128.14 51.6591 127.611 51.6591ZM130.828 48.3636H130.388L129.479 48.9673V49.4148L130.367 48.8253H130.388V52H130.828V48.3636ZM133.032 48.3139C132.293 48.305 131.817 48.8608 131.817 49.5284C131.817 50.2315 132.336 50.7358 132.961 50.7358C133.337 50.7358 133.657 50.5511 133.856 50.2528H133.884C133.884 51.1477 133.536 51.6591 132.975 51.6591C132.591 51.6591 132.357 51.4176 132.279 51.0838H131.846C131.931 51.6591 132.364 52.0497 132.975 52.0497C133.792 52.0497 134.296 51.3253 134.296 50.0327C134.296 48.6974 133.628 48.321 133.032 48.3139ZM133.032 48.7045C133.486 48.7045 133.82 49.0952 133.82 49.5213C133.82 49.9545 133.465 50.3452 133.017 50.3452C132.57 50.3452 132.243 49.983 132.243 49.5284C132.243 49.0739 132.584 48.7045 133.032 48.7045Z" fill="#677788"/>
<rect x="43" y="65" width="24" height="2" rx="1" fill="#D9DDEA"/>
<rect x="71" y="65" width="21" height="2" rx="1" fill="#D9DDEA"/>
<rect x="96" y="65" width="13" height="2" rx="1" fill="#D9DDEA"/>
<rect x="113" y="65" width="44" height="2" rx="1" fill="#D9DDEA"/>
<rect x="43" y="71" width="16" height="2" rx="1" fill="#D9DDEA"/>
<rect x="63" y="71" width="22" height="2" rx="1" fill="#D9DDEA"/>
<rect x="89" y="71" width="13" height="2" rx="1" fill="#D9DDEA"/>
<rect x="106" y="71" width="7" height="2" rx="1" fill="#D9DDEA"/>
<rect x="117" y="71" width="18" height="2" rx="1" fill="#D9DDEA"/>
<rect x="139" y="71" width="18" height="2" rx="1" fill="#D9DDEA"/>
<rect x="43" y="77" width="9" height="2" rx="1" fill="#D9DDEA"/>
<rect x="56" y="77" width="10" height="2" rx="1" fill="#D9DDEA"/>
<rect x="70" y="77" width="24" height="2" rx="1" fill="#D9DDEA"/>
<rect x="98" y="77" width="7" height="2" rx="1" fill="#D9DDEA"/>
<rect x="109" y="77" width="33" height="2" rx="1" fill="#D9DDEA"/>
<rect x="146" y="77" width="11" height="2" rx="1" fill="#D9DDEA"/>
<rect x="43" y="83" width="16" height="2" rx="1" fill="#D9DDEA"/>
<rect x="63" y="83" width="22" height="2" rx="1" fill="#D9DDEA"/>
<rect x="89" y="83" width="13" height="2" rx="1" fill="#D9DDEA"/>
<rect x="106" y="83" width="7" height="2" rx="1" fill="#D9DDEA"/>
<rect x="117" y="83" width="18" height="2" rx="1" fill="#D9DDEA"/>
<rect x="139" y="83" width="18" height="2" rx="1" fill="#D9DDEA"/>
<rect x="43" y="89" width="24" height="2" rx="1" fill="#D9DDEA"/>
<rect x="71" y="89" width="21" height="2" rx="1" fill="#D9DDEA"/>
<rect x="96" y="89" width="13" height="2" rx="1" fill="#D9DDEA"/>
<rect x="113" y="89" width="44" height="2" rx="1" fill="#D9DDEA"/>
<rect x="43" y="95" width="4" height="2" rx="1" fill="#D9DDEA"/>
<rect x="51" y="95" width="30" height="2" rx="1" fill="#D9DDEA"/>
<rect x="85" y="95" width="20" height="2" rx="1" fill="#D9DDEA"/>
<rect x="109" y="95" width="11" height="2" rx="1" fill="#D9DDEA"/>
<rect x="124" y="95" width="11" height="2" rx="1" fill="#D9DDEA"/>
<rect x="139" y="95" width="11" height="2" rx="1" fill="#D9DDEA"/>
<rect x="154" y="95" width="3" height="2" rx="1" fill="#D9DDEA"/>
<rect x="43" y="101" width="16" height="2" rx="1" fill="#D9DDEA"/>
<rect x="63" y="101" width="22" height="2" rx="1" fill="#D9DDEA"/>
<rect x="89" y="101" width="13" height="2" rx="1" fill="#D9DDEA"/>
<rect x="106" y="101" width="7" height="2" rx="1" fill="#D9DDEA"/>
<rect x="117" y="101" width="18" height="2" rx="1" fill="#D9DDEA"/>
<rect x="139" y="101" width="18" height="2" rx="1" fill="#D9DDEA"/>
<rect x="43" y="107" width="9" height="2" rx="1" fill="#D9DDEA"/>
<rect x="56" y="107" width="10" height="2" rx="1" fill="#D9DDEA"/>
<rect x="70" y="107" width="24" height="2" rx="1" fill="#D9DDEA"/>
<rect x="98" y="107" width="7" height="2" rx="1" fill="#D9DDEA"/>
<rect x="109" y="107" width="33" height="2" rx="1" fill="#D9DDEA"/>
<rect x="146" y="107" width="11" height="2" rx="1" fill="#D9DDEA"/>
<rect x="43" y="113" width="16" height="2" rx="1" fill="#D9DDEA"/>
<rect x="63" y="113" width="22" height="2" rx="1" fill="#D9DDEA"/>
<rect x="89" y="113" width="13" height="2" rx="1" fill="#D9DDEA"/>
<rect x="106" y="113" width="7" height="2" rx="1" fill="#D9DDEA"/>
<rect x="117" y="113" width="18" height="2" rx="1" fill="#D9DDEA"/>
<rect x="139" y="113" width="18" height="2" rx="1" fill="#D9DDEA"/>
<rect x="72" y="119" width="12" height="2" rx="1" fill="#D9DDEA"/>
<rect x="56" y="119" width="12" height="2" rx="1" fill="#D9DDEA"/>
<rect x="43" y="119" width="9" height="2" rx="1" fill="#D9DDEA"/>
<rect x="88" y="119" width="18" height="2" rx="1" fill="#D9DDEA"/>
<rect x="110" y="119" width="21" height="2" rx="1" fill="#D9DDEA"/>
<rect x="135" y="119" width="22" height="2" rx="1" fill="#D9DDEA"/>
<path d="M0 112H200V148C200 150.209 198.209 152 196 152H4C1.79086 152 0 150.209 0 148V112Z" fill="url(#paint0_linear)"/>
<rect x="43" y="125" width="16" height="2" rx="1" fill="#D9DDEA"/>
<rect x="63" y="125" width="22" height="2" rx="1" fill="#D9DDEA"/>
<rect x="89" y="125" width="13" height="2" rx="1" fill="#D9DDEA"/>
<rect x="106" y="125" width="7" height="2" rx="1" fill="#D9DDEA"/>
<rect x="117" y="125" width="18" height="2" rx="1" fill="#D9DDEA"/>
<rect x="139" y="125" width="18" height="2" rx="1" fill="#D9DDEA"/>
<rect x="43" y="131" width="24" height="2" rx="1" fill="#D9DDEA"/>
<rect x="71" y="131" width="21" height="2" rx="1" fill="#D9DDEA"/>
<rect x="96" y="131" width="13" height="2" rx="1" fill="#D9DDEA"/>
<rect x="113" y="131" width="44" height="2" rx="1" fill="#D9DDEA"/>
<rect x="43" y="137" width="4" height="2" rx="1" fill="#D9DDEA"/>
<rect x="51" y="137" width="30" height="2" rx="1" fill="#D9DDEA"/>
<rect x="85" y="137" width="20" height="2" rx="1" fill="#D9DDEA"/>
<rect x="109" y="137" width="11" height="2" rx="1" fill="#D9DDEA"/>
<rect x="124" y="137" width="11" height="2" rx="1" fill="#D9DDEA"/>
<rect x="139" y="137" width="11" height="2" rx="1" fill="#D9DDEA"/>
<rect x="154" y="135" width="3" height="2" rx="1" fill="#D9DDEA"/>
</g>
<defs>
<filter id="filter0_d" x="22" y="18" width="156" height="134" filterUnits="userSpaceOnUse" color-interpolation-filters="sRGB">
<feFlood flood-opacity="0" result="BackgroundImageFix"/>
<feColorMatrix in="SourceAlpha" type="matrix" values="0 0 0 0 0 0 0 0 0 0 0 0 0 0 0 0 0 0 127 0"/>
<feOffset dy="3"/>
<feGaussianBlur stdDeviation="2.5"/>
<feColorMatrix type="matrix" values="0 0 0 0 0.54902 0 0 0 0 0.596078 0 0 0 0 0.643137 0 0 0 0.125 0"/>
<feBlend mode="normal" in2="BackgroundImageFix" result="effect1_dropShadow"/>
<feBlend mode="normal" in="SourceGraphic" in2="effect1_dropShadow" result="shape"/>
</filter>
<linearGradient id="paint0_linear" x1="100" y1="162" x2="100" y2="100.5" gradientUnits="userSpaceOnUse">
<stop offset="0.256387" stop-color="#F3F4F6"/>
<stop offset="0.749415" stop-color="#F3F4F6" stop-opacity="0"/>
</linearGradient>
<clipPath id="clip0">
<rect width="200" height="144" fill="white"/>
</clipPath>
</defs>
</svg>
