<svg width="200" height="144" viewBox="0 0 200 144" fill="none" xmlns="http://www.w3.org/2000/svg">
<path d="M196 0H4C1.79086 0 0 1.79086 0 4V140C0 142.209 1.79086 144 4 144H196C198.209 144 200 142.209 200 140V4C200 1.79086 198.209 0 196 0Z" fill="#F3F4F6"/>
<g filter="url(#filter0_d)">
<rect x="36" y="36" width="43" height="71" rx="4" fill="white"/>
<rect x="36.5" y="36.5" width="42" height="70" rx="3.5" stroke="#D9DDEA"/>
</g>
<path d="M49.5512 50.8984H50.0029L50.0051 50.4105C50.9191 50.3444 51.4433 49.8416 51.4454 49.1278C51.4433 48.3714 50.819 48.0262 50.1627 47.8707L50.0221 47.8345L50.0306 46.6179C50.3715 46.6775 50.591 46.8821 50.6251 47.1889H51.3858C51.373 46.5113 50.8403 46.017 50.0349 45.9403L50.037 45.4438H49.5853L49.5832 45.9403C48.7842 46.0213 48.2089 46.5113 48.211 47.2166C48.211 47.843 48.6563 48.2031 49.3744 48.3884L49.5661 48.4375L49.5576 49.7265C49.1762 49.6669 48.9014 49.4495 48.8737 49.0639H48.096C48.1258 49.8629 48.6755 50.338 49.5534 50.4105L49.5512 50.8984ZM50.0093 49.7265L50.0179 48.5568C50.4056 48.6697 50.6528 48.8188 50.6549 49.1214C50.6528 49.4367 50.3992 49.6626 50.0093 49.7265ZM49.5704 47.7194C49.2764 47.6257 49.0079 47.4701 49.0122 47.1676C49.0143 46.8927 49.221 46.6796 49.5789 46.6179L49.5704 47.7194ZM53.6736 50.4126C54.6068 50.4126 55.2865 49.8778 55.2844 49.1406C55.2865 48.5951 54.9456 48.2031 54.3341 48.1157V48.0816C54.8071 47.9794 55.1246 47.6278 55.1224 47.1377C55.1246 46.473 54.5578 45.9296 53.6864 45.9296C52.8383 45.9296 52.1821 46.4346 52.165 47.1654H52.9257C52.9385 46.799 53.2794 46.571 53.6821 46.571C54.0891 46.571 54.3597 46.8181 54.3575 47.1846C54.3597 47.566 54.0443 47.8196 53.5926 47.8196H53.207V48.4289H53.5926C54.1445 48.4289 54.4726 48.7059 54.4704 49.1001C54.4726 49.4857 54.1381 49.75 53.6714 49.75C53.2325 49.75 52.8937 49.522 52.8746 49.1661H52.0734C52.0947 49.9034 52.7531 50.4126 53.6736 50.4126ZM57.5306 45.9296C56.5846 45.9232 55.9561 46.5731 55.9561 47.4254C55.9582 48.2478 56.5441 48.8423 57.309 48.8423C57.7799 48.8423 58.189 48.6143 58.4 48.2393H58.4298C58.4277 49.1725 58.0889 49.7286 57.4859 49.7286C57.1088 49.7286 56.8552 49.5113 56.7764 49.164H55.9987C56.0882 49.8863 56.6592 50.4126 57.4859 50.4126C58.5321 50.4126 59.199 49.539 59.1968 48.0369C59.1947 46.4474 58.368 45.9339 57.5306 45.9296ZM57.5328 46.5688C57.9994 46.5688 58.3424 46.9566 58.3424 47.4019C58.3446 47.8536 57.9845 48.2414 57.5242 48.2414C57.0598 48.2414 56.7252 47.875 56.7231 47.4083C56.7231 46.9396 57.0704 46.5688 57.5328 46.5688ZM61.6961 45.7848H61.0207L59.6144 51.0092H60.2899L61.6961 45.7848ZM62.1883 50.3529H62.9596V48.3629C62.9596 47.9602 63.2281 47.6875 63.5605 47.6875C63.8865 47.6875 64.1102 47.9069 64.1102 48.2436V50.3529H64.8666V48.3117C64.8666 47.9431 65.086 47.6875 65.4589 47.6875C65.77 47.6875 66.0171 47.8707 66.0171 48.2755V50.3529H66.7906V48.1562C66.7906 47.4254 66.3687 47.0376 65.7679 47.0376C65.2927 47.0376 64.9305 47.272 64.7856 47.6363H64.7515C64.6258 47.2656 64.3083 47.0376 63.8673 47.0376C63.4284 47.0376 63.1002 47.2634 62.9639 47.6363H62.9255V47.0802H62.1883V50.3529Z" fill="#555A60"/>
<g filter="url(#filter1_d)">
<rect x="44.7755" y="91.1294" width="25.449" height="7.51765" rx="2" fill="white"/>
<rect x="45.2755" y="91.6294" width="24.449" height="6.51765" rx="1.5" stroke="#D9DDEA"/>
</g>
<rect x="51.7959" y="94.4706" width="11.4082" height="0.835294" rx="0.417647" fill="#D9DDEA"/>
<rect x="46.7755" y="61.8941" width="3" height="1.67059" rx="0.835294" fill="#0ABF53"/>
<rect x="46.7755" y="66.0706" width="3" height="1.67059" rx="0.835294" fill="#0ABF53"/>
<rect x="46.7755" y="70.2471" width="3" height="1.67059" rx="0.835294" fill="#0ABF53"/>
<rect x="46.7755" y="74.4235" width="3" height="1.67059" rx="0.835294" fill="#0ABF53"/>
<rect x="46.7755" y="78.6" width="3" height="1.67059" rx="0.835294" fill="#0ABF53"/>
<rect x="52" y="62" width="17" height="2" rx="1" fill="#D9DDEA"/>
<rect x="52" y="66" width="13" height="2" rx="1" fill="#D9DDEA"/>
<rect x="52" y="70" width="10" height="2" rx="1" fill="#D9DDEA"/>
<rect x="52" y="74" width="13" height="2" rx="1" fill="#D9DDEA"/>
<rect x="52" y="79" width="17" height="2" rx="1" fill="#D9DDEA"/>
<g filter="url(#filter2_d)">
<rect x="120" y="36" width="43" height="71" rx="4" fill="white"/>
<rect x="120.5" y="36.5" width="42" height="70" rx="3.5" stroke="#D9DDEA"/>
</g>
<path d="M133.507 50.8984H133.959L133.961 50.4105C134.875 50.3444 135.399 49.8416 135.401 49.1278C135.399 48.3714 134.775 48.0262 134.119 47.8707L133.978 47.8345L133.987 46.6179C134.328 46.6775 134.547 46.8821 134.581 47.1889H135.342C135.329 46.5113 134.796 46.017 133.991 45.9403L133.993 45.4438H133.541L133.539 45.9403C132.74 46.0213 132.165 46.5113 132.167 47.2166C132.167 47.843 132.612 48.2031 133.33 48.3884L133.522 48.4375L133.514 49.7265C133.132 49.6669 132.857 49.4495 132.83 49.0639H132.052C132.082 49.8629 132.632 50.338 133.509 50.4105L133.507 50.8984ZM133.965 49.7265L133.974 48.5568C134.362 48.6697 134.609 48.8188 134.611 49.1214C134.609 49.4367 134.355 49.6626 133.965 49.7265ZM133.526 47.7194C133.232 47.6257 132.964 47.4701 132.968 47.1676C132.97 46.8927 133.177 46.6796 133.535 46.6179L133.526 47.7194ZM135.985 49.5433H138.066V50.3529H138.821V49.5433H139.379V48.8934H138.821V45.9893H137.836L135.985 48.9147V49.5433ZM138.075 48.8934H136.794V48.8593L138.041 46.8842H138.075V48.8934ZM141.575 45.9296C140.629 45.9232 140 46.5731 140 47.4254C140.002 48.2478 140.588 48.8423 141.353 48.8423C141.824 48.8423 142.233 48.6143 142.444 48.2393H142.474C142.472 49.1725 142.133 49.7286 141.53 49.7286C141.153 49.7286 140.899 49.5113 140.82 49.164H140.043C140.132 49.8863 140.703 50.4126 141.53 50.4126C142.576 50.4126 143.243 49.539 143.241 48.0369C143.239 46.4474 142.412 45.9339 141.575 45.9296ZM141.577 46.5688C142.043 46.5688 142.386 46.9566 142.386 47.4019C142.389 47.8536 142.028 48.2414 141.568 48.2414C141.104 48.2414 140.769 47.875 140.767 47.4083C140.767 46.9396 141.114 46.5688 141.577 46.5688ZM145.74 45.7848H145.065L143.658 51.0092H144.334L145.74 45.7848ZM146.232 50.3529H147.004V48.3629C147.004 47.9602 147.272 47.6875 147.604 47.6875C147.93 47.6875 148.154 47.9069 148.154 48.2436V50.3529H148.911V48.3117C148.911 47.9431 149.13 47.6875 149.503 47.6875C149.814 47.6875 150.061 47.8707 150.061 48.2755V50.3529H150.835V48.1562C150.835 47.4254 150.413 47.0376 149.812 47.0376C149.337 47.0376 148.974 47.272 148.83 47.6363H148.795C148.67 47.2656 148.352 47.0376 147.911 47.0376C147.472 47.0376 147.144 47.2634 147.008 47.6363H146.969V47.0802H146.232V50.3529Z" fill="#555A60"/>
<g filter="url(#filter3_d)">
<rect x="128.776" y="91.1294" width="25.449" height="7.51765" rx="2" fill="white"/>
<rect x="129.276" y="91.6294" width="24.449" height="6.51765" rx="1.5" stroke="#D9DDEA"/>
</g>
<rect x="135.796" y="94.4706" width="11.4082" height="0.835294" rx="0.417647" fill="#D9DDEA"/>
<rect x="129.776" y="61.8941" width="3" height="1.67059" rx="0.835294" fill="#0ABF53"/>
<rect x="129.776" y="66.0706" width="3" height="1.67059" rx="0.835294" fill="#0ABF53"/>
<rect x="129.776" y="70.2471" width="3" height="1.67059" rx="0.835294" fill="#0ABF53"/>
<rect x="129.776" y="74.4235" width="3" height="1.67059" rx="0.835294" fill="#0ABF53"/>
<rect x="129.776" y="78.6" width="3" height="1.67059" rx="0.835294" fill="#0ABF53"/>
<rect x="136" y="62" width="17" height="2" rx="1" fill="#D9DDEA"/>
<rect x="136" y="66" width="14" height="2" rx="1" fill="#D9DDEA"/>
<rect x="136" y="70" width="10" height="2" rx="1" fill="#D9DDEA"/>
<rect x="136" y="74" width="14" height="2" rx="1" fill="#D9DDEA"/>
<rect x="136" y="79" width="17" height="2" rx="1" fill="#D9DDEA"/>
<g filter="url(#filter4_d)">
<rect x="75" y="29" width="49" height="85" rx="4" fill="white"/>
<rect x="75.5" y="29.5" width="48" height="84" rx="3.5" stroke="#0ABF53"/>
</g>
<path d="M90.3324 46.6364H90.8594L90.8619 46.0671C91.9283 45.9901 92.5398 45.4034 92.5423 44.5707C92.5398 43.6882 91.8114 43.2855 91.0458 43.104L90.8817 43.0618L90.8917 41.6424C91.2894 41.712 91.5455 41.9506 91.5852 42.3086H92.4727C92.4577 41.5181 91.8363 40.9414 90.8967 40.8519L90.8991 40.2727H90.3722L90.3697 40.8519C89.4375 40.9464 88.7663 41.5181 88.7688 42.3409C88.7688 43.0717 89.2884 43.4918 90.1261 43.7081L90.3498 43.7653L90.3398 45.2692C89.8949 45.1996 89.5742 44.946 89.5419 44.4961H88.6346C88.6694 45.4283 89.3107 45.9826 90.3349 46.0671L90.3324 46.6364ZM90.8668 45.2692L90.8768 43.9045C91.3292 44.0362 91.6175 44.2102 91.62 44.5632C91.6175 44.9311 91.3217 45.1946 90.8668 45.2692ZM90.3548 42.9276C90.0117 42.8182 89.6985 42.6367 89.7035 42.2837C89.706 41.9631 89.9471 41.7145 90.3647 41.6424L90.3548 42.9276ZM93.3147 46H96.8048V45.2294H94.5874V45.1946L95.4649 44.3022C96.4543 43.3526 96.7277 42.8903 96.7277 42.3161C96.7277 41.4634 96.0342 40.8395 95.01 40.8395C94.0008 40.8395 93.2849 41.4659 93.2849 42.4329H94.1624C94.1624 41.9134 94.4905 41.5877 94.9976 41.5877C95.4823 41.5877 95.8428 41.8835 95.8428 42.3633C95.8428 42.7884 95.5843 43.0916 95.0821 43.6012L93.3147 45.3338V46ZM99.4298 40.8395C98.3261 40.832 97.5928 41.5902 97.5928 42.5845C97.5953 43.544 98.2789 44.2376 99.1713 44.2376C99.7206 44.2376 100.198 43.9716 100.444 43.5341H100.479C100.476 44.6229 100.081 45.2717 99.3776 45.2717C98.9376 45.2717 98.6418 45.0181 98.5498 44.6129H97.6425C97.7469 45.4556 98.4131 46.0696 99.3776 46.0696C100.598 46.0696 101.376 45.0504 101.374 43.2979C101.371 41.4435 100.407 40.8445 99.4298 40.8395ZM99.4323 41.5852C99.9767 41.5852 100.377 42.0376 100.377 42.5572C100.379 43.0842 99.9593 43.5366 99.4223 43.5366C98.8804 43.5366 98.4901 43.109 98.4877 42.5646C98.4877 42.0178 98.8928 41.5852 99.4323 41.5852ZM104.29 40.6705H103.502L101.861 46.7656H102.649L104.29 40.6705ZM104.864 46H105.764V43.6783C105.764 43.2085 106.077 42.8903 106.465 42.8903C106.845 42.8903 107.106 43.1463 107.106 43.5391V46H107.988V43.6186C107.988 43.1886 108.244 42.8903 108.679 42.8903C109.042 42.8903 109.331 43.104 109.331 43.5763V46H110.233V43.4371C110.233 42.5845 109.741 42.1321 109.04 42.1321C108.486 42.1321 108.063 42.4055 107.894 42.8306H107.854C107.707 42.3981 107.337 42.1321 106.823 42.1321C106.31 42.1321 105.928 42.3956 105.769 42.8306H105.724V42.1818H104.864V46Z" fill="#555A60"/>
<g filter="url(#filter5_d)">
<rect x="85" y="95" width="29" height="9" rx="2" fill="#0ABF53"/>
</g>
<rect x="93" y="99" width="13" height="1" rx="0.5" fill="white"/>
<rect x="87" y="60" width="3" height="2" rx="1" fill="#0ABF53"/>
<rect x="87" y="65" width="3" height="2" rx="1" fill="#0ABF53"/>
<rect x="87" y="70" width="3" height="2" rx="1" fill="#0ABF53"/>
<rect x="87" y="75" width="3" height="2" rx="1" fill="#0ABF53"/>
<rect x="87" y="80" width="3" height="2" rx="1" fill="#0ABF53"/>
<rect x="93" y="60" width="19" height="2" rx="1" fill="#D9DDEA"/>
<rect x="93" y="65" width="16" height="2" rx="1" fill="#D9DDEA"/>
<rect x="93" y="70" width="11" height="2" rx="1" fill="#D9DDEA"/>
<rect x="93" y="75" width="16" height="2" rx="1" fill="#D9DDEA"/>
<rect x="93" y="80" width="19" height="2" rx="1" fill="#D9DDEA"/>
<defs>
<filter id="filter0_d" x="31" y="34" width="53" height="81" filterUnits="userSpaceOnUse" color-interpolation-filters="sRGB">
<feFlood flood-opacity="0" result="BackgroundImageFix"/>
<feColorMatrix in="SourceAlpha" type="matrix" values="0 0 0 0 0 0 0 0 0 0 0 0 0 0 0 0 0 0 127 0"/>
<feOffset dy="3"/>
<feGaussianBlur stdDeviation="2.5"/>
<feColorMatrix type="matrix" values="0 0 0 0 0.54902 0 0 0 0 0.596078 0 0 0 0 0.643137 0 0 0 0.125 0"/>
<feBlend mode="normal" in2="BackgroundImageFix" result="effect1_dropShadow"/>
<feBlend mode="normal" in="SourceGraphic" in2="effect1_dropShadow" result="shape"/>
</filter>
<filter id="filter1_d" x="42.7755" y="90.1294" width="29.449" height="11.5176" filterUnits="userSpaceOnUse" color-interpolation-filters="sRGB">
<feFlood flood-opacity="0" result="BackgroundImageFix"/>
<feColorMatrix in="SourceAlpha" type="matrix" values="0 0 0 0 0 0 0 0 0 0 0 0 0 0 0 0 0 0 127 0"/>
<feOffset dy="1"/>
<feGaussianBlur stdDeviation="1"/>
<feColorMatrix type="matrix" values="0 0 0 0 0.54902 0 0 0 0 0.596078 0 0 0 0 0.643137 0 0 0 0.18 0"/>
<feBlend mode="normal" in2="BackgroundImageFix" result="effect1_dropShadow"/>
<feBlend mode="normal" in="SourceGraphic" in2="effect1_dropShadow" result="shape"/>
</filter>
<filter id="filter2_d" x="115" y="34" width="53" height="81" filterUnits="userSpaceOnUse" color-interpolation-filters="sRGB">
<feFlood flood-opacity="0" result="BackgroundImageFix"/>
<feColorMatrix in="SourceAlpha" type="matrix" values="0 0 0 0 0 0 0 0 0 0 0 0 0 0 0 0 0 0 127 0"/>
<feOffset dy="3"/>
<feGaussianBlur stdDeviation="2.5"/>
<feColorMatrix type="matrix" values="0 0 0 0 0.54902 0 0 0 0 0.596078 0 0 0 0 0.643137 0 0 0 0.125 0"/>
<feBlend mode="normal" in2="BackgroundImageFix" result="effect1_dropShadow"/>
<feBlend mode="normal" in="SourceGraphic" in2="effect1_dropShadow" result="shape"/>
</filter>
<filter id="filter3_d" x="126.776" y="90.1294" width="29.449" height="11.5176" filterUnits="userSpaceOnUse" color-interpolation-filters="sRGB">
<feFlood flood-opacity="0" result="BackgroundImageFix"/>
<feColorMatrix in="SourceAlpha" type="matrix" values="0 0 0 0 0 0 0 0 0 0 0 0 0 0 0 0 0 0 127 0"/>
<feOffset dy="1"/>
<feGaussianBlur stdDeviation="1"/>
<feColorMatrix type="matrix" values="0 0 0 0 0.54902 0 0 0 0 0.596078 0 0 0 0 0.643137 0 0 0 0.18 0"/>
<feBlend mode="normal" in2="BackgroundImageFix" result="effect1_dropShadow"/>
<feBlend mode="normal" in="SourceGraphic" in2="effect1_dropShadow" result="shape"/>
</filter>
<filter id="filter4_d" x="70" y="27" width="59" height="95" filterUnits="userSpaceOnUse" color-interpolation-filters="sRGB">
<feFlood flood-opacity="0" result="BackgroundImageFix"/>
<feColorMatrix in="SourceAlpha" type="matrix" values="0 0 0 0 0 0 0 0 0 0 0 0 0 0 0 0 0 0 127 0"/>
<feOffset dy="3"/>
<feGaussianBlur stdDeviation="2.5"/>
<feColorMatrix type="matrix" values="0 0 0 0 0.54902 0 0 0 0 0.596078 0 0 0 0 0.643137 0 0 0 0.125 0"/>
<feBlend mode="normal" in2="BackgroundImageFix" result="effect1_dropShadow"/>
<feBlend mode="normal" in="SourceGraphic" in2="effect1_dropShadow" result="shape"/>
</filter>
<filter id="filter5_d" x="83" y="94" width="33" height="13" filterUnits="userSpaceOnUse" color-interpolation-filters="sRGB">
<feFlood flood-opacity="0" result="BackgroundImageFix"/>
<feColorMatrix in="SourceAlpha" type="matrix" values="0 0 0 0 0 0 0 0 0 0 0 0 0 0 0 0 0 0 127 0"/>
<feOffset dy="1"/>
<feGaussianBlur stdDeviation="1"/>
<feColorMatrix type="matrix" values="0 0 0 0 0.215686 0 0 0 0 0.490196 0 0 0 0 1 0 0 0 0.2 0"/>
<feBlend mode="normal" in2="BackgroundImageFix" result="effect1_dropShadow"/>
<feBlend mode="normal" in="SourceGraphic" in2="effect1_dropShadow" result="shape"/>
</filter>
</defs>
</svg>
