<svg width="200" height="144" viewBox="0 0 200 144" fill="none" xmlns="http://www.w3.org/2000/svg">
<g clip-path="url(#clip0)">
<path d="M196 0H4C1.79086 0 0 1.79086 0 4V140C0 142.209 1.79086 144 4 144H196C198.209 144 200 142.209 200 140V4C200 1.79086 198.209 0 196 0Z" fill="#F3F4F6"/>
<g filter="url(#filter0_d)">
<path d="M27 24C27 21.7909 28.7909 20 31 20H169C171.209 20 173 21.7909 173 24V144H27V24Z" fill="white"/>
<path d="M31 20.5H169C170.933 20.5 172.5 22.067 172.5 24V143.5H27.5V24C27.5 22.067 29.067 20.5 31 20.5Z" stroke="#E7EAF3"/>
</g>
<rect x="39.5" y="31.5" width="36" height="24" rx="2.5" fill="white" stroke="#E7EAF3"/>
<path d="M56.75 41.8929C56.75 42.4254 56.3303 42.8571 55.8125 42.8571C55.2947 42.8571 54.875 42.4254 54.875 41.8929C54.875 41.3603 55.2947 40.9286 55.8125 40.9286C56.3303 40.9286 56.75 41.3603 56.75 41.8929Z" fill="#71869D"/>
<path d="M54.25 39C53.5596 39 53 39.5756 53 40.2857V46.7143C53 47.4244 53.5596 48 54.25 48H61.75C62.4404 48 63 47.4244 63 46.7143V40.2857C63 39.5756 62.4404 39 61.75 39H54.25ZM61.75 39.6429C62.0952 39.6429 62.375 39.9307 62.375 40.2857V44.4643L60.0148 43.2125C59.8944 43.1506 59.7491 43.1749 59.654 43.2727L57.3352 45.6578L55.6733 44.5183C55.5494 44.4333 55.3844 44.4501 55.279 44.5584L53.625 46.0714V40.2857C53.625 39.9307 53.9048 39.6429 54.25 39.6429H61.75Z" fill="#71869D"/>
<rect x="39" y="60" width="24" height="2" rx="1" fill="#D9DDEA"/>
<rect x="39" y="66" width="10" height="2" rx="1" fill="#D9DDEA"/>
<rect x="82.5" y="31.5" width="36" height="24" rx="2.5" fill="white" stroke="#0ABF53"/>
<path d="M99.75 41.8929C99.75 42.4254 99.3303 42.8571 98.8125 42.8571C98.2947 42.8571 97.875 42.4254 97.875 41.8929C97.875 41.3603 98.2947 40.9286 98.8125 40.9286C99.3303 40.9286 99.75 41.3603 99.75 41.8929Z" fill="#0ABF53"/>
<path d="M97.25 39C96.5596 39 96 39.5756 96 40.2857V46.7143C96 47.4244 96.5596 48 97.25 48H104.75C105.44 48 106 47.4244 106 46.7143V40.2857C106 39.5756 105.44 39 104.75 39H97.25ZM104.75 39.6429C105.095 39.6429 105.375 39.9307 105.375 40.2857V44.4643L103.015 43.2125C102.894 43.1506 102.749 43.1749 102.654 43.2727L100.335 45.6578L98.6733 44.5183C98.5494 44.4333 98.3844 44.4501 98.279 44.5584L96.625 46.0714V40.2857C96.625 39.9307 96.9048 39.6429 97.25 39.6429H104.75Z" fill="#0ABF53"/>
<rect x="82" y="60" width="24" height="2" rx="1" fill="#0ABF53"/>
<rect x="82" y="66" width="10" height="2" rx="1" fill="#D9DDEA"/>
<rect x="125.5" y="31.5" width="36" height="24" rx="2.5" fill="white" stroke="#E7EAF3"/>
<path d="M142.75 41.8929C142.75 42.4254 142.33 42.8571 141.812 42.8571C141.295 42.8571 140.875 42.4254 140.875 41.8929C140.875 41.3603 141.295 40.9286 141.812 40.9286C142.33 40.9286 142.75 41.3603 142.75 41.8929Z" fill="#71869D"/>
<path d="M140.25 39C139.56 39 139 39.5756 139 40.2857V46.7143C139 47.4244 139.56 48 140.25 48H147.75C148.44 48 149 47.4244 149 46.7143V40.2857C149 39.5756 148.44 39 147.75 39H140.25ZM147.75 39.6429C148.095 39.6429 148.375 39.9307 148.375 40.2857V44.4643L146.015 43.2125C145.894 43.1506 145.749 43.1749 145.654 43.2727L143.335 45.6578L141.673 44.5183C141.549 44.4333 141.384 44.4501 141.279 44.5584L139.625 46.0714V40.2857C139.625 39.9307 139.905 39.6429 140.25 39.6429H147.75Z" fill="#71869D"/>
<rect x="125" y="60" width="24" height="2" rx="1" fill="#D9DDEA"/>
<rect x="125" y="66" width="10" height="2" rx="1" fill="#D9DDEA"/>
<rect x="38.5" y="74.5" width="36" height="24" rx="2.5" fill="white" stroke="#E7EAF3"/>
<path d="M55.75 84.8929C55.75 85.4254 55.3303 85.8571 54.8125 85.8571C54.2947 85.8571 53.875 85.4254 53.875 84.8929C53.875 84.3603 54.2947 83.9286 54.8125 83.9286C55.3303 83.9286 55.75 84.3603 55.75 84.8929Z" fill="#71869D"/>
<path d="M53.25 82C52.5596 82 52 82.5756 52 83.2857V89.7143C52 90.4244 52.5596 91 53.25 91H60.75C61.4404 91 62 90.4244 62 89.7143V83.2857C62 82.5756 61.4404 82 60.75 82H53.25ZM60.75 82.6429C61.0952 82.6429 61.375 82.9307 61.375 83.2857V87.4643L59.0148 86.2125C58.8944 86.1506 58.7491 86.1749 58.654 86.2727L56.3352 88.6578L54.6733 87.5183C54.5494 87.4333 54.3844 87.4501 54.279 87.5584L52.625 89.0714V83.2857C52.625 82.9307 52.9048 82.6429 53.25 82.6429H60.75Z" fill="#71869D"/>
<rect x="38" y="103" width="24" height="2" rx="1" fill="#D9DDEA"/>
<rect x="38" y="109" width="10" height="2" rx="1" fill="#D9DDEA"/>
<rect x="81.5" y="74.5" width="36" height="24" rx="2.5" fill="white" stroke="#E7EAF3"/>
<path d="M98.75 84.8929C98.75 85.4254 98.3303 85.8571 97.8125 85.8571C97.2947 85.8571 96.875 85.4254 96.875 84.8929C96.875 84.3603 97.2947 83.9286 97.8125 83.9286C98.3303 83.9286 98.75 84.3603 98.75 84.8929Z" fill="#71869D"/>
<path d="M96.25 82C95.5596 82 95 82.5756 95 83.2857V89.7143C95 90.4244 95.5596 91 96.25 91H103.75C104.44 91 105 90.4244 105 89.7143V83.2857C105 82.5756 104.44 82 103.75 82H96.25ZM103.75 82.6429C104.095 82.6429 104.375 82.9307 104.375 83.2857V87.4643L102.015 86.2125C101.894 86.1506 101.749 86.1749 101.654 86.2727L99.3352 88.6578L97.6733 87.5183C97.5494 87.4333 97.3844 87.4501 97.279 87.5584L95.625 89.0714V83.2857C95.625 82.9307 95.9048 82.6429 96.25 82.6429H103.75Z" fill="#71869D"/>
<rect x="81" y="103" width="24" height="2" rx="1" fill="#D9DDEA"/>
<rect x="81" y="109" width="10" height="2" rx="1" fill="#D9DDEA"/>
<rect x="124.5" y="74.5" width="36" height="24" rx="2.5" fill="white" stroke="#E7EAF3"/>
<path d="M141.75 84.8929C141.75 85.4254 141.33 85.8571 140.812 85.8571C140.295 85.8571 139.875 85.4254 139.875 84.8929C139.875 84.3603 140.295 83.9286 140.812 83.9286C141.33 83.9286 141.75 84.3603 141.75 84.8929Z" fill="#71869D"/>
<path d="M139.25 82C138.56 82 138 82.5756 138 83.2857V89.7143C138 90.4244 138.56 91 139.25 91H146.75C147.44 91 148 90.4244 148 89.7143V83.2857C148 82.5756 147.44 82 146.75 82H139.25ZM146.75 82.6429C147.095 82.6429 147.375 82.9307 147.375 83.2857V87.4643L145.015 86.2125C144.894 86.1506 144.749 86.1749 144.654 86.2727L142.335 88.6578L140.673 87.5183C140.549 87.4333 140.384 87.4501 140.279 87.5584L138.625 89.0714V83.2857C138.625 82.9307 138.905 82.6429 139.25 82.6429H146.75Z" fill="#71869D"/>
<rect x="124" y="103" width="24" height="2" rx="1" fill="#D9DDEA"/>
<rect x="124" y="109" width="10" height="2" rx="1" fill="#D9DDEA"/>
<path d="M0 104H200V140C200 142.209 198.209 144 196 144H4C1.79086 144 0 142.209 0 140V104Z" fill="url(#paint0_linear)"/>
<path d="M196 0H4C1.79086 0 0 1.79086 0 4V140C0 142.209 1.79086 144 4 144H196C198.209 144 200 142.209 200 140V4C200 1.79086 198.209 0 196 0Z" fill="#F4F5F7" fill-opacity="0.7"/>
<g filter="url(#filter1_d)">
<rect x="39" y="30" width="122" height="84" rx="4" fill="white"/>
</g>
<path d="M118.783 82.8468L108.902 70.8359C108.661 70.5156 108.281 70.3185 107.863 70.3185H107.306C106.888 70.3308 106.495 70.5156 106.254 70.8359L103.087 74.704L96.5249 65.7852C96.2716 65.4402 95.8535 65.2431 95.4228 65.2678H94.8907C94.4727 65.2678 94.08 65.4649 93.8393 65.7852L81.209 82.8468C80.9303 83.2656 80.9303 83.7953 81.209 84.2142L81.5764 84.8178C81.8044 85.212 82.2352 85.4584 82.7039 85.4584H117.314C117.782 85.4584 118.213 85.212 118.441 84.8178L118.808 84.2142C119.062 83.7953 119.074 83.2656 118.783 82.8468ZM86.0356 82.0953L95.1694 69.7642L99.1093 82.0953H86.0356ZM110.384 65.2678C112.297 65.2678 113.842 63.7649 113.842 61.9047C113.842 60.0446 112.297 58.5417 110.384 58.5417C108.471 58.5417 106.926 60.0446 106.926 61.9047C106.926 63.7649 108.471 65.2678 110.384 65.2678Z" fill="#0ABF53"/>
<rect x="185" y="7" width="8" height="8" rx="4" fill="#71869D"/>
<rect x="172" y="7" width="8" height="8" rx="4" fill="#A7B4C3"/>
<path d="M16.6061 67.4632C16.9408 67.1285 16.9408 66.5858 16.6061 66.2511C16.2714 65.9163 15.7286 65.9163 15.3939 66.2511L10.2511 71.3939C9.92656 71.7184 9.9152 72.2409 10.2253 72.5792L14.9396 77.722C15.2595 78.071 15.8017 78.0946 16.1506 77.7747C16.4996 77.4548 16.5232 76.9126 16.2033 76.5637L12.0435 72.0258L16.6061 67.4632Z" fill="#A7B4C3"/>
<path d="M183.251 67.4632C182.916 67.1285 182.916 66.5858 183.251 66.2511C183.586 65.9163 184.129 65.9163 184.463 66.2511L189.606 71.3939C189.931 71.7184 189.942 72.2409 189.632 72.5792L184.918 77.722C184.598 78.071 184.056 78.0946 183.707 77.7747C183.358 77.4548 183.334 76.9126 183.654 76.5637L187.814 72.0258L183.251 67.4632Z" fill="#A7B4C3"/>
<rect x="88" y="126" width="24" height="2" rx="1" fill="#71869D"/>
<rect x="95" y="131" width="10" height="2" rx="1" fill="#D9DDEA"/>
</g>
<defs>
<filter id="filter0_d" x="22" y="18" width="156" height="134" filterUnits="userSpaceOnUse" color-interpolation-filters="sRGB">
<feFlood flood-opacity="0" result="BackgroundImageFix"/>
<feColorMatrix in="SourceAlpha" type="matrix" values="0 0 0 0 0 0 0 0 0 0 0 0 0 0 0 0 0 0 127 0"/>
<feOffset dy="3"/>
<feGaussianBlur stdDeviation="2.5"/>
<feColorMatrix type="matrix" values="0 0 0 0 0.54902 0 0 0 0 0.596078 0 0 0 0 0.643137 0 0 0 0.125 0"/>
<feBlend mode="normal" in2="BackgroundImageFix" result="effect1_dropShadow"/>
<feBlend mode="normal" in="SourceGraphic" in2="effect1_dropShadow" result="shape"/>
</filter>
<filter id="filter1_d" x="31" y="27" width="138" height="100" filterUnits="userSpaceOnUse" color-interpolation-filters="sRGB">
<feFlood flood-opacity="0" result="BackgroundImageFix"/>
<feColorMatrix in="SourceAlpha" type="matrix" values="0 0 0 0 0 0 0 0 0 0 0 0 0 0 0 0 0 0 127 0"/>
<feOffset dy="5"/>
<feGaussianBlur stdDeviation="4"/>
<feColorMatrix type="matrix" values="0 0 0 0 0.54902 0 0 0 0 0.596078 0 0 0 0 0.643137 0 0 0 0.125 0"/>
<feBlend mode="normal" in2="BackgroundImageFix" result="effect1_dropShadow"/>
<feBlend mode="normal" in="SourceGraphic" in2="effect1_dropShadow" result="shape"/>
</filter>
<linearGradient id="paint0_linear" x1="100" y1="154" x2="100" y2="92.5" gradientUnits="userSpaceOnUse">
<stop offset="0.256387" stop-color="#F3F4F6"/>
<stop offset="0.749415" stop-color="#F3F4F6" stop-opacity="0"/>
</linearGradient>
<clipPath id="clip0">
<rect width="200" height="144" fill="white"/>
</clipPath>
</defs>
</svg>
