<svg width="200" height="144" viewBox="0 0 200 144" fill="none" xmlns="http://www.w3.org/2000/svg">
<path d="M196 0H4C1.79086 0 0 1.79086 0 4V140C0 142.209 1.79086 144 4 144H196C198.209 144 200 142.209 200 140V4C200 1.79086 198.209 0 196 0Z" fill="#F3F4F6"/>
<g filter="url(#filter0_d)">
<rect x="27" y="27" width="146" height="89" rx="4" fill="white"/>
<rect x="27.5" y="27.5" width="145" height="88" rx="3.5" stroke="#E7EAF3"/>
</g>
<path d="M51.2952 86.1409C51.4383 85.9726 51.6907 85.9522 51.8591 86.0952C52.0274 86.2383 52.0478 86.4907 51.9048 86.6591L48.5048 90.6591C48.3595 90.83 48.102 90.848 47.9343 90.699L46.1343 89.099C45.9691 88.9522 45.9543 88.6994 46.101 88.5343C46.2478 88.3691 46.5006 88.3543 46.6657 88.501L48.1601 89.8293L51.2952 86.1409Z" fill="#0ABF53"/>
<path d="M117.545 86.1409C117.688 85.9726 117.941 85.9522 118.109 86.0952C118.277 86.2383 118.298 86.4907 118.155 86.6591L114.755 90.6591C114.61 90.83 114.352 90.848 114.184 90.699L112.384 89.099C112.219 88.9522 112.204 88.6994 112.351 88.5343C112.498 88.3691 112.751 88.3543 112.916 88.501L114.41 89.8293L117.545 86.1409Z" fill="#0ABF53"/>
<rect x="59" y="94" width="6" height="3" rx="1.5" fill="#D9DDEA"/>
<rect x="125.25" y="94" width="6" height="3" rx="1.5" fill="#D9DDEA"/>
<rect x="68" y="94" width="12" height="3" rx="1.5" fill="#D9DDEA"/>
<rect x="134.25" y="94" width="12" height="3" rx="1.5" fill="#D9DDEA"/>
<rect x="83" y="94" width="8" height="3" rx="1.5" fill="#D9DDEA"/>
<rect x="149.25" y="94" width="8" height="3" rx="1.5" fill="#D9DDEA"/>
<rect x="59" y="100" width="10" height="3" rx="1.5" fill="#D9DDEA"/>
<rect x="125.25" y="100" width="10" height="3" rx="1.5" fill="#D9DDEA"/>
<rect x="72" y="100" width="12" height="3" rx="1.5" fill="#D9DDEA"/>
<rect x="138.25" y="100" width="12" height="3" rx="1.5" fill="#D9DDEA"/>
<rect x="87" y="100" width="4" height="3" rx="1.5" fill="#D9DDEA"/>
<rect x="153.25" y="100" width="4" height="3" rx="1.5" fill="#D9DDEA"/>
<rect x="59" y="87" width="18" height="3" rx="1.5" fill="#0ABF53"/>
<rect x="125.25" y="87" width="18" height="3" rx="1.5" fill="#0ABF53"/>
<rect x="66" y="60" width="18" height="3" rx="1.5" fill="#D9DDEA"/>
<rect x="88" y="60" width="21" height="3" rx="1.5" fill="#D9DDEA"/>
<rect x="113" y="60" width="21" height="3" rx="1.5" fill="#D9DDEA"/>
<path d="M61.5779 44H62.4877L63.5094 40.4279H63.5491L64.5683 44H65.4781L66.9149 38.9091H65.9231L65.0058 42.6527H64.9611L63.9792 38.9091H63.0768L62.0974 42.6502H62.0502L61.1329 38.9091H60.1411L61.5779 44ZM68.4145 41.7628C68.4145 41.2109 68.7575 40.8928 69.2397 40.8928C69.712 40.8928 69.9905 41.1935 69.9905 41.7081V44H70.8903V41.5689C70.8903 40.6467 70.3683 40.1321 69.5753 40.1321C68.9887 40.1321 68.6158 40.3981 68.4393 40.8306H68.3946V38.9091H67.5146V44H68.4145V41.7628ZM72.9063 44.0771C73.5054 44.0771 73.8633 43.7962 74.0274 43.4755H74.0572V44H74.9223V41.4446C74.9223 40.4354 74.0995 40.1321 73.3711 40.1321C72.5682 40.1321 71.9517 40.4901 71.7529 41.1861L72.5931 41.3054C72.6826 41.0444 72.9361 40.8207 73.3761 40.8207C73.7937 40.8207 74.0224 41.0344 74.0224 41.4098V41.4247C74.0224 41.6832 73.7515 41.6957 73.0778 41.7678C72.337 41.8473 71.6286 42.0685 71.6286 42.9286C71.6286 43.6793 72.178 44.0771 72.9063 44.0771ZM73.14 43.4158C72.7646 43.4158 72.4961 43.2443 72.4961 42.9137C72.4961 42.5682 72.7969 42.424 73.1996 42.3668C73.4358 42.3345 73.9081 42.2749 74.0249 42.1804V42.6303C74.0249 43.0554 73.6819 43.4158 73.14 43.4158ZM77.7337 40.1818H76.9805V39.267H76.0807V40.1818H75.5388V40.8778H76.0807V43.0007C76.0757 43.7191 76.5977 44.0721 77.2738 44.0522C77.5299 44.0447 77.7064 43.995 77.8033 43.9627L77.6517 43.2592C77.602 43.2717 77.5 43.294 77.3882 43.294C77.162 43.294 76.9805 43.2145 76.9805 42.8516V40.8778H77.7337V40.1818ZM80.1356 44.0746C81.0255 44.0746 81.637 43.6396 81.7961 42.9759L80.9559 42.8814C80.8341 43.2045 80.5358 43.3736 80.148 43.3736C79.5664 43.3736 79.1811 42.9908 79.1736 42.337H81.8334V42.0611C81.8334 40.7212 81.028 40.1321 80.0884 40.1321C78.9946 40.1321 78.2812 40.935 78.2812 42.1133C78.2812 43.3114 78.9847 44.0746 80.1356 44.0746ZM79.1761 41.7305C79.2034 41.2433 79.5639 40.8331 80.1008 40.8331C80.6179 40.8331 80.9659 41.2109 80.9708 41.7305H79.1761ZM85.8958 40.1818H84.9388L84.0588 43.0181H84.019L83.1416 40.1818H82.182L83.5418 44H84.5361L85.8958 40.1818ZM88.079 44.0746C88.9689 44.0746 89.5804 43.6396 89.7395 42.9759L88.8993 42.8814C88.7775 43.2045 88.4792 43.3736 88.0914 43.3736C87.5097 43.3736 87.1244 42.9908 87.117 42.337H89.7768V42.0611C89.7768 40.7212 88.9714 40.1321 88.0317 40.1321C86.938 40.1321 86.2246 40.935 86.2246 42.1133C86.2246 43.3114 86.928 44.0746 88.079 44.0746ZM87.1195 41.7305C87.1468 41.2433 87.5072 40.8331 88.0442 40.8331C88.5612 40.8331 88.9092 41.2109 88.9142 41.7305H87.1195ZM90.538 44H91.4379V41.7553C91.4379 41.2706 91.8033 40.9276 92.298 40.9276C92.4496 40.9276 92.6385 40.9549 92.7156 40.9798V40.152C92.6336 40.1371 92.4919 40.1271 92.3924 40.1271C91.9549 40.1271 91.5895 40.3757 91.4503 40.8182H91.4106V40.1818H90.538V44ZM95.8378 44H96.7774L97.4933 41.4197H97.5455L98.2614 44H99.1986L100.28 40.1818H99.3601L98.6989 42.8516H98.6616L97.9755 40.1818H97.0682L96.3821 42.8665H96.3473L95.6762 40.1818H94.7589L95.8378 44ZM102.471 44.0746C103.59 44.0746 104.301 43.2866 104.301 42.1058C104.301 40.9226 103.59 40.1321 102.471 40.1321C101.352 40.1321 100.642 40.9226 100.642 42.1058C100.642 43.2866 101.352 44.0746 102.471 44.0746ZM102.476 43.3537C101.857 43.3537 101.554 42.8018 101.554 42.1033C101.554 41.4048 101.857 40.8455 102.476 40.8455C103.085 40.8455 103.388 41.4048 103.388 42.1033C103.388 42.8018 103.085 43.3537 102.476 43.3537ZM105.064 44H105.964V41.7553C105.964 41.2706 106.33 40.9276 106.824 40.9276C106.976 40.9276 107.165 40.9549 107.242 40.9798V40.152C107.16 40.1371 107.018 40.1271 106.919 40.1271C106.481 40.1271 106.116 40.3757 105.977 40.8182H105.937V40.1818H105.064V44ZM107.84 44H108.74V42.7173L109.068 42.3668L110.236 44H111.312L109.746 41.8299L111.225 40.1818H110.174L108.802 41.7156H108.74V38.9091H107.84V44ZM114.121 45.4318C114.822 45.4318 115.227 45.0714 115.443 44.4624L116.977 40.1868L116.015 40.1818L115.133 43.0653H115.093L114.213 40.1818H113.258L114.643 44.0795L114.566 44.2859C114.399 44.7209 114.136 44.7507 113.743 44.6364L113.534 45.3374C113.656 45.3871 113.875 45.4318 114.121 45.4318ZM119.137 44.0746C120.256 44.0746 120.967 43.2866 120.967 42.1058C120.967 40.9226 120.256 40.1321 119.137 40.1321C118.019 40.1321 117.308 40.9226 117.308 42.1058C117.308 43.2866 118.019 44.0746 119.137 44.0746ZM119.142 43.3537C118.523 43.3537 118.22 42.8018 118.22 42.1033C118.22 41.4048 118.523 40.8455 119.142 40.8455C119.751 40.8455 120.054 41.4048 120.054 42.1033C120.054 42.8018 119.751 43.3537 119.142 43.3537ZM124.164 42.3942C124.164 42.9759 123.749 43.2642 123.351 43.2642C122.919 43.2642 122.63 42.9585 122.63 42.4737V40.1818H121.73V42.6129C121.73 43.5302 122.252 44.0497 123.003 44.0497C123.575 44.0497 123.978 43.7489 124.152 43.3214H124.191V44H125.064V40.1818H124.164V42.3942ZM129.142 44.0671C129.799 44.0671 130.095 43.6768 130.236 43.3984H130.291V44H131.176V38.9091H130.273V40.8132H130.236C130.099 40.5373 129.819 40.1321 129.145 40.1321C128.262 40.1321 127.569 40.8232 127.569 42.0959C127.569 43.3537 128.243 44.0671 129.142 44.0671ZM129.394 43.3288C128.799 43.3288 128.486 42.8068 128.486 42.0909C128.486 41.38 128.794 40.8704 129.394 40.8704C129.973 40.8704 130.291 41.3501 130.291 42.0909C130.291 42.8317 129.968 43.3288 129.394 43.3288ZM133.8 44.0746C134.919 44.0746 135.63 43.2866 135.63 42.1058C135.63 40.9226 134.919 40.1321 133.8 40.1321C132.682 40.1321 131.971 40.9226 131.971 42.1058C131.971 43.2866 132.682 44.0746 133.8 44.0746ZM133.805 43.3537C133.186 43.3537 132.883 42.8018 132.883 42.1033C132.883 41.4048 133.186 40.8455 133.805 40.8455C134.414 40.8455 134.717 41.4048 134.717 42.1033C134.717 42.8018 134.414 43.3537 133.805 43.3537ZM137.45 43.304H136.655L136.637 43.5824C136.595 44.256 136.418 44.9421 136.346 45.2429H136.953C137.072 44.9297 137.348 44.2038 137.418 43.5774L137.45 43.304ZM76.955 50.3942C76.955 50.9759 76.5399 51.2642 76.1422 51.2642C75.7097 51.2642 75.4213 50.9585 75.4213 50.4737V48.1818H74.5214V50.6129C74.5214 51.5302 75.0435 52.0497 75.7942 52.0497C76.3659 52.0497 76.7686 51.7489 76.9426 51.3214H76.9824V52H77.8549V48.1818H76.955V50.3942ZM81.798 49.1911C81.6737 48.5447 81.1566 48.1321 80.2618 48.1321C79.342 48.1321 78.7156 48.5845 78.7181 49.2905C78.7156 49.8473 79.0586 50.2152 79.7919 50.3668L80.4432 50.5036C80.7937 50.5806 80.9578 50.7223 80.9578 50.9386C80.9578 51.1996 80.6744 51.396 80.2468 51.396C79.8342 51.396 79.5657 51.217 79.4887 50.8739L78.6112 50.9585C78.7231 51.6594 79.3122 52.0746 80.2493 52.0746C81.2039 52.0746 81.8775 51.5799 81.88 50.8565C81.8775 50.3121 81.527 49.979 80.8062 49.8224L80.1549 49.6832C79.7671 49.5962 79.613 49.462 79.6155 49.2408C79.613 48.9822 79.8988 48.8033 80.2742 48.8033C80.6893 48.8033 80.9081 49.0295 80.9777 49.2805L81.798 49.1911ZM84.3124 52.0746C85.2023 52.0746 85.8138 51.6396 85.9729 50.9759L85.1327 50.8814C85.0109 51.2045 84.7126 51.3736 84.3248 51.3736C83.7431 51.3736 83.3578 50.9908 83.3504 50.337H86.0102V50.0611C86.0102 48.7212 85.2048 48.1321 84.2651 48.1321C83.1714 48.1321 82.458 48.935 82.458 50.1133C82.458 51.3114 83.1614 52.0746 84.3124 52.0746ZM83.3528 49.7305C83.3802 49.2433 83.7406 48.8331 84.2776 48.8331C84.7946 48.8331 85.1426 49.2109 85.1476 49.7305H83.3528ZM90.1733 52.0746C91.2919 52.0746 92.0028 51.2866 92.0028 50.1058C92.0028 48.9226 91.2919 48.1321 90.1733 48.1321C89.0546 48.1321 88.3437 48.9226 88.3437 50.1058C88.3437 51.2866 89.0546 52.0746 90.1733 52.0746ZM90.1782 51.3537C89.5593 51.3537 89.256 50.8018 89.256 50.1033C89.256 49.4048 89.5593 48.8455 90.1782 48.8455C90.7872 48.8455 91.0905 49.4048 91.0905 50.1033C91.0905 50.8018 90.7872 51.3537 90.1782 51.3537ZM95.2002 50.3942C95.2002 50.9759 94.785 51.2642 94.3873 51.2642C93.9548 51.2642 93.6664 50.9585 93.6664 50.4737V48.1818H92.7666V50.6129C92.7666 51.5302 93.2886 52.0497 94.0393 52.0497C94.611 52.0497 95.0137 51.7489 95.1877 51.3214H95.2275V52H96.1V48.1818H95.2002V50.3942ZM97.0253 52H97.9252V49.7553C97.9252 49.2706 98.2906 48.9276 98.7853 48.9276C98.9369 48.9276 99.1258 48.9549 99.2029 48.9798V48.152C99.1209 48.1371 98.9792 48.1271 98.8797 48.1271C98.4422 48.1271 98.0768 48.3757 97.9376 48.8182H97.8979V48.1818H97.0253V52ZM102.954 52.0671C103.61 52.0671 103.906 51.6768 104.048 51.3984H104.102V52H104.987V46.9091H104.085V48.8132H104.048C103.911 48.5373 103.63 48.1321 102.956 48.1321C102.074 48.1321 101.38 48.8232 101.38 50.0959C101.38 51.3537 102.054 52.0671 102.954 52.0671ZM103.205 51.3288C102.611 51.3288 102.298 50.8068 102.298 50.0909C102.298 49.38 102.606 48.8704 103.205 48.8704C103.784 48.8704 104.102 49.3501 104.102 50.0909C104.102 50.8317 103.779 51.3288 103.205 51.3288ZM107.637 52.0746C108.527 52.0746 109.138 51.6396 109.297 50.9759L108.457 50.8814C108.335 51.2045 108.037 51.3736 107.649 51.3736C107.067 51.3736 106.682 50.9908 106.675 50.337H109.334V50.0611C109.334 48.7212 108.529 48.1321 107.589 48.1321C106.496 48.1321 105.782 48.935 105.782 50.1133C105.782 51.3114 106.486 52.0746 107.637 52.0746ZM106.677 49.7305C106.704 49.2433 107.065 48.8331 107.602 48.8331C108.119 48.8331 108.467 49.2109 108.472 49.7305H106.677ZM113.113 49.1911C112.989 48.5447 112.472 48.1321 111.577 48.1321C110.657 48.1321 110.031 48.5845 110.034 49.2905C110.031 49.8473 110.374 50.2152 111.107 50.3668L111.759 50.5036C112.109 50.5806 112.273 50.7223 112.273 50.9386C112.273 51.1996 111.99 51.396 111.562 51.396C111.15 51.396 110.881 51.217 110.804 50.8739L109.927 50.9585C110.038 51.6594 110.628 52.0746 111.565 52.0746C112.519 52.0746 113.193 51.5799 113.195 50.8565C113.193 50.3121 112.842 49.979 112.122 49.8224L111.47 49.6832C111.083 49.5962 110.928 49.462 110.931 49.2408C110.928 48.9822 111.214 48.8033 111.59 48.8033C112.005 48.8033 112.223 49.0295 112.293 49.2805L113.113 49.1911ZM113.937 52H114.837V48.1818H113.937V52ZM114.39 47.6399C114.676 47.6399 114.909 47.4212 114.909 47.1527C114.909 46.8817 114.676 46.663 114.39 46.663C114.102 46.663 113.868 46.8817 113.868 47.1527C113.868 47.4212 114.102 47.6399 114.39 47.6399ZM117.423 53.5114C118.455 53.5114 119.215 53.0391 119.215 52.0621V48.1818H118.328V48.8132H118.278C118.142 48.5373 117.856 48.1321 117.182 48.1321C116.3 48.1321 115.606 48.8232 115.606 50.0785C115.606 51.3239 116.3 51.9453 117.18 51.9453C117.833 51.9453 118.139 51.5948 118.278 51.3139H118.323V52.0373C118.323 52.5991 117.95 52.8303 117.438 52.8303C116.896 52.8303 116.658 52.5742 116.548 52.3505L115.738 52.5469C115.902 53.0813 116.451 53.5114 117.423 53.5114ZM117.431 51.2393C116.837 51.2393 116.523 50.777 116.523 50.0735C116.523 49.38 116.832 48.8704 117.431 48.8704C118.01 48.8704 118.328 49.3501 118.328 50.0735C118.328 50.8018 118.005 51.2393 117.431 51.2393ZM121.038 49.7628C121.038 49.2109 121.371 48.8928 121.845 48.8928C122.31 48.8928 122.589 49.1985 122.589 49.7081V52H123.489V49.5689C123.491 48.6541 122.969 48.1321 122.181 48.1321C121.609 48.1321 121.216 48.4055 121.042 48.8306H120.998V48.1818H120.138V52H121.038V49.7628Z" fill="#555A60"/>
<rect x="28" y="73" width="144" height="1" fill="#E7EAF3"/>
<defs>
<filter id="filter0_d" x="22" y="25" width="156" height="99" filterUnits="userSpaceOnUse" color-interpolation-filters="sRGB">
<feFlood flood-opacity="0" result="BackgroundImageFix"/>
<feColorMatrix in="SourceAlpha" type="matrix" values="0 0 0 0 0 0 0 0 0 0 0 0 0 0 0 0 0 0 127 0"/>
<feOffset dy="3"/>
<feGaussianBlur stdDeviation="2.5"/>
<feColorMatrix type="matrix" values="0 0 0 0 0.54902 0 0 0 0 0.596078 0 0 0 0 0.643137 0 0 0 0.125 0"/>
<feBlend mode="normal" in2="BackgroundImageFix" result="effect1_dropShadow"/>
<feBlend mode="normal" in="SourceGraphic" in2="effect1_dropShadow" result="shape"/>
</filter>
</defs>
</svg>
