<svg width="200" height="144" viewBox="0 0 200 144" fill="none" xmlns="http://www.w3.org/2000/svg">
<path d="M196 0H4C1.79086 0 0 1.79086 0 4V140C0 142.209 1.79086 144 4 144H196C198.209 144 200 142.209 200 140V4C200 1.79086 198.209 0 196 0Z" fill="#F3F4F6"/>
<path d="M0 104H200V140C200 142.209 198.209 144 196 144H4C1.79086 144 0 142.209 0 140V104Z" fill="url(#paint0_linear)"/>
<g filter="url(#filter0_d)">
<rect x="30" y="32" width="140" height="79" rx="3.28767" fill="white"/>
<rect x="30.411" y="32.411" width="139.178" height="78.1781" rx="2.87671" stroke="#E7EAF3" stroke-width="0.821918"/>
</g>
<path d="M48.75 49.8929C48.75 50.4254 48.3303 50.8571 47.8125 50.8571C47.2947 50.8571 46.875 50.4254 46.875 49.8929C46.875 49.3603 47.2947 48.9286 47.8125 48.9286C48.3303 48.9286 48.75 49.3603 48.75 49.8929Z" fill="#71869D"/>
<path d="M46.25 47C45.5596 47 45 47.5756 45 48.2857V54.7143C45 55.4244 45.5596 56 46.25 56H53.75C54.4404 56 55 55.4244 55 54.7143V48.2857C55 47.5756 54.4404 47 53.75 47H46.25ZM53.75 47.6429C54.0952 47.6429 54.375 47.9307 54.375 48.2857V52.4643L52.0148 51.2125C51.8944 51.1506 51.7491 51.1749 51.654 51.2727L49.3352 53.6578L47.6733 52.5183C47.5494 52.4333 47.3844 52.4501 47.279 52.5584L45.625 54.0714V48.2857C45.625 47.9307 45.9048 47.6429 46.25 47.6429H53.75Z" fill="#71869D"/>
<rect x="62" y="54" width="6" height="3" rx="1.5" fill="#D9DDEA"/>
<rect x="71" y="54" width="12" height="3" rx="1.5" fill="#D9DDEA"/>
<rect x="86" y="54" width="8" height="3" rx="1.5" fill="#D9DDEA"/>
<rect x="62" y="60" width="10" height="3" rx="1.5" fill="#D9DDEA"/>
<rect x="75" y="60" width="12" height="3" rx="1.5" fill="#D9DDEA"/>
<rect x="90" y="60" width="4" height="3" rx="1.5" fill="#D9DDEA"/>
<rect x="62" y="47" width="18" height="3" rx="1.5" fill="#71869D"/>
<path d="M109.75 49.8929C109.75 50.4254 109.33 50.8571 108.812 50.8571C108.295 50.8571 107.875 50.4254 107.875 49.8929C107.875 49.3603 108.295 48.9286 108.812 48.9286C109.33 48.9286 109.75 49.3603 109.75 49.8929Z" fill="#0ABF53"/>
<path d="M107.25 47C106.56 47 106 47.5756 106 48.2857V54.7143C106 55.4244 106.56 56 107.25 56H114.75C115.44 56 116 55.4244 116 54.7143V48.2857C116 47.5756 115.44 47 114.75 47H107.25ZM114.75 47.6429C115.095 47.6429 115.375 47.9307 115.375 48.2857V52.4643L113.015 51.2125C112.894 51.1506 112.749 51.1749 112.654 51.2727L110.335 53.6578L108.673 52.5183C108.549 52.4333 108.384 52.4501 108.279 52.5584L106.625 54.0714V48.2857C106.625 47.9307 106.905 47.6429 107.25 47.6429H114.75Z" fill="#0ABF53"/>
<rect x="123" y="54" width="6" height="3" rx="1.5" fill="#D9DDEA"/>
<rect x="132" y="54" width="12" height="3" rx="1.5" fill="#D9DDEA"/>
<rect x="147" y="54" width="8" height="3" rx="1.5" fill="#D9DDEA"/>
<rect x="123" y="60" width="10" height="3" rx="1.5" fill="#D9DDEA"/>
<rect x="136" y="60" width="12" height="3" rx="1.5" fill="#D9DDEA"/>
<rect x="151" y="60" width="4" height="3" rx="1.5" fill="#D9DDEA"/>
<rect x="123" y="47" width="18" height="3" rx="1.5" fill="#0ABF53"/>
<path d="M48.75 82.8929C48.75 83.4254 48.3303 83.8571 47.8125 83.8571C47.2947 83.8571 46.875 83.4254 46.875 82.8929C46.875 82.3603 47.2947 81.9286 47.8125 81.9286C48.3303 81.9286 48.75 82.3603 48.75 82.8929Z" fill="#71869D"/>
<path d="M46.25 80C45.5596 80 45 80.5756 45 81.2857V87.7143C45 88.4244 45.5596 89 46.25 89H53.75C54.4404 89 55 88.4244 55 87.7143V81.2857C55 80.5756 54.4404 80 53.75 80H46.25ZM53.75 80.6429C54.0952 80.6429 54.375 80.9307 54.375 81.2857V85.4643L52.0148 84.2125C51.8944 84.1506 51.7491 84.1749 51.654 84.2727L49.3352 86.6578L47.6733 85.5183C47.5494 85.4333 47.3844 85.4501 47.279 85.5584L45.625 87.0714V81.2857C45.625 80.9307 45.9048 80.6429 46.25 80.6429H53.75Z" fill="#71869D"/>
<rect x="62" y="87" width="6" height="3" rx="1.5" fill="#D9DDEA"/>
<rect x="71" y="87" width="12" height="3" rx="1.5" fill="#D9DDEA"/>
<rect x="86" y="87" width="8" height="3" rx="1.5" fill="#D9DDEA"/>
<rect x="62" y="93" width="10" height="3" rx="1.5" fill="#D9DDEA"/>
<rect x="75" y="93" width="12" height="3" rx="1.5" fill="#D9DDEA"/>
<rect x="90" y="93" width="4" height="3" rx="1.5" fill="#D9DDEA"/>
<rect x="62" y="80" width="18" height="3" rx="1.5" fill="#71869D"/>
<path d="M109.75 82.8929C109.75 83.4254 109.33 83.8571 108.812 83.8571C108.295 83.8571 107.875 83.4254 107.875 82.8929C107.875 82.3603 108.295 81.9286 108.812 81.9286C109.33 81.9286 109.75 82.3603 109.75 82.8929Z" fill="#71869D"/>
<path d="M107.25 80C106.56 80 106 80.5756 106 81.2857V87.7143C106 88.4244 106.56 89 107.25 89H114.75C115.44 89 116 88.4244 116 87.7143V81.2857C116 80.5756 115.44 80 114.75 80H107.25ZM114.75 80.6429C115.095 80.6429 115.375 80.9307 115.375 81.2857V85.4643L113.015 84.2125C112.894 84.1506 112.749 84.1749 112.654 84.2727L110.335 86.6578L108.673 85.5183C108.549 85.4333 108.384 85.4501 108.279 85.5584L106.625 87.0714V81.2857C106.625 80.9307 106.905 80.6429 107.25 80.6429H114.75Z" fill="#71869D"/>
<rect x="123" y="87" width="6" height="3" rx="1.5" fill="#D9DDEA"/>
<rect x="132" y="87" width="12" height="3" rx="1.5" fill="#D9DDEA"/>
<rect x="147" y="87" width="8" height="3" rx="1.5" fill="#D9DDEA"/>
<rect x="123" y="93" width="10" height="3" rx="1.5" fill="#D9DDEA"/>
<rect x="136" y="93" width="12" height="3" rx="1.5" fill="#D9DDEA"/>
<rect x="151" y="93" width="4" height="3" rx="1.5" fill="#D9DDEA"/>
<rect x="123" y="80" width="18" height="3" rx="1.5" fill="#71869D"/>
<defs>
<filter id="filter0_d" x="25.8904" y="30.3562" width="148.219" height="87.2192" filterUnits="userSpaceOnUse" color-interpolation-filters="sRGB">
<feFlood flood-opacity="0" result="BackgroundImageFix"/>
<feColorMatrix in="SourceAlpha" type="matrix" values="0 0 0 0 0 0 0 0 0 0 0 0 0 0 0 0 0 0 127 0"/>
<feOffset dy="2.46575"/>
<feGaussianBlur stdDeviation="2.05479"/>
<feColorMatrix type="matrix" values="0 0 0 0 0.54902 0 0 0 0 0.596078 0 0 0 0 0.643137 0 0 0 0.125 0"/>
<feBlend mode="normal" in2="BackgroundImageFix" result="effect1_dropShadow"/>
<feBlend mode="normal" in="SourceGraphic" in2="effect1_dropShadow" result="shape"/>
</filter>
<linearGradient id="paint0_linear" x1="100" y1="154" x2="100" y2="92.5" gradientUnits="userSpaceOnUse">
<stop offset="0.256387" stop-color="#F3F4F6"/>
<stop offset="0.749415" stop-color="#F3F4F6" stop-opacity="0"/>
</linearGradient>
</defs>
</svg>
