<svg width="200" height="144" viewBox="0 0 200 144" fill="none" xmlns="http://www.w3.org/2000/svg">
<path d="M196 0H4C1.79086 0 0 1.79086 0 4V140C0 142.209 1.79086 144 4 144H196C198.209 144 200 142.209 200 140V4C200 1.79086 198.209 0 196 0Z" fill="#F3F4F6"/>
<g filter="url(#filter0_d)">
<rect x="27" y="29" width="146" height="85" rx="4" fill="white"/>
<rect x="27.5" y="29.5" width="145" height="84" rx="3.5" stroke="#E7EAF3"/>
</g>
<path d="M70.8083 52H71.7305V50.1357H72.6701L73.6694 52H74.6986L73.5973 49.9815C74.1964 49.7404 74.5121 49.2283 74.5121 48.5373C74.5121 47.5653 73.8857 46.9091 72.7174 46.9091H70.8083V52ZM71.7305 49.37V47.6797H72.5757C73.2642 47.6797 73.5725 47.9954 73.5725 48.5373C73.5725 49.0792 73.2642 49.37 72.5807 49.37H71.7305ZM76.9569 52.0746C77.8468 52.0746 78.4583 51.6396 78.6174 50.9759L77.7772 50.8814C77.6554 51.2045 77.3571 51.3736 76.9693 51.3736C76.3877 51.3736 76.0024 50.9908 75.9949 50.337H78.6547V50.0611C78.6547 48.7212 77.8493 48.1321 76.9097 48.1321C75.8159 48.1321 75.1025 48.935 75.1025 50.1133C75.1025 51.3114 75.806 52.0746 76.9569 52.0746ZM75.9974 49.7305C76.0247 49.2433 76.3852 48.8331 76.9221 48.8331C77.4391 48.8331 77.7872 49.2109 77.7921 49.7305H75.9974ZM80.5147 52.0771C81.1138 52.0771 81.4717 51.7962 81.6358 51.4755H81.6656V52H82.5307V49.4446C82.5307 48.4354 81.7079 48.1321 80.9795 48.1321C80.1766 48.1321 79.5601 48.4901 79.3613 49.1861L80.2015 49.3054C80.291 49.0444 80.5445 48.8207 80.9845 48.8207C81.4021 48.8207 81.6308 49.0344 81.6308 49.4098V49.4247C81.6308 49.6832 81.3599 49.6957 80.6862 49.7678C79.9454 49.8473 79.237 50.0685 79.237 50.9286C79.237 51.6793 79.7864 52.0771 80.5147 52.0771ZM80.7484 51.4158C80.373 51.4158 80.1045 51.2443 80.1045 50.9137C80.1045 50.5682 80.4053 50.424 80.808 50.3668C81.0442 50.3345 81.5165 50.2749 81.6333 50.1804V50.6303C81.6333 51.0554 81.2903 51.4158 80.7484 51.4158ZM84.8524 52.0671C85.5087 52.0671 85.8045 51.6768 85.9462 51.3984H86.0008V52H86.8858V46.9091H85.9834V48.8132H85.9462C85.8094 48.5373 85.5285 48.1321 84.8549 48.1321C83.9724 48.1321 83.2789 48.8232 83.2789 50.0959C83.2789 51.3537 83.9525 52.0671 84.8524 52.0671ZM85.1035 51.3288C84.5094 51.3288 84.1962 50.8068 84.1962 50.0909C84.1962 49.38 84.5044 48.8704 85.1035 48.8704C85.6827 48.8704 86.0008 49.3501 86.0008 50.0909C86.0008 50.8317 85.6777 51.3288 85.1035 51.3288ZM88.404 53.4318C89.105 53.4318 89.5102 53.0714 89.7264 52.4624L91.2602 48.1868L90.2982 48.1818L89.4157 51.0653H89.3759L88.496 48.1818H87.5414L88.926 52.0795L88.8489 52.2859C88.6824 52.7209 88.4189 52.7507 88.0261 52.6364L87.8173 53.3374C87.9391 53.3871 88.1579 53.4318 88.404 53.4318ZM95.5277 48.1818H94.7745V47.267H93.8746V48.1818H93.3327V48.8778H93.8746V51.0007C93.8696 51.7191 94.3916 52.0721 95.0678 52.0522C95.3238 52.0447 95.5003 51.995 95.5973 51.9627L95.4456 51.2592C95.3959 51.2717 95.294 51.294 95.1821 51.294C94.9559 51.294 94.7745 51.2145 94.7745 50.8516V48.8778H95.5277V48.1818ZM97.9047 52.0746C99.0233 52.0746 99.7342 51.2866 99.7342 50.1058C99.7342 48.9226 99.0233 48.1321 97.9047 48.1321C96.7861 48.1321 96.0752 48.9226 96.0752 50.1058C96.0752 51.2866 96.7861 52.0746 97.9047 52.0746ZM97.9097 51.3537C97.2907 51.3537 96.9874 50.8018 96.9874 50.1033C96.9874 49.4048 97.2907 48.8455 97.9097 48.8455C98.5187 48.8455 98.822 49.4048 98.822 50.1033C98.822 50.8018 98.5187 51.3537 97.9097 51.3537ZM103.651 52.0671C104.307 52.0671 104.603 51.6768 104.745 51.3984H104.8V52H105.685V46.9091H104.782V48.8132H104.745C104.608 48.5373 104.327 48.1321 103.654 48.1321C102.771 48.1321 102.078 48.8232 102.078 50.0959C102.078 51.3537 102.751 52.0671 103.651 52.0671ZM103.902 51.3288C103.308 51.3288 102.995 50.8068 102.995 50.0909C102.995 49.38 103.303 48.8704 103.902 48.8704C104.481 48.8704 104.8 49.3501 104.8 50.0909C104.8 50.8317 104.477 51.3288 103.902 51.3288ZM106.644 52H107.543V48.1818H106.644V52ZM107.096 47.6399C107.382 47.6399 107.615 47.4212 107.615 47.1527C107.615 46.8817 107.382 46.663 107.096 46.663C106.808 46.663 106.574 46.8817 106.574 47.1527C106.574 47.4212 106.808 47.6399 107.096 47.6399ZM111.879 48.1818H110.922L110.042 51.0181H110.002L109.125 48.1818H108.165L109.525 52H110.519L111.879 48.1818ZM114.062 52.0746C114.952 52.0746 115.564 51.6396 115.723 50.9759L114.883 50.8814C114.761 51.2045 114.463 51.3736 114.075 51.3736C113.493 51.3736 113.108 50.9908 113.1 50.337H115.76V50.0611C115.76 48.7212 114.955 48.1321 114.015 48.1321C112.921 48.1321 112.208 48.935 112.208 50.1133C112.208 51.3114 112.911 52.0746 114.062 52.0746ZM113.103 49.7305C113.13 49.2433 113.491 48.8331 114.028 48.8331C114.545 48.8331 114.893 49.2109 114.898 49.7305H113.103ZM118.258 52H119.158V48.1818H118.258V52ZM118.71 47.6399C118.996 47.6399 119.23 47.4212 119.23 47.1527C119.23 46.8817 118.996 46.663 118.71 46.663C118.422 46.663 118.188 46.8817 118.188 47.1527C118.188 47.4212 118.422 47.6399 118.71 47.6399ZM120.983 49.7628C120.983 49.2109 121.316 48.8928 121.791 48.8928C122.256 48.8928 122.534 49.1985 122.534 49.7081V52H123.434V49.5689C123.436 48.6541 122.914 48.1321 122.126 48.1321C121.555 48.1321 121.162 48.4055 120.988 48.8306H120.943V48.1818H120.083V52H120.983V49.7628ZM125.209 50.5036H126.036V50.4389C126.041 49.9119 126.213 49.6708 126.618 49.4222C127.076 49.1488 127.361 48.7759 127.361 48.2067C127.361 47.3665 126.708 46.8395 125.758 46.8395C124.888 46.8395 124.182 47.3217 124.157 48.2663H125.042C125.064 47.799 125.403 47.5753 125.753 47.5753C126.133 47.5753 126.439 47.8288 126.439 48.2191C126.439 48.5671 126.208 48.8058 125.907 48.9947C125.467 49.2681 125.214 49.544 125.209 50.4389V50.5036ZM125.644 52.0547C125.937 52.0547 126.188 51.8111 126.191 51.5078C126.188 51.2095 125.937 50.9659 125.644 50.9659C125.34 50.9659 125.094 51.2095 125.097 51.5078C125.094 51.8111 125.34 52.0547 125.644 52.0547Z" fill="#555A60"/>
<path d="M60.3189 57.3732H61.3505C61.3356 56.4659 60.5899 55.8395 59.4564 55.8395C58.3402 55.8395 57.5224 56.456 57.5274 57.3807C57.5249 58.1314 58.0544 58.5614 58.9145 58.7678L59.4688 58.907C60.0231 59.0412 60.3314 59.2003 60.3339 59.5433C60.3314 59.9162 59.9784 60.1697 59.4315 60.1697C58.8722 60.1697 58.4695 59.9112 58.4347 59.4016H57.3932C57.4205 60.5028 58.2085 61.0721 59.4439 61.0721C60.6868 61.0721 61.4177 60.478 61.4201 59.5458C61.4177 58.6982 60.7788 58.2482 59.8939 58.0494L59.4365 57.94C58.994 57.8381 58.6236 57.674 58.6311 57.3086C58.6311 56.9805 58.9219 56.7393 59.4489 56.7393C59.9635 56.7393 60.2792 56.973 60.3189 57.3732ZM64.1551 57.1818H63.4367V56.267H62.3778V57.1818H61.8558V57.9773H62.3778V59.9659C62.3728 60.7141 62.8824 61.0845 63.6505 61.0522C63.924 61.0423 64.1179 60.9876 64.2247 60.9528L64.0582 60.1648C64.006 60.1747 63.8941 60.1996 63.7947 60.1996C63.5834 60.1996 63.4367 60.12 63.4367 59.8267V57.9773H64.1551V57.1818ZM65.9337 61.0721C66.498 61.0721 66.8634 60.826 67.0498 60.4705H67.0797V61H68.0839V58.4247C68.0839 57.5149 67.3133 57.1321 66.4632 57.1321C65.5484 57.1321 64.9469 57.5696 64.8002 58.2656L65.7796 58.3452C65.8517 58.0916 66.0779 57.9052 66.4582 57.9052C66.8187 57.9052 67.025 58.0866 67.025 58.3999V58.4148C67.025 58.6609 66.764 58.6932 66.1003 58.7578C65.3446 58.8274 64.666 59.081 64.666 59.9336C64.666 60.6893 65.2054 61.0721 65.9337 61.0721ZM66.237 60.3413C65.9114 60.3413 65.6777 60.1896 65.6777 59.8988C65.6777 59.6005 65.9238 59.4538 66.2967 59.4016C66.5278 59.3693 66.9057 59.3146 67.0324 59.2301V59.6353C67.0324 60.0355 66.7018 60.3413 66.237 60.3413ZM68.9055 61H69.9644V58.8398C69.9644 58.37 70.3075 58.0469 70.7748 58.0469C70.9215 58.0469 71.1228 58.0717 71.2223 58.104V57.1644C71.1278 57.142 70.996 57.1271 70.8892 57.1271C70.4616 57.1271 70.1111 57.3757 69.9719 57.848H69.9321V57.1818H68.9055V61ZM73.9921 57.1818H73.2737V56.267H72.2147V57.1818H71.6927V57.9773H72.2147V59.9659C72.2097 60.7141 72.7193 61.0845 73.4874 61.0522C73.7609 61.0423 73.9548 60.9876 74.0617 60.9528L73.8951 60.1648C73.8429 60.1747 73.731 60.1996 73.6316 60.1996C73.4203 60.1996 73.2737 60.12 73.2737 59.8267V57.9773H73.9921V57.1818ZM76.9557 62.4318C77.7437 62.4318 78.1614 62.0291 78.3776 61.4126L79.8616 57.1868L78.7405 57.1818L77.9426 59.9858H77.9028L77.1123 57.1818H75.9987L77.3684 61.1094L77.3062 61.271C77.167 61.6289 76.9011 61.6463 76.5282 61.532L76.2896 62.3224C76.4412 62.3871 76.6873 62.4318 76.9557 62.4318ZM81.9988 61.0746C83.1572 61.0746 83.8781 60.2816 83.8781 59.1058C83.8781 57.9226 83.1572 57.1321 81.9988 57.1321C80.8404 57.1321 80.1195 57.9226 80.1195 59.1058C80.1195 60.2816 80.8404 61.0746 81.9988 61.0746ZM82.0038 60.2543C81.4693 60.2543 81.1959 59.7646 81.1959 59.0984C81.1959 58.4322 81.4693 57.94 82.0038 57.94C82.5283 57.94 82.8017 58.4322 82.8017 59.0984C82.8017 59.7646 82.5283 60.2543 82.0038 60.2543ZM87.0151 59.3743C87.0176 59.8864 86.6671 60.1548 86.2868 60.1548C85.8866 60.1548 85.6281 59.8739 85.6256 59.424V57.1818H84.5666V59.6129C84.5691 60.5053 85.0911 61.0497 85.8592 61.0497C86.4335 61.0497 86.8461 60.7539 87.0176 60.3065H87.0574V61H88.0741V57.1818H87.0151V59.3743ZM88.9211 61H89.9801V58.8398C89.9801 58.37 90.3231 58.0469 90.7904 58.0469C90.9371 58.0469 91.1384 58.0717 91.2379 58.104V57.1644C91.1434 57.142 91.0117 57.1271 90.9048 57.1271C90.4772 57.1271 90.1267 57.3757 89.9875 57.848H89.9478V57.1818H88.9211V61ZM95.4588 57.1818H94.7006V56.9258C94.7006 56.6673 94.805 56.5156 95.1157 56.5156C95.2425 56.5156 95.3718 56.543 95.4563 56.5703L95.6427 55.7749C95.511 55.7351 95.2201 55.6705 94.8945 55.6705C94.1761 55.6705 93.6416 56.0756 93.6416 56.9059V57.1818H93.1022V57.9773H93.6416V61H94.7006V57.9773H95.4588V57.1818ZM96.1057 61H97.1646V58.8398C97.1646 58.37 97.5077 58.0469 97.975 58.0469C98.1217 58.0469 98.323 58.0717 98.4225 58.104V57.1644C98.328 57.142 98.1962 57.1271 98.0894 57.1271C97.6618 57.1271 97.3113 57.3757 97.1721 57.848H97.1323V57.1818H96.1057V61ZM100.532 61.0746C101.477 61.0746 102.113 60.6147 102.262 59.9062L101.283 59.8416C101.176 60.1325 100.903 60.2841 100.55 60.2841C100.02 60.2841 99.6846 59.9336 99.6846 59.3643V59.3619H102.285V59.071C102.285 57.7734 101.499 57.1321 100.49 57.1321C99.3664 57.1321 98.6381 57.93 98.6381 59.1083C98.6381 60.3189 99.3565 61.0746 100.532 61.0746ZM99.6846 58.7056C99.707 58.2706 100.038 57.9226 100.507 57.9226C100.967 57.9226 101.285 58.2507 101.288 58.7056H99.6846ZM104.716 61.0746C105.66 61.0746 106.297 60.6147 106.446 59.9062L105.467 59.8416C105.36 60.1325 105.086 60.2841 104.733 60.2841C104.204 60.2841 103.868 59.9336 103.868 59.3643V59.3619H106.468V59.071C106.468 57.7734 105.683 57.1321 104.674 57.1321C103.55 57.1321 102.822 57.93 102.822 59.1083C102.822 60.3189 103.54 61.0746 104.716 61.0746ZM103.868 58.7056C103.891 58.2706 104.221 57.9226 104.691 57.9226C105.151 57.9226 105.469 58.2507 105.472 58.7056H103.868ZM110.81 57.1818H110.092V56.267H109.033V57.1818H108.511V57.9773H109.033V59.9659C109.028 60.7141 109.538 61.0845 110.306 61.0522C110.579 61.0423 110.773 60.9876 110.88 60.9528L110.713 60.1648C110.661 60.1747 110.549 60.1996 110.45 60.1996C110.239 60.1996 110.092 60.12 110.092 59.8267V57.9773H110.81V57.1818ZM111.5 61H112.559V58.8398C112.559 58.37 112.902 58.0469 113.37 58.0469C113.516 58.0469 113.718 58.0717 113.817 58.104V57.1644C113.723 57.142 113.591 57.1271 113.484 57.1271C113.056 57.1271 112.706 57.3757 112.567 57.848H112.527V57.1818H111.5V61ZM114.364 61H115.423V57.1818H114.364V61ZM114.896 56.6896C115.212 56.6896 115.471 56.4485 115.471 56.1527C115.471 55.8594 115.212 55.6183 114.896 55.6183C114.583 55.6183 114.325 55.8594 114.325 56.1527C114.325 56.4485 114.583 56.6896 114.896 56.6896ZM117.36 61.0721C117.925 61.0721 118.29 60.826 118.477 60.4705H118.506V61H119.511V58.4247C119.511 57.5149 118.74 57.1321 117.89 57.1321C116.975 57.1321 116.374 57.5696 116.227 58.2656L117.206 58.3452C117.278 58.0916 117.505 57.9052 117.885 57.9052C118.245 57.9052 118.452 58.0866 118.452 58.3999V58.4148C118.452 58.6609 118.191 58.6932 117.527 58.7578C116.771 58.8274 116.093 59.081 116.093 59.9336C116.093 60.6893 116.632 61.0721 117.36 61.0721ZM117.664 60.3413C117.338 60.3413 117.104 60.1896 117.104 59.8988C117.104 59.6005 117.351 59.4538 117.723 59.4016C117.955 59.3693 118.332 59.3146 118.459 59.2301V59.6353C118.459 60.0355 118.129 60.3413 117.664 60.3413ZM121.391 55.9091H120.332V61H121.391V55.9091ZM125.89 57.1818H125.172V56.267H124.113V57.1818H123.591V57.9773H124.113V59.9659C124.108 60.7141 124.618 61.0845 125.386 61.0522C125.659 61.0423 125.853 60.9876 125.96 60.9528L125.794 60.1648C125.741 60.1747 125.629 60.1996 125.53 60.1996C125.319 60.1996 125.172 60.12 125.172 59.8267V57.9773H125.89V57.1818ZM128.264 61.0746C129.423 61.0746 130.144 60.2816 130.144 59.1058C130.144 57.9226 129.423 57.1321 128.264 57.1321C127.106 57.1321 126.385 57.9226 126.385 59.1058C126.385 60.2816 127.106 61.0746 128.264 61.0746ZM128.269 60.2543C127.735 60.2543 127.462 59.7646 127.462 59.0984C127.462 58.4322 127.735 57.94 128.269 57.94C128.794 57.94 129.067 58.4322 129.067 59.0984C129.067 59.7646 128.794 60.2543 128.269 60.2543ZM132.239 61.0621C132.856 61.0621 133.176 60.7067 133.323 60.3885H133.368V61H134.412V55.9091H133.355V57.8232H133.323C133.181 57.5124 132.876 57.1321 132.237 57.1321C131.399 57.1321 130.691 57.7834 130.691 59.0959C130.691 60.3736 131.369 61.0621 132.239 61.0621ZM132.575 60.2195C132.055 60.2195 131.772 59.7571 131.772 59.0909C131.772 58.4297 132.05 57.9748 132.575 57.9748C133.089 57.9748 133.378 58.4098 133.378 59.0909C133.378 59.772 133.084 60.2195 132.575 60.2195ZM136.371 61.0721C136.936 61.0721 137.301 60.826 137.487 60.4705H137.517V61H138.521V58.4247C138.521 57.5149 137.751 57.1321 136.901 57.1321C135.986 57.1321 135.384 57.5696 135.238 58.2656L136.217 58.3452C136.289 58.0916 136.515 57.9052 136.896 57.9052C137.256 57.9052 137.462 58.0866 137.462 58.3999V58.4148C137.462 58.6609 137.201 58.6932 136.538 58.7578C135.782 58.8274 135.103 59.081 135.103 59.9336C135.103 60.6893 135.643 61.0721 136.371 61.0721ZM136.674 60.3413C136.349 60.3413 136.115 60.1896 136.115 59.8988C136.115 59.6005 136.361 59.4538 136.734 59.4016C136.965 59.3693 137.343 59.3146 137.47 59.2301V59.6353C137.47 60.0355 137.139 60.3413 136.674 60.3413ZM139.86 62.4318C140.648 62.4318 141.066 62.0291 141.282 61.4126L142.766 57.1868L141.645 57.1818L140.847 59.9858H140.807L140.017 57.1818H138.903L140.273 61.1094L140.211 61.271C140.071 61.6289 139.805 61.6463 139.432 61.532L139.194 62.3224C139.345 62.3871 139.592 62.4318 139.86 62.4318Z" fill="#0ABF53"/>
<rect x="66" y="69" width="18" height="2" rx="1" fill="#D9DDEA"/>
<rect x="88" y="69" width="21" height="2" rx="1" fill="#D9DDEA"/>
<rect x="113" y="69" width="21" height="2" rx="1" fill="#D9DDEA"/>
<rect x="76" y="74" width="12" height="2" rx="1" fill="#D9DDEA"/>
<rect x="92" y="74" width="14" height="2" rx="1" fill="#D9DDEA"/>
<rect x="110" y="74" width="14" height="2" rx="1" fill="#D9DDEA"/>
<g filter="url(#filter1_d)">
<rect x="72" y="89" width="29" height="9" rx="2" fill="#0ABF53"/>
</g>
<g filter="url(#filter2_d)">
<rect x="106" y="89" width="21" height="9" rx="2" fill="white"/>
<rect x="106.5" y="89.5" width="20" height="8" rx="1.5" stroke="#D9DDEA"/>
</g>
<rect x="80" y="93" width="13" height="1" rx="0.5" fill="white"/>
<rect x="112" y="93" width="9" height="1" rx="0.5" fill="#D9DDEA"/>
<defs>
<filter id="filter0_d" x="22" y="27" width="156" height="95" filterUnits="userSpaceOnUse" color-interpolation-filters="sRGB">
<feFlood flood-opacity="0" result="BackgroundImageFix"/>
<feColorMatrix in="SourceAlpha" type="matrix" values="0 0 0 0 0 0 0 0 0 0 0 0 0 0 0 0 0 0 127 0"/>
<feOffset dy="3"/>
<feGaussianBlur stdDeviation="2.5"/>
<feColorMatrix type="matrix" values="0 0 0 0 0.54902 0 0 0 0 0.596078 0 0 0 0 0.643137 0 0 0 0.125 0"/>
<feBlend mode="normal" in2="BackgroundImageFix" result="effect1_dropShadow"/>
<feBlend mode="normal" in="SourceGraphic" in2="effect1_dropShadow" result="shape"/>
</filter>
<filter id="filter1_d" x="70" y="88" width="33" height="13" filterUnits="userSpaceOnUse" color-interpolation-filters="sRGB">
<feFlood flood-opacity="0" result="BackgroundImageFix"/>
<feColorMatrix in="SourceAlpha" type="matrix" values="0 0 0 0 0 0 0 0 0 0 0 0 0 0 0 0 0 0 127 0"/>
<feOffset dy="1"/>
<feGaussianBlur stdDeviation="1"/>
<feColorMatrix type="matrix" values="0 0 0 0 0.215686 0 0 0 0 0.490196 0 0 0 0 1 0 0 0 0.2 0"/>
<feBlend mode="normal" in2="BackgroundImageFix" result="effect1_dropShadow"/>
<feBlend mode="normal" in="SourceGraphic" in2="effect1_dropShadow" result="shape"/>
</filter>
<filter id="filter2_d" x="104" y="88" width="25" height="13" filterUnits="userSpaceOnUse" color-interpolation-filters="sRGB">
<feFlood flood-opacity="0" result="BackgroundImageFix"/>
<feColorMatrix in="SourceAlpha" type="matrix" values="0 0 0 0 0 0 0 0 0 0 0 0 0 0 0 0 0 0 127 0"/>
<feOffset dy="1"/>
<feGaussianBlur stdDeviation="1"/>
<feColorMatrix type="matrix" values="0 0 0 0 0.54902 0 0 0 0 0.596078 0 0 0 0 0.643137 0 0 0 0.18 0"/>
<feBlend mode="normal" in2="BackgroundImageFix" result="effect1_dropShadow"/>
<feBlend mode="normal" in="SourceGraphic" in2="effect1_dropShadow" result="shape"/>
</filter>
</defs>
</svg>
