<svg width="200" height="144" viewBox="0 0 200 144" fill="none" xmlns="http://www.w3.org/2000/svg">
<g clip-path="url(#clip0)">
<path d="M196 0H4C1.79086 0 0 1.79086 0 4V140C0 142.209 1.79086 144 4 144H196C198.209 144 200 142.209 200 140V4C200 1.79086 198.209 0 196 0Z" fill="#F3F4F6"/>
<g filter="url(#filter0_d)">
<path d="M27 24C27 21.7909 28.7909 20 31 20H169C171.209 20 173 21.7909 173 24V144H27V24Z" fill="white"/>
<path d="M31 20.5H169C170.933 20.5 172.5 22.067 172.5 24V143.5H27.5V24C27.5 22.067 29.067 20.5 31 20.5Z" stroke="#E7EAF3"/>
</g>
<path d="M62.2789 43.6822H63.8524V48H64.7672V43.6822H66.3407V42.9091H62.2789V43.6822ZM66.6875 48H67.5873V45.7553C67.5873 45.2706 67.9527 44.9276 68.4474 44.9276C68.599 44.9276 68.788 44.9549 68.865 44.9798V44.152C68.783 44.1371 68.6413 44.1271 68.5419 44.1271C68.1044 44.1271 67.7389 44.3757 67.5997 44.8182H67.56V44.1818H66.6875V48ZM71.8964 46.3942C71.8964 46.9759 71.4813 47.2642 71.0836 47.2642C70.6511 47.2642 70.3627 46.9585 70.3627 46.4737V44.1818H69.4628V46.6129C69.4628 47.5302 69.9849 48.0497 70.7356 48.0497C71.3073 48.0497 71.71 47.7489 71.884 47.3214H71.9238V48H72.7963V44.1818H71.8964V46.3942ZM76.7394 45.1911C76.6151 44.5447 76.0981 44.1321 75.2032 44.1321C74.2834 44.1321 73.657 44.5845 73.6595 45.2905C73.657 45.8473 74 46.2152 74.7334 46.3668L75.3846 46.5036C75.7351 46.5806 75.8992 46.7223 75.8992 46.9386C75.8992 47.1996 75.6158 47.396 75.1883 47.396C74.7756 47.396 74.5071 47.217 74.4301 46.8739L73.5526 46.9585C73.6645 47.6594 74.2536 48.0746 75.1907 48.0746C76.1453 48.0746 76.8189 47.5799 76.8214 46.8565C76.8189 46.3121 76.4684 45.979 75.7476 45.8224L75.0963 45.6832C74.7085 45.5962 74.5544 45.462 74.5569 45.2408C74.5544 44.9822 74.8402 44.8033 75.2156 44.8033C75.6307 44.8033 75.8495 45.0295 75.9191 45.2805L76.7394 45.1911ZM79.47 44.1818H78.7168V43.267H77.817V44.1818H77.2751V44.8778H77.817V47.0007C77.812 47.7191 78.334 48.0721 79.0102 48.0522C79.2662 48.0447 79.4427 47.995 79.5396 47.9627L79.388 47.2592C79.3383 47.2717 79.2364 47.294 79.1245 47.294C78.8983 47.294 78.7168 47.2145 78.7168 46.8516V44.8778H79.47V44.1818ZM81.8719 48.0746C82.7619 48.0746 83.3734 47.6396 83.5324 46.9759L82.6922 46.8814C82.5704 47.2045 82.2722 47.3736 81.8844 47.3736C81.3027 47.3736 80.9174 46.9908 80.9099 46.337H83.5697V46.0611C83.5697 44.7212 82.7643 44.1321 81.8247 44.1321C80.731 44.1321 80.0175 44.935 80.0175 46.1133C80.0175 47.3114 80.721 48.0746 81.8719 48.0746ZM80.9124 45.7305C80.9398 45.2433 81.3002 44.8331 81.8371 44.8331C82.3542 44.8331 82.7022 45.2109 82.7072 45.7305H80.9124ZM85.7479 48.0671C86.4042 48.0671 86.7 47.6768 86.8417 47.3984H86.8964V48H87.7813V42.9091H86.879V44.8132H86.8417C86.7049 44.5373 86.4241 44.1321 85.7504 44.1321C84.8679 44.1321 84.1744 44.8232 84.1744 46.0959C84.1744 47.3537 84.8481 48.0671 85.7479 48.0671ZM85.999 47.3288C85.4049 47.3288 85.0917 46.8068 85.0917 46.0909C85.0917 45.38 85.3999 44.8704 85.999 44.8704C86.5782 44.8704 86.8964 45.3501 86.8964 46.0909C86.8964 46.8317 86.5732 47.3288 85.999 47.3288ZM90.5163 48H91.4012V47.3984H91.4534C91.5951 47.6768 91.8909 48.0671 92.5472 48.0671C93.447 48.0671 94.1207 47.3537 94.1207 46.0959C94.1207 44.8232 93.4272 44.1321 92.5447 44.1321C91.871 44.1321 91.5902 44.5373 91.4534 44.8132H91.4161V42.9091H90.5163V48ZM91.3987 46.0909C91.3987 45.3501 91.7169 44.8704 92.2961 44.8704C92.8952 44.8704 93.2034 45.38 93.2034 46.0909C93.2034 46.8068 92.8902 47.3288 92.2961 47.3288C91.7219 47.3288 91.3987 46.8317 91.3987 46.0909ZM95.3151 49.4318C96.0161 49.4318 96.4213 49.0714 96.6376 48.4624L98.1713 44.1868L97.2093 44.1818L96.3268 47.0653H96.2871L95.4071 44.1818H94.4525L95.8371 48.0795L95.7601 48.2859C95.5935 48.7209 95.33 48.7507 94.9373 48.6364L94.7285 49.3374C94.8503 49.3871 95.069 49.4318 95.3151 49.4318ZM102.439 44.1818H101.686V43.267H100.786V44.1818H100.244V44.8778H100.786V47.0007C100.781 47.7191 101.303 48.0721 101.979 48.0522C102.235 48.0447 102.411 47.995 102.508 47.9627L102.357 47.2592C102.307 47.2717 102.205 47.294 102.093 47.294C101.867 47.294 101.686 47.2145 101.686 46.8516V44.8778H102.439V44.1818ZM104.173 45.7628C104.173 45.2109 104.516 44.8928 104.999 44.8928C105.471 44.8928 105.749 45.1935 105.749 45.7081V48H106.649V45.5689C106.649 44.6467 106.127 44.1321 105.334 44.1321C104.747 44.1321 104.375 44.3981 104.198 44.8306H104.153V42.9091H103.273V48H104.173V45.7628ZM109.232 48.0746C110.35 48.0746 111.061 47.2866 111.061 46.1058C111.061 44.9226 110.35 44.1321 109.232 44.1321C108.113 44.1321 107.402 44.9226 107.402 46.1058C107.402 47.2866 108.113 48.0746 109.232 48.0746ZM109.237 47.3537C108.618 47.3537 108.315 46.8018 108.315 46.1033C108.315 45.4048 108.618 44.8455 109.237 44.8455C109.846 44.8455 110.149 45.4048 110.149 46.1033C110.149 46.8018 109.846 47.3537 109.237 47.3537ZM114.259 46.3942C114.259 46.9759 113.844 47.2642 113.446 47.2642C113.013 47.2642 112.725 46.9585 112.725 46.4737V44.1818H111.825V46.6129C111.825 47.5302 112.347 48.0497 113.098 48.0497C113.67 48.0497 114.072 47.7489 114.246 47.3214H114.286V48H115.159V44.1818H114.259V46.3942ZM119.102 45.1911C118.977 44.5447 118.46 44.1321 117.565 44.1321C116.646 44.1321 116.019 44.5845 116.022 45.2905C116.019 45.8473 116.362 46.2152 117.096 46.3668L117.747 46.5036C118.097 46.5806 118.261 46.7223 118.261 46.9386C118.261 47.1996 117.978 47.396 117.551 47.396C117.138 47.396 116.869 47.217 116.792 46.8739L115.915 46.9585C116.027 47.6594 116.616 48.0746 117.553 48.0746C118.508 48.0746 119.181 47.5799 119.184 46.8565C119.181 46.3121 118.831 45.979 118.11 45.8224L117.459 45.6832C117.071 45.5962 116.917 45.462 116.919 45.2408C116.917 44.9822 117.203 44.8033 117.578 44.8033C117.993 44.8033 118.212 45.0295 118.281 45.2805L119.102 45.1911ZM121.024 48.0771C121.624 48.0771 121.981 47.7962 122.146 47.4755H122.175V48H123.04V45.4446C123.04 44.4354 122.218 44.1321 121.489 44.1321C120.686 44.1321 120.07 44.4901 119.871 45.1861L120.711 45.3054C120.801 45.0444 121.054 44.8207 121.494 44.8207C121.912 44.8207 122.141 45.0344 122.141 45.4098V45.4247C122.141 45.6832 121.87 45.6957 121.196 45.7678C120.455 45.8473 119.747 46.0685 119.747 46.9286C119.747 47.6793 120.296 48.0771 121.024 48.0771ZM121.258 47.4158C120.883 47.4158 120.614 47.2443 120.614 46.9137C120.614 46.5682 120.915 46.424 121.318 46.3668C121.554 46.3345 122.026 46.2749 122.143 46.1804V46.6303C122.143 47.0554 121.8 47.4158 121.258 47.4158ZM124.845 45.7628C124.845 45.2109 125.178 44.8928 125.653 44.8928C126.118 44.8928 126.396 45.1985 126.396 45.7081V48H127.296V45.5689C127.299 44.6541 126.777 44.1321 125.989 44.1321C125.417 44.1321 125.024 44.4055 124.85 44.8306H124.805V44.1818H123.945V48H124.845V45.7628ZM129.628 48.0671C130.284 48.0671 130.58 47.6768 130.722 47.3984H130.776V48H131.661V42.9091H130.759V44.8132H130.722C130.585 44.5373 130.304 44.1321 129.63 44.1321C128.748 44.1321 128.054 44.8232 128.054 46.0959C128.054 47.3537 128.728 48.0671 129.628 48.0671ZM129.879 47.3288C129.285 47.3288 128.972 46.8068 128.972 46.0909C128.972 45.38 129.28 44.8704 129.879 44.8704C130.458 44.8704 130.776 45.3501 130.776 46.0909C130.776 46.8317 130.453 47.3288 129.879 47.3288ZM135.638 45.1911C135.514 44.5447 134.996 44.1321 134.102 44.1321C133.182 44.1321 132.555 44.5845 132.558 45.2905C132.555 45.8473 132.898 46.2152 133.632 46.3668L134.283 46.5036C134.634 46.5806 134.798 46.7223 134.798 46.9386C134.798 47.1996 134.514 47.396 134.087 47.396C133.674 47.396 133.406 47.217 133.329 46.8739L132.451 46.9585C132.563 47.6594 133.152 48.0746 134.089 48.0746C135.044 48.0746 135.717 47.5799 135.72 46.8565C135.717 46.3121 135.367 45.979 134.646 45.8224L133.995 45.6832C133.607 45.5962 133.453 45.462 133.455 45.2408C133.453 44.9822 133.739 44.8033 134.114 44.8033C134.529 44.8033 134.748 45.0295 134.818 45.2805L135.638 45.1911ZM74.0028 56.0746C75.1214 56.0746 75.8324 55.2866 75.8324 54.1058C75.8324 52.9226 75.1214 52.1321 74.0028 52.1321C72.8842 52.1321 72.1733 52.9226 72.1733 54.1058C72.1733 55.2866 72.8842 56.0746 74.0028 56.0746ZM74.0078 55.3537C73.3888 55.3537 73.0856 54.8018 73.0856 54.1033C73.0856 53.4048 73.3888 52.8455 74.0078 52.8455C74.6168 52.8455 74.9201 53.4048 74.9201 54.1033C74.9201 54.8018 74.6168 55.3537 74.0078 55.3537ZM78.5301 52.1818H77.7371V51.881C77.7371 51.5827 77.8614 51.4162 78.197 51.4162C78.3387 51.4162 78.458 51.4485 78.5326 51.4709L78.714 50.7749C78.5972 50.7351 78.3412 50.6705 78.0305 50.6705C77.3667 50.6705 76.8373 51.0508 76.8373 51.8214V52.1818H76.273V52.8778H76.8373V56H77.7371V52.8778H78.5301V52.1818ZM80.9711 57.4318H81.871V55.3984H81.9083C82.05 55.6768 82.3458 56.0671 83.002 56.0671C83.9019 56.0671 84.5756 55.3537 84.5756 54.0959C84.5756 52.8232 83.882 52.1321 82.9996 52.1321C82.3259 52.1321 82.045 52.5373 81.9083 52.8132H81.8561V52.1818H80.9711V57.4318ZM81.8536 54.0909C81.8536 53.3501 82.1718 52.8704 82.751 52.8704C83.3501 52.8704 83.6583 53.38 83.6583 54.0909C83.6583 54.8068 83.3451 55.3288 82.751 55.3288C82.1768 55.3288 81.8536 54.8317 81.8536 54.0909ZM85.3461 56H86.246V53.7553C86.246 53.2706 86.6114 52.9276 87.1061 52.9276C87.2577 52.9276 87.4466 52.9549 87.5237 52.9798V52.152C87.4417 52.1371 87.3 52.1271 87.2006 52.1271C86.7631 52.1271 86.3976 52.3757 86.2584 52.8182H86.2187V52.1818H85.3461V56ZM89.6298 56.0746C90.7484 56.0746 91.4593 55.2866 91.4593 54.1058C91.4593 52.9226 90.7484 52.1321 89.6298 52.1321C88.5112 52.1321 87.8002 52.9226 87.8002 54.1058C87.8002 55.2866 88.5112 56.0746 89.6298 56.0746ZM89.6348 55.3537C89.0158 55.3537 88.7125 54.8018 88.7125 54.1033C88.7125 53.4048 89.0158 52.8455 89.6348 52.8455C90.2438 52.8455 90.5471 53.4048 90.5471 54.1033C90.5471 54.8018 90.2438 55.3537 89.6348 55.3537ZM94.157 52.1818H93.3641V51.881C93.3641 51.5827 93.4884 51.4162 93.824 51.4162C93.9656 51.4162 94.085 51.4485 94.1595 51.4709L94.341 50.7749C94.2242 50.7351 93.9681 50.6705 93.6574 50.6705C92.9937 50.6705 92.4642 51.0508 92.4642 51.8214V52.1818H91.8999V52.8778H92.4642V56H93.3641V52.8778H94.157V52.1818ZM96.4086 56.0746C97.2985 56.0746 97.91 55.6396 98.0691 54.9759L97.2289 54.8814C97.1071 55.2045 96.8088 55.3736 96.421 55.3736C95.8393 55.3736 95.454 54.9908 95.4466 54.337H98.1064V54.0611C98.1064 52.7212 97.301 52.1321 96.3613 52.1321C95.2676 52.1321 94.5542 52.935 94.5542 54.1133C94.5542 55.3114 95.2576 56.0746 96.4086 56.0746ZM95.449 53.7305C95.4764 53.2433 95.8368 52.8331 96.3738 52.8331C96.8908 52.8331 97.2388 53.2109 97.2438 53.7305H95.449ZM101.885 53.1911C101.761 52.5447 101.244 52.1321 100.349 52.1321C99.4294 52.1321 98.803 52.5845 98.8055 53.2905C98.803 53.8473 99.146 54.2152 99.8794 54.3668L100.531 54.5036C100.881 54.5806 101.045 54.7223 101.045 54.9386C101.045 55.1996 100.762 55.396 100.334 55.396C99.9216 55.396 99.6531 55.217 99.5761 54.8739L98.6986 54.9585C98.8105 55.6594 99.3996 56.0746 100.337 56.0746C101.291 56.0746 101.965 55.5799 101.967 54.8565C101.965 54.3121 101.614 53.979 100.894 53.8224L100.242 53.6832C99.8545 53.5962 99.7004 53.462 99.7029 53.2408C99.7004 52.9822 99.9862 52.8033 100.362 52.8033C100.777 52.8033 100.995 53.0295 101.065 53.2805L101.885 53.1911ZM105.727 53.1911C105.603 52.5447 105.086 52.1321 104.191 52.1321C103.271 52.1321 102.645 52.5845 102.647 53.2905C102.645 53.8473 102.988 54.2152 103.721 54.3668L104.372 54.5036C104.723 54.5806 104.887 54.7223 104.887 54.9386C104.887 55.1996 104.604 55.396 104.176 55.396C103.763 55.396 103.495 55.217 103.418 54.8739L102.54 54.9585C102.652 55.6594 103.241 56.0746 104.179 56.0746C105.133 56.0746 105.807 55.5799 105.809 54.8565C105.807 54.3121 105.456 53.979 104.735 53.8224L104.084 53.6832C103.696 53.5962 103.542 53.462 103.545 53.2408C103.542 52.9822 103.828 52.8033 104.203 52.8033C104.619 52.8033 104.837 53.0295 104.907 53.2805L105.727 53.1911ZM106.551 56H107.451V52.1818H106.551V56ZM107.004 51.6399C107.29 51.6399 107.523 51.4212 107.523 51.1527C107.523 50.8817 107.29 50.663 107.004 50.663C106.715 50.663 106.482 50.8817 106.482 51.1527C106.482 51.4212 106.715 51.6399 107.004 51.6399ZM110.042 56.0746C111.161 56.0746 111.871 55.2866 111.871 54.1058C111.871 52.9226 111.161 52.1321 110.042 52.1321C108.923 52.1321 108.212 52.9226 108.212 54.1058C108.212 55.2866 108.923 56.0746 110.042 56.0746ZM110.047 55.3537C109.428 55.3537 109.125 54.8018 109.125 54.1033C109.125 53.4048 109.428 52.8455 110.047 52.8455C110.656 52.8455 110.959 53.4048 110.959 54.1033C110.959 54.8018 110.656 55.3537 110.047 55.3537ZM113.535 53.7628C113.535 53.2109 113.868 52.8928 114.343 52.8928C114.808 52.8928 115.086 53.1985 115.086 53.7081V56H115.986V53.5689C115.989 52.6541 115.467 52.1321 114.679 52.1321C114.107 52.1321 113.714 52.4055 113.54 52.8306H113.495V52.1818H112.635V56H113.535V53.7628ZM118 56.0771C118.599 56.0771 118.957 55.7962 119.121 55.4755H119.15V56H120.016V53.4446C120.016 52.4354 119.193 52.1321 118.464 52.1321C117.661 52.1321 117.045 52.4901 116.846 53.1861L117.686 53.3054C117.776 53.0444 118.029 52.8207 118.469 52.8207C118.887 52.8207 119.116 53.0344 119.116 53.4098V53.4247C119.116 53.6832 118.845 53.6957 118.171 53.7678C117.43 53.8473 116.722 54.0685 116.722 54.9286C116.722 55.6793 117.271 56.0771 118 56.0771ZM118.233 55.4158C117.858 55.4158 117.589 55.2443 117.589 54.9137C117.589 54.5682 117.89 54.424 118.293 54.3668C118.529 54.3345 119.001 54.2749 119.118 54.1804V54.6303C119.118 55.0554 118.775 55.4158 118.233 55.4158ZM121.82 50.9091H120.92V56H121.82V50.9091ZM125.763 53.1911C125.639 52.5447 125.122 52.1321 124.227 52.1321C123.307 52.1321 122.681 52.5845 122.683 53.2905C122.681 53.8473 123.024 54.2152 123.757 54.3668L124.409 54.5036C124.759 54.5806 124.923 54.7223 124.923 54.9386C124.923 55.1996 124.64 55.396 124.212 55.396C123.8 55.396 123.531 55.217 123.454 54.8739L122.577 54.9585C122.688 55.6594 123.278 56.0746 124.215 56.0746C125.169 56.0746 125.843 55.5799 125.845 54.8565C125.843 54.3121 125.492 53.979 124.771 53.8224L124.12 53.6832C123.732 53.5962 123.578 53.462 123.581 53.2408C123.578 52.9822 123.864 52.8033 124.24 52.8033C124.655 52.8033 124.873 53.0295 124.943 53.2805L125.763 53.1911Z" fill="#555A60"/>
<rect x="66" y="65" width="18" height="2" rx="1" fill="#D9DDEA"/>
<rect x="88" y="65" width="21" height="2" rx="1" fill="#D9DDEA"/>
<rect x="113" y="65" width="21" height="2" rx="1" fill="#D9DDEA"/>
<rect x="76" y="70" width="12" height="2" rx="1" fill="#D9DDEA"/>
<rect x="92" y="70" width="14" height="2" rx="1" fill="#D9DDEA"/>
<rect x="110" y="70" width="14" height="2" rx="1" fill="#D9DDEA"/>
<g filter="url(#filter1_d)">
<rect x="18" y="85" width="164" height="37" rx="4" fill="white"/>
<rect x="18.5" y="85.5" width="163" height="36" rx="3.5" stroke="#E7EAF3"/>
</g>
<rect x="72" y="86" width="1" height="35" fill="#E7EAF3"/>
<rect x="127" y="86" width="1" height="35" fill="#E7EAF3"/>
<path d="M95.5113 94.8395C94.4076 94.832 93.6743 95.5902 93.6743 96.5845C93.6768 97.544 94.3604 98.2376 95.2528 98.2376C95.8022 98.2376 96.2794 97.9716 96.5255 97.5341H96.5603C96.5578 98.6229 96.1626 99.2717 95.4591 99.2717C95.0191 99.2717 94.7233 99.0181 94.6313 98.6129H93.724C93.8284 99.4556 94.4946 100.07 95.4591 100.07C96.6796 100.07 97.4577 99.0504 97.4552 97.2979C97.4527 95.4435 96.4882 94.8445 95.5113 94.8395ZM95.5138 95.5852C96.0582 95.5852 96.4584 96.0376 96.4584 96.5572C96.4609 97.0842 96.0408 97.5366 95.5039 97.5366C94.962 97.5366 94.5717 97.109 94.5692 96.5646C94.5692 96.0178 94.9744 95.5852 95.5138 95.5852ZM98.3327 100H99.2897L101.452 95.6971V94.9091H97.9847V95.6797H100.498V95.7145L98.3327 100ZM104.977 99.0455C104.979 99.6371 105.354 100.142 106.053 100.142C106.749 100.142 107.132 99.6371 107.129 99.0455V98.777C107.132 98.1804 106.759 97.6808 106.053 97.6808C105.364 97.6808 104.979 98.1854 104.977 98.777V99.0455ZM102.389 96.1321C102.391 96.7237 102.767 97.2234 103.468 97.2234C104.161 97.2234 104.544 96.7287 104.542 96.1321V95.8636C104.544 95.267 104.171 94.7674 103.468 94.7674C102.782 94.7674 102.391 95.267 102.389 95.8636V96.1321ZM102.613 100H103.237L106.737 94.9091H106.113L102.613 100ZM105.625 98.777C105.628 98.5135 105.74 98.2475 106.053 98.2475C106.381 98.2475 106.478 98.5135 106.476 98.777V99.0455C106.478 99.3089 106.371 99.57 106.053 99.57C105.735 99.57 105.628 99.3065 105.625 99.0455V98.777ZM103.043 95.8636C103.045 95.6026 103.152 95.3342 103.468 95.3342C103.796 95.3342 103.89 95.6001 103.888 95.8636V96.1321C103.89 96.3956 103.786 96.6566 103.468 96.6566C103.15 96.6566 103.045 96.3956 103.043 96.1321V95.8636Z" fill="#0ABF53"/>
<path d="M93.821 105.891H94.3281C94.3182 105.399 93.8991 105.051 93.2798 105.051C92.669 105.051 92.2102 105.395 92.2116 105.909C92.2116 106.327 92.5085 106.567 92.9872 106.69L93.3182 106.776C93.6321 106.855 93.8395 106.953 93.8409 107.179C93.8395 107.428 93.6037 107.594 93.2599 107.594C92.9304 107.594 92.6747 107.446 92.6534 107.141H92.1349C92.1562 107.719 92.5866 108.044 93.2642 108.044C93.9616 108.044 94.3665 107.696 94.3679 107.183C94.3665 106.679 93.9503 106.449 93.5128 106.345L93.2401 106.277C93.0014 106.22 92.7429 106.119 92.7457 105.876C92.7472 105.658 92.9432 105.497 93.2727 105.497C93.5866 105.497 93.794 105.643 93.821 105.891ZM95.4428 108.044C95.7852 108.044 95.9897 107.884 96.0835 107.7H96.1005V108H96.5948V106.54C96.5948 105.963 96.1246 105.79 95.7085 105.79C95.2496 105.79 94.8974 105.994 94.7837 106.392L95.2638 106.46C95.315 106.311 95.4599 106.183 95.7113 106.183C95.9499 106.183 96.0806 106.305 96.0806 106.52V106.528C96.0806 106.676 95.9258 106.683 95.5408 106.724C95.1175 106.77 94.7127 106.896 94.7127 107.388C94.7127 107.817 95.0266 108.044 95.4428 108.044ZM95.5763 107.666C95.3619 107.666 95.2085 107.568 95.2085 107.379C95.2085 107.182 95.3803 107.099 95.6104 107.067C95.7454 107.048 96.0153 107.014 96.082 106.96V107.217C96.082 107.46 95.886 107.666 95.5763 107.666ZM98.2013 105.818H97.771V105.295H97.2567V105.818H96.9471V106.216H97.2567V107.429C97.2539 107.839 97.5522 108.041 97.9386 108.03C98.0849 108.026 98.1857 107.997 98.2411 107.979L98.1545 107.577C98.1261 107.584 98.0678 107.597 98.0039 107.597C97.8746 107.597 97.771 107.551 97.771 107.344V106.216H98.2013V105.818ZM98.6314 108H99.1456V105.818H98.6314V108ZM98.8899 105.509C99.0533 105.509 99.1868 105.384 99.1868 105.23C99.1868 105.075 99.0533 104.95 98.8899 104.95C98.7251 104.95 98.5916 105.075 98.5916 105.23C98.5916 105.384 98.7251 105.509 98.8899 105.509ZM101.399 106.395C101.328 106.026 101.032 105.79 100.521 105.79C99.9954 105.79 99.6374 106.048 99.6388 106.452C99.6374 106.77 99.8335 106.98 100.252 107.067L100.625 107.145C100.825 107.189 100.919 107.27 100.919 107.393C100.919 107.543 100.757 107.655 100.512 107.655C100.277 107.655 100.123 107.553 100.079 107.357L99.5778 107.405C99.6417 107.805 99.9783 108.043 100.514 108.043C101.059 108.043 101.444 107.76 101.446 107.347C101.444 107.036 101.244 106.845 100.832 106.756L100.46 106.676C100.238 106.626 100.15 106.55 100.152 106.423C100.15 106.276 100.314 106.173 100.528 106.173C100.765 106.173 100.89 106.303 100.93 106.446L101.399 106.395ZM102.975 105.818H102.522V105.646C102.522 105.476 102.593 105.381 102.784 105.381C102.865 105.381 102.934 105.399 102.976 105.412L103.08 105.014C103.013 104.991 102.867 104.955 102.689 104.955C102.31 104.955 102.007 105.172 102.007 105.612V105.818H101.685V106.216H102.007V108H102.522V106.216H102.975V105.818ZM103.377 108H103.892V105.818H103.377V108ZM103.636 105.509C103.799 105.509 103.933 105.384 103.933 105.23C103.933 105.075 103.799 104.95 103.636 104.95C103.471 104.95 103.338 105.075 103.338 105.23C103.338 105.384 103.471 105.509 103.636 105.509ZM105.386 108.043C105.895 108.043 106.244 107.794 106.335 107.415L105.855 107.361C105.786 107.545 105.615 107.642 105.393 107.642C105.061 107.642 104.841 107.423 104.837 107.05H106.357V106.892C106.357 106.126 105.896 105.79 105.359 105.79C104.734 105.79 104.327 106.249 104.327 106.922C104.327 107.607 104.729 108.043 105.386 108.043ZM104.838 106.703C104.854 106.425 105.06 106.19 105.366 106.19C105.662 106.19 105.861 106.406 105.864 106.703H104.838ZM107.601 108.038C107.976 108.038 108.145 107.815 108.226 107.656H108.257V108H108.763V105.091H108.248V106.179H108.226C108.148 106.021 107.988 105.79 107.603 105.79C107.098 105.79 106.702 106.185 106.702 106.912C106.702 107.631 107.087 108.038 107.601 108.038ZM107.745 107.616C107.405 107.616 107.226 107.318 107.226 106.909C107.226 106.503 107.402 106.212 107.745 106.212C108.076 106.212 108.257 106.486 108.257 106.909C108.257 107.332 108.073 107.616 107.745 107.616ZM91.4112 113.043C91.9595 113.043 92.3089 112.717 92.3459 112.254H91.8544C91.8104 112.489 91.6413 112.624 91.4155 112.624C91.0945 112.624 90.8871 112.355 90.8871 111.909C90.8871 111.469 91.0987 111.205 91.4155 111.205C91.6626 111.205 91.8146 111.364 91.8544 111.574H92.3459C92.3104 111.101 91.9411 110.79 91.4084 110.79C90.7692 110.79 90.3658 111.251 90.3658 111.918C90.3658 112.578 90.7592 113.043 91.4112 113.043ZM94.1587 112.082C94.1587 112.415 93.9215 112.58 93.6942 112.58C93.4471 112.58 93.2823 112.405 93.2823 112.128V110.818H92.7681V112.207C92.7681 112.732 93.0664 113.028 93.4954 113.028C93.8221 113.028 94.0522 112.857 94.1516 112.612H94.1744V113H94.6729V110.818H94.1587V112.082ZM96.9261 111.395C96.8551 111.026 96.5597 110.79 96.0483 110.79C95.5227 110.79 95.1648 111.048 95.1662 111.452C95.1648 111.77 95.3608 111.98 95.7798 112.067L96.152 112.145C96.3523 112.189 96.446 112.27 96.446 112.393C96.446 112.543 96.2841 112.655 96.0398 112.655C95.804 112.655 95.6506 112.553 95.6065 112.357L95.1051 112.405C95.169 112.805 95.5057 113.043 96.0412 113.043C96.5866 113.043 96.9716 112.76 96.973 112.347C96.9716 112.036 96.7713 111.845 96.3594 111.756L95.9872 111.676C95.7656 111.626 95.6776 111.55 95.679 111.423C95.6776 111.276 95.8409 111.173 96.0554 111.173C96.2926 111.173 96.4176 111.303 96.4574 111.446L96.9261 111.395ZM98.4865 110.818H98.0561V110.295H97.5419V110.818H97.2322V111.216H97.5419V112.429C97.5391 112.839 97.8374 113.041 98.2237 113.03C98.37 113.026 98.4709 112.997 98.5263 112.979L98.4396 112.577C98.4112 112.584 98.353 112.597 98.2891 112.597C98.1598 112.597 98.0561 112.551 98.0561 112.344V111.216H98.4865V110.818ZM99.8448 113.043C100.484 113.043 100.89 112.592 100.89 111.918C100.89 111.241 100.484 110.79 99.8448 110.79C99.2056 110.79 98.7994 111.241 98.7994 111.918C98.7994 112.592 99.2056 113.043 99.8448 113.043ZM99.8477 112.631C99.494 112.631 99.3207 112.315 99.3207 111.916C99.3207 111.517 99.494 111.197 99.8477 111.197C100.196 111.197 100.369 111.517 100.369 111.916C100.369 112.315 100.196 112.631 99.8477 112.631ZM101.327 113H101.841V111.673C101.841 111.405 102.02 111.223 102.241 111.223C102.459 111.223 102.608 111.369 102.608 111.594V113H103.112V111.639C103.112 111.393 103.259 111.223 103.507 111.223C103.714 111.223 103.879 111.345 103.879 111.615V113H104.395V111.536C104.395 111.048 104.114 110.79 103.713 110.79C103.396 110.79 103.155 110.946 103.058 111.189H103.036C102.952 110.942 102.74 110.79 102.446 110.79C102.153 110.79 101.935 110.94 101.844 111.189H101.818V110.818H101.327V113ZM105.882 113.043C106.391 113.043 106.74 112.794 106.831 112.415L106.351 112.361C106.282 112.545 106.111 112.642 105.89 112.642C105.557 112.642 105.337 112.423 105.333 112.05H106.853V111.892C106.853 111.126 106.392 110.79 105.855 110.79C105.23 110.79 104.823 111.249 104.823 111.922C104.823 112.607 105.225 113.043 105.882 113.043ZM105.334 111.703C105.35 111.425 105.556 111.19 105.863 111.19C106.158 111.19 106.357 111.406 106.36 111.703H105.334ZM107.288 113H107.802V111.717C107.802 111.44 108.011 111.244 108.293 111.244C108.38 111.244 108.488 111.26 108.532 111.274V110.801C108.485 110.793 108.404 110.787 108.347 110.787C108.097 110.787 107.888 110.929 107.809 111.182H107.786V110.818H107.288V113ZM110.598 111.395C110.527 111.026 110.232 110.79 109.72 110.79C109.195 110.79 108.837 111.048 108.838 111.452C108.837 111.77 109.033 111.98 109.452 112.067L109.824 112.145C110.024 112.189 110.118 112.27 110.118 112.393C110.118 112.543 109.956 112.655 109.712 112.655C109.476 112.655 109.322 112.553 109.278 112.357L108.777 112.405C108.841 112.805 109.178 113.043 109.713 113.043C110.259 113.043 110.643 112.76 110.645 112.347C110.643 112.036 110.443 111.845 110.031 111.756L109.659 111.676C109.438 111.626 109.349 111.55 109.351 111.423C109.349 111.276 109.513 111.173 109.727 111.173C109.964 111.173 110.089 111.303 110.129 111.446L110.598 111.395Z" fill="#555A60"/>
<path d="M147.622 100H151.112V99.2294H148.895V99.1946L149.772 98.3022C150.761 97.3526 151.035 96.8903 151.035 96.3161C151.035 95.4634 150.341 94.8395 149.317 94.8395C148.308 94.8395 147.592 95.4659 147.592 96.4329H148.47C148.47 95.9134 148.798 95.5877 149.305 95.5877C149.789 95.5877 150.15 95.8835 150.15 96.3633C150.15 96.7884 149.891 97.0916 149.389 97.6012L147.622 99.3338V100ZM151.768 99.0554H154.197V100H155.077V99.0554H155.728V98.2972H155.077V94.9091H153.928L151.768 98.3221V99.0554ZM154.207 98.2972H152.713V98.2575L154.167 95.9531H154.207V98.2972ZM158.61 94.6705H157.822L156.182 100.766H156.97L158.61 94.6705ZM159.361 100H160.318L162.481 95.6971V94.9091H159.013V95.6797H161.526V95.7145L159.361 100Z" fill="#0ABF53"/>
<path d="M44.5472 100.07C45.646 100.077 46.3842 99.3214 46.3817 98.3146C46.3842 97.3526 45.6982 96.6566 44.8058 96.6566C44.2589 96.6566 43.7766 96.9226 43.533 97.3601H43.4982C43.5007 96.2887 43.8935 95.6374 44.5994 95.6374C45.0369 95.6374 45.3327 95.891 45.4272 96.2812H46.3345C46.2251 95.4585 45.5614 94.8395 44.5994 94.8395C43.3764 94.8395 42.6033 95.8587 42.6033 97.5987C42.6009 99.4656 43.5703 100.065 44.5472 100.07ZM44.5423 99.3239C43.9979 99.3239 43.6001 98.8739 43.5977 98.342C43.6026 97.8075 44.0153 97.3601 44.5547 97.3601C45.0941 97.3601 45.4893 97.7876 45.4869 98.3345C45.4893 98.8913 45.0817 99.3239 44.5423 99.3239Z" fill="#0ABF53"/>
<path d="M143.314 108H143.841V107.017H144.398C145.07 107.017 145.431 106.614 145.431 106.054C145.431 105.499 145.074 105.091 144.405 105.091H143.314V108ZM143.841 106.584V105.531H144.324C144.719 105.531 144.894 105.744 144.894 106.054C144.894 106.364 144.719 106.584 144.327 106.584H143.841ZM145.866 108H146.38V106.717C146.38 106.44 146.589 106.244 146.871 106.244C146.958 106.244 147.066 106.26 147.11 106.274V105.801C147.063 105.793 146.982 105.787 146.925 105.787C146.675 105.787 146.467 105.929 146.387 106.182H146.364V105.818H145.866V108ZM148.314 108.043C148.953 108.043 149.359 107.592 149.359 106.918C149.359 106.241 148.953 105.79 148.314 105.79C147.674 105.79 147.268 106.241 147.268 106.918C147.268 107.592 147.674 108.043 148.314 108.043ZM148.316 107.631C147.963 107.631 147.789 107.315 147.789 106.916C147.789 106.517 147.963 106.197 148.316 106.197C148.664 106.197 148.838 106.517 148.838 106.916C148.838 107.315 148.664 107.631 148.316 107.631ZM150.901 105.818H150.447V105.646C150.447 105.476 150.518 105.381 150.71 105.381C150.791 105.381 150.859 105.399 150.902 105.412L151.006 105.014C150.939 104.991 150.793 104.955 150.615 104.955C150.236 104.955 149.933 105.172 149.933 105.612V105.818H149.611V106.216H149.933V108H150.447V106.216H150.901V105.818ZM152.187 108.043C152.696 108.043 153.045 107.794 153.136 107.415L152.656 107.361C152.586 107.545 152.416 107.642 152.194 107.642C151.862 107.642 151.642 107.423 151.637 107.05H153.157V106.892C153.157 106.126 152.697 105.79 152.16 105.79C151.535 105.79 151.127 106.249 151.127 106.922C151.127 107.607 151.529 108.043 152.187 108.043ZM151.639 106.703C151.654 106.425 151.86 106.19 152.167 106.19C152.463 106.19 152.662 106.406 152.664 106.703H151.639ZM155.317 106.395C155.246 106.026 154.95 105.79 154.439 105.79C153.913 105.79 153.555 106.048 153.557 106.452C153.555 106.77 153.751 106.98 154.17 107.067L154.543 107.145C154.743 107.189 154.837 107.27 154.837 107.393C154.837 107.543 154.675 107.655 154.43 107.655C154.195 107.655 154.041 107.553 153.997 107.357L153.496 107.405C153.56 107.805 153.896 108.043 154.432 108.043C154.977 108.043 155.362 107.76 155.364 107.347C155.362 107.036 155.162 106.845 154.75 106.756L154.378 106.676C154.156 106.626 154.068 106.55 154.07 106.423C154.068 106.276 154.232 106.173 154.446 106.173C154.683 106.173 154.808 106.303 154.848 106.446L155.317 106.395ZM157.512 106.395C157.441 106.026 157.146 105.79 156.634 105.79C156.109 105.79 155.751 106.048 155.752 106.452C155.751 106.77 155.947 106.98 156.366 107.067L156.738 107.145C156.938 107.189 157.032 107.27 157.032 107.393C157.032 107.543 156.87 107.655 156.626 107.655C156.39 107.655 156.237 107.553 156.192 107.357L155.691 107.405C155.755 107.805 156.092 108.043 156.627 108.043C157.173 108.043 157.558 107.76 157.559 107.347C157.558 107.036 157.357 106.845 156.945 106.756L156.573 106.676C156.352 106.626 156.263 106.55 156.265 106.423C156.263 106.276 156.427 106.173 156.641 106.173C156.879 106.173 157.004 106.303 157.043 106.446L157.512 106.395ZM157.983 108H158.497V105.818H157.983V108ZM158.241 105.509C158.405 105.509 158.538 105.384 158.538 105.23C158.538 105.075 158.405 104.95 158.241 104.95C158.077 104.95 157.943 105.075 157.943 105.23C157.943 105.384 158.077 105.509 158.241 105.509ZM159.978 108.043C160.617 108.043 161.023 107.592 161.023 106.918C161.023 106.241 160.617 105.79 159.978 105.79C159.338 105.79 158.932 106.241 158.932 106.918C158.932 107.592 159.338 108.043 159.978 108.043ZM159.98 107.631C159.627 107.631 159.453 107.315 159.453 106.916C159.453 106.517 159.627 106.197 159.98 106.197C160.328 106.197 160.502 106.517 160.502 106.916C160.502 107.315 160.328 107.631 159.98 107.631ZM161.974 106.722C161.974 106.406 162.164 106.224 162.435 106.224C162.701 106.224 162.86 106.399 162.86 106.69V108H163.374V106.611C163.376 106.088 163.077 105.79 162.627 105.79C162.3 105.79 162.076 105.946 161.977 106.189H161.951V105.818H161.46V108H161.974V106.722ZM164.525 108.044C164.867 108.044 165.072 107.884 165.165 107.7H165.183V108H165.677V106.54C165.677 105.963 165.207 105.79 164.79 105.79C164.332 105.79 163.979 105.994 163.866 106.392L164.346 106.46C164.397 106.311 164.542 106.183 164.793 106.183C165.032 106.183 165.163 106.305 165.163 106.52V106.528C165.163 106.676 165.008 106.683 164.623 106.724C164.2 106.77 163.795 106.896 163.795 107.388C163.795 107.817 164.109 108.044 164.525 108.044ZM164.658 107.666C164.444 107.666 164.29 107.568 164.29 107.379C164.29 107.182 164.462 107.099 164.692 107.067C164.827 107.048 165.097 107.014 165.164 106.96V107.217C165.164 107.46 164.968 107.666 164.658 107.666ZM166.708 105.091H166.194V108H166.708V105.091ZM149.346 111.395C149.275 111.026 148.98 110.79 148.468 110.79C147.943 110.79 147.585 111.048 147.586 111.452C147.585 111.77 147.781 111.98 148.2 112.067L148.572 112.145C148.772 112.189 148.866 112.27 148.866 112.393C148.866 112.543 148.704 112.655 148.46 112.655C148.224 112.655 148.07 112.553 148.026 112.357L147.525 112.405C147.589 112.805 147.926 113.043 148.461 113.043C149.007 113.043 149.392 112.76 149.393 112.347C149.392 112.036 149.191 111.845 148.779 111.756L148.407 111.676C148.186 111.626 148.097 111.55 148.099 111.423C148.097 111.276 148.261 111.173 148.475 111.173C148.713 111.173 148.838 111.303 148.877 111.446L149.346 111.395ZM151.208 112.082C151.208 112.415 150.97 112.58 150.743 112.58C150.496 112.58 150.331 112.405 150.331 112.128V110.818H149.817V112.207C149.817 112.732 150.115 113.028 150.544 113.028C150.871 113.028 151.101 112.857 151.2 112.612H151.223V113H151.722V110.818H151.208V112.082ZM152.251 113.818H152.765V112.656H152.786C152.867 112.815 153.036 113.038 153.411 113.038C153.925 113.038 154.31 112.631 154.31 111.912C154.31 111.185 153.914 110.79 153.41 110.79C153.025 110.79 152.864 111.021 152.786 111.179H152.756V110.818H152.251V113.818ZM152.755 111.909C152.755 111.486 152.937 111.212 153.268 111.212C153.61 111.212 153.786 111.503 153.786 111.909C153.786 112.318 153.607 112.616 153.268 112.616C152.939 112.616 152.755 112.332 152.755 111.909ZM154.751 113.818H155.265V112.656H155.286C155.367 112.815 155.536 113.038 155.911 113.038C156.425 113.038 156.81 112.631 156.81 111.912C156.81 111.185 156.414 110.79 155.91 110.79C155.525 110.79 155.364 111.021 155.286 111.179H155.256V110.818H154.751V113.818ZM155.255 111.909C155.255 111.486 155.437 111.212 155.768 111.212C156.11 111.212 156.286 111.503 156.286 111.909C156.286 112.318 156.107 112.616 155.768 112.616C155.439 112.616 155.255 112.332 155.255 111.909ZM158.202 113.043C158.841 113.043 159.248 112.592 159.248 111.918C159.248 111.241 158.841 110.79 158.202 110.79C157.563 110.79 157.157 111.241 157.157 111.918C157.157 112.592 157.563 113.043 158.202 113.043ZM158.205 112.631C157.851 112.631 157.678 112.315 157.678 111.916C157.678 111.517 157.851 111.197 158.205 111.197C158.553 111.197 158.726 111.517 158.726 111.916C158.726 112.315 158.553 112.631 158.205 112.631ZM159.684 113H160.198V111.717C160.198 111.44 160.407 111.244 160.69 111.244C160.776 111.244 160.884 111.26 160.928 111.274V110.801C160.882 110.793 160.801 110.787 160.744 110.787C160.494 110.787 160.285 110.929 160.205 111.182H160.183V110.818H159.684V113ZM162.477 110.818H162.046V110.295H161.532V110.818H161.222V111.216H161.532V112.429C161.529 112.839 161.828 113.041 162.214 113.03C162.36 113.026 162.461 112.997 162.517 112.979L162.43 112.577C162.401 112.584 162.343 112.597 162.279 112.597C162.15 112.597 162.046 112.551 162.046 112.344V111.216H162.477V110.818Z" fill="#555A60"/>
<path d="M34.9647 105.091V108H35.4703V105.997H35.4973L36.3013 107.991H36.6792L37.4831 106.001H37.5101V108H38.0158V105.091H37.3709L36.5073 107.199H36.4732L35.6096 105.091H34.9647ZM39.5186 108.043C40.1578 108.043 40.5641 107.592 40.5641 106.918C40.5641 106.241 40.1578 105.79 39.5186 105.79C38.8794 105.79 38.4732 106.241 38.4732 106.918C38.4732 107.592 38.8794 108.043 39.5186 108.043ZM39.5215 107.631C39.1678 107.631 38.9945 107.315 38.9945 106.916C38.9945 106.517 39.1678 106.197 39.5215 106.197C39.8695 106.197 40.0428 106.517 40.0428 106.916C40.0428 107.315 39.8695 107.631 39.5215 107.631ZM41.5147 106.722C41.5147 106.406 41.7051 106.224 41.9764 106.224C42.242 106.224 42.4011 106.399 42.4011 106.69V108H42.9153V106.611C42.9167 106.088 42.6184 105.79 42.1681 105.79C41.8414 105.79 41.617 105.946 41.5176 106.189H41.492V105.818H41.0005V108H41.5147V106.722ZM44.5275 105.818H44.0971V105.295H43.5829V105.818H43.2733V106.216H43.5829V107.429C43.5801 107.839 43.8784 108.041 44.2647 108.03C44.411 108.026 44.5119 107.997 44.5673 107.979L44.4806 107.577C44.4522 107.584 44.394 107.597 44.3301 107.597C44.2008 107.597 44.0971 107.551 44.0971 107.344V106.216H44.5275V105.818ZM45.5186 106.722C45.5186 106.406 45.7147 106.224 45.9902 106.224C46.2601 106.224 46.4192 106.396 46.4192 106.69V108H46.9334V106.611C46.9334 106.084 46.6351 105.79 46.182 105.79C45.8468 105.79 45.6337 105.942 45.5328 106.189H45.5073V105.091H45.0044V108H45.5186V106.722ZM49.182 106.395C49.111 106.026 48.8155 105.79 48.3042 105.79C47.7786 105.79 47.4206 106.048 47.4221 106.452C47.4206 106.77 47.6167 106.98 48.0357 107.067L48.4078 107.145C48.6081 107.189 48.7019 107.27 48.7019 107.393C48.7019 107.543 48.54 107.655 48.2956 107.655C48.0598 107.655 47.9064 107.553 47.8624 107.357L47.361 107.405C47.4249 107.805 47.7615 108.043 48.2971 108.043C48.8425 108.043 49.2275 107.76 49.2289 107.347C49.2275 107.036 49.0272 106.845 48.6152 106.756L48.2431 106.676C48.0215 106.626 47.9334 106.55 47.9348 106.423C47.9334 106.276 48.0968 106.173 48.3113 106.173C48.5485 106.173 48.6735 106.303 48.7132 106.446L49.182 106.395ZM51.5968 108.043C52.236 108.043 52.6422 107.592 52.6422 106.918C52.6422 106.241 52.236 105.79 51.5968 105.79C50.9576 105.79 50.5513 106.241 50.5513 106.918C50.5513 107.592 50.9576 108.043 51.5968 108.043ZM51.5996 107.631C51.2459 107.631 51.0726 107.315 51.0726 106.916C51.0726 106.517 51.2459 106.197 51.5996 106.197C51.9476 106.197 52.1209 106.517 52.1209 106.916C52.1209 107.315 51.9476 107.631 51.5996 107.631ZM54.1838 105.818H53.7306V105.646C53.7306 105.476 53.8017 105.381 53.9934 105.381C54.0744 105.381 54.1426 105.399 54.1852 105.412L54.2889 105.014C54.2221 104.991 54.0758 104.955 53.8983 104.955C53.519 104.955 53.2164 105.172 53.2164 105.612V105.818H52.894V106.216H53.2164V108H53.7306V106.216H54.1838V105.818ZM33.8576 110.818H33.4045V110.646C33.4045 110.476 33.4755 110.381 33.6673 110.381C33.7482 110.381 33.8164 110.399 33.859 110.412L33.9627 110.014C33.896 109.991 33.7496 109.955 33.5721 109.955C33.1928 109.955 32.8903 110.172 32.8903 110.612V110.818H32.5678V111.216H32.8903V113H33.4045V111.216H33.8576V110.818ZM34.2603 113H34.7745V111.717C34.7745 111.44 34.9833 111.244 35.266 111.244C35.3526 111.244 35.4606 111.26 35.5046 111.274V110.801C35.4577 110.793 35.3768 110.787 35.32 110.787C35.07 110.787 34.8612 110.929 34.7816 111.182H34.7589V110.818H34.2603V113ZM36.7223 113.043C37.2308 113.043 37.5803 112.794 37.6712 112.415L37.1911 112.361C37.1214 112.545 36.951 112.642 36.7294 112.642C36.397 112.642 36.1768 112.423 36.1726 112.05H37.6925V111.892C37.6925 111.126 37.2322 110.79 36.6953 110.79C36.0703 110.79 35.6626 111.249 35.6626 111.922C35.6626 112.607 36.0646 113.043 36.7223 113.043ZM36.174 111.703C36.1896 111.425 36.3956 111.19 36.7024 111.19C36.9979 111.19 37.1967 111.406 37.1996 111.703H36.174ZM39.0934 113.043C39.6019 113.043 39.9513 112.794 40.0423 112.415L39.5621 112.361C39.4925 112.545 39.3221 112.642 39.1005 112.642C38.7681 112.642 38.5479 112.423 38.5437 112.05H40.0636V111.892C40.0636 111.126 39.6033 110.79 39.0664 110.79C38.4414 110.79 38.0337 111.249 38.0337 111.922C38.0337 112.607 38.4357 113.043 39.0934 113.043ZM38.5451 111.703C38.5607 111.425 38.7667 111.19 39.0735 111.19C39.369 111.19 39.5678 111.406 39.5707 111.703H38.5451ZM43.2152 111.395C43.1442 111.026 42.8487 110.79 42.3374 110.79C41.8118 110.79 41.4538 111.048 41.4553 111.452C41.4538 111.77 41.6499 111.98 42.0689 112.067L42.4411 112.145C42.6413 112.189 42.7351 112.27 42.7351 112.393C42.7351 112.543 42.5732 112.655 42.3288 112.655C42.093 112.655 41.9396 112.553 41.8956 112.357L41.3942 112.405C41.4581 112.805 41.7947 113.043 42.3303 113.043C42.8757 113.043 43.2607 112.76 43.2621 112.347C43.2607 112.036 43.0604 111.845 42.6484 111.756L42.2763 111.676C42.0547 111.626 41.9666 111.55 41.968 111.423C41.9666 111.276 42.13 111.173 42.3445 111.173C42.5817 111.173 42.7067 111.303 42.7464 111.446L43.2152 111.395ZM45.0767 112.082C45.0767 112.415 44.8395 112.58 44.6122 112.58C44.3651 112.58 44.2003 112.405 44.2003 112.128V110.818H43.6861V112.207C43.6861 112.732 43.9844 113.028 44.4134 113.028C44.7401 113.028 44.9702 112.857 45.0696 112.612H45.0923V113H45.5909V110.818H45.0767V112.082ZM46.1197 113.818H46.6339V112.656H46.6552C46.7362 112.815 46.9052 113.038 47.2802 113.038C47.7944 113.038 48.1793 112.631 48.1793 111.912C48.1793 111.185 47.783 110.79 47.2788 110.79C46.8938 110.79 46.7333 111.021 46.6552 111.179H46.6254V110.818H46.1197V113.818ZM46.6239 111.909C46.6239 111.486 46.8058 111.212 47.1367 111.212C47.479 111.212 47.6552 111.503 47.6552 111.909C47.6552 112.318 47.4762 112.616 47.1367 112.616C46.8086 112.616 46.6239 112.332 46.6239 111.909ZM48.6197 113.818H49.1339V112.656H49.1552C49.2362 112.815 49.4052 113.038 49.7802 113.038C50.2944 113.038 50.6793 112.631 50.6793 111.912C50.6793 111.185 50.283 110.79 49.7788 110.79C49.3938 110.79 49.2333 111.021 49.1552 111.179H49.1254V110.818H48.6197V113.818ZM49.1239 111.909C49.1239 111.486 49.3058 111.212 49.6367 111.212C49.979 111.212 50.1552 111.503 50.1552 111.909C50.1552 112.318 49.9762 112.616 49.6367 112.616C49.3086 112.616 49.1239 112.332 49.1239 111.909ZM52.0714 113.043C52.7106 113.043 53.1168 112.592 53.1168 111.918C53.1168 111.241 52.7106 110.79 52.0714 110.79C51.4322 110.79 51.0259 111.241 51.0259 111.918C51.0259 112.592 51.4322 113.043 52.0714 113.043ZM52.0742 112.631C51.7205 112.631 51.5472 112.315 51.5472 111.916C51.5472 111.517 51.7205 111.197 52.0742 111.197C52.4222 111.197 52.5955 111.517 52.5955 111.916C52.5955 112.315 52.4222 112.631 52.0742 112.631ZM53.5533 113H54.0675V111.717C54.0675 111.44 54.2763 111.244 54.5589 111.244C54.6456 111.244 54.7536 111.26 54.7976 111.274V110.801C54.7507 110.793 54.6697 110.787 54.6129 110.787C54.3629 110.787 54.1541 110.929 54.0746 111.182H54.0518V110.818H53.5533V113ZM56.3459 110.818H55.9155V110.295H55.4013V110.818H55.0916V111.216H55.4013V112.429C55.3984 112.839 55.6967 113.041 56.0831 113.03C56.2294 113.026 56.3303 112.997 56.3857 112.979L56.299 112.577C56.2706 112.584 56.2124 112.597 56.1484 112.597C56.0192 112.597 55.9155 112.551 55.9155 112.344V111.216H56.3459V110.818Z" fill="#555A60"/>
<path d="M0 104H200V140C200 142.209 198.209 144 196 144H4C1.79086 144 0 142.209 0 140V104Z" fill="url(#paint0_linear)"/>
</g>
<defs>
<filter id="filter0_d" x="22" y="18" width="156" height="134" filterUnits="userSpaceOnUse" color-interpolation-filters="sRGB">
<feFlood flood-opacity="0" result="BackgroundImageFix"/>
<feColorMatrix in="SourceAlpha" type="matrix" values="0 0 0 0 0 0 0 0 0 0 0 0 0 0 0 0 0 0 127 0"/>
<feOffset dy="3"/>
<feGaussianBlur stdDeviation="2.5"/>
<feColorMatrix type="matrix" values="0 0 0 0 0.54902 0 0 0 0 0.596078 0 0 0 0 0.643137 0 0 0 0.125 0"/>
<feBlend mode="normal" in2="BackgroundImageFix" result="effect1_dropShadow"/>
<feBlend mode="normal" in="SourceGraphic" in2="effect1_dropShadow" result="shape"/>
</filter>
<filter id="filter1_d" x="13" y="83" width="174" height="47" filterUnits="userSpaceOnUse" color-interpolation-filters="sRGB">
<feFlood flood-opacity="0" result="BackgroundImageFix"/>
<feColorMatrix in="SourceAlpha" type="matrix" values="0 0 0 0 0 0 0 0 0 0 0 0 0 0 0 0 0 0 127 0"/>
<feOffset dy="3"/>
<feGaussianBlur stdDeviation="2.5"/>
<feColorMatrix type="matrix" values="0 0 0 0 0.54902 0 0 0 0 0.596078 0 0 0 0 0.643137 0 0 0 0.125 0"/>
<feBlend mode="normal" in2="BackgroundImageFix" result="effect1_dropShadow"/>
<feBlend mode="normal" in="SourceGraphic" in2="effect1_dropShadow" result="shape"/>
</filter>
<linearGradient id="paint0_linear" x1="100" y1="154" x2="100" y2="92.5" gradientUnits="userSpaceOnUse">
<stop offset="0.256387" stop-color="#F3F4F6"/>
<stop offset="0.749415" stop-color="#F3F4F6" stop-opacity="0"/>
</linearGradient>
<clipPath id="clip0">
<rect width="200" height="144" fill="white"/>
</clipPath>
</defs>
</svg>
