<svg width="80" height="30" viewBox="0 0 80 30" fill="none" xmlns="http://www.w3.org/2000/svg">
<path d="M0 0H19C23.4183 0 27 3.58172 27 8V27H8C3.58172 27 0 23.4183 0 19V0Z" fill="#0ABF53"/>
<path d="M19.5838 17.5767C19.5838 19.9034 17.9233 21.0568 16.3324 21.0568C14.6023 21.0568 13.4489 19.8338 13.4489 17.8949V8.72727H9.84943V18.4517C9.84943 22.1207 11.9375 24.1989 14.9403 24.1989C17.2273 24.1989 18.8381 22.9957 19.5341 21.2855H19.6932V24H23.1832V8.72727H19.5838V17.5767Z" fill="white"/>
<path d="M34.4489 15.0511C34.4489 12.8438 35.7812 11.571 37.6804 11.571C39.5398 11.571 40.6534 12.794 40.6534 14.8324V24H44.2528V14.2756C44.2628 10.6165 42.1747 8.52841 39.0227 8.52841C36.7358 8.52841 35.1648 9.62216 34.4688 11.3224H34.2898V8.72727H30.8494V24H34.4489V15.0511Z" fill="#FFFFFF"/>
<path d="M47.9119 24H51.5114V8.72727H47.9119V24ZM49.7216 6.55966C50.8651 6.55966 51.7997 5.68466 51.7997 4.61079C51.7997 3.52699 50.8651 2.65199 49.7216 2.65199C48.5682 2.65199 47.6335 3.52699 47.6335 4.61079C47.6335 5.68466 48.5682 6.55966 49.7216 6.55966Z" fill="#FFFFFF"/>
<path d="M62.9485 8.72727H59.7766V7.52415C59.7766 6.33097 60.2738 5.66477 61.6161 5.66477C62.1829 5.66477 62.6602 5.79403 62.9584 5.88352L63.6843 3.09943C63.217 2.94034 62.1928 2.68182 60.9499 2.68182C58.2951 2.68182 56.1772 4.20312 56.1772 7.28551V8.72727H53.9201V11.5114H56.1772V24H59.7766V11.5114H62.9485V8.72727Z" fill="#FFFFFF"/>
<path d="M68.0046 29.7273C70.8086 29.7273 72.4293 28.2855 73.2944 25.8494L79.4293 8.74716L75.5813 8.72727L72.0515 20.2614H71.8924L68.3725 8.72727H64.5543L70.0927 24.3182L69.7844 25.1435C69.1182 26.8835 68.0643 27.0028 66.4933 26.5455L65.658 29.3494C66.1452 29.5483 67.0202 29.7273 68.0046 29.7273Z" fill="#FFFFFF"/>
</svg>
