<svg width="58" height="62" viewBox="0 0 58 62" fill="none" xmlns="http://www.w3.org/2000/svg">
<path fill-rule="evenodd" clip-rule="evenodd" d="M4.75567 44.8237C4.41489 47.1403 6.01659 49.2945 8.33315 49.6353C10.6497 49.9761 12.8039 48.3744 13.1447 46.0578C13.4855 43.7412 11.8838 41.587 9.56721 41.2463C7.25064 40.9055 5.09644 42.5072 4.75567 44.8237Z" fill="#BDC5D1"/>
<path d="M15.8086 34.6774C17.3822 32.7457 19.0332 30.8678 20.7102 29.0946C20.9162 28.8779 21.1913 28.74 21.4881 28.7046C21.7849 28.6692 22.0847 28.7385 22.3359 28.9006C22.587 29.0626 22.7737 29.3073 22.8637 29.5923C22.9537 29.8774 22.9414 30.1849 22.8289 30.4618C22.7688 30.6161 22.68 30.7577 22.5674 30.8792C20.9335 32.6024 19.3257 34.4302 17.7939 36.3153C17.579 36.5795 17.2679 36.7474 16.9291 36.7823C16.5904 36.8171 16.2517 36.7159 15.9875 36.5009C15.7233 36.286 15.5554 35.9749 15.5206 35.6362C15.4858 35.2974 15.587 34.9587 15.8019 34.6945L15.8086 34.6774Z" fill="#BDC5D1"/>
<path d="M29.9103 22.6266C32.0393 21.336 34.236 20.1605 36.4908 19.1051C36.6445 19.0265 36.8125 18.9797 36.9847 18.9676C37.157 18.9555 37.3299 18.9782 37.4931 19.0345C37.6563 19.0908 37.8065 19.1794 37.9347 19.2951C38.0628 19.4108 38.1663 19.5512 38.2389 19.7078C38.3116 19.8645 38.3518 20.0342 38.3573 20.2067C38.3628 20.3793 38.3334 20.5512 38.2709 20.7122C38.2084 20.8731 38.1141 21.0198 37.9935 21.1434C37.873 21.267 37.7288 21.365 37.5695 21.4316C35.3911 22.4444 33.2684 23.5729 31.2103 24.8121C30.9194 24.9753 30.5763 25.0189 30.2538 24.9335C29.9314 24.8481 29.6548 24.6405 29.4828 24.3546C29.3108 24.0688 29.2569 23.7272 29.3325 23.4022C29.4082 23.0773 29.6073 22.7946 29.8879 22.6141L29.9103 22.6266Z" fill="#BDC5D1"/>
<path d="M46.6426 15.5965C49.0303 14.8146 51.4806 14.2388 53.9667 13.8755C54.3023 13.8232 54.6449 13.906 54.9195 14.1059C55.1941 14.3057 55.3783 14.6063 55.4317 14.9417C55.4801 15.2787 55.3929 15.6212 55.1893 15.8941C54.9857 16.167 54.6823 16.348 54.3455 16.3977C51.9995 16.7444 49.6875 17.2913 47.4348 18.0323C47.1112 18.1376 46.7589 18.11 46.4556 17.9556C46.1523 17.8012 45.9228 17.5327 45.8175 17.209C45.7122 16.8854 45.7398 16.5331 45.8942 16.2298C46.0486 15.9265 46.3171 15.697 46.6408 15.5917L46.6426 15.5965Z" fill="#BDC5D1"/>
</svg>
