<svg width="400" height="338" viewBox="0 0 400 338" fill="none" xmlns="http://www.w3.org/2000/svg">
<g clip-path="url(#clip0)">
<path opacity="0.1" d="M599.8 0.300049H-0.200195V337.6H599.8V0.300049Z" fill="#F39568"/>
<path opacity="0.1" d="M355.2 131.5C380.108 131.5 400.3 123.352 400.3 113.3C400.3 103.248 380.108 95.1001 355.2 95.1001C330.292 95.1001 310.1 103.248 310.1 113.3C310.1 123.352 330.292 131.5 355.2 131.5Z" fill="black"/>
<path opacity="0.85" d="M393.9 121.5C416.212 121.5 434.3 103.412 434.3 81.0998C434.3 58.7875 416.212 40.7 393.9 40.7C371.588 40.7 353.5 58.7875 353.5 81.0998C353.5 103.412 371.588 121.5 393.9 121.5Z" fill="#F39568"/>
<path opacity="0.7" d="M38.8 420.5C105.24 420.5 159.1 366.64 159.1 300.2C159.1 233.76 105.24 179.9 38.8 179.9C-27.6399 179.9 -81.5 233.76 -81.5 300.2C-81.5 366.64 -27.6399 420.5 38.8 420.5Z" fill="#077C76"/>
</g>
<defs>
<clipPath id="clip0">
<rect width="400" height="338" fill="white"/>
</clipPath>
</defs>
</svg>
