<svg width="306" height="295" viewBox="0 0 306 295" fill="none" xmlns="http://www.w3.org/2000/svg">
<path d="M305.67 42.5186C292.369 42.5186 279.613 47.8596 270.208 57.3668C260.803 66.874 255.52 79.7685 255.52 93.2137C255.52 106.659 260.803 119.553 270.208 129.061C279.613 138.568 292.369 143.909 305.67 143.909V120.374C298.544 120.374 291.71 117.512 286.671 112.419C281.632 107.325 278.801 100.417 278.801 93.2137C278.801 86.0103 281.632 79.1021 286.671 74.0085C291.71 68.915 298.544 66.0535 305.67 66.0535V42.5186Z" fill="#247F72"/>
<path d="M305.669 0C281.092 -2.94804e-07 257.522 9.82069 240.143 27.3016C222.764 44.7826 213.001 68.4918 213.001 93.2136C213.001 117.935 222.764 141.645 240.143 159.126C257.522 176.606 281.092 186.427 305.669 186.427V143.153C292.502 143.153 279.874 137.892 270.563 128.526C261.253 119.161 256.022 106.458 256.022 93.2136C256.022 79.9688 261.253 67.2664 270.563 57.9009C279.874 48.5354 292.502 43.274 305.669 43.274V0Z" fill="#0A7261"/>
<path d="M125.519 55.6012C102.036 55.6012 83.0001 74.6374 83.0001 98.1197C83.0001 121.602 102.036 140.638 125.519 140.638C149.001 140.638 168.037 121.602 168.037 98.1197C168.037 74.6374 149.001 55.6012 125.519 55.6012Z" fill="#247F72"/>
<path d="M125.518 80.6765C115.885 80.6765 108.075 88.4862 108.075 98.12C108.075 107.754 115.885 115.563 125.518 115.563C135.152 115.563 142.962 107.754 142.962 98.12C142.962 88.4862 135.152 80.6765 125.518 80.6765Z" fill="#0A7261"/>
</svg>
