<svg width="306" height="295" viewBox="0 0 306 295" fill="none" xmlns="http://www.w3.org/2000/svg">
<path d="M5.77897e-07 0C11.819 1.4094e-07 23.5222 2.32792 34.4415 6.85084C45.3608 11.3738 55.2823 18.0031 63.6396 26.3604C71.9969 34.7177 78.6262 44.6392 83.1492 55.5585C87.6721 66.4778 90 78.181 90 90H41.5386C41.5386 84.5451 40.4642 79.1436 38.3767 74.1039C36.2892 69.0642 33.2294 64.485 29.3722 60.6278C25.515 56.7706 20.9358 53.7109 15.8961 51.6233C10.8564 49.5358 5.45493 48.4614 0 48.4614L5.77897e-07 0Z" fill="#038972"/>
<path d="M100.5 236C153.795 236 197 192.795 197 139.5C197 86.2045 153.795 43 100.5 43C47.2045 43 4 86.2045 4 139.5C4 192.795 47.2045 236 100.5 236Z" fill="#1AA086"/>
<path d="M80 97H0V192H80V97Z" fill="#038972"/>
<path d="M80 97H89C122.137 97 149 123.863 149 157V295H80V97Z" fill="#2FB59C"/>
<path d="M79.5 168C82.3234 168 85.1192 167.444 87.7277 166.363C90.3362 165.283 92.7063 163.699 94.7028 161.703C96.6993 159.706 98.2829 157.336 99.3634 154.728C100.444 152.119 101 149.323 101 146.5C101 143.677 100.444 140.881 99.3634 138.272C98.2829 135.664 96.6993 133.294 94.7028 131.297C92.7063 129.301 90.3362 127.717 87.7277 126.637C85.1192 125.556 82.3234 125 79.5 125V146.5V168Z" fill="#1AA086"/>
<path d="M79.5 125C73.7978 125 68.3292 127.265 64.2972 131.297C60.2652 135.329 58 140.798 58 146.5C58 152.202 60.2652 157.671 64.2972 161.703C68.3292 165.735 73.7978 168 79.5 168V146.5V125Z" fill="#2FB59C"/>
</svg>
