<svg width="600" height="338" viewBox="0 0 600 338" fill="none" xmlns="http://www.w3.org/2000/svg">
<g clip-path="url(#clip0)">
<path opacity="0.1" d="M600 0H0V337.5H600V0Z" fill="#065ABF"/>
<path opacity="0.2" d="M239.1 336.8L517.9 -11.7002L818 280.5L812.8 312.7L736 417.5L238 337.9L239.1 336.8Z" fill="#4A9994"/>
<path opacity="0.1" d="M630.3 349.4C669.623 349.4 701.5 324.238 701.5 293.2C701.5 262.162 669.623 237 630.3 237C590.977 237 559.1 262.162 559.1 293.2C559.1 324.238 590.977 349.4 630.3 349.4Z" fill="black"/>
<path opacity="0.1" d="M301.1 64.2999C317.669 64.2999 331.1 58.6139 331.1 51.5999C331.1 44.5859 317.669 38.8999 301.1 38.8999C284.531 38.8999 271.1 44.5859 271.1 51.5999C271.1 58.6139 284.531 64.2999 301.1 64.2999Z" fill="black"/>
<path opacity="0.8" d="M569.5 271.3C606.282 271.3 636.1 241.482 636.1 204.7C636.1 167.918 606.282 138.1 569.5 138.1C532.718 138.1 502.9 167.918 502.9 204.7C502.9 241.482 532.718 271.3 569.5 271.3Z" fill="#24C9B0"/>
<path opacity="0.8" d="M283.8 57.0001C297.718 57.0001 309 45.7177 309 31.8001C309 17.8825 297.718 6.6001 283.8 6.6001C269.882 6.6001 258.6 17.8825 258.6 31.8001C258.6 45.7177 269.882 57.0001 283.8 57.0001Z" fill="#4D5769"/>
</g>
<defs>
<clipPath id="clip0">
<rect width="600" height="338" fill="white"/>
</clipPath>
</defs>
</svg>
