<svg width="305" height="423" viewBox="0 0 305 423" fill="none" xmlns="http://www.w3.org/2000/svg">
<path d="M305 251.5C305 263.07 301.569 274.381 295.141 284.001C288.713 293.621 279.576 301.119 268.887 305.547C258.198 309.975 246.435 311.133 235.087 308.876C223.739 306.619 213.316 301.047 205.134 292.866C196.953 284.684 191.381 274.261 189.124 262.913C186.867 251.565 188.025 239.802 192.453 229.113C196.881 218.424 204.379 209.287 213.999 202.859C223.619 196.431 234.93 193 246.5 193L246.5 199.362C236.188 199.362 226.108 202.42 217.534 208.149C208.96 213.878 202.277 222.021 198.331 231.548C194.385 241.075 193.352 251.558 195.364 261.672C197.376 271.785 202.341 281.076 209.633 288.367C216.924 295.659 226.215 300.624 236.328 302.636C246.442 304.648 256.925 303.615 266.452 299.669C275.979 295.723 284.122 289.04 289.851 280.466C295.58 271.892 298.638 261.812 298.638 251.5H305Z" fill="#247F72"/>
<path d="M289 251.5C289 259.906 286.507 268.123 281.837 275.112C277.167 282.101 270.53 287.548 262.764 290.765C254.998 293.982 246.453 294.823 238.209 293.183C229.964 291.544 222.392 287.496 216.448 281.552C210.504 275.608 206.456 268.036 204.817 259.791C203.177 251.547 204.018 243.002 207.235 235.236C210.452 227.47 215.899 220.833 222.888 216.163C229.877 211.493 238.094 209 246.5 209L246.5 215.156C239.312 215.156 232.285 217.288 226.308 221.281C220.332 225.275 215.674 230.951 212.923 237.592C210.172 244.233 209.452 251.54 210.855 258.59C212.257 265.64 215.718 272.116 220.801 277.199C225.884 282.282 232.36 285.743 239.41 287.145C246.46 288.548 253.767 287.828 260.408 285.077C267.049 282.326 272.725 277.668 276.719 271.692C280.712 265.715 282.844 258.688 282.844 251.5H289Z" fill="#247F72"/>
<path d="M273 251.5C273 256.741 271.446 261.865 268.534 266.223C265.622 270.581 261.483 273.977 256.641 275.983C251.799 277.989 246.471 278.513 241.33 277.491C236.19 276.468 231.468 273.944 227.762 270.238C224.056 266.532 221.532 261.81 220.509 256.67C219.487 251.529 220.011 246.201 222.017 241.359C224.023 236.517 227.419 232.378 231.777 229.466C236.135 226.554 241.259 225 246.5 225L246.5 229.991C242.246 229.991 238.087 231.252 234.55 233.616C231.013 235.979 228.256 239.338 226.628 243.269C225 247.199 224.574 251.524 225.404 255.696C226.234 259.869 228.282 263.701 231.29 266.71C234.299 269.718 238.131 271.766 242.304 272.596C246.476 273.426 250.801 273 254.731 271.372C258.662 269.744 262.021 266.987 264.384 263.45C266.748 259.913 268.009 255.754 268.009 251.5H273Z" fill="#247F72"/>
<path d="M259 251.5C259 253.972 258.267 256.389 256.893 258.445C255.52 260.5 253.568 262.102 251.284 263.048C248.999 263.995 246.486 264.242 244.061 263.76C241.637 263.278 239.409 262.087 237.661 260.339C235.913 258.591 234.722 256.363 234.24 253.939C233.758 251.514 234.005 249.001 234.952 246.716C235.898 244.432 237.5 242.48 239.555 241.107C241.611 239.733 244.028 239 246.5 239L246.5 243.474C244.913 243.474 243.361 243.945 242.041 244.827C240.721 245.709 239.692 246.962 239.085 248.429C238.477 249.895 238.318 251.509 238.628 253.066C238.938 254.623 239.702 256.053 240.825 257.175C241.947 258.298 243.377 259.062 244.934 259.372C246.491 259.682 248.105 259.523 249.571 258.915C251.038 258.308 252.291 257.279 253.173 255.959C254.055 254.639 254.526 253.087 254.526 251.5H259Z" fill="#247F72"/>
<path d="M253 193V193C281.719 193 305 216.281 305 245V245H253V193Z" fill="#247F72"/>
<path d="M123.5 225H132.5C165.637 225 192.5 251.863 192.5 285V423H123.5V225Z" fill="#0A7261"/>
<rect y="107" width="109" height="189" rx="54.5" fill="#2FB59C"/>
<ellipse cx="248.5" cy="366.5" rx="56.5" ry="56.5" transform="rotate(90 248.5 366.5)" fill="#0FA88C"/>
<ellipse cx="54.5" cy="241.5" rx="54.5" ry="54.5" transform="rotate(90 54.5 241.5)" fill="#038972"/>
<ellipse cx="142.5" cy="106.5" rx="49.5" ry="49.5" transform="rotate(90 142.5 106.5)" fill="#038972"/>
<rect x="192" y="57" width="113" height="136" rx="12" fill="#F39568" fill-opacity="0.2"/>
<circle cx="236.5" cy="114.5" r="6.5" fill="#F39568"/>
<circle cx="236.5" cy="135.5" r="6.5" fill="#F39568"/>
<circle cx="257.5" cy="114.5" r="6.5" fill="#F39568"/>
<circle cx="257.5" cy="135.5" r="6.5" fill="#F39568"/>
<ellipse cx="248.5" cy="366.5" rx="22.5" ry="22.5" transform="rotate(90 248.5 366.5)" fill="#038972"/>
<path d="M123.5 296C126.323 296 129.119 295.444 131.728 294.363C134.336 293.283 136.706 291.699 138.703 289.703C140.699 287.706 142.283 285.336 143.363 282.728C144.444 280.119 145 277.323 145 274.5C145 271.677 144.444 268.881 143.363 266.272C142.283 263.664 140.699 261.294 138.703 259.297C136.706 257.301 134.336 255.717 131.728 254.637C129.119 253.556 126.323 253 123.5 253L123.5 274.5L123.5 296Z" fill="#2FB59C"/>
<path d="M123.5 253C117.798 253 112.329 255.265 108.297 259.297C104.265 263.329 102 268.798 102 274.5C102 280.202 104.265 285.671 108.297 289.703C112.329 293.735 117.798 296 123.5 296L123.5 274.5L123.5 253Z" fill="#0A7261"/>
<rect y="296" width="124" height="127" rx="62" fill="#F39568" fill-opacity="0.2"/>
<circle cx="50.0864" cy="348.086" r="7.08641" fill="#F39568"/>
<circle cx="50.0864" cy="370.981" r="7.08641" fill="#F39568"/>
<circle cx="72.9809" cy="348.086" r="7.08641" fill="#F39568"/>
<circle cx="72.9809" cy="370.981" r="7.08641" fill="#F39568"/>
<path d="M109 239V156H192L109 239Z" fill="#247F72"/>
<path d="M107 53.5C107 64.0813 103.862 74.425 97.9836 83.223C92.105 92.021 83.7494 98.8783 73.9736 102.928C64.1977 106.977 53.4407 108.036 43.0627 105.972C32.6847 103.908 23.1519 98.8123 15.6698 91.3302C8.18768 83.8481 3.0923 74.3153 1.02799 63.9373C-1.03632 53.5593 0.0231567 42.8023 4.07245 33.0264C8.12173 23.2506 14.979 14.895 23.777 9.01638C32.575 3.13772 42.9187 -1.26181e-07 53.5 0L53.5 5.81821C44.0694 5.81821 34.8506 8.6147 27.0094 13.854C19.1682 19.0934 13.0567 26.5403 9.44777 35.253C5.83885 43.9657 4.89459 53.5529 6.7344 62.8023C8.57422 72.0516 13.1155 80.5477 19.7839 87.2161C26.4523 93.8845 34.9484 98.4258 44.1977 100.266C53.4471 102.105 63.0343 101.161 71.747 97.5522C80.4597 93.9433 87.9066 87.8318 93.146 79.9906C98.3853 72.1494 101.182 62.9306 101.182 53.5H107Z" fill="#247F72"/>
<path d="M92 53.5C92 61.1146 89.742 68.5582 85.5116 74.8895C81.2811 81.2207 75.2683 86.1554 68.2333 89.0694C61.1984 91.9833 53.4573 92.7458 45.989 91.2602C38.5208 89.7747 31.6607 86.1079 26.2764 80.7236C20.8921 75.3393 17.2253 68.4792 15.7398 61.011C14.2542 53.5427 15.0167 45.8016 17.9306 38.7667C20.8446 31.7317 25.7793 25.7189 32.1105 21.4884C38.4418 17.258 45.8854 15 53.5 15L53.5 20.5768C46.9884 20.5768 40.6231 22.5077 35.2089 26.1254C29.7947 29.743 25.5748 34.8849 23.083 40.9008C20.5911 46.9168 19.9391 53.5365 21.2094 59.923C22.4798 66.3095 25.6154 72.1758 30.2198 76.7802C34.8242 81.3846 40.6905 84.5202 47.077 85.7906C53.4635 87.0609 60.0832 86.4089 66.0992 83.917C72.1151 81.4252 77.257 77.2053 80.8746 71.7911C84.4923 66.3769 86.4232 60.0116 86.4232 53.5H92Z" fill="#247F72"/>
<path d="M78 53.5C78 58.3456 76.5631 63.0825 73.871 67.1115C71.1789 71.1405 67.3525 74.2807 62.8757 76.135C58.399 77.9894 53.4728 78.4746 48.7203 77.5292C43.9678 76.5839 39.6023 74.2505 36.1759 70.8241C32.7495 67.3977 30.4161 63.0322 29.4708 58.2797C28.5254 53.5272 29.0106 48.601 30.865 44.1243C32.7193 39.6475 35.8595 35.8211 39.8885 33.129C43.9175 30.4369 48.6544 29 53.5 29L53.5 33.6139C49.5669 33.6139 45.7221 34.7802 42.4519 36.9653C39.1816 39.1504 36.6327 42.2562 35.1276 45.8899C33.6225 49.5236 33.2287 53.5221 33.996 57.3796C34.7633 61.2371 36.6573 64.7805 39.4384 67.5616C42.2195 70.3427 45.7629 72.2367 49.6204 73.004C53.4779 73.7713 57.4764 73.3775 61.1101 71.8724C64.7438 70.3673 67.8496 67.8184 70.0347 64.5481C72.2198 61.2779 73.3861 57.4331 73.3861 53.5H78Z" fill="#247F72"/>
<path d="M65 53.5C65 55.7745 64.3255 57.9979 63.0619 59.8891C61.7983 61.7802 60.0022 63.2542 57.9009 64.1246C55.7995 64.995 53.4872 65.2228 51.2565 64.779C49.0257 64.3353 46.9766 63.24 45.3683 61.6317C43.76 60.0234 42.6647 57.9743 42.221 55.7435C41.7772 53.5128 42.005 51.2005 42.8754 49.0991C43.7458 46.9978 45.2198 45.2017 47.1109 43.9381C49.0021 42.6745 51.2255 42 53.5 42L53.5 46.1161C52.0396 46.1161 50.612 46.5491 49.3977 47.3605C48.1834 48.1718 47.237 49.325 46.6781 50.6743C46.1192 52.0235 45.973 53.5082 46.2579 54.9405C46.5428 56.3729 47.2461 57.6886 48.2788 58.7212C49.3114 59.7539 50.6271 60.4572 52.0595 60.7421C53.4918 61.027 54.9765 60.8808 56.3257 60.3219C57.675 59.763 58.8282 58.8166 59.6395 57.6023C60.4509 56.388 60.8839 54.9604 60.8839 53.5H65Z" fill="#247F72"/>
<path d="M59 0H60C85.9574 0 107 21.0426 107 47V47H59V0Z" fill="#247F72"/>
<rect x="105" width="200" height="57" rx="28.5" fill="#2FB59C"/>
<ellipse cx="276.5" cy="28.5" rx="23.5" ry="23.5" transform="rotate(90 276.5 28.5)" fill="#038972"/>
<ellipse cx="133.5" cy="28.5" rx="23.5" ry="23.5" transform="rotate(90 133.5 28.5)" fill="#038972"/>
</svg>
