<svg width="400" height="338" viewBox="0 0 400 338" fill="none" xmlns="http://www.w3.org/2000/svg">
<g clip-path="url(#clip0)">
<path opacity="0.1" d="M500 0H-100V337.5H500V0Z" fill="#08BC80"/>
<path opacity="0.1" d="M103 289.8C110.953 289.8 117.4 283.353 117.4 275.4C117.4 267.447 110.953 261 103 261C95.0471 261 88.6001 267.447 88.6001 275.4C88.6001 283.353 95.0471 289.8 103 289.8Z" fill="#013D32"/>
<path opacity="0.1" d="M190.8 290.2C198.753 290.2 205.2 283.753 205.2 275.8C205.2 267.847 198.753 261.4 190.8 261.4C182.847 261.4 176.4 267.847 176.4 275.8C176.4 283.753 182.847 290.2 190.8 290.2Z" fill="#013D32"/>
<path opacity="0.1" d="M190.8 182.2C198.753 182.2 205.2 175.753 205.2 167.8C205.2 159.847 198.753 153.4 190.8 153.4C182.847 153.4 176.4 159.847 176.4 167.8C176.4 175.753 182.847 182.2 190.8 182.2Z" fill="#013D32"/>
<path opacity="0.1" d="M278.6 290.2C286.553 290.2 293 283.753 293 275.8C293 267.847 286.553 261.4 278.6 261.4C270.647 261.4 264.2 267.847 264.2 275.8C264.2 283.753 270.647 290.2 278.6 290.2Z" fill="#013D32"/>
<path opacity="0.1" d="M278.6 182.2C286.553 182.2 293 175.753 293 167.8C293 159.847 286.553 153.4 278.6 153.4C270.647 153.4 264.2 159.847 264.2 167.8C264.2 175.753 270.647 182.2 278.6 182.2Z" fill="#013D32"/>
<path opacity="0.1" d="M278.6 94.1C286.553 94.1 293 87.6529 293 79.7C293 71.7471 286.553 65.3 278.6 65.3C270.647 65.3 264.2 71.7471 264.2 79.7C264.2 87.6529 270.647 94.1 278.6 94.1Z" fill="#013D32"/>
<path d="M103 272.8C110.953 272.8 117.4 266.353 117.4 258.4C117.4 250.447 110.953 244 103 244C95.0471 244 88.6001 250.447 88.6001 258.4C88.6001 266.353 95.0471 272.8 103 272.8Z" fill="#00C9A7"/>
<path d="M190.8 273.2C198.753 273.2 205.2 266.753 205.2 258.8C205.2 250.847 198.753 244.4 190.8 244.4C182.847 244.4 176.4 250.847 176.4 258.8C176.4 266.753 182.847 273.2 190.8 273.2Z" fill="#00C9A7"/>
<path d="M190.8 165.2C198.753 165.2 205.2 158.753 205.2 150.8C205.2 142.847 198.753 136.4 190.8 136.4C182.847 136.4 176.4 142.847 176.4 150.8C176.4 158.753 182.847 165.2 190.8 165.2Z" fill="#00C9A7"/>
<path d="M278.6 273.2C286.553 273.2 293 266.753 293 258.8C293 250.847 286.553 244.4 278.6 244.4C270.647 244.4 264.2 250.847 264.2 258.8C264.2 266.753 270.647 273.2 278.6 273.2Z" fill="#00C9A7"/>
<path d="M278.6 165.2C286.553 165.2 293 158.753 293 150.8C293 142.847 286.553 136.4 278.6 136.4C270.647 136.4 264.2 142.847 264.2 150.8C264.2 158.753 270.647 165.2 278.6 165.2Z" fill="#00C9A7"/>
<path d="M278.6 77.1C286.553 77.1 293 70.653 293 62.7001C293 54.7471 286.553 48.3 278.6 48.3C270.647 48.3 264.2 54.7471 264.2 62.7001C264.2 70.653 270.647 77.1 278.6 77.1Z" fill="#00C9A7"/>
<path d="M293 61.5H264.2V151.3H293V61.5Z" fill="url(#paint0_linear)"/>
<path d="M293 170.3H264.2V260.1H293V170.3Z" fill="url(#paint1_linear)"/>
<path d="M205.3 170.3H176.5V260.1H205.3V170.3Z" fill="url(#paint2_linear)"/>
</g>
<defs>
<linearGradient id="paint0_linear" x1="278.63" y1="151.298" x2="278.63" y2="61.5445" gradientUnits="userSpaceOnUse">
<stop stop-color="#00C9A7"/>
<stop offset="1" stop-color="white" stop-opacity="0"/>
</linearGradient>
<linearGradient id="paint1_linear" x1="278.63" y1="260.065" x2="278.63" y2="170.312" gradientUnits="userSpaceOnUse">
<stop stop-color="#00C9A7"/>
<stop offset="1" stop-color="white" stop-opacity="0"/>
</linearGradient>
<linearGradient id="paint2_linear" x1="190.849" y1="260.065" x2="190.849" y2="170.312" gradientUnits="userSpaceOnUse">
<stop stop-color="#00C9A7"/>
<stop offset="1" stop-color="white" stop-opacity="0"/>
</linearGradient>
<clipPath id="clip0">
<rect width="400" height="338" fill="white"/>
</clipPath>
</defs>
</svg>
