<svg width="400" height="338" viewBox="0 0 400 338" fill="none" xmlns="http://www.w3.org/2000/svg">
<g clip-path="url(#clip0)">
<path opacity="0.1" d="M600 0H0V337.5H600V0Z" fill="#065ABF"/>
<path opacity="0.2" d="M21.1 348.5L299.9 0L600 292.2L594.8 324.4L518 429.2L20 349.6L21.1 348.5Z" fill="#4A9994"/>
<path opacity="0.1" d="M412.3 361.1C451.623 361.1 483.5 335.938 483.5 304.9C483.5 273.862 451.623 248.7 412.3 248.7C372.977 248.7 341.1 273.862 341.1 304.9C341.1 335.938 372.977 361.1 412.3 361.1Z" fill="black"/>
<path opacity="0.1" d="M83.1001 75.9999C99.6691 75.9999 113.1 70.3139 113.1 63.2999C113.1 56.2859 99.6691 50.5999 83.1001 50.5999C66.5311 50.5999 53.1001 56.2859 53.1001 63.2999C53.1001 70.3139 66.5311 75.9999 83.1001 75.9999Z" fill="black"/>
<path opacity="0.8" d="M351.5 283C388.282 283 418.1 253.182 418.1 216.4C418.1 179.618 388.282 149.8 351.5 149.8C314.718 149.8 284.9 179.618 284.9 216.4C284.9 253.182 314.718 283 351.5 283Z" fill="#00C9A7"/>
<path opacity="0.8" d="M65.8001 68.7C79.7181 68.7 91.0001 57.4176 91.0001 43.5C91.0001 29.5824 79.7181 18.3 65.8001 18.3C51.8821 18.3 40.6001 29.5824 40.6001 43.5C40.6001 57.4176 51.8821 68.7 65.8001 68.7Z" fill="#2D374B"/>
</g>
<defs>
<clipPath id="clip0">
<rect width="400" height="338" fill="white"/>
</clipPath>
</defs>
</svg>
