<svg width="308" height="295" viewBox="0 0 308 295" fill="none" xmlns="http://www.w3.org/2000/svg">
<path d="M129 89C129 77.3124 131.302 65.7391 135.775 54.9412C140.247 44.1432 146.803 34.3319 155.068 26.0675C163.332 17.8031 173.143 11.2474 183.941 6.77471C194.739 2.30204 206.312 -5.71245e-06 218 0V89H129Z" fill="#247F72"/>
<path d="M218.5 177C266.825 177 306 137.825 306 89.5C306 41.1751 266.825 2 218.5 2C170.175 2 131 41.1751 131 89.5C131 137.825 170.175 177 218.5 177Z" stroke="#247F72" stroke-width="3.27065"/>
<path d="M218 161C257.765 161 290 128.765 290 89C290 49.2355 257.765 17 218 17C178.236 17 146 49.2355 146 89C146 128.765 178.236 161 218 161Z" stroke="#247F72" stroke-width="3.27065"/>
<path d="M218 147C250.033 147 276 121.033 276 89C276 56.9675 250.033 31 218 31C185.967 31 160 56.9675 160 89C160 121.033 185.967 147 218 147Z" stroke="#247F72" stroke-width="3.27065"/>
<path d="M218 131C241.196 131 260 112.196 260 89C260 65.804 241.196 47 218 47C194.804 47 176 65.804 176 89C176 112.196 194.804 131 218 131Z" stroke="#247F72" stroke-width="3.27065"/>
<path d="M218.5 116C233.136 116 245 104.136 245 89.5C245 74.8645 233.136 63 218.5 63C203.864 63 192 74.8645 192 89.5C192 104.136 203.864 116 218.5 116Z" stroke="#247F72" stroke-width="3.27065"/>
<path d="M219 102C225.627 102 231 96.6274 231 90C231 83.3726 225.627 78 219 78C212.373 78 207 83.3726 207 90C207 96.6274 212.373 102 219 102Z" stroke="#247F72" stroke-width="3.27065"/>
<path d="M218 88H129V178H218V88Z" fill="#247F72"/>
<path d="M41 232L92.5002 149L144 232H41Z" stroke="#0A7261" stroke-width="2.18043"/>
<path d="M53 131L106 216H0L53 131Z" fill="#0A7261"/>
</svg>
