<svg width="306" height="420" viewBox="0 0 306 420" fill="none" xmlns="http://www.w3.org/2000/svg">
<g clip-path="url(#clip0)">
<path d="M305.261 -36H0V421.891H305.261V-36Z" fill="#015B4A"/>
<path d="M112 222C112 233.076 108.716 243.903 102.562 253.112C96.4089 262.321 87.6629 269.499 77.4303 273.737C67.1976 277.976 55.9379 279.085 45.0749 276.924C34.212 274.763 24.2338 269.43 16.402 261.598C8.57028 253.766 3.2368 243.788 1.07602 232.925C-1.08475 222.062 0.0242388 210.802 4.26275 200.57C8.50125 190.337 15.6789 181.591 24.8881 175.438C34.0972 169.284 44.9242 166 56 166V172.09C46.1288 172.09 36.4792 175.017 28.2715 180.501C20.0639 185.986 13.6668 193.78 9.88925 202.9C6.11169 212.02 5.12331 222.055 7.04909 231.737C8.97488 241.419 13.7283 250.312 20.7084 257.292C27.6884 264.272 36.5815 269.025 46.2631 270.951C55.9446 272.877 65.9799 271.888 75.0997 268.111C84.2195 264.333 92.0144 257.936 97.4986 249.728C102.983 241.521 105.91 231.871 105.91 222H112Z" fill="#247F72"/>
<path d="M96 222C96 229.911 93.654 237.645 89.2588 244.223C84.8635 250.801 78.6164 255.928 71.3073 258.955C63.9983 261.983 55.9556 262.775 48.1964 261.231C40.4371 259.688 33.3098 255.878 27.7157 250.284C22.1216 244.69 18.312 237.563 16.7686 229.804C15.2252 222.044 16.0173 214.002 19.0448 206.693C22.0723 199.384 27.1992 193.136 33.7772 188.741C40.3552 184.346 48.0887 182 56 182V187.794C49.2347 187.794 42.6214 189.8 36.9962 193.559C31.3711 197.317 26.9868 202.66 24.3979 208.91C21.8089 215.16 21.1315 222.038 22.4514 228.673C23.7712 235.309 27.029 241.403 31.8128 246.187C36.5966 250.971 42.6915 254.229 49.3268 255.549C55.9621 256.868 62.8397 256.191 69.09 253.602C75.3403 251.013 80.6826 246.629 84.4412 241.004C88.1998 235.379 90.2059 228.765 90.2059 222H96Z" fill="#247F72"/>
<path d="M82 222C82 227.142 80.4751 232.169 77.6182 236.445C74.7613 240.721 70.7006 244.053 65.9498 246.021C61.1989 247.989 55.9712 248.504 50.9277 247.5C45.8841 246.497 41.2514 244.021 37.6152 240.385C33.9791 236.749 31.5028 232.116 30.4996 227.072C29.4964 222.029 30.0113 216.801 31.9791 212.05C33.947 207.299 37.2795 203.239 41.5552 200.382C45.8309 197.525 50.8577 196 56 196V200.896C51.8261 200.896 47.7459 202.134 44.2754 204.453C40.805 206.772 38.1001 210.068 36.5028 213.924C34.9055 217.78 34.4876 222.023 35.3019 226.117C36.1161 230.211 38.1261 233.971 41.0775 236.923C44.0289 239.874 47.7892 241.884 51.8829 242.698C55.9766 243.512 60.2198 243.095 64.076 241.497C67.9322 239.9 71.2281 237.195 73.547 233.725C75.8659 230.254 77.1036 226.174 77.1036 222H82Z" fill="#247F72"/>
<path d="M68 222C68 224.373 67.2962 226.693 65.9776 228.667C64.6591 230.64 62.7849 232.178 60.5922 233.087C58.3995 233.995 55.9867 234.232 53.6589 233.769C51.3311 233.306 49.1929 232.164 47.5147 230.485C45.8365 228.807 44.6936 226.669 44.2306 224.341C43.7676 222.013 44.0052 219.601 44.9134 217.408C45.8217 215.215 47.3598 213.341 49.3332 212.022C51.3065 210.704 53.6266 210 56 210V214.295C54.4761 214.295 52.9864 214.747 51.7193 215.594C50.4523 216.44 49.4647 217.644 48.8815 219.051C48.2983 220.459 48.1458 222.009 48.4431 223.503C48.7404 224.998 49.4742 226.371 50.5517 227.448C51.6293 228.526 53.0022 229.26 54.4968 229.557C55.9915 229.854 57.5407 229.702 58.9486 229.118C60.3565 228.535 61.5598 227.548 62.4065 226.281C63.2531 225.014 63.705 223.524 63.705 222H68Z" fill="#247F72"/>
<path d="M62 166H64C90.5097 166 112 187.49 112 214H62V166Z" fill="#247F72"/>
<path d="M118 224H127C160.137 224 187 250.863 187 284V422H118V224Z" fill="#0A7261"/>
<ellipse cx="254" cy="396" rx="96" ry="96" transform="rotate(90 254 396)" fill="#0FA88C"/>
<circle cx="254" cy="396" r="39" transform="rotate(90 254 396)" fill="#038972"/>
<path d="M118 295C120.823 295 123.619 294.444 126.228 293.363C128.836 292.283 131.206 290.699 133.203 288.703C135.199 286.706 136.783 284.336 137.863 281.728C138.944 279.119 139.5 276.323 139.5 273.5C139.5 270.677 138.944 267.881 137.863 265.272C136.783 262.664 135.199 260.294 133.203 258.297C131.206 256.301 128.836 254.717 126.228 253.637C123.619 252.556 120.823 252 118 252V273.5V295Z" fill="#2FB59C"/>
<path d="M118 252C112.298 252 106.829 254.265 102.797 258.297C98.7652 262.329 96.5 267.798 96.5 273.5C96.5 279.202 98.7652 284.671 102.797 288.703C106.829 292.735 112.298 295 118 295L118 273.5V252Z" fill="#0A7261"/>
<path d="M191.475 308.66L264 191.077L336.525 308.66H191.475Z" stroke="#0A7261" stroke-width="2.18043"/>
<path d="M208.5 166L283.411 286H133.589L208.5 166Z" fill="#0FA88C"/>
<rect y="300" width="118" height="122" fill="#197868"/>
<circle cx="49.0864" cy="349.086" r="7.08641" fill="#0FA88C"/>
<circle cx="49.0864" cy="371.981" r="7.08641" fill="#0FA88C"/>
<circle cx="71.9809" cy="349.086" r="7.08641" fill="#0FA88C"/>
<circle cx="71.9809" cy="371.981" r="7.08641" fill="#0FA88C"/>
</g>
<defs>
<clipPath id="clip0">
<rect width="305.261" height="420" fill="white"/>
</clipPath>
</defs>
</svg>
