<svg width="306" height="295" viewBox="0 0 306 295" fill="none" xmlns="http://www.w3.org/2000/svg">
<g clip-path="url(#clip0_349_220)">
<path d="M196.5 142C256.423 142 305 93.4229 305 33.5C305 -26.4229 256.423 -75 196.5 -75C136.577 -75 88 -26.4229 88 33.5C88 93.4229 136.577 142 196.5 142Z" fill="#038972"/>
<path d="M110 161.365C62.8636 161.365 24.6357 122.931 24.6357 75.5C24.6357 28.0694 62.8636 -10.3647 110 -10.3647C157.137 -10.3647 195.365 28.0694 195.365 75.5C195.365 122.931 157.137 161.365 110 161.365Z" stroke="#23B499" stroke-width="3.27065"/>
<path d="M39.6349 76C39.6349 114.861 71.1382 146.365 110 146.365C148.861 146.365 180.364 114.861 180.364 76C180.364 37.1386 148.861 5.63525 110 5.63525C71.1382 5.63525 39.6349 37.1386 39.6349 76Z" stroke="#23B499" stroke-width="3.27065"/>
<path d="M110 132.365C78.871 132.365 53.6357 107.129 53.6357 76C53.6357 44.8707 78.871 19.6353 110 19.6353C141.129 19.6353 166.365 44.8706 166.365 76C166.365 107.129 141.129 132.365 110 132.365Z" stroke="#23B499" stroke-width="3.27065"/>
<path d="M69.6349 75.5C69.6349 98.0689 87.9306 116.365 110.5 116.365C133.069 116.365 151.364 98.0689 151.364 75.5C151.364 52.931 133.069 34.6353 110.5 34.6353C87.9306 34.6353 69.6349 52.931 69.6349 75.5Z" stroke="#23B499" stroke-width="3.27065"/>
<path d="M83 76C83 90.9117 95.0883 103 110 103C124.912 103 137 90.9117 137 76C137 61.0883 124.912 49 110 49C95.0883 49 83 61.0883 83 76Z" fill="#53C2AD"/>
</g>
<defs>
<clipPath id="clip0_349_220">
<rect width="306" height="295" fill="white"/>
</clipPath>
</defs>
</svg>
