<svg width="1490" height="1100" viewBox="0 0 1490 1100" fill="none" xmlns="http://www.w3.org/2000/svg">
<g clip-path="url(#clip0)">
<path d="M798.636 424.143C510.775 317.484 433.603 -20.3937 431 -176H1489V1270H1267.8C1273.1 968.459 1158.46 557.468 798.636 424.143Z" fill="#077C76" fill-opacity="0.1"/>
<path d="M950.305 531.73C621.386 349.161 581.504 -12.1602 602.679 -170H1490V1267H1372.46C1368.79 1097.98 1279.22 714.298 950.305 531.73Z" fill="#077C76" fill-opacity="0.1"/>
<path d="M1159.55 472.822C833.097 351.232 771.846 -6.3885 782.027 -170H1490V1265H1408.89C1461.79 1051.6 1485.99 594.412 1159.55 472.822Z" fill="#077C76"/>
<path d="M917.252 644C409.459 514.8 342.917 45.5 373.121 -173H1487V1313H1325.23C1400.82 1143.83 1425.04 773.2 917.252 644Z" stroke="#077C76" stroke-opacity="0.1" stroke-width="3"/>
<path d="M836.5 694C228.5 634 229.833 129 306.5 -116H1491.5V1276.5H1303C1330.2 817.7 1003.33 697 836.5 694Z" stroke="#077C76" stroke-opacity="0.1" stroke-width="3"/>
</g>
<defs>
<clipPath id="clip0">
<rect width="1490" height="1100" fill="white"/>
</clipPath>
</defs>
</svg>
