<svg width="696" height="653" viewBox="0 0 696 653" fill="none" xmlns="http://www.w3.org/2000/svg">
<circle cx="72.5" cy="29.5" r="29.5" fill="#F39568"/>
<circle cx="171.5" cy="29.5" r="29.5" fill="#F39568"/>
<circle cx="270.5" cy="29.5" r="29.5" fill="#F39568"/>
<circle cx="369.5" cy="29.5" r="29.5" fill="#F39568"/>
<circle cx="468.5" cy="29.5" r="29.5" fill="#F39568"/>
<circle cx="567.5" cy="29.5" r="29.5" fill="#F39568"/>
<circle cx="666.5" cy="29.5" r="29.5" fill="#F39568"/>
<circle cx="29.5" cy="128.5" r="29.5" fill="#F39568"/>
<circle cx="128.5" cy="128.5" r="29.5" fill="#F39568"/>
<circle cx="227.5" cy="128.5" r="29.5" fill="#F39568"/>
<circle cx="326.5" cy="128.5" r="29.5" fill="#F39568"/>
<circle cx="425.5" cy="128.5" r="29.5" fill="#F39568"/>
<circle cx="524.5" cy="128.5" r="29.5" fill="#F39568"/>
<circle cx="623.5" cy="128.5" r="29.5" fill="#F39568"/>
<circle cx="72.5" cy="227.5" r="29.5" fill="#F39568"/>
<circle cx="171.5" cy="227.5" r="29.5" fill="#F39568"/>
<circle cx="270.5" cy="227.5" r="29.5" fill="#F39568"/>
<circle cx="369.5" cy="227.5" r="29.5" fill="#F39568"/>
<circle cx="468.5" cy="227.5" r="29.5" fill="#F39568"/>
<circle cx="567.5" cy="227.5" r="29.5" fill="#F39568"/>
<circle cx="666.5" cy="227.5" r="29.5" fill="#F39568"/>
<circle cx="29.5" cy="326.5" r="29.5" fill="#F39568"/>
<circle cx="128.5" cy="326.5" r="29.5" fill="#F39568"/>
<circle cx="227.5" cy="326.5" r="29.5" fill="#F39568"/>
<circle cx="326.5" cy="326.5" r="29.5" fill="#F39568"/>
<circle cx="425.5" cy="326.5" r="29.5" fill="#F39568"/>
<circle cx="524.5" cy="326.5" r="29.5" fill="#F39568"/>
<circle cx="623.5" cy="326.5" r="29.5" fill="#F39568"/>
<circle cx="72.5" cy="425.5" r="29.5" fill="#F39568"/>
<circle cx="171.5" cy="425.5" r="29.5" fill="#F39568"/>
<circle cx="270.5" cy="425.5" r="29.5" fill="#F39568"/>
<circle cx="369.5" cy="425.5" r="29.5" fill="#F39568"/>
<circle cx="468.5" cy="425.5" r="29.5" fill="#F39568"/>
<circle cx="567.5" cy="425.5" r="29.5" fill="#F39568"/>
<circle cx="666.5" cy="425.5" r="29.5" fill="#F39568"/>
<circle cx="29.5" cy="524.5" r="29.5" fill="#F39568"/>
<circle cx="128.5" cy="524.5" r="29.5" fill="#F39568"/>
<circle cx="227.5" cy="524.5" r="29.5" fill="#F39568"/>
<circle cx="326.5" cy="524.5" r="29.5" fill="#F39568"/>
<circle cx="425.5" cy="524.5" r="29.5" fill="#F39568"/>
<circle cx="524.5" cy="524.5" r="29.5" fill="#F39568"/>
<circle cx="623.5" cy="524.5" r="29.5" fill="#F39568"/>
<circle cx="72.5" cy="623.5" r="29.5" fill="#F39568"/>
<circle cx="171.5" cy="623.5" r="29.5" fill="#F39568"/>
<circle cx="270.5" cy="623.5" r="29.5" fill="#F39568"/>
<circle cx="369.5" cy="623.5" r="29.5" fill="#F39568"/>
<circle cx="468.5" cy="623.5" r="29.5" fill="#F39568"/>
<circle cx="567.5" cy="623.5" r="29.5" fill="#F39568"/>
<circle cx="666.5" cy="623.5" r="29.5" fill="#F39568"/>
</svg>
