<svg width="400" height="400" viewBox="0 0 400 400" fill="none" xmlns="http://www.w3.org/2000/svg">
<g clip-path="url(#clip0)">
<path d="M200 0C195.6 0 191.25 0.15 186.925 0.425L188.525 25.375C196.167 24.8811 203.833 24.8811 211.475 25.375L213.075 0.425C208.722 0.142781 204.362 0.0010403 200 0V0ZM161 3.8C152.35 5.525 143.9 7.8 135.7 10.55L143.725 34.25C150.9 31.8 158.275 29.825 165.825 28.325L161 3.825V3.8ZM264.3 10.575C256.032 7.77209 247.589 5.5172 239.025 3.825L234.175 28.325C241.725 29.825 249.1 31.825 256.275 34.25L264.3 10.575V10.575ZM311.125 33.7C303.869 28.8436 296.303 24.4676 288.475 20.6L277.4 43C284.275 46.4 290.9 50.25 297.225 54.475L311.125 33.7V33.7ZM111.5 20.6C103.65 24.475 96.0999 28.85 88.8749 33.7L102.775 54.45C109.129 50.2089 115.751 46.3842 122.6 43L111.5 20.6ZM68.1249 49.625C61.5749 55.375 55.3749 61.575 49.6249 68.125L68.4249 84.625C73.4749 78.875 78.8749 73.475 84.6249 68.425L68.1249 49.625ZM350.375 68.125C344.616 61.564 338.436 55.3843 331.875 49.625L315.375 68.425C321.125 73.475 326.55 78.875 331.575 84.625L350.375 68.125ZM379.4 111.5C375.533 103.68 371.157 96.1221 366.3 88.875L345.55 102.775C349.775 109.1 353.6 115.725 357 122.6L379.4 111.525V111.5ZM33.6999 88.875C28.8499 96.1 24.4499 103.65 20.5999 111.525L42.9999 122.6C46.3999 115.725 50.2499 109.1 54.4749 102.775L33.6999 88.875V88.875ZM10.5749 135.7C7.77194 143.968 5.51705 152.411 3.82493 160.975L28.3249 165.825C29.8249 158.275 31.8249 150.9 34.2499 143.725L10.5749 135.7V135.7ZM396.2 161C394.509 152.427 392.254 143.976 389.45 135.7L365.75 143.725C368.2 150.9 370.175 158.275 371.675 165.825L396.175 160.975L396.2 161ZM0.424927 186.925C-0.137573 195.633 -0.137573 204.367 0.424927 213.075L25.3749 211.475C24.881 203.833 24.881 196.167 25.3749 188.525L0.424927 186.925V186.925ZM400 200C399.999 195.638 399.857 191.278 399.575 186.925L374.625 188.525C375.119 196.167 375.119 203.833 374.625 211.475L399.575 213.075C399.857 208.722 399.999 204.362 400 200V200ZM3.79993 239C5.52493 247.65 7.79993 256.1 10.5499 264.3L34.2499 256.275C31.7911 249.047 29.8118 241.664 28.3249 234.175L3.82493 239.025L3.79993 239ZM389.425 264.3C392.225 256.1 394.475 247.65 396.175 239.025L371.675 234.175C370.175 241.725 368.175 249.1 365.75 256.275L389.425 264.3V264.3ZM20.5999 288.5C24.4685 296.319 28.8445 303.877 33.6999 311.125L54.4499 297.225C50.2046 290.874 46.3797 284.251 42.9999 277.4L20.5999 288.475V288.5ZM366.3 311.125C371.15 303.9 375.55 296.35 379.4 288.475L357 277.4C353.6 284.275 349.75 290.9 345.525 297.225L366.3 311.125V311.125ZM49.6249 331.875C55.3749 338.425 61.5749 344.625 68.1249 350.375L84.6249 331.575C78.8792 326.532 73.4677 321.121 68.4249 315.375L49.6249 331.875V331.875ZM331.875 350.375C338.425 344.625 344.625 338.425 350.375 331.875L331.575 315.375C326.55 321.125 321.125 326.55 315.375 331.575L331.875 350.375ZM288.5 379.4C296.35 375.525 303.9 371.15 311.125 366.3L297.225 345.55C290.871 349.791 284.249 353.616 277.4 357L288.475 379.4H288.5ZM88.8749 366.3C96.0999 371.15 103.65 375.55 111.525 379.4L122.6 357C115.748 353.612 109.125 349.779 102.775 345.525L88.8749 366.3V366.3ZM135.7 389.425C143.9 392.225 152.35 394.475 160.975 396.175L165.825 371.675C158.336 370.187 150.953 368.208 143.725 365.75L135.7 389.425V389.425ZM239 396.2C247.573 394.509 256.024 392.254 264.3 389.45L256.275 365.75C249.046 368.208 241.664 370.187 234.175 371.675L239.025 396.175L239 396.2ZM186.925 399.575C195.632 400.138 204.367 400.138 213.075 399.575L211.475 374.625C203.833 375.119 196.167 375.119 188.525 374.625L186.925 399.575V399.575ZM212.5 112.5C212.5 109.185 211.183 106.005 208.839 103.661C206.495 101.317 203.315 100 200 100C196.685 100 193.505 101.317 191.161 103.661C188.817 106.005 187.5 109.185 187.5 112.5V187.5H112.5C109.185 187.5 106.005 188.817 103.661 191.161C101.317 193.505 99.9999 196.685 99.9999 200C99.9999 203.315 101.317 206.495 103.661 208.839C106.005 211.183 109.185 212.5 112.5 212.5H187.5V287.5C187.5 290.815 188.817 293.995 191.161 296.339C193.505 298.683 196.685 300 200 300C203.315 300 206.495 298.683 208.839 296.339C211.183 293.995 212.5 290.815 212.5 287.5V212.5H287.5C290.815 212.5 293.995 211.183 296.339 208.839C298.683 206.495 300 203.315 300 200C300 196.685 298.683 193.505 296.339 191.161C293.995 188.817 290.815 187.5 287.5 187.5H212.5V112.5Z" fill="#BDC5D1"/>
</g>
<defs>
<clipPath id="clip0">
<rect width="400" height="400" fill="white"/>
</clipPath>
</defs>
</svg>
