<svg width="400" height="400" viewBox="0 0 400 400" fill="none" xmlns="http://www.w3.org/2000/svg">
<path d="M200 100C203.315 100 206.495 101.317 208.839 103.661C211.183 106.005 212.5 109.185 212.5 112.5V187.5H287.5C290.815 187.5 293.995 188.817 296.339 191.161C298.683 193.505 300 196.685 300 200C300 203.315 298.683 206.495 296.339 208.839C293.995 211.183 290.815 212.5 287.5 212.5H212.5V287.5C212.5 290.815 211.183 293.995 208.839 296.339C206.495 298.683 203.315 300 200 300C196.685 300 193.505 298.683 191.161 296.339C188.817 293.995 187.5 290.815 187.5 287.5V212.5H112.5C109.185 212.5 106.005 211.183 103.661 208.839C101.317 206.495 100 203.315 100 200C100 196.685 101.317 193.505 103.661 191.161C106.005 188.817 109.185 187.5 112.5 187.5H187.5V112.5C187.5 109.185 188.817 106.005 191.161 103.661C193.505 101.317 196.685 100 200 100V100Z" fill="#2d374b"/>
</svg>
