<svg width="717" height="653" viewBox="0 0 717 653" fill="none" xmlns="http://www.w3.org/2000/svg">
<path d="M170.176 228.357C177.176 230.924 184.932 227.329 187.498 220.329C190.064 213.329 186.47 205.574 179.47 203.007L170.176 228.357ZM98.6819 71.4156L85.9724 66.8638L85.8472 67.2136L85.7413 67.5698L98.6819 71.4156ZM336.169 77.9736L328.106 88.801L328.288 88.9365L328.475 89.0659L336.169 77.9736ZM616.192 128.685C620.658 122.715 619.439 114.254 613.469 109.788L516.183 37.0035C510.213 32.5371 501.753 33.756 497.286 39.726C492.82 45.696 494.039 54.1563 500.009 58.6227L586.485 123.32L521.788 209.797C517.322 215.767 518.541 224.227 524.511 228.694C530.481 233.16 538.941 231.941 543.407 225.971L616.192 128.685ZM174.823 215.682C179.47 203.007 179.475 203.009 179.48 203.011C179.482 203.012 179.486 203.013 179.489 203.014C179.493 203.016 179.496 203.017 179.498 203.018C179.501 203.019 179.498 203.018 179.488 203.014C179.469 203.007 179.425 202.99 179.357 202.964C179.222 202.912 178.991 202.822 178.673 202.694C178.035 202.437 177.047 202.026 175.768 201.456C173.206 200.314 169.498 198.543 165.106 196.099C156.27 191.182 144.942 183.693 134.609 173.352C114.397 153.124 97.7311 122.004 111.623 75.2614L85.7413 67.5698C68.4512 125.748 89.856 166.762 115.51 192.436C128.11 205.047 141.663 213.953 151.976 219.692C157.158 222.575 161.591 224.698 164.777 226.118C166.371 226.828 167.659 227.365 168.578 227.736C169.038 227.921 169.406 228.065 169.675 228.168C169.809 228.22 169.919 228.261 170.002 228.293C170.044 228.309 170.08 228.322 170.109 228.333C170.123 228.338 170.136 228.343 170.147 228.347C170.153 228.349 170.16 228.352 170.163 228.353C170.17 228.355 170.176 228.357 174.823 215.682ZM111.391 75.9674C118.596 55.8511 137.372 33.9214 170.517 28.6833C204.135 23.3705 255.531 34.7533 328.106 88.801L344.233 67.1462C268.876 11.0269 210.14 -4.91361 166.303 2.01428C121.993 9.01681 95.9904 38.8917 85.9724 66.8638L111.391 75.9674ZM328.475 89.0659C398.364 137.549 474.018 153.163 607.307 133.96L603.457 107.236C474.34 125.837 406.316 110.204 343.864 66.8813L328.475 89.0659Z" fill="#2D374B"/>
<path d="M17.863 238.22C10.4785 237.191 3.6581 242.344 2.62917 249.728C1.60024 257.113 6.75246 263.933 14.137 264.962L17.863 238.22ZM117.548 265.74L119.421 252.371L119.411 252.37L117.548 265.74ZM120.011 466.653L132.605 471.516L132.747 471.147L132.868 470.771L120.011 466.653ZM285.991 553.767C291.813 549.109 292.756 540.613 288.098 534.792L212.193 439.92C207.536 434.098 199.04 433.154 193.218 437.812C187.396 442.47 186.453 450.965 191.111 456.787L258.582 541.118L174.251 608.589C168.429 613.247 167.486 621.742 172.143 627.564C176.801 633.386 185.297 634.329 191.119 629.672L285.991 553.767ZM14.137 264.962L115.685 279.111L119.411 252.37L17.863 238.22L14.137 264.962ZM115.675 279.11C124.838 280.393 137.255 284.582 145.467 291.97C149.386 295.495 152.093 299.505 153.39 304.121C154.673 308.691 154.864 314.873 152.117 323.271L177.779 331.665C181.924 318.993 182.328 307.301 179.383 296.818C176.451 286.381 170.485 278.159 163.524 271.897C149.977 259.71 131.801 254.105 119.421 252.371L115.675 279.11ZM152.117 323.271C138.318 365.454 116.39 433.697 107.154 462.535L132.868 470.771C142.103 441.936 164.009 373.762 177.779 331.665L152.117 323.271ZM107.417 461.79C103.048 473.105 100.107 491.199 107.229 508.197C114.878 526.454 132.585 539.935 162.404 543.488L165.599 516.678C143.043 513.99 135.175 505.027 132.132 497.764C128.562 489.244 129.814 478.743 132.605 471.516L107.417 461.79ZM162.404 543.488C214.816 549.734 260.003 554.859 276.067 556.643L279.047 529.808C263.054 528.032 217.939 522.915 165.599 516.678L162.404 543.488Z" fill="#F39568"/>
<path d="M229.298 165.61C225.217 159.371 216.85 157.621 210.61 161.702C204.371 165.783 202.621 174.15 206.702 180.39L229.298 165.61ZM703.921 410.871C711.364 410.433 717.042 404.045 716.605 396.602L709.47 275.311C709.032 267.868 702.643 262.189 695.2 262.627C687.757 263.065 682.079 269.454 682.516 276.897L688.858 384.71L581.045 391.052C573.602 391.49 567.923 397.879 568.361 405.322C568.799 412.765 575.187 418.444 582.63 418.006L703.921 410.871ZM206.702 180.39C239.898 231.14 343.567 329.577 496.595 322.758L495.394 295.785C354.802 302.049 259.09 211.158 229.298 165.61L206.702 180.39ZM496.595 322.758C567.523 319.598 610.272 335.61 637.959 353.957C651.944 363.225 662.493 373.355 671.17 382.695C675.584 387.447 679.351 391.81 683.115 396.047C686.719 400.103 690.432 404.172 694.159 407.484L712.097 387.304C709.691 385.166 706.92 382.189 703.298 378.113C699.837 374.217 695.636 369.362 690.951 364.319C681.43 354.07 669.255 342.306 652.874 331.451C619.829 309.553 571.276 292.404 495.394 295.785L496.595 322.758Z" fill="#077C76"/>
</svg>
