<svg width="50" height="10" viewBox="0 0 50 10" fill="none" xmlns="http://www.w3.org/2000/svg">
<path fill-rule="evenodd" clip-rule="evenodd" d="M10.5921 10C10.7706 9.93487 10.9519 9.86794 11.1362 9.79916C11.3173 9.73158 11.9353 9.5 12.02 9.46834C16.8199 7.67378 19.8235 7 25 7C30.1356 7 32.6809 7.61088 37.3143 9.46424C37.7922 9.65539 38.2489 9.83376 38.6894 10H41.802C40.5466 9.63472 39.2325 9.15448 37.6857 8.53576C32.9441 6.63912 30.2811 6 25 6C19.6871 6 16.5724 6.69869 11.6698 8.53166C11.5844 8.56356 10.9669 8.79498 10.7866 8.86225C9.54924 9.32393 8.45634 9.69973 7.42471 10H10.5921ZM10.5921 0C6.62876 1.44597 4.03836 2 0 2H0L0 1C2.87196 1 4.9757 0.71282 7.42471 0L10.5921 0V0ZM38.6894 0C42.6193 1.48322 45.2511 2 50 2V1C46.5789 1 44.3072 0.728905 41.802 0L38.6894 0V0ZM0 7C4.22025 7 6.85916 6.39494 11.1362 4.79916C11.3173 4.73158 11.9353 4.5 12.02 4.46834C16.8199 2.67378 19.8235 2 25 2C30.1356 2 32.6809 2.61088 37.3143 4.46424C42.0559 6.36088 44.7189 7 50 7V6C44.8644 6 42.3191 5.38912 37.6857 3.53576C32.9441 1.63912 30.2811 1 25 1C19.6871 1 16.5724 1.69869 11.6698 3.53166C11.5844 3.56356 10.9669 3.79498 10.7866 3.86225C6.61176 5.41991 4.08176 6 0 6L0 7H0Z" fill="white" fill-opacity="0.1"/>
</svg>
