<svg width="630" height="451" viewBox="0 0 630 451" fill="none" xmlns="http://www.w3.org/2000/svg">
<rect x="531" y="352" width="99" height="99" fill="#FFFEFE"/>
<rect x="140" y="352" width="106" height="99" fill="#FFFEFE"/>
<rect x="482" y="402" width="64" height="49" fill="#FFFEFE"/>
<rect x="433" y="402" width="63" height="49" fill="#FFFEFE"/>
<rect x="384" y="352" width="49" height="50" fill="#FFFEFE"/>
<rect x="531" y="328" width="50" height="50" fill="#FFFEFE"/>
<rect x="99" y="303" width="49" height="58" fill="#FFFEFE"/>
<rect x="99" y="352" width="49" height="50" fill="#FFFEFE"/>
<rect x="99" y="392" width="49" height="59" fill="#FFFEFE"/>
<rect x="44" y="402" width="66" height="49" fill="#FFFEFE"/>
<rect x="234" y="402" width="62" height="49" fill="#FFFEFE"/>
<rect x="334" y="303" width="50" height="49" fill="#FFFEFE"/>
<rect x="581" width="49" height="49" fill="#FFFEFE"/>
<rect x="581" width="49" height="64" fill="#FFFEFE"/>
<rect x="482" y="123" width="49" height="49" fill="#FFFEFE"/>
<rect x="507" y="124" width="49" height="24" fill="#FFFEFE"/>
<rect x="531" y="49" width="99" height="99" fill="#FFFEFE"/>
</svg>
