<svg width="570" height="384" viewBox="0 0 570 384" fill="none" xmlns="http://www.w3.org/2000/svg">
<path d="M290.1 61.3999L554.6 303.5L270.2 383.8L0.100037 143.8L290.1 61.3999Z" fill="url(#paint0_linear)"/>
<path d="M37.4001 115.5C37.4001 115.5 31.7001 100.3 44.1001 86.2002L298.2 322.5C298.2 322.5 286.1 334 291.5 351.8L37.4001 115.5Z" fill="url(#paint1_linear)"/>
<path d="M293 331.7L563.9 248.5" stroke="#E7EAF3" stroke-miterlimit="10"/>
<path d="M291.1 339.8L562 256.6" stroke="#E7EAF3" stroke-miterlimit="10"/>
<path d="M569.3 239.1C569.3 239.1 557.3 253.6 562.6 268.4L291.2 352.6C291.2 352.6 286.1 339.7 298.1 322.4L569.3 239.1Z" fill="white"/>
<path d="M320.7 0.600098L569.3 239.1L298.2 322.4L44.1 86.1001L320.7 0.600098Z" fill="url(#paint2_linear)"/>
<path opacity="0.09" d="M344.2 22.9998L323.1 2.7998L137.3 60.1998C140.3 62.8998 144.4 65.0998 149.1 66.3998L317 112.3C326.6 114.9 335 112.3 335.6 106.6L344.2 22.9998Z" fill="#3A350C"/>
<path d="M341.7 20.7L320.6 0.5L134.9 57.9C137.9 60.6 142 62.8 146.7 64.1L314.6 110C324.2 112.6 332.6 110 333.2 104.3L341.7 20.7Z" fill="url(#paint3_linear)"/>
<path d="M313.9 21.0001L299.4 7.1001L171.8 46.5001C173.8 48.3001 176.7 49.9001 179.9 50.8001L295.1 82.3001C301.7 84.1001 307.5 82.3001 307.9 78.4001L313.9 21.0001Z" fill="url(#paint4_linear)"/>
<path d="M182 166.1L189.4 163.8L212.4 176.2L203.8 159.3L211.2 157L234 178.2L227.7 180.1L214 167.4L221.9 181.9L216.8 183.5L197.3 172.6L211 185.3L204.7 187.2L182 166.1Z" fill="#06FFD2"/>
<path d="M227.8 157.5C230.8 156.6 234.2 157 236.9 158.2L234.3 155.8L240.6 153.9L258.7 170.7L252.4 172.6L249.8 170.2C250.3 172 249.3 173.8 246.3 174.8C241.3 176.3 233.7 174.2 228 168.9C222.3 163.6 222.8 159 227.8 157.5ZM234.5 161.4C232.2 162.1 231.6 164.2 234.5 166.9C237.4 169.6 241.1 170.4 243.5 169.7C245.9 169 246.4 166.8 243.5 164.2C240.6 161.6 236.8 160.7 234.5 161.4Z" fill="#06FFD2"/>
<path d="M271.8 167C266.3 168.7 260 167.3 256.2 164.1L262.4 162.2C263.8 163.3 265.9 163.7 267.7 163.2C269.3 162.7 269.5 161.8 268.7 161.1C265.8 158.4 256.7 163.8 250.1 157.6C247 154.7 247.5 151.5 252.8 149.8C258.1 148.2 263.6 149.7 267.6 152.9L261.8 154.7C260.4 153.6 258.5 153.2 256.8 153.7C255.3 154.2 255 154.9 255.9 155.7C258.8 158.4 267.8 153.1 274.7 159.3C277.8 162.2 277 165.4 271.8 167Z" fill="#06FFD2"/>
<path d="M271.2 150.1L268.7 150.9L264.1 146.6L266.6 145.8L262.2 141.7L268.5 139.8L272.9 143.9L277 142.6L281.6 146.9L277.5 148.2L284.8 155C285.9 156 286.8 156.3 288.2 155.8L290.4 155.1L295.1 159.5L291.9 160.5C287.6 161.8 283.1 161.2 278.4 156.9L271.2 150.1Z" fill="#06FFD2"/>
<path d="M308 155.9C302 157.7 294.1 155.8 288.4 150.4C282.7 145.1 283.3 140.4 289.4 138.6C295.4 136.8 303.1 138.7 308.6 143.9C309.1 144.4 309.6 144.9 310.1 145.4L295.9 149.8C298.5 151.9 301.2 152.5 303.3 151.8C305.1 151.3 305.3 150.2 304.8 149.2L311.5 147.2C314 150.7 313.1 154.3 308 155.9ZM292.8 146.8L300.6 144.4C298.6 142.6 295.7 142 293.6 142.7C291.7 143.3 291.2 144.9 292.8 146.8Z" fill="#06FFD2"/>
<path d="M327.5 149.6L321.2 151.5L303.1 134.7L309.4 132.8L312.4 135.6C311.9 133.4 312.9 131.5 315.6 130.6L321.5 136.1L319.8 136.6C316.8 137.5 316 138.9 319.1 141.8L327.5 149.6Z" fill="#06FFD2"/>
<path d="M255.6 214.8L246 217.7L248.5 221.9L241.9 223.9L228.4 199.9L235.7 197.7L267.8 216L261.2 218L255.6 214.8ZM238.2 204.5L243.4 213.2L249.7 211.3L238.2 204.5Z" fill="#06FFD2"/>
<path d="M260.1 195.7C262.8 194.9 266.3 195.2 269.2 196.3L260.8 188.5L267.1 186.6L291.1 208.9L284.8 210.8L282.2 208.4C282.7 210.3 281.8 212.1 278.7 213C273.7 214.5 266.1 212.4 260.3 207.1C254.5 201.8 255.1 197.2 260.1 195.7ZM266.7 199.6C264.4 200.3 263.8 202.4 266.7 205.1C269.6 207.8 273.3 208.6 275.7 207.9C278.1 207.2 278.6 205 275.7 202.4C272.8 199.8 269.1 198.9 266.7 199.6Z" fill="#06FFD2"/>
<path d="M305.1 204.9C299.1 206.7 291 204.8 285.2 199.5C279.5 194.2 280.5 189.4 286.5 187.6C292.5 185.8 300.7 187.7 306.4 193C312.1 198.3 311.1 203 305.1 204.9ZM300.3 200.4C302.5 199.7 303.2 197.7 300.1 194.9C297 192 293.5 191.3 291.3 192C289 192.7 288.5 194.6 291.6 197.5C294.7 200.4 298 201.1 300.3 200.4Z" fill="#06FFD2"/>
<path d="M313.1 179.4C318.2 177.8 325.7 179.9 331.4 185.3C337.1 190.7 336.7 195.2 331.7 196.8C328.7 197.7 325.3 197.3 322.6 196.1L325.1 198.5L318.8 200.4L294.8 178.1L301.1 176.2L309.6 184.1C309.2 182.1 310.2 180.3 313.1 179.4ZM316.1 184.5C313.8 185.2 313.2 187.4 316.1 190C319 192.7 322.7 193.5 325 192.8C327.4 192.1 327.9 189.9 325 187.2C322.1 184.5 318.5 183.7 316.1 184.5Z" fill="#06FFD2"/>
<path d="M353.1 190.1C347.1 191.9 339.2 190 333.5 184.6C327.8 179.3 328.4 174.6 334.5 172.8C340.5 171 348.2 172.9 353.7 178.1C354.2 178.6 354.7 179.1 355.2 179.6L341 184C343.6 186.1 346.3 186.7 348.4 186C350.2 185.5 350.4 184.4 349.9 183.4L356.6 181.4C359.1 184.9 358.2 188.6 353.1 190.1ZM338 181.1L345.8 178.7C343.8 176.9 340.9 176.3 338.8 177C336.8 177.6 336.4 179.1 338 181.1Z" fill="#06FFD2"/>
<path d="M386.1 174.7L376.5 177.7L379 181.9L372.4 183.9L358.9 159.9L366.2 157.7L398.3 176L391.7 178L386.1 174.7ZM368.7 164.4L373.9 173.1L380.2 171.2L368.7 164.4Z" fill="#06FFD2"/>
<path d="M377.6 153.9C375.9 152.3 376.1 150.6 378.3 149.9C380.5 149.2 383.3 150 385 151.6C386.7 153.1 386.5 154.8 384.3 155.5C382.1 156.2 379.3 155.4 377.6 153.9ZM383.1 158.2L389.4 156.3L407.5 173.1L401.2 175L383.1 158.2Z" fill="#06FFD2"/>
<path d="M148.6 131.9L147.5 132.2L149.7 134.3L148.4 134.7L142.6 129.3L145 128.6C146.6 128.1 148.2 128.6 149.2 129.5C150 130.4 150.3 131.4 148.6 131.9ZM147.6 131.1C148.3 130.9 148.3 130.5 147.8 130C147.3 129.5 146.6 129.3 145.9 129.5L144.9 129.8L146.6 131.4L147.6 131.1Z" fill="white"/>
<path d="M157 130.7L154.4 131.5L155.1 132.7L153.7 133.1L150.3 127L151.8 126.5L160 131.2L158.6 131.6L157 130.7ZM152.3 128L153.8 130.5L155.7 129.9L152.3 128Z" fill="white"/>
<path d="M157.5 124.8C159.1 124.3 160.7 124.8 161.6 125.7C162.3 126.4 162.6 127.2 161.8 127.7L165.7 129.4L164.2 129.9L160.5 128.2L159.9 128.4L162.2 130.5L160.9 130.9L155.1 125.5L157.5 124.8ZM158.4 125.7L157.3 126L159 127.6L160.1 127.3C160.8 127.1 160.8 126.7 160.3 126.2C159.8 125.6 159.1 125.4 158.4 125.7Z" fill="white"/>
<path d="M160.7 123.8L165.5 122.3L166.4 123.2L164.7 123.7L169.6 128.2L168.3 128.6L163.4 124.1L161.7 124.6L160.7 123.8Z" fill="white"/>
<path d="M170.9 120.6L172.2 120.2L178 125.6L176.7 126L170.9 120.6Z" fill="white"/>
<path d="M173.5 119.8L174.8 119.4L180.6 124.8L179.3 125.2L173.5 119.8Z" fill="white"/>
<defs>
<linearGradient id="paint0_linear" x1="-3.08433" y1="157.609" x2="558.506" y2="286.44" gradientUnits="userSpaceOnUse">
<stop offset="1.33195e-07" stop-color="#97A4AF" stop-opacity="0"/>
<stop offset="0.0980726" stop-color="#97A4AF" stop-opacity="0.077677"/>
<stop offset="0.2642" stop-color="#8C98A4" stop-opacity="0.2093"/>
<stop offset="0.3788" stop-color="#677788" stop-opacity="0.3"/>
</linearGradient>
<linearGradient id="paint1_linear" x1="36.0622" y1="218.944" x2="298.152" y2="218.944" gradientUnits="userSpaceOnUse">
<stop stop-color="#51DE8A"/>
<stop offset="1" stop-color="#0A873D"/>
</linearGradient>
<linearGradient id="paint2_linear" x1="44.0842" y1="161.514" x2="569.344" y2="161.514" gradientUnits="userSpaceOnUse">
<stop stop-color="#51DE8A"/>
<stop offset="1" stop-color="#0A873D"/>
</linearGradient>
<linearGradient id="paint3_linear" x1="240.506" y1="-3.6057" x2="234.88" y2="106.675" gradientUnits="userSpaceOnUse">
<stop offset="1.33195e-07" stop-color="#7CF0AB"/>
<stop offset="1" stop-color="#119848"/>
</linearGradient>
<linearGradient id="paint4_linear" x1="244.35" y1="4.2879" x2="240.488" y2="79.9983" gradientUnits="userSpaceOnUse">
<stop offset="1.33195e-07" stop-color="#37E17C"/>
<stop offset="1" stop-color="#0D9D48"/>
</linearGradient>
</defs>
</svg>
