<svg width="1351" height="1076" viewBox="0 0 1351 1076" fill="none" xmlns="http://www.w3.org/2000/svg">
<path d="M375 411.939C374.448 411.939 374 412.387 374 412.939C374 413.492 374.448 413.939 375 413.939V411.939ZM375 413.939H379.359V411.939H375V413.939ZM388.077 413.939H396.795V411.939H388.077V413.939ZM405.513 413.939H414.231V411.939H405.513V413.939ZM422.949 413.939H431.667V411.939H422.949V413.939ZM440.385 413.939H449.103V411.939H440.385V413.939ZM457.821 413.939H466.539V411.939H457.821V413.939ZM475.257 413.939H483.975V411.939H475.257V413.939ZM492.693 413.939H501.411V411.939H492.693V413.939ZM510.129 413.939H518.847V411.939H510.129V413.939ZM527.565 413.939H536.283V411.939H527.565V413.939ZM545.001 413.939H553.719V411.939H545.001V413.939ZM562.437 413.939H571.155V411.939H562.437V413.939ZM579.873 413.939H588.591V411.939H579.873V413.939ZM597.309 413.939H606.027V411.939H597.309V413.939ZM614.745 413.939H623.463V411.939H614.745V413.939ZM632.181 413.939H640.899V411.939H632.181V413.939ZM649.617 413.939H658.335V411.939H649.617V413.939ZM667.053 413.939H675.771V411.939H667.053V413.939ZM684.49 413.939H693.208V411.939H684.49V413.939ZM701.926 413.939H710.644V411.939H701.926V413.939ZM719.362 413.939H728.08V411.939H719.362V413.939ZM736.798 413.939H745.516V411.939H736.798V413.939ZM754.234 413.939H762.952V411.939H754.234V413.939ZM771.67 413.939H780.388V411.939H771.67V413.939ZM789.106 413.939H797.824V411.939H789.106V413.939ZM806.542 413.939H810.901V411.939H806.542V413.939ZM810.901 413.939C812.131 413.939 813.334 413.819 814.499 413.588L814.111 411.626C813.073 411.832 812 411.939 810.901 411.939V413.939ZM821.15 410.832C823.161 409.486 824.892 407.754 826.238 405.743L824.576 404.631C823.375 406.424 821.831 407.969 820.037 409.17L821.15 410.832ZM828.995 399.093C829.225 397.928 829.346 396.725 829.346 395.494H827.346C827.346 396.594 827.238 397.667 827.033 398.705L828.995 399.093ZM829.346 395.494V391.335H827.346V395.494H829.346ZM829.346 383.017V374.699H827.346V383.017H829.346ZM829.346 366.381V358.064H827.346V366.381H829.346ZM829.346 349.746V341.428H827.346V349.746H829.346ZM829.346 333.11V324.792H827.346V333.11H829.346ZM829.346 316.474V308.156H827.346V316.474H829.346ZM829.346 299.838V291.52H827.346V299.838H829.346ZM829.346 283.202V274.884H827.346V283.202H829.346ZM829.346 266.566V258.248H827.346V266.566H829.346ZM829.346 249.93V245.771H827.346V249.93H829.346ZM829.346 245.771C829.346 244.581 829.229 243.417 829.006 242.29L827.044 242.678C827.242 243.678 827.346 244.712 827.346 245.771H829.346ZM826.339 235.855C825.037 233.91 823.362 232.235 821.416 230.932L820.303 232.594C822.032 233.751 823.52 235.24 824.677 236.968L826.339 235.855ZM814.982 228.265C813.855 228.043 812.691 227.926 811.5 227.926V229.926C812.56 229.926 813.594 230.03 814.594 230.227L814.982 228.265ZM375 410.939C373.895 410.939 373 411.835 373 412.939C373 414.044 373.895 414.939 375 414.939V410.939ZM375 414.939H379.359V410.939H375V414.939ZM388.077 414.939H396.795V410.939H388.077V414.939ZM405.513 414.939H414.231V410.939H405.513V414.939ZM422.949 414.939H431.667V410.939H422.949V414.939ZM440.385 414.939H449.103V410.939H440.385V414.939ZM457.821 414.939H466.539V410.939H457.821V414.939ZM475.257 414.939H483.975V410.939H475.257V414.939ZM492.693 414.939H501.411V410.939H492.693V414.939ZM510.129 414.939H518.847V410.939H510.129V414.939ZM527.565 414.939H536.283V410.939H527.565V414.939ZM545.001 414.939H553.719V410.939H545.001V414.939ZM562.437 414.939H571.155V410.939H562.437V414.939ZM579.873 414.939H588.591V410.939H579.873V414.939ZM597.309 414.939H606.027V410.939H597.309V414.939ZM614.745 414.939H623.463V410.939H614.745V414.939ZM632.181 414.939H640.899V410.939H632.181V414.939ZM649.617 414.939H658.335V410.939H649.617V414.939ZM667.053 414.939H675.771V410.939H667.053V414.939ZM684.49 414.939H693.208V410.939H684.49V414.939ZM701.926 414.939H710.644V410.939H701.926V414.939ZM719.362 414.939H728.08V410.939H719.362V414.939ZM736.798 414.939H745.516V410.939H736.798V414.939ZM754.234 414.939H762.952V410.939H754.234V414.939ZM771.67 414.939H780.388V410.939H771.67V414.939ZM789.106 414.939H797.824V410.939H789.106V414.939ZM806.542 414.939H810.901V410.939H806.542V414.939ZM810.901 414.939C812.197 414.939 813.465 414.812 814.693 414.569L813.917 410.645C812.943 410.838 811.935 410.939 810.901 410.939V414.939ZM821.706 411.663C823.826 410.244 825.65 408.419 827.069 406.3L823.745 404.074C822.617 405.76 821.166 407.211 819.481 408.339L821.706 411.663ZM829.976 399.287C830.219 398.059 830.346 396.79 830.346 395.494H826.346C826.346 396.528 826.244 397.537 826.052 398.511L829.976 399.287ZM830.346 395.494V391.335H826.346V395.494H830.346ZM830.346 383.017V374.699H826.346V383.017H830.346ZM830.346 366.381V358.064H826.346V366.381H830.346ZM830.346 349.746V341.428H826.346V349.746H830.346ZM830.346 333.11V324.792H826.346V333.11H830.346ZM830.346 316.474V308.156H826.346V316.474H830.346ZM830.346 299.838V291.52H826.346V299.838H830.346ZM830.346 283.202V274.884H826.346V283.202H830.346ZM830.346 266.566V258.248H826.346V266.566H830.346ZM830.346 249.93V245.771H826.346V249.93H830.346ZM830.346 245.771C830.346 244.515 830.222 243.286 829.987 242.096L826.063 242.872C826.248 243.808 826.346 244.777 826.346 245.771H830.346ZM827.17 235.299C825.795 233.245 824.027 231.477 821.972 230.101L819.747 233.425C821.367 234.51 822.762 235.905 823.846 237.524L827.17 235.299ZM815.176 227.284C813.985 227.049 812.756 226.926 811.5 226.926V230.926C812.494 230.926 813.463 231.023 814.399 231.208L815.176 227.284Z" fill="#2D374B" fill-opacity="0.5"/>
<rect x="315.636" y="235.189" width="470.512" height="179.652" rx="15.2645" transform="rotate(-13.7148 315.636 235.189)" stroke="#2D374B" stroke-width="4.36129"/>
<path d="M411.844 294.352C412.593 297.423 410.78 300.503 407.795 301.232C404.809 301.961 401.781 300.062 401.031 296.991C400.282 293.92 402.095 290.839 405.08 290.111C408.066 289.382 411.094 291.281 411.844 294.352Z" fill="#2D374B"/>
<path d="M393.356 281.188C389.375 282.16 386.958 286.267 387.957 290.362L397.004 327.433C398.003 331.528 402.041 334.06 406.022 333.088L449.272 322.533C453.253 321.562 455.67 317.454 454.671 313.36L445.624 276.288C444.624 272.193 440.587 269.661 436.606 270.633L393.356 281.188ZM437.511 274.34C439.501 273.854 441.52 275.12 442.019 277.168L447.9 301.264L432.528 297.367C431.747 297.18 430.943 297.524 430.532 298.222L420.517 315.24L409.33 311.007C408.496 310.691 407.567 311.021 407.112 311.794L399.704 322.846L391.561 289.482C391.061 287.435 392.27 285.381 394.261 284.895L437.511 274.34Z" fill="#2D374B"/>
<rect x="556.343" y="223.081" width="65.2951" height="11.8718" rx="5.93592" transform="rotate(-13.7148 556.343 223.081)" fill="#2D374B"/>
<rect x="566.355" y="270.257" width="104.221" height="11.5801" rx="5.79006" transform="rotate(-13.7148 566.355 270.257)" fill="#2D374B" fill-opacity="0.2"/>
<rect x="690.104" y="240.056" width="46.3205" height="11.5801" rx="5.79006" transform="rotate(-13.7148 690.104 240.056)" fill="#2D374B" fill-opacity="0.2"/>
<rect x="576.008" y="303.661" width="35.6155" height="11.8718" rx="5.93592" transform="rotate(-13.7148 576.008 303.661)" fill="#2D374B" fill-opacity="0.2"/>
<rect x="627.946" y="291.148" width="35.6155" height="11.8718" rx="5.93592" transform="rotate(-13.7148 627.946 291.148)" fill="#2D374B" fill-opacity="0.2"/>
<rect x="679.845" y="278.483" width="35.6155" height="11.8718" rx="5.93592" transform="rotate(-13.7148 679.845 278.483)" fill="#2D374B" fill-opacity="0.2"/>
<rect x="487.408" y="197.134" width="4.47994" height="172.142" transform="rotate(-13.7148 487.408 197.134)" fill="#2D374B"/>
<path d="M788.5 187.014H811.901C821.535 187.014 829.346 179.203 829.346 169.568V20.4451C829.346 10.8105 821.535 3 811.901 3H371.917C362.283 3 354.472 10.8104 354.472 20.4451V169.568C354.472 179.203 362.283 187.014 371.917 187.014H514.5" stroke="#2D374B" stroke-width="4.36129"/>
<path d="M436.091 85.4669C436.091 88.6282 433.6 91.1909 430.526 91.1909C427.453 91.1909 424.961 88.6282 424.961 85.4669C424.961 82.3057 427.453 79.743 430.526 79.743C433.6 79.743 436.091 82.3057 436.091 85.4669Z" fill="#2D374B"/>
<path d="M421.252 68.2952C417.154 68.2952 413.832 71.7121 413.832 75.9271V114.087C413.832 118.302 417.154 121.718 421.252 121.718H465.771C469.869 121.718 473.191 118.302 473.191 114.087V75.9271C473.191 71.7121 469.869 68.2952 465.771 68.2952H421.252ZM465.771 72.1111C467.82 72.1111 469.481 73.8196 469.481 75.9271V100.731L455.471 93.3003C454.756 92.933 453.894 93.077 453.329 93.6577L439.565 107.815L429.7 101.051C428.965 100.547 427.985 100.647 427.36 101.29L417.542 110.271V75.9271C417.542 73.8196 419.203 72.1111 421.252 72.1111H465.771Z" fill="#2D374B"/>
<rect x="593.368" y="50.4873" width="65.2951" height="11.8718" rx="5.93592" fill="#2D374B"/>
<rect x="591.909" y="98.6914" width="104.221" height="11.5801" rx="5.79006" fill="#2D374B" fill-opacity="0.2"/>
<rect x="719.29" y="98.6914" width="46.3205" height="11.5801" rx="5.79006" fill="#2D374B" fill-opacity="0.2"/>
<rect x="593.368" y="133.432" width="35.6155" height="11.8718" rx="5.93592" fill="#2D374B" fill-opacity="0.2"/>
<rect x="532.55" y="8.93604" width="4.47994" height="172.142" fill="#2D374B"/>
<rect x="877.694" y="231.167" width="470.512" height="179.652" rx="15.2645" stroke="#2D374B" stroke-width="4.36129"/>
<path d="M957.133 311.453C957.133 314.615 954.641 317.177 951.568 317.177C948.494 317.177 946.003 314.615 946.003 311.453C946.003 308.292 948.494 305.729 951.568 305.729C954.641 305.729 957.133 308.292 957.133 311.453Z" fill="#2D374B"/>
<path d="M942.293 294.281C938.195 294.281 934.873 297.698 934.873 301.913V340.073C934.873 344.288 938.195 347.705 942.293 347.705H986.812C990.91 347.705 994.232 344.288 994.232 340.073V301.913C994.232 297.698 990.91 294.281 986.812 294.281H942.293ZM986.812 298.097C988.861 298.097 990.522 299.806 990.522 301.913V326.717L976.512 319.287C975.798 318.919 974.935 319.063 974.371 319.644L960.606 333.802L950.742 327.038C950.006 326.533 949.026 326.633 948.401 327.276L938.583 336.257V301.913C938.583 299.806 940.244 298.097 942.293 298.097H986.812Z" fill="#2D374B"/>
<rect x="1114.41" y="276.474" width="65.2951" height="11.8718" rx="5.93592" fill="#2D374B"/>
<rect x="1112.95" y="324.678" width="104.221" height="11.5801" rx="5.79006" fill="#2D374B" fill-opacity="0.2"/>
<rect x="1240.33" y="324.678" width="46.3205" height="11.5801" rx="5.79006" fill="#2D374B" fill-opacity="0.2"/>
<rect x="1114.41" y="359.418" width="35.6155" height="11.8718" rx="5.93592" fill="#2D374B" fill-opacity="0.2"/>
<rect x="1167.83" y="359.577" width="35.6155" height="11.8718" rx="5.93592" fill="#2D374B" fill-opacity="0.2"/>
<rect x="1221.26" y="359.577" width="35.6155" height="11.8718" rx="5.93592" fill="#2D374B" fill-opacity="0.2"/>
<rect x="1053.59" y="234.922" width="4.47994" height="172.142" fill="#2D374B"/>
<rect x="877.694" y="5.05271" width="470.512" height="179.652" rx="15.2645" stroke="#2D374B" stroke-opacity="0.1" stroke-width="4.36129" stroke-dasharray="8.72 8.72"/>
<path d="M323.293 381.144C338.756 393.514 362.836 420.351 338.614 430.914C337.624 431.346 337.066 432.45 337.36 433.49C342.133 450.34 341.903 486.469 305.89 510.744C305.51 511 305.218 511.382 305.08 511.819L298.06 534.144M258.793 487.144C256.959 493.144 255.593 512.644 262.793 528.644M253.793 533.144C269.459 527.477 299.293 520.544 299.293 540.144V545.087C299.293 546.746 301.193 547.682 302.502 546.663C328.076 526.764 352.802 504.322 372 484.644" stroke="#2D374B" stroke-width="5" stroke-linecap="round"/>
<path d="M308.793 471.144C308.293 474.144 309.593 480.344 318.793 481.144" stroke="#2D374B" stroke-width="5" stroke-linecap="round"/>
<path d="M335.793 409.644C335.793 415.248 334.137 420.22 331.584 423.729C329.03 427.242 325.714 429.144 322.293 429.144C318.871 429.144 315.555 427.242 313.001 423.729C310.448 420.22 308.793 415.248 308.793 409.644C308.793 404.039 310.448 399.067 313.001 395.558C315.555 392.045 318.871 390.144 322.293 390.144C325.714 390.144 329.03 392.045 331.584 395.558C334.137 399.067 335.793 404.039 335.793 409.644Z" stroke="#2D374B" stroke-width="5" stroke-linecap="round"/>
<path d="M277.293 424.644L308.293 414.644" stroke="#2D374B" stroke-width="5" stroke-linecap="round"/>
<path d="M300.793 404.144C301.626 400.81 304.693 393.144 310.293 389.144" stroke="#2D374B" stroke-width="5" stroke-linecap="round"/>
<circle cx="323.793" cy="409.144" r="3.5" fill="#2D374B"/>
<path d="M254.046 532.909L138.018 669.051M138.018 669.051C136.336 674.056 134.667 685.729 148.793 700.144M138.018 669.051C146.594 667.883 168.891 668.45 189.474 680.062C215.202 694.577 242.443 720.104 310.042 742.627M310.042 742.627L287.341 758.644M310.042 742.627C308.192 722.773 306.712 678.961 315.591 662.544C324.469 646.127 333 622.644 339 613.144C361.5 581.144 359.5 587.144 393 541.644" stroke="#2D374B" stroke-width="5" stroke-linecap="round"/>
<path d="M221.293 570.144C202.626 585.644 155.293 618.344 115.293 625.144C105.959 628.977 89.8925 639.744 100.293 652.144C110.693 664.544 117.626 679.644 119.793 685.644C121.459 691.144 127.293 697.744 137.293 680.144" stroke="#2D374B" stroke-width="5" stroke-linecap="round"/>
<path d="M107.293 660.644C99.4593 665.144 81.1926 673.744 70.7926 672.144C60.3926 670.544 53.4593 674.81 51.2926 677.144C50.1259 678.977 49.3926 682.744 55.7926 683.144C62.1926 683.544 69.7926 683.31 72.7926 683.144M81.2926 677.144C77.7926 680.81 65.8926 689.144 46.2926 693.144C42.4593 693.81 37.2926 697.644 44.2926 702.144C50.2926 705.644 66.8926 702.444 75.2926 697.644C68.7926 700.81 57.0926 709.244 62.2926 717.644C63.9593 719.31 70.9926 719.444 85.7926 706.644M85.7926 706.644L96.7926 697.644M85.7926 706.644C82.6259 714.81 77.7926 734.644 90.7926 723.644C100.293 714.144 98.2926 706.044 102.293 703.644C106.293 701.244 115.293 691.977 119.293 687.644M96.7926 681.144C95.6259 685.477 94.6926 695.544 100.293 701.144" stroke="#2D374B" stroke-width="5" stroke-linecap="round"/>
<path d="M164.793 671.644C158.459 689.644 128.793 726.644 102.293 773.144C84.626 802.31 42.4926 867.444 15.2926 894.644C11.6259 899.81 8.19261 911.544 23.7926 917.144C35.7926 922.144 41.1926 933.744 42.7926 946.144C44.7926 961.644 70.2926 973.144 87.2926 961.644C100.843 952.477 139.805 886.452 169.239 849.144M189.293 827.644C183.61 832.007 176.733 839.644 169.239 849.144M169.239 849.144L135.793 1023.64M135.793 1023.64C139.257 1028.98 150.796 1039.04 169.239 1036.64M135.793 1023.64C152.793 1019.14 199.493 1010.64 228.293 1010.64" stroke="#2D374B" stroke-width="5" stroke-linecap="round"/>
<path d="M217.293 1017.64C223.626 1015.98 236.393 1007.54 236.793 987.144C237.193 966.744 245.626 931.644 249.793 916.644L290.793 736.644" stroke="#2D374B" stroke-width="5" stroke-linecap="round"/>
<circle cx="304.793" cy="441.144" r="1.5" fill="#2D374B"/>
<circle cx="310.793" cy="449.144" r="1.5" fill="#2D374B"/>
<circle cx="295.793" cy="452.144" r="1.5" fill="#2D374B"/>
<path d="M148.793 428.644C173.193 383.044 209.626 377.31 224.793 380.144C256.293 331.644 299.793 315.644 326.293 330.144C347.493 341.744 330.126 370.977 318.793 384.144L307.793 368.144C300.193 382.944 278.459 377.477 267.793 374.144C276.959 393.477 291.593 443.444 260.793 488.644C229.993 533.844 191.293 534.644 171.793 521.644C153.793 508.81 124.393 474.244 148.793 428.644Z" fill="#2D374B"/>
<path d="M10.5964 1005.72C-13.2074 958.144 8.85851 926.484 20.7926 918.644C39.2926 924.644 39.7926 944.644 42.7926 954.144L35.8686 973.692C31.2354 982.1 33.9381 998.547 35.8686 1005.72C43.8715 1038.95 31.7926 1042.14 25.865 1033.24L10.5964 1005.72Z" fill="#2D374B"/>
<path d="M237.293 1050.14C174.493 1058.54 161.459 1034.31 162.793 1020.14C173.593 1015.74 203.293 1014.14 217.293 1013.14C213.293 1022.34 218.293 1021.14 221.793 1023.64C226.293 1026.64 238.793 1030.31 245.793 1030.64C277.293 1032.14 252.626 1047.98 237.293 1050.14Z" fill="#2D374B"/>
<path d="M372 484.644C380.5 492.644 396.2 515.244 393 541.644" stroke="#2D374B" stroke-width="5" stroke-linecap="round"/>
<path d="M374.5 483.643C378.5 477.977 386.5 465.643 382.5 454.643C381.238 450.647 380.662 441.767 383.5 437.143C387.409 430.776 395.552 430.085 397 439.643L398 450.643M390.5 464.143C397 453.81 412 432.343 420 429.143C428 425.943 429.333 429.143 429 431.143M429 431.143C423.667 436.81 412.5 450.343 410.5 459.143M429 431.143C434 426.643 444.4 419.343 446 426.143C447 432.643 430.8 444.043 424 455.643M438.5 438.363C443.667 437.53 447.5 443.643 438.5 456.643L436.24 460.143M423 480.643L436.24 460.143M436.24 460.143C440.319 460.643 446.031 465.643 436.24 481.643C428.993 492.143 410.6 516.943 395 532.143" stroke="#2D374B" stroke-width="5" stroke-linecap="round"/>
<path d="M654 521.643C635.6 518.443 639.667 500.643 644 492.143C668 488.143 661.5 463.143 654 470.143C648 475.743 642.5 474.477 640.5 473.143C631.7 469.143 639.167 456.477 644 450.643L631.5 432.643C627 433.31 616.1 429.443 608.5 408.643C600.9 387.843 616 376.643 624.5 373.643C633.667 371.31 658.8 372.843 686 397.643C713.2 422.443 708.333 456.31 702.5 470.143C694 488.643 672.4 524.843 654 521.643Z" fill="#2D374B"/>
<path d="M633.5 434.644C617.5 446.644 586.2 478.844 589 511.644C590.333 519.31 598 536.644 618 544.644C620 544.81 623.9 546.444 623.5 551.644M657 521.644C653.167 525.644 648.6 535.144 651 545.144" stroke="#2D374B" stroke-width="5" stroke-linecap="round"/>
<path d="M612.5 454.644C601 459.31 581.3 470.844 594.5 479.644" stroke="#2D374B" stroke-width="5" stroke-linecap="round"/>
<path d="M625 447.644C627.167 449.31 631.1 454.244 629.5 460.644" stroke="#2D374B" stroke-width="5" stroke-linecap="round"/>
<path d="M646 477.144C646.667 479.477 646.6 484.044 641 483.644" stroke="#2D374B" stroke-width="5" stroke-linecap="round"/>
<path d="M590.5 502.644C593.333 501.644 599.3 498.344 600.5 493.144" stroke="#2D374B" stroke-width="5" stroke-linecap="round"/>
<circle cx="625" cy="482.644" r="2" fill="#2D374B"/>
<ellipse cx="619.757" cy="459.877" rx="2.5" ry="3.5" transform="rotate(25.3369 619.757 459.877)" fill="#2D374B"/>
<circle cx="616" cy="492.644" r="2" fill="#2D374B"/>
<circle cx="627" cy="499.644" r="2" fill="#2D374B"/>
<path d="M701.5 676.144C693.9 694.144 663.333 691.644 649 688.144L643.5 686.144V692.144L653.5 694.144C658.833 695.81 669.7 702.644 670.5 716.644C671.5 734.144 667 781.144 665 793.644C663.4 803.644 655.667 807.477 652 808.144C646.4 818.944 624 815.977 613.5 813.144C612.7 820.744 605.833 819.977 602.5 818.644C602.1 821.444 598 821.477 596 821.144C583.6 871.544 586.5 963.81 589.5 1003.64C588.833 1014.48 592.3 1035.54 611.5 1033.14C630.7 1030.74 664.5 1034.14 679 1036.14C702.6 1040.54 710.167 1025.64 711 1017.64C730.2 1024.44 741.333 1016.81 744.5 1012.14C738.9 846.144 713.5 718.977 701.5 676.144Z" fill="#2D374B"/>
<path d="M646.5 1033.14C646.5 1035.31 646 1040.04 644 1041.64C641.5 1043.64 596.5 1038.64 597.5 1061.14C597 1064.31 602 1069.14 614 1070.64C630.879 1072.75 679.26 1078.91 690.861 1057.64M697 1034.64L692.5 1053.64C692.087 1055.07 691.537 1056.41 690.861 1057.64M726.5 1020.14C728.574 1033.98 724.35 1060.84 690.861 1057.64" stroke="#2D374B" stroke-width="5" stroke-linecap="round"/>
<path d="M671 571.644C712 590.644 788.3 683.744 715.5 730.144" stroke="#2D374B" stroke-width="5" stroke-linecap="round"/>
<path d="M700 681.644C695 655.477 683.4 593.244 669 573.644C668.167 562.144 663.4 540.344 651 545.144C638.5 545.477 613.5 551.244 613.5 571.644V589.144M633 573.644C616 582.31 579.7 626.844 570.5 735.644C569.833 748.644 575.7 774.644 604.5 774.644C633.3 774.644 644.5 697.144 648 658.644" stroke="#2D374B" stroke-width="5" stroke-linecap="round"/>
<path d="M584 770.644C583.5 777.81 580.6 792.844 573 795.644C563.5 799.144 571.5 813.144 576.5 816.644M576.5 795.644C575.333 803.644 575.9 819.644 587.5 819.644M587.5 803.644C586.5 808.977 587.4 819.644 599 819.644M599 803.644C597.5 809.81 597.4 821.344 609 818.144M614 778.144C611.667 786.477 608.2 804.644 613 810.644" stroke="#2D374B" stroke-width="5" stroke-linecap="round"/>
<path d="M574 691.644C558.167 691.31 525.5 693.044 521.5 702.644C517.5 712.244 511.167 739.977 508.5 752.644C505 769.644 504.2 804.444 529 807.644C553.8 810.844 567.5 811.644 570.5 811.644" stroke="#2D374B" stroke-width="5" stroke-linecap="round"/>
<path d="M614 812.143C624.833 815.977 647.8 819.143 653 801.143C658.2 783.143 660.833 737.643 661.5 717.143C661.833 711.31 658.8 699.243 644 697.643M575.5 681.643C563.667 680.477 539.3 681.243 536.5 693.643M645.5 692.143C655.333 692.643 672 695.643 670.5 727.143C668.892 760.906 669 809.643 650.5 808.143" stroke="#2D374B" stroke-width="5" stroke-linecap="round"/>
<path d="M900.5 520.644C896.167 514.144 887.6 499.344 888 492.144C887.667 489.81 887.8 485.144 891 485.144C894.2 485.144 895.333 489.81 895.5 492.144" stroke="#2D374B" stroke-width="5" stroke-linecap="round"/>
<path d="M969 680.644C931 656.144 919.5 609.644 910.5 577.644C906.315 560.644 896.1 538.144 912.5 516.144C928.9 494.144 944 509.977 949.5 520.644L997.5 600.644M969 652.144C955.333 678.644 952 729.144 969 766.644M988.5 608.144C992.167 597.31 1003.9 576.644 1021.5 580.644C1039.1 584.644 1049.83 566.977 1053 557.644M1057.5 718.144C1067 743.977 1094.7 784.844 1129.5 741.644C1164.3 698.444 1112.67 609.977 1082.5 571.144" stroke="#2D374B" stroke-width="5" stroke-linecap="round"/>
<path d="M1056.5 717.644C1070.17 720.31 1100.3 721.144 1111.5 703.144" stroke="#2D374B" stroke-width="5" stroke-linecap="round"/>
<path d="M1053 557.644C1058 555.31 1069.2 556.244 1082 570.644" stroke="#2D374B" stroke-width="5" stroke-linecap="round"/>
<path d="M996 766.643L976 673.143C973.5 662.143 978.4 639.943 1018 639.143C1028.33 638.81 1048 632.143 1057.5 625.143C1066.84 618.262 1082 620.643 1083.5 630.643L1101.5 709.143" stroke="#2D374B" stroke-width="5" stroke-linecap="round"/>
<path d="M1055 717.144C1043.33 714.31 1022.6 711.644 1033 723.644C1043.4 735.644 1026.33 731.644 1016.5 728.144C1012.5 726.644 1004.5 725.044 1004.5 730.644C1004.5 732.571 1006.51 734.316 1009.5 735.831M1030 741.644C1024.42 740.769 1015.19 738.719 1009.5 735.831M1009.5 735.831C1005.89 737.648 1003.47 741.464 1012.67 745.644M1032 751.144C1022.81 749.331 1016.65 747.453 1012.67 745.644M1012.67 745.644C1009.75 748.379 1008.61 753.695 1022 756.62M1033 758.144C1028.55 757.785 1024.93 757.259 1022 756.62M1022 756.62C1022.83 761.628 1030 769.744 1052 762.144C1074 754.544 1077.83 751.644 1077 751.144" stroke="#2D374B" stroke-width="5" stroke-linecap="round"/>
<path d="M1028 989.144C979.2 979.944 966.667 834.977 966.5 763.644C991.7 770.844 1013.33 761.644 1021 756.144C1026.6 774.544 1060.67 761.477 1077 752.644C1093 769.144 1110.5 759.977 1117.5 752.644L1175 903.144C1180.17 919.477 1182.5 958.144 1150.5 982.144C1118.5 1006.14 1102.83 977.477 1099 960.144C1095.67 973.644 1076.8 998.344 1028 989.144Z" fill="#2D374B"/>
<path d="M1044.5 989.644C1048 996.644 1048.11 1009.81 1039 1016.64C1029 1024.14 1020.67 1032.64 1017 1039.14C1015.17 1043.98 1016.7 1052.64 1037.5 1048.64C1058.3 1044.64 1075.17 1033.98 1081 1029.14C1084 1026.48 1088.7 1018.24 1083.5 1006.64C1078.3 995.044 1075.67 987.81 1075 985.644" stroke="#2D374B" stroke-width="5"/>
<path d="M1146 986.498C1150.21 1004.87 1160.75 1043.55 1169.23 1045.48C1177.71 1047.41 1178.49 1031.78 1177.81 1023.72C1176.97 1012.28 1173.37 983.501 1165.69 967.644" stroke="#2D374B" stroke-width="5" stroke-linecap="round"/>
<path d="M1097.5 452.644C1131.5 489.844 1104.67 549.81 1087 575.144C1072.2 554.744 1057.5 554.31 1052 556.644L1044.5 542.644C1054.1 534.644 1060.83 516.644 1063 508.644C1067.83 511.31 1077.5 512.544 1077.5 496.144C1077.5 479.744 1069.17 485.31 1065 490.144L1049.5 494.144C1051.5 470.144 1031 458.81 1020.5 456.144C1019.83 465.144 1012.19 489.191 975 488.144C939.5 487.144 935.5 454.144 936.5 437.644C939.276 391.85 982.167 401.144 995 414.144C1020.5 389.144 1054 415.644 1061.5 434.144C1075.9 432.944 1091.5 445.977 1097.5 452.644Z" fill="#2D374B"/>
<path d="M969 551.644C963.8 541.244 970.167 533.31 974 530.644C987.2 555.844 1009.83 560.144 1019.5 559.144V580.644C1007.1 578.644 997.333 589.477 994 595.144C987.833 584.977 974.2 562.044 969 551.644Z" fill="#2D374B"/>
<path d="M963.5 482.644C962.5 509.977 973.9 563.444 1027.5 558.644C1037 557.144 1041.5 553.644 1046.5 544.144" stroke="#2D374B" stroke-width="5" stroke-linecap="round"/>
<path d="M1007.5 543.144C1009.67 545.31 1016.1 548.144 1024.5 542.144" stroke="#2D374B" stroke-width="5" stroke-linecap="round"/>
<path d="M1008.5 511.644C1005.33 519.477 1002.5 534.244 1016.5 530.644" stroke="#2D374B" stroke-width="5" stroke-linecap="round"/>
<path d="M1068 493.144C1069.83 494.477 1072.4 498.044 1068 501.644" stroke="#2D374B" stroke-width="5" stroke-linecap="round"/>
<path d="M1023.5 497.644C1026.17 496.31 1032.5 494.644 1036.5 498.644" stroke="#2D374B" stroke-width="5" stroke-linecap="round"/>
<path d="M978.5 501.644C980.667 500.144 986.1 498.444 990.5 503.644" stroke="#2D374B" stroke-width="5" stroke-linecap="round"/>
<path d="M999.5 503.644C999.5 513.563 992.319 521.144 984 521.144C975.681 521.144 968.5 513.563 968.5 503.644C968.5 493.724 975.681 486.144 984 486.144C992.319 486.144 999.5 493.724 999.5 503.644Z" stroke="#2D374B" stroke-width="5"/>
<path d="M1046.5 499.644C1046.5 510.906 1039.11 519.144 1031 519.144C1022.89 519.144 1015.5 510.906 1015.5 499.644C1015.5 488.382 1022.89 480.144 1031 480.144C1039.11 480.144 1046.5 488.382 1046.5 499.644Z" stroke="#2D374B" stroke-width="5"/>
<ellipse cx="984.5" cy="516.644" rx="5.5" ry="4" fill="#2D374B"/>
<ellipse cx="1030.5" cy="513.644" rx="5.5" ry="4" fill="#2D374B"/>
<path d="M999.5 501.144C1002.83 499.977 1010.5 498.244 1014.5 500.644" stroke="#2D374B" stroke-width="5" stroke-linecap="round"/>
<path d="M894.5 486.144C895.667 480.81 897.3 468.244 894.5 460.644C891.7 453.044 895.667 450.477 898 450.144C900.5 449.81 905.3 452.244 904.5 464.644" stroke="#2D374B" stroke-width="5" stroke-linecap="round"/>
<path d="M902 452.144C900.833 445.977 900.4 433.544 908 433.144C916.8 435.144 917.667 456.31 917 466.644" stroke="#2D374B" stroke-width="5" stroke-linecap="round"/>
<path d="M915.5 442.644C919.394 441.704 925.034 443.316 926.215 454.644M926 464.644C926.467 460.677 926.5 457.377 926.215 454.644M926.215 454.644C929.31 451.977 935.2 450.244 934 464.644C932.5 482.644 931 480.644 935 504.644" stroke="#2D374B" stroke-width="5" stroke-linecap="round"/>
<path d="M1097.5 915.144C1095.33 928.31 1094.4 959.744 1108 980.144" stroke="#2D374B" stroke-width="5" stroke-linecap="round"/>
</svg>
