<svg width="1299" height="810" viewBox="0 0 1299 810" fill="none" xmlns="http://www.w3.org/2000/svg">
<path d="M1085.85 630L1029.31 609.331C1028.52 609.042 1028 608.292 1028 607.452V553.255C1028 551.952 1029.22 550.997 1030.49 551.315L1030.63 551.351M1085.85 630V572.5M1085.85 630L1121.49 590.254C1121.82 589.887 1122 589.411 1122 588.918V537.471M1085.85 572.5L1030.63 551.351M1085.85 572.5L1122 537.471M1030.63 551.351L1065.84 515.944C1066.41 515.372 1067.27 515.198 1068.02 515.502L1122 537.471" stroke="#21325B" stroke-width="5" stroke-linecap="round"/>
<path d="M1191 585.158V631.508C1191 631.99 1191.17 632.456 1191.49 632.82L1217.72 663M1191 585.158L1217.72 611.323M1191 585.158L1238.13 576.21C1238.81 576.08 1239.52 576.317 1239.99 576.836L1264 603.474M1217.72 663V611.323M1217.72 663L1262.38 654.467C1263.32 654.287 1264 653.463 1264 652.503V603.474M1217.72 611.323L1264 603.474" stroke="#21325B" stroke-width="5" stroke-linecap="round"/>
<path d="M1198 485.591V526.978L1236.17 548M1198 485.591L1236.17 506.613M1198 485.591L1236.17 458L1275 479.679M1236.17 548V506.613M1236.17 548L1275 521.723V479.679M1236.17 506.613L1275 479.679" stroke="#21325B" stroke-width="5"/>
<path d="M1256.76 425L1235 458.393L1273.24 480L1295 446.607L1256.76 425Z" stroke="#21325B" stroke-width="5"/>
<path d="M1198 420L1206 438" stroke="#21325B" stroke-width="5" stroke-linecap="round"/>
<path d="M1170 430L1196 452" stroke="#21325B" stroke-width="5" stroke-linecap="round"/>
<path d="M1169 459L1185 468" stroke="#21325B" stroke-width="5" stroke-linecap="round"/>
<path d="M279.417 147.717C276.79 102.978 254.236 82.5824 243.288 77.9769C278.498 91.4768 308.759 74.8294 319.488 64.8183L326.057 83.8982C348.654 82.8455 349.486 51.8791 347.077 36.5274C343.361 12.842 312.788 -12.554 262.338 6.92064C211.889 26.3953 189.642 73.81 184.825 95.083C145.937 90.3459 109.939 124.251 96.8011 141.796C83.2253 159.999 62.5113 209.694 88.2615 262.855C120.449 329.305 214.785 293.048 227.523 283.908C271.535 252.328 282.702 203.641 279.417 147.717Z" fill="#21325B"/>
<path d="M349.5 129C349.5 136.643 347.679 143.44 344.864 148.242C342.015 153.103 338.442 155.5 335 155.5C331.558 155.5 327.985 153.103 325.136 148.242C322.321 143.44 320.5 136.643 320.5 129C320.5 121.357 322.321 114.56 325.136 109.758C327.985 104.897 331.558 102.5 335 102.5C338.442 102.5 342.015 104.897 344.864 109.758C347.679 114.56 349.5 121.357 349.5 129Z" stroke="#21325B" stroke-width="5"/>
<ellipse cx="336.5" cy="129.5" rx="2.5" ry="4.5" fill="#21325B"/>
<path d="M279 144L321 134" stroke="#21325B" stroke-width="5" stroke-linecap="round"/>
<path d="M330.421 84C334.998 90.5749 347.697 104.543 359.843 111.615C372.266 118.847 374.881 130.024 368.997 139.229L359.843 153.694C366.382 163.776 376.712 189.067 365.728 209.581M320.614 293.083C319.742 284.973 323.098 265.731 343.498 253.633M250 299V265.468" stroke="#21325B" stroke-width="5" stroke-linecap="round"/>
<circle cx="302.5" cy="181.5" r="2.5" fill="#21325B"/>
<ellipse cx="297" cy="205.5" rx="3" ry="2.5" fill="#21325B"/>
<path d="M327 217C328.522 220.683 333.652 228.44 342 230" stroke="#21325B" stroke-width="5" stroke-linecap="round"/>
<ellipse cx="318" cy="198.5" rx="3" ry="2.5" fill="#21325B"/>
<path d="M369.953 281.723L379.134 279.095C382.85 277.562 389.889 276.992 388.315 286.98C386.741 296.968 358.979 298.15 357.493 286.98C356.948 282.89 357.059 276.966 358.837 271.21M379.134 253.468C367.164 255.313 361.344 263.095 358.837 271.21M358.837 271.21C353.525 268.932 347.114 263.368 350.852 255.44M362.739 243.612C356.143 247.964 352.505 251.933 350.852 255.44M350.852 255.44C344.977 252.154 339.655 242.035 365.362 227.842M381.101 229.813C371.264 229.156 350.672 225.476 347 216.014C343.327 206.552 355.088 205.501 361.427 206.158C369.515 207.472 389.364 213.649 404.053 227.842C422.415 245.583 463.73 291.58 483.404 332.976C499.143 366.094 525.811 409.856 537.178 427.597C559.694 462.642 595.543 535.36 501.11 537.989C476.846 538.664 441.433 509.339 404.709 486.735" stroke="#21325B" stroke-width="5" stroke-linecap="round"/>
<path d="M149.981 651.233C150.418 668.232 143.297 703.423 111.319 708.191C79.341 712.96 39.4556 713.269 23.5102 712.828C13.2439 713.711 -4.5363 711.635 6.4726 696.27C17.4815 680.904 35.0868 678.388 42.5133 679.05C62.3905 680.375 102.014 673.619 101.49 636" stroke="#21325B" stroke-width="5" stroke-linecap="round"/>
<path d="M766 659C772.808 657.903 790.244 650.309 797.622 633.981C806.845 613.57 825.95 605.011 832.538 612.911C837.808 619.232 835.612 623.446 835.173 624.763" stroke="#21325B" stroke-width="5" stroke-linecap="round"/>
<path d="M583.191 645.183C505.256 639.953 473.924 615.549 468 604C480.506 722.319 797.118 694.863 789.878 681.136C784.085 670.154 775.616 662.615 772.105 660.218C718.13 626.226 680.61 651.72 583.191 645.183Z" fill="#21325B"/>
<path d="M312.763 793.788C219.855 779.155 189.377 724.686 193.336 698.265C215.772 763.979 362.26 771.432 423.619 724.686C468.807 690.26 470.029 623.066 467.17 598C479.047 634.583 504.95 643.453 541.734 660.327C572.748 674.554 695.262 672.07 754.869 667.102C784.563 664.627 812.096 686.165 794.461 745.01C768.066 833.081 428.898 812.08 312.763 793.788Z" fill="#21325B"/>
<path d="M388.646 281C394.777 294.138 407.17 329.347 407.696 365.081L361.713 309.246C353.611 300.05 331.627 284.416 308.504 295.451L246.099 302.02C197.051 374.715 97.6412 529.959 92.386 569.372C87.1309 608.785 98.0791 630.462 104.21 636.374C115.815 647.541 145.726 663.175 172.527 636.374C177.855 631.047 182.25 625.994 185.859 621.266M200.117 579.882C197.489 591.706 200.404 602.211 185.859 621.266M185.859 621.266C180.102 659.803 189.607 739.374 273.689 749.358C357.772 759.343 409.01 738.629 424.118 727.024C441.416 712.354 474.699 666.985 469.444 602.873L441.197 512.223" stroke="#21325B" stroke-width="5" stroke-linecap="round"/>
<path d="M810.31 664.182C806.645 684.091 800.055 691.033 795.255 692.997C803.11 730.326 788.055 759.796 773 767C783.909 765.69 809.786 760.844 826.02 751.938C842.253 743.031 849.366 725.96 850.893 718.538C854.166 700.419 860.319 658.812 858.748 637.331C857.177 615.851 843.257 620.086 836.493 624.889C829.292 629.691 813.976 644.273 810.31 664.182Z" stroke="#21325B" stroke-width="5"/>
<path d="M1236.5 460V486.429M1236.5 486.429L1221 497M1236.5 486.429L1252 495.018" stroke="#21325B" stroke-width="5" stroke-linecap="round"/>
</svg>
