<svg width="430" height="300" viewBox="0 0 430 300" fill="none" xmlns="http://www.w3.org/2000/svg">
<path d="M53.2856 3L137.286 72M79.7856 81L117.286 99M3.28564 131.5C44.2907 131.5 67.2806 131.5 108.286 131.5M76.2856 185.5L117.286 173M31.7856 260L137.286 202" stroke="#2D374B" stroke-width="5" stroke-linecap="round"/>
<path d="M269.286 135C269.286 158.131 264.096 178.948 255.832 193.894C247.519 208.927 236.438 217.5 224.786 217.5C213.133 217.5 202.052 208.927 193.739 193.894C185.475 178.948 180.286 158.131 180.286 135C180.286 111.869 185.475 91.0516 193.739 76.1057C202.052 61.0725 213.133 52.5 224.786 52.5C236.438 52.5 247.519 61.0725 255.832 76.1057C264.096 91.0516 269.286 111.869 269.286 135Z" stroke="#2D374B" stroke-width="5"/>
<ellipse cx="220.786" cy="135" rx="8" ry="15" fill="#2D374B"/>
<path d="M407.786 150C410.986 140.4 409.119 126.333 407.786 120.5L423.286 126C429.686 133.6 425.952 141.167 423.286 144L407.786 150Z" fill="#2D374B"/>
<path d="M423.286 126L225.286 52M238.286 213.5L423.286 144" stroke="#2D374B" stroke-width="5" stroke-linecap="round"/>
<path d="M220.286 123L266.286 108.5M220.286 147L266.286 163.5" stroke="#2D374B" stroke-width="5" stroke-linecap="round"/>
<path d="M342.286 272.5C330.786 275.5 321.786 271 320.286 268.5C319.845 271.694 317.924 282.082 319.786 289C320.742 292.552 323.572 294.822 326.286 295.5C329.024 296.185 332.963 295.486 335.286 292.5C339.749 286.761 341.738 275.789 342.286 272.5Z" fill="#2D374B"/>
<path d="M329.286 180L319.785 271C319.074 281.5 315.285 293 325.285 296C337.495 299.663 338.785 288.5 341.285 277L351.786 222L361.786 167.5" stroke="#2D374B" stroke-width="5" stroke-linecap="round"/>
<path d="M423.286 126C425.786 128.833 429.286 136.4 423.286 144" stroke="#2D374B" stroke-width="5" stroke-linecap="round"/>
<path d="M406.786 120C408.619 125.833 410.286 139 406.786 150" stroke="#2D374B" stroke-width="5" stroke-linecap="round"/>
</svg>
