<svg width="823" height="696" viewBox="0 0 823 696" fill="none" xmlns="http://www.w3.org/2000/svg">
<path d="M601.35 182.37L138.227 300.695L219.916 620.424L683.039 502.099L601.35 182.37Z" fill="white"/>
<path d="M590.89 200.008L155.864 311.155L230.374 602.787L665.4 491.641L590.89 200.008Z" stroke="#2D374B" stroke-width="3"/>
<path d="M621.679 204.227L156.725 315.14L233.297 636.133L698.251 525.22L621.679 204.227Z" fill="white"/>
<path d="M200.732 443.592L172.387 324.77L612.05 219.889L654.061 396M439.749 574.092L592.5 537.295L439.749 574.092ZM380.749 588.092L242.926 620.472L211.75 489.592L380.749 588.092ZM391.749 585.592L410.25 581.092L391.749 585.592ZM205.86 465.092L203.713 456.092L205.86 465.092Z" stroke="#2D374B" stroke-width="3" stroke-linecap="round"/>
<path d="M64.7925 270.878C60.4068 271.819 56.221 273.197 52.2629 274.926L54.3878 284.833C49.1124 287.369 44.3792 290.638 40.2511 294.564L31.7439 289.062C28.6636 292.212 25.9808 295.707 23.5973 299.393C21.2137 303.078 19.1259 306.958 17.5167 311.059L26.024 316.562C24.1366 321.937 23.0964 327.594 22.9467 333.446L13.04 335.571C13.0867 339.89 13.5458 344.273 14.4866 348.658C15.4273 353.044 16.8061 357.23 18.5349 361.188L28.4416 359.063C30.9781 364.338 34.2472 369.072 38.173 373.2L32.6707 381.707C35.8203 384.787 39.3159 387.47 43.0013 389.854C46.6866 392.237 50.5671 394.325 54.6681 395.934L60.1703 387.427C65.5452 389.314 71.2029 390.355 77.0545 390.504L79.1795 400.411C83.4984 400.364 87.8815 399.905 92.2672 398.964C96.6527 398.024 100.838 396.645 104.797 394.916L102.672 385.009C107.947 382.473 112.68 379.204 116.808 375.278L125.316 380.78C128.396 377.631 131.079 374.135 133.462 370.45C135.846 366.764 137.933 362.884 139.543 358.783L131.035 353.281C132.923 347.906 133.963 342.248 134.113 336.396L144.019 334.271C143.973 329.952 143.514 325.569 142.573 321.184C141.632 316.798 140.253 312.612 138.524 308.654L128.618 310.779C126.081 305.504 122.812 300.77 118.886 296.642L124.389 288.135C121.239 285.055 117.743 282.372 114.058 279.989C110.373 277.605 106.492 275.517 102.391 273.908L96.8893 282.415C91.5143 280.528 85.8567 279.488 80.0051 279.338L77.8801 269.431C73.5612 269.478 69.178 269.937 64.7925 270.878ZM71.6611 302.899C89.337 299.108 106.76 310.376 110.551 328.052C114.343 345.728 103.074 363.151 85.3985 366.943C67.7225 370.734 50.2997 359.466 46.5082 341.79C42.7167 324.114 53.9852 306.691 71.6611 302.899Z" fill="#2D374B"/>
<path d="M319.833 354.841C315.47 355.881 311.317 357.356 307.4 359.175L309.751 369.03C304.535 371.686 299.877 375.063 295.84 379.082L287.209 373.776C284.202 376.995 281.6 380.551 279.301 384.29C277.002 388.029 275.004 391.956 273.489 396.093L282.12 401.399C280.356 406.816 279.445 412.496 279.429 418.349L269.574 420.7C269.719 425.017 270.279 429.388 271.319 433.751C272.36 438.114 273.834 442.268 275.653 446.185L285.509 443.834C288.165 449.05 291.542 453.707 295.561 457.745L290.255 466.375C293.474 469.383 297.03 471.985 300.769 474.284C304.508 476.582 308.435 478.581 312.572 480.096L317.878 471.465C323.295 473.229 328.975 474.139 334.828 474.155L337.179 484.011C341.496 483.865 345.867 483.306 350.23 482.265C354.593 481.225 358.746 479.75 362.664 477.931L360.313 468.076C365.529 465.42 370.186 462.043 374.223 458.024L382.854 463.33C385.862 460.111 388.464 456.555 390.762 452.816C393.061 449.077 395.06 445.15 396.575 441.013L387.944 435.707C389.708 430.29 390.618 424.61 390.634 418.757L400.49 416.406C400.344 412.089 399.785 407.718 398.744 403.355C397.703 398.992 396.229 394.838 394.41 390.921L384.555 393.272C381.898 388.056 378.522 383.399 374.503 379.361L379.809 370.731C376.59 367.723 373.034 365.121 369.295 362.822C365.556 360.524 361.629 358.525 357.492 357.01L352.186 365.641C346.769 363.877 341.089 362.967 335.236 362.951L332.885 353.095C328.568 353.241 324.196 353.8 319.833 354.841ZM327.433 386.697C345.017 382.502 362.693 393.369 366.888 410.954C371.083 428.538 360.216 446.214 342.631 450.409C325.046 454.604 307.37 443.737 303.176 426.152C298.981 408.568 309.848 390.892 327.433 386.697Z" stroke="#2D374B" stroke-width="5" stroke-linecap="round" stroke-linejoin="round"/>
<path d="M354.843 500.487C352.745 500.988 350.748 501.697 348.864 502.571L349.994 507.311C347.486 508.589 345.246 510.212 343.305 512.145L339.154 509.593C337.708 511.142 336.456 512.852 335.351 514.65C334.245 516.448 333.284 518.337 332.556 520.326L336.706 522.878C335.858 525.483 335.42 528.214 335.413 531.03L330.673 532.16C330.743 534.236 331.012 536.338 331.512 538.437C332.013 540.535 332.722 542.532 333.596 544.416L338.336 543.286C339.614 545.794 341.237 548.034 343.17 549.975L340.619 554.126C342.167 555.572 343.877 556.824 345.675 557.929C347.473 559.035 349.362 559.996 351.351 560.724L353.903 556.574C356.508 557.422 359.24 557.86 362.055 557.868L363.185 562.607C365.261 562.537 367.363 562.268 369.462 561.768C371.56 561.267 373.557 560.558 375.441 559.684L374.311 554.944C376.819 553.666 379.059 552.043 381 550.11L385.151 552.662C386.597 551.113 387.849 549.403 388.954 547.605C390.06 545.807 391.021 543.918 391.749 541.929L387.599 539.377C388.447 536.772 388.885 534.041 388.893 531.226L393.632 530.095C393.562 528.019 393.293 525.917 392.793 523.818C392.292 521.72 391.583 519.723 390.709 517.839L385.969 518.969C384.691 516.461 383.068 514.221 381.135 512.28L383.687 508.129C382.138 506.683 380.428 505.431 378.63 504.326C376.832 503.22 374.943 502.259 372.954 501.531L370.402 505.681C367.797 504.833 365.066 504.395 362.251 504.387L361.12 499.648C359.044 499.718 356.942 499.987 354.843 500.487ZM358.498 515.807C366.955 513.79 375.455 519.016 377.473 527.473C379.49 535.93 374.264 544.43 365.807 546.448C357.35 548.465 348.85 543.239 346.832 534.782C344.815 526.325 350.041 517.825 358.498 515.807Z" stroke="#2D374B" stroke-opacity="0.7" stroke-width="3" stroke-linecap="round" stroke-linejoin="round"/>
<path d="M596.225 487.148L618.021 436.487C638.309 389.33 695.717 371.154 739.449 398.04C783.259 424.974 792.896 484.547 759.813 523.919L724.335 566.143C700.088 594.998 658.368 601.748 626.26 582.008C594.088 562.229 581.3 521.84 596.225 487.148Z" stroke="#2D374B" stroke-width="5"/>
<path d="M609.594 461.054L618.281 439.38C637.362 391.768 694.721 372.811 738.417 399.675C782.201 426.593 791.107 486.497 757.049 524.989L741.575 542.476C716.241 571.108 673.994 577.39 641.425 557.367C608.779 537.296 595.338 496.627 609.594 461.054Z" fill="#2D374B"/>
<path d="M338.575 433.166C346.902 431.179 352.042 422.819 350.055 414.492C348.069 406.165 339.708 401.026 331.382 403.012C323.055 404.998 317.915 413.359 319.901 421.685C321.888 430.012 330.248 435.152 338.575 433.166Z" stroke="#2D374B" stroke-width="2"/>
<path d="M340.198 439.975C352.285 437.091 359.746 424.955 356.863 412.868C353.979 400.781 341.843 393.32 329.756 396.203C317.669 399.086 310.208 411.222 313.091 423.31C315.974 435.397 328.11 442.858 340.198 439.975Z" stroke="#2D374B" stroke-width="2"/>
<path d="M312.42 317.066C312.292 316.529 311.752 316.197 311.215 316.325C310.678 316.453 310.346 316.993 310.475 317.53L312.42 317.066ZM371.268 572.379C371.396 572.916 371.936 573.248 372.473 573.12C373.01 572.992 373.342 572.452 373.214 571.915L371.268 572.379ZM310.475 317.53L311.856 323.322L313.802 322.858L312.42 317.066L310.475 317.53ZM314.62 334.906L317.383 346.49L319.328 346.026L316.565 334.442L314.62 334.906ZM320.146 358.074L322.91 369.658L324.855 369.194L322.092 357.61L320.146 358.074ZM325.673 381.242L328.436 392.826L330.382 392.362L327.618 380.778L325.673 381.242ZM331.2 404.41L333.963 415.994L335.908 415.53L333.145 403.946L331.2 404.41ZM336.726 427.578L339.49 439.162L341.435 438.698L338.672 427.114L336.726 427.578ZM342.253 450.747L345.016 462.331L346.962 461.867L344.198 450.282L342.253 450.747ZM347.78 473.915L350.543 485.499L352.488 485.035L349.725 473.451L347.78 473.915ZM353.306 497.083L356.07 508.667L358.015 508.203L355.252 496.619L353.306 497.083ZM358.833 520.251L361.596 531.835L363.542 531.371L360.778 519.787L358.833 520.251ZM364.36 543.419L367.123 555.003L369.068 554.539L366.305 542.955L364.36 543.419ZM369.886 566.587L371.268 572.379L373.214 571.915L371.832 566.123L369.886 566.587Z" fill="#2D374B" fill-opacity="0.3"/>
<path d="M421.917 284.777C421.789 284.24 421.25 283.908 420.712 284.037C420.175 284.165 419.843 284.704 419.972 285.241L421.917 284.777ZM463.13 466.165C463.259 466.702 463.798 467.034 464.335 466.906C464.872 466.777 465.204 466.238 465.076 465.701L463.13 466.165ZM419.972 285.241L421.32 290.895L423.266 290.431L421.917 284.777L419.972 285.241ZM424.018 302.203L426.715 313.511L428.661 313.047L425.963 301.739L424.018 302.203ZM429.413 324.818L432.11 336.126L434.055 335.662L431.358 324.354L429.413 324.818ZM434.807 347.434L437.505 358.741L439.45 358.277L436.753 346.97L434.807 347.434ZM440.202 370.049L442.9 381.357L444.845 380.893L442.148 369.585L440.202 370.049ZM445.597 392.665L448.295 403.972L450.24 403.508L447.543 392.201L445.597 392.665ZM450.992 415.28L453.689 426.588L455.635 426.124L452.937 414.816L450.992 415.28ZM456.387 437.896L459.084 449.203L461.03 448.739L458.332 437.431L456.387 437.896ZM461.782 460.511L463.13 466.165L465.076 465.701L463.727 460.047L461.782 460.511Z" fill="#2D374B" fill-opacity="0.3"/>
<path d="M488.221 273.862C488.093 273.325 487.553 272.993 487.016 273.122C486.479 273.25 486.147 273.789 486.275 274.326L488.221 273.862ZM535.467 480.54C535.595 481.077 536.135 481.409 536.672 481.281C537.209 481.153 537.541 480.613 537.412 480.076L535.467 480.54ZM486.275 274.326L487.642 280.054L489.587 279.59L488.221 273.862L486.275 274.326ZM490.375 291.511L493.108 302.967L495.053 302.503L492.32 291.047L490.375 291.511ZM495.84 314.423L498.573 325.88L500.519 325.416L497.786 313.959L495.84 314.423ZM501.306 337.336L504.039 348.792L505.984 348.328L503.252 336.872L501.306 337.336ZM506.772 360.249L509.505 371.705L511.45 371.241L508.717 359.785L506.772 360.249ZM512.238 383.161L514.971 394.618L516.916 394.154L514.183 382.697L512.238 383.161ZM517.703 406.074L520.436 417.53L522.382 417.066L519.649 405.61L517.703 406.074ZM523.169 428.987L525.902 440.443L527.847 439.979L525.115 428.523L523.169 428.987ZM528.635 451.899L531.368 463.356L533.313 462.892L530.58 451.435L528.635 451.899ZM534.101 474.812L535.467 480.54L537.412 480.076L536.046 474.348L534.101 474.812Z" fill="#2D374B" fill-opacity="0.3"/>
<path d="M560.238 278.511C560.11 277.973 559.571 277.642 559.034 277.77C558.496 277.898 558.165 278.438 558.293 278.975L560.238 278.511ZM597.507 443.362C597.635 443.899 598.175 444.231 598.712 444.103C599.249 443.975 599.581 443.435 599.452 442.898L597.507 443.362ZM558.293 278.975L559.693 284.846L561.639 284.382L560.238 278.511L558.293 278.975ZM562.494 296.588L565.295 308.33L567.241 307.866L564.44 296.124L562.494 296.588ZM568.096 320.072L570.897 331.814L572.843 331.349L570.042 319.608L568.096 320.072ZM573.698 343.556L576.499 355.297L578.445 354.833L575.644 343.091L573.698 343.556ZM579.3 367.039L582.102 378.781L584.047 378.317L581.246 366.575L579.3 367.039ZM584.903 390.523L587.704 402.265L589.649 401.801L586.848 390.059L584.903 390.523ZM590.505 414.007L593.306 425.749L595.251 425.285L592.45 413.543L590.505 414.007ZM596.107 437.491L597.507 443.362L599.452 442.898L598.052 437.027L596.107 437.491Z" fill="#2D374B" fill-opacity="0.3"/>
<path d="M300.243 546.144C299.705 546.272 299.374 546.811 299.502 547.348C299.63 547.885 300.169 548.217 300.707 548.089L300.243 546.144ZM420.35 519.548C420.887 519.42 421.218 518.881 421.09 518.344C420.962 517.806 420.423 517.475 419.886 517.603L420.35 519.548ZM300.707 548.089L306.689 546.662L306.225 544.716L300.243 546.144L300.707 548.089ZM318.653 543.808L330.617 540.954L330.153 539.008L318.189 541.862L318.653 543.808ZM342.582 538.1L354.546 535.246L354.082 533.3L342.118 536.154L342.582 538.1ZM366.51 532.392L378.475 529.538L378.011 527.592L366.046 530.446L366.51 532.392ZM390.439 526.684L402.403 523.83L401.939 521.884L389.975 524.738L390.439 526.684ZM414.367 520.975L420.35 519.548L419.886 517.603L413.903 519.03L414.367 520.975Z" fill="#2D374B" fill-opacity="0.3"/>
<path d="M238.077 440.69C237.539 440.819 237.208 441.358 237.336 441.895C237.464 442.432 238.003 442.764 238.541 442.636L238.077 440.69ZM606.224 354.926C606.761 354.798 607.093 354.258 606.965 353.721C606.836 353.184 606.297 352.852 605.76 352.981L606.224 354.926ZM238.541 442.636L244.286 441.265L243.822 439.32L238.077 440.69L238.541 442.636ZM255.776 438.524L267.266 435.783L266.802 433.838L255.312 436.579L255.776 438.524ZM278.756 433.043L290.246 430.302L289.782 428.356L278.292 431.097L278.756 433.043ZM301.736 427.561L313.226 424.82L312.762 422.874L301.272 425.615L301.736 427.561ZM324.716 422.079L336.207 419.338L335.742 417.392L324.252 420.133L324.716 422.079ZM347.697 416.597L359.187 413.856L358.723 411.911L347.233 414.652L347.697 416.597ZM370.677 411.115L382.167 408.374L381.703 406.429L370.213 409.17L370.677 411.115ZM393.657 405.633L405.147 402.892L404.683 400.947L393.193 403.688L393.657 405.633ZM416.637 400.151L428.127 397.41L427.663 395.465L416.173 398.206L416.637 400.151ZM439.617 394.67L451.108 391.929L450.643 389.983L439.153 392.724L439.617 394.67ZM462.598 389.188L474.088 386.447L473.624 384.501L462.134 387.242L462.598 389.188ZM485.578 383.706L497.068 380.965L496.604 379.019L485.114 381.76L485.578 383.706ZM508.558 378.224L520.048 375.483L519.584 373.538L508.094 376.279L508.558 378.224ZM531.538 372.742L543.028 370.001L542.564 368.056L531.074 370.797L531.538 372.742ZM554.518 367.26L566.009 364.519L565.544 362.574L554.054 365.315L554.518 367.26ZM577.499 361.778L588.989 359.037L588.525 357.092L577.035 359.833L577.499 361.778ZM600.479 356.296L606.224 354.926L605.76 352.981L600.015 354.351L600.479 356.296Z" fill="#2D374B" fill-opacity="0.3"/>
<path d="M303.491 559.762L316.136 556.745" stroke="#2D374B" stroke-width="3" stroke-linecap="round"/>
<path d="M439.804 514.908L523.457 494.953" stroke="#2D374B" stroke-width="3" stroke-linecap="round"/>
<path d="M442.588 526.58L519.432 508.249" stroke="#2D374B" stroke-width="3" stroke-linecap="round"/>
<path d="M444.213 533.389L486.039 523.412" stroke="#2D374B" stroke-width="3" stroke-linecap="round"/>
<path d="M305.115 566.57L331.378 560.305" stroke="#2D374B" stroke-width="3" stroke-linecap="round"/>
<path d="M454.959 358.215L469.032 335.325" stroke="#2D374B" stroke-opacity="0.6" stroke-width="3" stroke-linecap="round"/>
<path d="M447.629 396.871L500.217 311.334" stroke="#2D374B" stroke-opacity="0.6" stroke-width="3" stroke-linecap="round"/>
<path d="M511 321L493.484 349.014M460.419 402.797L477.5 375L460.419 402.797Z" stroke="#2D374B" stroke-opacity="0.6" stroke-width="3" stroke-linecap="round"/>
<path d="M526.291 322.384L513.484 343.215M470 413.944L483.117 392.61L470 413.944Z" stroke="#2D374B" stroke-opacity="0.6" stroke-width="3" stroke-linecap="round"/>
<path d="M543.5 320.5L527 348M475.383 431.918L493.079 403.135L475.383 431.918Z" stroke="#2D374B" stroke-opacity="0.6" stroke-width="3" stroke-linecap="round"/>
<path d="M550.5 337L538 356.5M492.494 430.817L505.709 409.324L492.494 430.817Z" stroke="#2D374B" stroke-opacity="0.6" stroke-width="3" stroke-linecap="round"/>
<path d="M558 350L543.5 374.5M508.124 432.125L521.888 409.463L508.124 432.125Z" stroke="#2D374B" stroke-opacity="0.6" stroke-width="3" stroke-linecap="round"/>
<path d="M519.31 440.663L572 354" stroke="#2D374B" stroke-opacity="0.6" stroke-width="3" stroke-linecap="round"/>
<path d="M549.013 419.081L565 393" stroke="#2D374B" stroke-opacity="0.6" stroke-width="3" stroke-linecap="round"/>
<path d="M495.253 313.124C490.89 314.165 486.737 315.639 482.82 317.458L485.171 327.314C479.955 329.97 475.297 333.347 471.26 337.366L462.629 332.06C459.622 335.279 457.02 338.835 454.721 342.574C452.422 346.313 450.424 350.24 448.909 354.377L457.54 359.683C455.776 365.099 454.865 370.779 454.849 376.633L444.994 378.984C445.139 383.301 445.699 387.672 446.739 392.035C447.78 396.398 449.254 400.551 451.073 404.469L460.929 402.118C463.585 407.334 466.962 411.991 470.981 416.028L465.675 424.659C468.894 427.667 472.45 430.269 476.189 432.567C479.928 434.866 483.855 436.865 487.992 438.38L493.298 429.749C498.714 431.513 504.394 432.423 510.248 432.439L512.599 442.295C516.916 442.149 521.287 441.59 525.65 440.549C530.013 439.508 534.166 438.034 538.084 436.215L535.733 426.36C540.949 423.703 545.606 420.327 549.643 416.308L558.274 421.614C561.282 418.395 563.884 414.839 566.182 411.1C568.481 407.361 570.48 403.434 571.995 399.297L563.364 393.991C565.128 388.574 566.038 382.894 566.054 377.04L575.91 374.689C575.764 370.373 575.205 366.001 574.164 361.638C573.123 357.275 571.649 353.122 569.83 349.205L559.975 351.556C557.318 346.34 553.942 341.682 549.923 337.645L555.229 329.014C552.01 326.007 548.454 323.405 544.715 321.106C540.976 318.807 537.049 316.809 532.912 315.294L527.606 323.925C522.189 322.161 516.509 321.25 510.656 321.234L508.305 311.379C503.988 311.524 499.616 312.084 495.253 313.124ZM502.853 344.981C520.437 340.786 538.113 351.653 542.308 369.237C546.503 386.822 535.635 404.498 518.051 408.693C500.466 412.888 482.79 402.02 478.596 384.436C474.401 366.851 485.268 349.175 502.853 344.981Z" stroke="#2D374B" stroke-width="5" stroke-linecap="round" stroke-linejoin="round"/>
<path d="M218.988 377.906L365.381 342.984" stroke="#2D374B" stroke-opacity="0.3" stroke-width="3" stroke-linecap="round"/>
<path d="M304.459 492.707L394.921 471.128" stroke="#2D374B" stroke-opacity="0.3" stroke-width="3" stroke-linecap="round"/>
<path d="M422.643 464.515L570.008 429.361" stroke="#2D374B" stroke-opacity="0.3" stroke-width="3" stroke-linecap="round"/>
<path d="M452.553 322.704L542.042 301.356" stroke="#2D374B" stroke-opacity="0.3" stroke-width="3" stroke-linecap="round"/>
<path d="M427.224 584.326C425.058 582.992 422.225 577.526 420.225 570.326C418.225 563.126 407.725 556.992 402.725 554.826C400.058 553.659 394.725 553.026 394.725 559.826C394.724 565.826 409.425 571.026 410.225 579.826C411.025 588.626 410.558 592.492 410.225 593.326C409.391 594.992 406.425 597.026 401.225 591.826C396.025 586.626 389.224 585.326 385.725 586.326C382.725 587.326 378.525 590.726 385.725 596.326C391.074 600.486 408.624 608.226 424.224 627.826M457.225 601.326C453.225 596.826 448.724 590.326 447.724 583.326C447.036 578.508 441.891 575.159 438.724 575.326L457.225 601.326ZM439.225 583.326C439.225 579.659 439.524 572.426 430.724 572.826L439.225 583.326ZM432.725 579.826C431.391 575.992 427.615 568.726 420.815 572.326L432.725 579.826Z" stroke="#2D374B" stroke-width="5" stroke-linecap="round"/>
<path d="M582.749 693.092C543.052 655.341 488.462 614.214 464.201 596.973C463.181 596.249 461.769 596.639 461.164 597.734C454.028 610.632 436.857 622.396 427.027 627.867C425.881 628.504 425.599 630.032 426.485 630.998C439.902 645.62 468.826 674.82 490.249 688.592" stroke="#2D374B" stroke-width="5" stroke-linecap="round"/>
<path d="M178.865 553.515L169.256 578.723L150.25 622.092" stroke="#2D374B" stroke-width="5" stroke-linecap="round"/>
<path d="M178.865 553.516C170.937 548.112 147.55 536.883 116.883 534.275" stroke="#2D374B" stroke-width="5" stroke-linecap="round"/>
<path d="M116.82 534.73C114.802 544.178 110.168 564.592 102.749 577.092C91.9157 595.344 66.849 632.992 57.249 646.592" stroke="#2D374B" stroke-width="5" stroke-linecap="round"/>
<path d="M131.175 506.344C131.175 511.618 129.977 524.112 126.319 534.524M171.346 547.188C178.663 538.182 191.889 524.112 197.236 514.262L205.96 499.347C211.87 489.852 214.399 482.112 216.658 477.915C217.661 476.05 218.286 474.633 219.676 471.86C220.938 469.344 222.048 466.803 221.167 464.718C220.493 463.122 217.68 460.328 211.821 461.923C205.963 463.518 201.967 468.465 200.702 470.74C199.434 472.624 193.932 479.453 192.425 480.952C188.923 484.435 171.671 498.875 160.912 490.415L171.346 547.188ZM158.819 476.431C167.75 471.709 185.099 463.196 191.142 457.352C197.349 456.15 212.677 458.158 211.131 449.928C210.808 448.213 205.411 443.96 197.389 442.517C191.616 441.478 187.429 441.073 182.633 443.65C179.914 445.111 178.836 445.63 175.325 447.962L158.819 476.431ZM158.487 460.519C163.118 456.149 166.429 453.651 168.715 452.08C170.94 450.55 172.6 449.162 175.325 447.962L158.487 460.519ZM175.325 447.962C173.869 447.169 167.574 447.221 160.153 450.896C152.047 454.911 150.662 456.431 147.523 458.502C144.384 460.573 138.106 464.715 135.648 466.714C131.299 470.25 127.337 474.235 125.772 476.245C123.018 480.499 124.553 483.717 128.693 491.638L175.325 447.962Z" stroke="#2D374B" stroke-width="5" stroke-linecap="round"/>
<path d="M213.569 461.216L226.626 454.156L220.443 444.269L211.603 448.734M203.748 466.716L133.143 505.293C124.612 508.63 118.679 496.937 127.629 492.99L158.77 476.387L203.748 466.716Z" stroke="#2D374B" stroke-width="5" stroke-linecap="round"/>
<path d="M228.387 453.198L235.749 442.303" stroke="#2D374B" stroke-width="5" stroke-linecap="round"/>
<path d="M222.196 443.349L235.749 442.303" stroke="#2D374B" stroke-width="5" stroke-linecap="round"/>
<path d="M288.385 108.074C288.32 106.516 289.984 105.486 291.349 106.239L297.489 109.623C298.829 110.362 298.877 112.27 297.576 113.075L291.729 116.695C290.428 117.501 288.742 116.607 288.678 115.078L288.385 108.074Z" fill="#2D374B"/>
<path d="M466.498 117.688C468.144 117.589 469.195 119.411 468.287 120.786L464.266 126.877C463.447 128.117 461.608 128.062 460.865 126.775L457.601 121.121C456.858 119.834 457.729 118.214 459.213 118.125L466.498 117.688Z" fill="#2D374B"/>
<path d="M337.846 211.316C323.867 195.262 286.225 133.496 267.799 102.337C267.242 101.394 267.562 100.203 268.498 99.6353L427.364 3.26236C428.39 2.63995 429.724 3.04484 430.225 4.13537C449.295 45.6593 481.518 96.6466 496.593 118.966C497.244 119.93 496.935 121.233 495.928 121.815L340.269 211.684C339.463 212.15 338.458 212.018 337.846 211.316Z" stroke="#2D374B" stroke-width="5" stroke-linecap="round"/>
<path d="M294.472 114.573L341.624 190.196C342.194 191.111 343.387 191.409 344.321 190.87L460.349 123.881" stroke="#2D374B" stroke-width="5" stroke-linecap="round"/>
<path d="M342.936 190.515L333.74 129.802C333.52 128.346 334.895 127.159 336.303 127.59L366.71 136.895C368.092 137.319 369.453 136.18 369.281 134.744L362.443 77.8854C362.348 77.0904 362.736 76.315 363.429 75.9146L383.434 64.3646C384.065 64.0006 384.843 64.0079 385.467 64.3837L435.231 94.375" stroke="#2D374B" stroke-width="5" stroke-linecap="round"/>
<path d="M336.22 130.883C338.133 129.779 338.677 127.138 337.434 124.986C336.191 122.834 333.633 121.984 331.72 123.089C329.807 124.193 329.263 126.834 330.506 128.986C331.749 131.138 334.307 131.988 336.22 130.883Z" fill="#2D374B"/>
<path d="M371.738 140.4C373.651 139.296 374.195 136.655 372.952 134.503C371.709 132.351 369.151 131.501 367.238 132.606C365.325 133.711 364.781 136.351 366.024 138.503C367.267 140.655 369.825 141.505 371.738 140.4Z" fill="#2D374B"/>
<path d="M365.022 80.7688C366.935 79.6643 367.479 77.024 366.236 74.8717C364.994 72.7194 362.435 71.87 360.522 72.9746C358.609 74.0792 358.065 76.7194 359.308 78.8717C360.551 81.024 363.109 81.8734 365.022 80.7688Z" fill="#2D374B"/>
<path d="M387.538 67.7688C389.451 66.6643 389.995 64.024 388.752 61.8717C387.509 59.7194 384.951 58.87 383.038 59.9746C381.125 61.0792 380.581 63.7194 381.824 65.8717C383.066 68.024 385.625 68.8734 387.538 67.7688Z" fill="#2D374B"/>
<path d="M357.019 163.909C359.172 162.667 360.021 160.108 358.916 158.195C357.812 156.282 355.172 155.738 353.019 156.981C350.867 158.224 350.018 160.782 351.122 162.695C352.227 164.608 354.867 165.152 357.019 163.909Z" fill="#2D374B"/>
<path d="M438.654 98.302C440.567 97.1975 441.111 94.5572 439.868 92.4049C438.626 90.2526 436.067 89.4032 434.154 90.5078C432.241 91.6124 431.697 94.2526 432.94 96.4049C434.183 98.5572 436.741 99.4066 438.654 98.302Z" fill="#2D374B"/>
<path d="M425.587 74.6692C427.739 73.4266 428.477 70.6744 427.234 68.5221C425.992 66.3698 423.239 65.6324 421.087 66.875C418.935 68.1176 418.197 70.8698 419.44 73.0221C420.683 75.1744 423.435 75.9119 425.587 74.6692Z" fill="#2D374B"/>
<path d="M379.821 103.401C381.973 102.159 382.823 99.6004 381.718 97.6872C380.613 95.7741 377.973 95.2305 375.821 96.4731C373.669 97.7158 372.819 100.274 373.924 102.187C375.028 104.1 377.669 104.644 379.821 103.401Z" fill="#2D374B"/>
<path d="M421.038 125.792C422.951 124.688 423.495 122.047 422.252 119.895C421.009 117.743 418.451 116.893 416.538 117.998C414.625 119.103 414.081 121.743 415.324 123.895C416.566 126.047 419.125 126.897 421.038 125.792Z" fill="#2D374B"/>
<path d="M343.436 191.381L354.593 162.195C354.873 161.463 355.554 160.962 356.336 160.913L383.288 159.22C384.462 159.146 385.319 158.081 385.139 156.918L376.605 101.745C376.347 100.073 378.151 98.8555 379.604 99.7204L416.936 121.934C418.228 122.703 419.875 121.825 419.956 120.324L422.653 70.5894" stroke="#2D374B" stroke-width="5" stroke-linecap="round"/>
<path d="M386.469 161.917C388.382 160.812 389.038 158.366 387.933 156.453C386.829 154.54 384.382 153.884 382.469 154.989C380.556 156.093 379.9 158.54 381.005 160.453C382.109 162.366 384.556 163.022 386.469 161.917Z" fill="#2D374B"/>
<path d="M254.512 236.008L252.418 100.506L251.673 64.0472C251.65 62.9268 252.552 62.0063 253.672 62.0063H271.631H294.722C295.791 62.0063 296.67 62.8462 296.72 63.9136L298.418 100.508L304.817 233.171C304.872 234.312 303.962 235.267 302.819 235.267H275.385C276.83 250.331 255.435 253.246 254.512 236.008Z" fill="white"/>
<path d="M275.385 235.267H302.819C303.962 235.267 304.872 234.312 304.817 233.171L298.418 100.508L296.72 63.9136C296.67 62.8462 295.791 62.0063 294.722 62.0063H271.631M275.385 235.267C276.83 250.331 255.435 253.246 254.512 236.008L252.418 100.506L251.673 64.0472C251.65 62.9268 252.552 62.0063 253.672 62.0063H271.631L275.385 235.267ZM275.385 235.267L272.918 100.508L271.631 62.0063L275.385 235.267Z" stroke="#2D374B" stroke-width="5" stroke-linecap="round"/>
</svg>
