<svg width="588" height="319" viewBox="0 0 588 319" fill="none" xmlns="http://www.w3.org/2000/svg">
<path d="M4 213.459C54.7956 223.875 30.9771 293.782 68.2065 312.385C112.642 334.59 127.943 209.57 122.161 156.505C120.504 133.238 93.4028 122.889 89.7468 156.505C85.8633 192.213 130.186 330.678 180.982 277.248L214.898 238.02C224.322 226.412 242.9 210.285 258.6 238.02C274.299 265.754 299.315 256.589 309.861 248.539L343 224.443" stroke="#53C2AD" stroke-width="7" stroke-linecap="round"/>
<path d="M359 106.5L291 75.5L588 0L359 106.5Z" fill="#2FB59E"/>
<path d="M588 0L369 207L407.35 128.31L588 0Z" fill="#015B4A"/>
<path d="M487.723 197L407.5 128.5L588 0L487.723 197Z" fill="#2FB59E"/>
<path d="M369 207L359 106.5L588 0L407.5 128.5L369 207Z" fill="#077C76"/>
</svg>
