<svg width="100" height="96" viewBox="0 0 100 96" fill="none" xmlns="http://www.w3.org/2000/svg">
<g clip-path="url(#clip0)">
<path d="M99.4012 37.7246C100.599 36.5269 100 34.1317 98.2036 34.1317L67.6646 29.9401C67.0658 29.9401 66.467 29.9401 65.8682 28.7425L52.0958 0.598802C51.497 0 50.8982 0 50.2994 0V80.2395C50.2994 80.2395 50.8982 80.2395 51.497 80.2395L79.6407 94.012C80.8383 94.6108 83.2335 93.4132 82.6347 91.6168L77.2455 61.0778C77.2455 60.479 77.2455 59.8802 77.8443 59.2814L99.4012 37.7246Z" fill="#dce0e5"/>
<path d="M50.2994 0C49.1018 0 48.503 0.598802 47.9042 0.598802L34.1317 29.9401C33.5329 29.9401 32.9341 30.5389 32.3353 30.5389L1.79638 34.7305C-2.95119e-05 34.7305 -0.598832 37.7245 0.598773 38.9222L23.3533 59.8802C23.9521 60.479 23.9521 61.6766 23.9521 61.6766L18.5628 92.2156C17.964 94.6108 19.7604 95.8084 21.5569 94.6108L49.1018 80.2395H49.7006V0H50.2994Z" fill="#0abf53"/>
</g>
<defs>
<clipPath id="clip0">
<rect width="100" height="95.2096" fill="white"/>
</clipPath>
</defs>
</svg>
