<svg width="100" height="96" viewBox="0 0 100 96" fill="none" xmlns="http://www.w3.org/2000/svg">
<g clip-path="url(#clip0)">
<path d="M52.0958 1.19814L65.8682 29.3418C66.467 29.9407 67.0658 30.5395 67.6646 30.5395L98.2036 34.7311C100 34.7311 100.599 37.1263 99.4012 38.3239L77.2455 59.8808C76.6467 60.4796 76.6467 61.0784 76.6467 61.6772L82.0359 92.2161C82.6347 94.0125 80.2395 95.2101 79.0419 94.6113L50.8982 80.8388C50.2994 80.8388 49.7006 80.8388 49.1018 80.8388L21.5569 95.2101C19.7604 95.8089 17.964 94.6113 18.5628 92.8149L23.9521 62.276C23.9521 61.6772 23.9521 61.0784 23.3533 60.4796L0.598773 38.3239C-0.598832 37.1263 -2.95119e-05 35.3299 1.79638 35.3299L32.3353 31.1383C32.9341 31.1383 33.5329 30.5395 34.1317 29.9407L47.9042 1.19814C49.1018 -0.598272 51.497 -0.598272 52.0958 1.19814Z" fill="#0abf53"/>
</g>
<defs>
<clipPath id="clip0">
<rect width="100" height="95.2096" fill="white"/>
</clipPath>
</defs>
</svg>
